<svg xmlns="http://www.w3.org/2000/svg" width="560" height="560"><rect width="560" height="560" fill="#0b0e13"/><circle cx="237.8" cy="217.1" r="10.7" fill="#1e3a5f" opacity="0.26"/><circle cx="205.9" cy="237.9" r="10.7" fill="#1e3a5f" opacity="0.26"/><circle cx="234.0" cy="246.2" r="10.7" fill="#1e3a5f" opacity="0.26"/><circle cx="205.5" cy="204.3" r="10.7" fill="#1e3a5f" opacity="0.26"/><circle cx="200.8" cy="175.2" r="10.7" fill="#1e3a5f" opacity="0.26"/><circle cx="201.5" cy="217.8" r="10.7" fill="#1e3a5f" opacity="0.26"/><circle cx="218.2" cy="249.3" r="10.7" fill="#1e3a5f" opacity="0.26"/><circle cx="-45.6" cy="362.6" r="10.7" fill="#1e3a5f" opacity="0.26"/><circle cx="219.3" cy="144.7" r="10.7" fill="#1e3a5f" opacity="0.26"/><circle cx="210.2" cy="152.9" r="10.7" fill="#1e3a5f" opacity="0.26"/><circle cx="261.7" cy="217.5" r="10.7" fill="#1e3a5f" opacity="0.26"/><circle cx="199.0" cy="226.4" r="10.7" fill="#1e3a5f" opacity="0.26"/><circle cx="225.3" cy="220.5" r="10.7" fill="#1e3a5f" opacity="0.26"/><circle cx="217.7" cy="214.3" r="10.7" fill="#1e3a5f" opacity="0.26"/><circle cx="-74.1" cy="368.9" r="10.7" fill="#1e3a5f" opacity="0.26"/><circle cx="247.8" cy="198.8" r="10.7" fill="#1e3a5f" opacity="0.26"/><circle cx="235.2" cy="147.7" r="10.7" fill="#1e3a5f" opacity="0.26"/><circle cx="219.6" cy="242.8" r="10.7" fill="#1e3a5f" opacity="0.26"/><circle cx="233.5" cy="158.0" r="10.7" fill="#1e3a5f" opacity="0.26"/><circle cx="256.2" cy="209.9" r="10.7" fill="#1e3a5f" opacity="0.26"/><circle cx="-101.0" cy="312.2" r="10.7" fill="#1e3a5f" opacity="0.26"/><circle cx="336.5" cy="30.9" r="10.7" fill="#1e3a5f" opacity="0.26"/><circle cx="-44.7" cy="-76.8" r="10.7" fill="#1e3a5f" opacity="0.26"/><circle cx="239.8" cy="243.7" r="10.7" fill="#1e3a5f" opacity="0.26"/><circle cx="253.5" cy="229.7" r="10.7" fill="#1e3a5f" opacity="0.26"/><circle cx="195.3" cy="202.9" r="10.7" fill="#1e3a5f" opacity="0.26"/><circle cx="196.8" cy="233.1" r="10.7" fill="#1e3a5f" opacity="0.26"/><circle cx="188.5" cy="198.0" r="10.7" fill="#1e3a5f" opacity="0.26"/><circle cx="197.3" cy="212.9" r="10.7" fill="#1e3a5f" opacity="0.26"/><circle cx="220.0" cy="182.3" r="10.7" fill="#1e3a5f" opacity="0.26"/><circle cx="343.8" cy="363.0" r="10.7" fill="#1e3a5f" opacity="0.26"/><circle cx="260.0" cy="226.4" r="10.7" fill="#1e3a5f" opacity="0.26"/><circle cx="190.2" cy="189.4" r="10.7" fill="#1e3a5f" opacity="0.26"/><circle cx="171.3" cy="227.8" r="10.7" fill="#1e3a5f" opacity="0.26"/><circle cx="246.0" cy="239.0" r="10.7" fill="#1e3a5f" opacity="0.26"/><circle cx="-49.5" cy="-60.0" r="10.7" fill="#1e3a5f" opacity="0.26"/><circle cx="195.8" cy="187.5" r="10.7" fill="#1e3a5f" opacity="0.26"/><circle cx="198.9" cy="240.6" r="10.7" fill="#1e3a5f" opacity="0.26"/><circle cx="328.4" cy="344.1" r="10.7" fill="#1e3a5f" opacity="0.26"/><circle cx="279.0" cy="200.2" r="10.7" fill="#1e3a5f" opacity="0.26"/><circle cx="257.8" cy="189.3" r="10.7" fill="#1e3a5f" opacity="0.26"/><circle cx="215.5" cy="262.3" r="10.7" fill="#1e3a5f" opacity="0.26"/><circle cx="311.5" cy="372.8" r="10.7" fill="#1e3a5f" opacity="0.26"/><circle cx="205.2" cy="260.9" r="10.7" fill="#1e3a5f" opacity="0.26"/><circle cx="246.8" cy="163.4" r="10.7" fill="#1e3a5f" opacity="0.26"/><circle cx="-94.1" cy="-73.4" r="10.7" fill="#1e3a5f" opacity="0.26"/><circle cx="356.1" cy="347.6" r="10.7" fill="#1e3a5f" opacity="0.26"/><circle cx="-55.0" cy="-89.6" r="10.7" fill="#1e3a5f" opacity="0.26"/><circle cx="205.3" cy="212.8" r="10.7" fill="#1e3a5f" opacity="0.26"/><circle cx="235.1" cy="223.3" r="10.7" fill="#1e3a5f" opacity="0.26"/><circle cx="199.6" cy="168.3" r="10.7" fill="#1e3a5f" opacity="0.26"/><circle cx="199.4" cy="182.3" r="10.7" fill="#1e3a5f" opacity="0.26"/><circle cx="191.5" cy="251.8" r="10.7" fill="#1e3a5f" opacity="0.26"/><circle cx="237.4" cy="192.1" r="10.7" fill="#1e3a5f" opacity="0.26"/><circle cx="232.1" cy="205.6" r="10.7" fill="#1e3a5f" opacity="0.26"/><circle cx="226.1" cy="201.1" r="10.7" fill="#1e3a5f" opacity="0.26"/><circle cx="249.5" cy="223.4" r="10.7" fill="#1e3a5f" opacity="0.26"/><circle cx="226.3" cy="180.0" r="10.7" fill="#1e3a5f" opacity="0.26"/><circle cx="238.5" cy="204.9" r="10.7" fill="#1e3a5f" opacity="0.26"/><circle cx="238.2" cy="165.8" r="10.7" fill="#1e3a5f" opacity="0.26"/><circle cx="200.6" cy="207.4" r="10.7" fill="#1e3a5f" opacity="0.26"/><circle cx="204.1" cy="160.2" r="10.7" fill="#1e3a5f" opacity="0.26"/><circle cx="360.7" cy="355.6" r="10.7" fill="#1e3a5f" opacity="0.26"/><circle cx="-97.9" cy="339.9" r="10.7" fill="#1e3a5f" opacity="0.26"/><circle cx="253.8" cy="218.5" r="10.7" fill="#1e3a5f" opacity="0.26"/><circle cx="239.5" cy="228.9" r="10.7" fill="#1e3a5f" opacity="0.26"/><circle cx="221.8" cy="193.4" r="10.7" fill="#1e3a5f" opacity="0.26"/><circle cx="242.8" cy="224.1" r="10.7" fill="#1e3a5f" opacity="0.26"/><circle cx="212.6" cy="200.2" r="10.7" fill="#1e3a5f" opacity="0.26"/><circle cx="-56.3" cy="333.7" r="10.7" fill="#1e3a5f" opacity="0.26"/><circle cx="-64.1" cy="-85.2" r="10.7" fill="#1e3a5f" opacity="0.26"/><circle cx="354.5" cy="364.1" r="10.7" fill="#1e3a5f" opacity="0.26"/><circle cx="-65.8" cy="-71.8" r="10.7" fill="#1e3a5f" opacity="0.26"/><circle cx="218.9" cy="167.7" r="10.7" fill="#1e3a5f" opacity="0.26"/><circle cx="181.0" cy="189.0" r="10.7" fill="#1e3a5f" opacity="0.26"/><circle cx="207.6" cy="198.2" r="10.7" fill="#1e3a5f" opacity="0.26"/><circle cx="210.3" cy="217.5" r="10.7" fill="#1e3a5f" opacity="0.26"/><circle cx="341.7" cy="-90.6" r="10.7" fill="#1e3a5f" opacity="0.26"/><circle cx="191.8" cy="214.8" r="10.7" fill="#1e3a5f" opacity="0.26"/><circle cx="244.6" cy="217.2" r="10.7" fill="#1e3a5f" opacity="0.26"/><circle cx="217.1" cy="188.2" r="10.7" fill="#1e3a5f" opacity="0.26"/><circle cx="-62.4" cy="-52.2" r="10.7" fill="#1e3a5f" opacity="0.26"/><circle cx="178.5" cy="244.3" r="10.7" fill="#1e3a5f" opacity="0.26"/><circle cx="183.0" cy="195.7" r="10.7" fill="#1e3a5f" opacity="0.26"/><circle cx="342.4" cy="328.7" r="10.7" fill="#1e3a5f" opacity="0.26"/><circle cx="244.9" cy="192.1" r="10.7" fill="#1e3a5f" opacity="0.26"/><circle cx="211.0" cy="173.2" r="10.7" fill="#1e3a5f" opacity="0.26"/><circle cx="209.8" cy="192.3" r="10.7" fill="#1e3a5f" opacity="0.26"/><circle cx="221.2" cy="224.6" r="10.7" fill="#1e3a5f" opacity="0.26"/><circle cx="-87.6" cy="366.7" r="10.7" fill="#1e3a5f" opacity="0.26"/><circle cx="-69.7" cy="-61.9" r="10.7" fill="#1e3a5f" opacity="0.26"/><circle cx="271.3" cy="176.0" r="10.7" fill="#1e3a5f" opacity="0.26"/><circle cx="172.5" cy="236.8" r="10.7" fill="#1e3a5f" opacity="0.26"/><circle cx="-73.1" cy="354.7" r="10.7" fill="#1e3a5f" opacity="0.26"/><circle cx="-100.9" cy="361.6" r="10.7" fill="#1e3a5f" opacity="0.26"/><circle cx="194.6" cy="162.7" r="10.7" fill="#1e3a5f" opacity="0.26"/><circle cx="201.8" cy="147.4" r="10.7" fill="#1e3a5f" opacity="0.26"/><circle cx="201.7" cy="193.0" r="10.7" fill="#1e3a5f" opacity="0.26"/><circle cx="-72.9" cy="-90.5" r="10.7" fill="#1e3a5f" opacity="0.26"/><circle cx="266.0" cy="197.0" r="10.7" fill="#1e3a5f" opacity="0.26"/><circle cx="179.9" cy="234.4" r="10.7" fill="#1e3a5f" opacity="0.26"/><circle cx="234.4" cy="198.6" r="10.7" fill="#1e3a5f" opacity="0.26"/><circle cx="187.8" cy="220.8" r="10.7" fill="#1e3a5f" opacity="0.26"/><circle cx="277.0" cy="188.1" r="10.7" fill="#1e3a5f" opacity="0.26"/><circle cx="181.7" cy="218.4" r="10.7" fill="#1e3a5f" opacity="0.26"/><circle cx="226.6" cy="237.5" r="10.7" fill="#1e3a5f" opacity="0.26"/><circle cx="206.3" cy="179.7" r="10.7" fill="#1e3a5f" opacity="0.26"/><circle cx="-108.6" cy="-88.4" r="10.7" fill="#1e3a5f" opacity="0.26"/><circle cx="174.8" cy="184.1" r="10.7" fill="#1e3a5f" opacity="0.26"/><circle cx="-40.3" cy="-92.5" r="10.7" fill="#1e3a5f" opacity="0.26"/><circle cx="-57.0" cy="-73.7" r="10.7" fill="#1e3a5f" opacity="0.26"/><circle cx="234.1" cy="178.6" r="10.7" fill="#1e3a5f" opacity="0.26"/><circle cx="312.1" cy="356.0" r="10.7" fill="#1e3a5f" opacity="0.26"/><circle cx="-83.2" cy="353.4" r="10.7" fill="#1e3a5f" opacity="0.26"/><circle cx="-86.6" cy="-67.3" r="10.7" fill="#1e3a5f" opacity="0.26"/><circle cx="-101.0" cy="326.0" r="10.7" fill="#1e3a5f" opacity="0.26"/><circle cx="330.8" cy="-91.8" r="10.7" fill="#1e3a5f" opacity="0.26"/><circle cx="186.6" cy="230.5" r="10.7" fill="#1e3a5f" opacity="0.26"/><circle cx="186.7" cy="242.7" r="10.7" fill="#1e3a5f" opacity="0.26"/><circle cx="210.6" cy="233.2" r="10.7" fill="#1e3a5f" opacity="0.26"/><circle cx="262.0" cy="163.9" r="10.7" fill="#1e3a5f" opacity="0.26"/><circle cx="224.9" cy="187.7" r="10.7" fill="#1e3a5f" opacity="0.26"/><circle cx="229.4" cy="225.9" r="10.7" fill="#1e3a5f" opacity="0.26"/><circle cx="196.1" cy="221.1" r="10.7" fill="#1e3a5f" opacity="0.26"/><circle cx="-91.6" cy="-83.8" r="10.7" fill="#1e3a5f" opacity="0.26"/><circle cx="351.6" cy="-86.8" r="10.7" fill="#1e3a5f" opacity="0.26"/><circle cx="181.6" cy="178.0" r="10.7" fill="#1e3a5f" opacity="0.26"/><circle cx="213.8" cy="179.7" r="10.7" fill="#1e3a5f" opacity="0.26"/><circle cx="186.4" cy="182.5" r="10.7" fill="#1e3a5f" opacity="0.26"/><circle cx="-107.8" cy="366.0" r="10.7" fill="#1e3a5f" opacity="0.26"/><circle cx="235.8" cy="210.9" r="10.7" fill="#1e3a5f" opacity="0.26"/><circle cx="194.9" cy="195.5" r="10.7" fill="#1e3a5f" opacity="0.26"/><circle cx="-92.1" cy="347.4" r="10.7" fill="#1e3a5f" opacity="0.26"/><circle cx="-81.7" cy="373.5" r="10.7" fill="#1e3a5f" opacity="0.26"/><circle cx="-65.2" cy="361.6" r="10.7" fill="#1e3a5f" opacity="0.26"/><circle cx="192.1" cy="206.9" r="10.7" fill="#1e3a5f" opacity="0.26"/><circle cx="219.1" cy="174.4" r="10.7" fill="#1e3a5f" opacity="0.26"/><circle cx="214.6" cy="238.3" r="10.7" fill="#1e3a5f" opacity="0.26"/><circle cx="340.5" cy="353.9" r="10.7" fill="#1e3a5f" opacity="0.26"/><circle cx="170.6" cy="253.0" r="10.7" fill="#1e3a5f" opacity="0.26"/><circle cx="240.8" cy="198.5" r="10.7" fill="#1e3a5f" opacity="0.26"/><circle cx="220.5" cy="208.9" r="10.7" fill="#1e3a5f" opacity="0.26"/><circle cx="-83.3" cy="-87.8" r="10.7" fill="#1e3a5f" opacity="0.26"/><circle cx="-107.1" cy="334.8" r="10.7" fill="#1e3a5f" opacity="0.26"/><circle cx="215.5" cy="194.5" r="10.7" fill="#1e3a5f" opacity="0.26"/><circle cx="195.0" cy="245.7" r="10.7" fill="#1e3a5f" opacity="0.26"/><circle cx="191.0" cy="226.6" r="10.7" fill="#1e3a5f" opacity="0.26"/><circle cx="350.1" cy="355.8" r="10.7" fill="#1e3a5f" opacity="0.26"/><circle cx="201.5" cy="252.5" r="10.7" fill="#1e3a5f" opacity="0.26"/><circle cx="224.4" cy="230.1" r="10.7" fill="#1e3a5f" opacity="0.26"/><circle cx="212.8" cy="211.6" r="10.7" fill="#1e3a5f" opacity="0.26"/><circle cx="221.7" cy="255.6" r="10.7" fill="#1e3a5f" opacity="0.26"/><circle cx="226.1" cy="245.0" r="10.7" fill="#1e3a5f" opacity="0.26"/><circle cx="213.3" cy="224.2" r="10.7" fill="#1e3a5f" opacity="0.26"/><circle cx="258.4" cy="198.5" r="10.7" fill="#1e3a5f" opacity="0.26"/><circle cx="270.7" cy="205.8" r="10.7" fill="#1e3a5f" opacity="0.26"/><circle cx="265.4" cy="188.2" r="10.7" fill="#1e3a5f" opacity="0.26"/><circle cx="208.1" cy="167.2" r="10.7" fill="#1e3a5f" opacity="0.26"/><circle cx="229.4" cy="211.9" r="10.7" fill="#1e3a5f" opacity="0.26"/><circle cx="-65.1" cy="372.4" r="10.7" fill="#1e3a5f" opacity="0.26"/><circle cx="-87.4" cy="337.2" r="10.7" fill="#1e3a5f" opacity="0.26"/><circle cx="329.9" cy="353.4" r="10.7" fill="#1e3a5f" opacity="0.26"/><circle cx="260.6" cy="178.8" r="10.7" fill="#1e3a5f" opacity="0.26"/><circle cx="-102.1" cy="373.3" r="10.7" fill="#1e3a5f" opacity="0.26"/><circle cx="233.5" cy="171.3" r="10.7" fill="#1e3a5f" opacity="0.26"/><circle cx="233.4" cy="238.2" r="10.7" fill="#1e3a5f" opacity="0.26"/><circle cx="237.0" cy="255.0" r="10.7" fill="#1e3a5f" opacity="0.26"/><circle cx="347.5" cy="-78.7" r="10.7" fill="#1e3a5f" opacity="0.26"/><circle cx="-55.8" cy="368.2" r="10.7" fill="#1e3a5f" opacity="0.26"/><circle cx="205.2" cy="244.9" r="10.7" fill="#1e3a5f" opacity="0.26"/><circle cx="211.6" cy="254.4" r="10.7" fill="#1e3a5f" opacity="0.26"/><circle cx="239.2" cy="186.0" r="10.7" fill="#1e3a5f" opacity="0.26"/><circle cx="205.2" cy="221.6" r="10.7" fill="#1e3a5f" opacity="0.26"/><circle cx="204.3" cy="187.5" r="10.7" fill="#1e3a5f" opacity="0.26"/><circle cx="190.6" cy="236.2" r="10.7" fill="#1e3a5f" opacity="0.26"/><circle cx="338.5" cy="-81.3" r="10.7" fill="#1e3a5f" opacity="0.26"/><circle cx="225.8" cy="206.9" r="10.7" fill="#1e3a5f" opacity="0.26"/><circle cx="-101.8" cy="-80.2" r="10.7" fill="#1e3a5f" opacity="0.26"/><circle cx="216.5" cy="204.7" r="10.7" fill="#1e3a5f" opacity="0.26"/><circle cx="-99.9" cy="352.8" r="10.7" fill="#1e3a5f" opacity="0.26"/><circle cx="-95.5" cy="368.2" r="10.7" fill="#1e3a5f" opacity="0.26"/><circle cx="223.9" cy="214.8" r="10.7" fill="#1e3a5f" opacity="0.26"/><circle cx="-90.0" cy="327.6" r="10.7" fill="#1e3a5f" opacity="0.26"/><circle cx="339.1" cy="370.8" r="10.7" fill="#1e3a5f" opacity="0.26"/><circle cx="263.3" cy="207.8" r="10.7" fill="#1e3a5f" opacity="0.26"/><circle cx="203.6" cy="231.6" r="10.7" fill="#1e3a5f" opacity="0.26"/><circle cx="251.3" cy="191.5" r="10.7" fill="#1e3a5f" opacity="0.26"/><circle cx="200.5" cy="199.2" r="10.7" fill="#1e3a5f" opacity="0.26"/><circle cx="-80.3" cy="345.2" r="10.7" fill="#1e3a5f" opacity="0.26"/><circle cx="211.3" cy="185.6" r="10.7" fill="#1e3a5f" opacity="0.26"/><circle cx="-84.2" cy="316.4" r="10.7" fill="#1e3a5f" opacity="0.26"/><circle cx="231.9" cy="184.8" r="10.7" fill="#1e3a5f" opacity="0.26"/><circle cx="211.3" cy="245.7" r="10.7" fill="#1e3a5f" opacity="0.26"/><circle cx="-70.7" cy="324.3" r="10.7" fill="#1e3a5f" opacity="0.26"/><circle cx="226.3" cy="172.5" r="10.7" fill="#1e3a5f" opacity="0.26"/><circle cx="173.6" cy="194.2" r="10.7" fill="#1e3a5f" opacity="0.26"/><circle cx="246.2" cy="184.0" r="10.7" fill="#1e3a5f" opacity="0.26"/><circle cx="349.9" cy="372.5" r="10.7" fill="#1e3a5f" opacity="0.26"/><circle cx="322.4" cy="363.3" r="10.7" fill="#1e3a5f" opacity="0.26"/><circle cx="358.4" cy="-79.7" r="10.7" fill="#1e3a5f" opacity="0.26"/><circle cx="-67.6" cy="342.4" r="10.7" fill="#1e3a5f" opacity="0.26"/><circle cx="-49.6" cy="348.9" r="10.7" fill="#1e3a5f" opacity="0.26"/><circle cx="-99.6" cy="-88.8" r="10.7" fill="#1e3a5f" opacity="0.26"/><circle cx="201.8" cy="272.6" r="10.7" fill="#1e3a5f" opacity="0.26"/><circle cx="355.4" cy="316.0" r="10.7" fill="#1e3a5f" opacity="0.26"/><circle cx="179.1" cy="201.8" r="10.7" fill="#1e3a5f" opacity="0.26"/><circle cx="245.4" cy="172.8" r="10.7" fill="#1e3a5f" opacity="0.26"/><circle cx="322.2" cy="-88.6" r="10.7" fill="#1e3a5f" opacity="0.26"/><circle cx="-74.2" cy="-81.2" r="10.7" fill="#1e3a5f" opacity="0.26"/><circle cx="227.2" cy="163.7" r="10.7" fill="#1e3a5f" opacity="0.26"/><circle cx="208.1" cy="226.7" r="10.7" fill="#1e3a5f" opacity="0.26"/><circle cx="252.4" cy="180.9" r="10.7" fill="#1e3a5f" opacity="0.26"/><circle cx="173.4" cy="206.5" r="10.7" fill="#1e3a5f" opacity="0.26"/><circle cx="182.1" cy="253.8" r="10.7" fill="#1e3a5f" opacity="0.26"/><circle cx="176.7" cy="212.8" r="10.7" fill="#1e3a5f" opacity="0.26"/><circle cx="-83.6" cy="-77.9" r="10.7" fill="#1e3a5f" opacity="0.26"/><circle cx="257.9" cy="236.9" r="10.7" fill="#1e3a5f" opacity="0.26"/><circle cx="232.0" cy="231.4" r="10.7" fill="#1e3a5f" opacity="0.26"/><circle cx="338.2" cy="339.4" r="10.7" fill="#1e3a5f" opacity="0.26"/><circle cx="220.2" cy="199.8" r="10.7" fill="#1e3a5f" opacity="0.26"/><circle cx="253.2" cy="202.6" r="10.7" fill="#1e3a5f" opacity="0.26"/><circle cx="185.2" cy="264.6" r="10.7" fill="#1e3a5f" opacity="0.26"/><circle cx="269.1" cy="215.5" r="10.7" fill="#1e3a5f" opacity="0.26"/><circle cx="239.2" cy="235.3" r="10.7" fill="#1e3a5f" opacity="0.26"/><circle cx="-80.4" cy="361.9" r="10.7" fill="#1e3a5f" opacity="0.26"/><circle cx="196.2" cy="261.5" r="10.7" fill="#1e3a5f" opacity="0.26"/><circle cx="352.9" cy="337.4" r="10.7" fill="#1e3a5f" opacity="0.26"/><circle cx="242.9" cy="211.1" r="10.7" fill="#1e3a5f" opacity="0.26"/><circle cx="222.4" cy="155.2" r="10.7" fill="#1e3a5f" opacity="0.26"/><circle cx="-91.3" cy="-93.4" r="10.7" fill="#1e3a5f" opacity="0.26"/><circle cx="217.0" cy="219.6" r="10.7" fill="#1e3a5f" opacity="0.26"/><circle cx="250.0" cy="211.6" r="10.7" fill="#1e3a5f" opacity="0.26"/><circle cx="193.0" cy="178.6" r="10.7" fill="#1e3a5f" opacity="0.26"/><circle cx="210.0" cy="207.6" r="10.7" fill="#1e3a5f" opacity="0.26"/><circle cx="216.7" cy="229.2" r="10.7" fill="#1e3a5f" opacity="0.26"/><circle cx="-76.2" cy="335.2" r="10.7" fill="#1e3a5f" opacity="0.26"/><circle cx="184.6" cy="211.9" r="10.7" fill="#1e3a5f" opacity="0.26"/><circle cx="231.3" cy="217.9" r="10.7" fill="#1e3a5f" opacity="0.26"/><circle cx="220.3" cy="234.9" r="10.7" fill="#1e3a5f" opacity="0.26"/><circle cx="-77.1" cy="-70.6" r="10.7" fill="#1e3a5f" opacity="0.26"/><circle cx="230.5" cy="191.2" r="10.7" fill="#1e3a5f" opacity="0.26"/><circle cx="245.9" cy="205.3" r="10.7" fill="#1e3a5f" opacity="0.26"/><circle cx="240.6" cy="178.5" r="10.7" fill="#1e3a5f" opacity="0.26"/><circle cx="228.4" cy="196.6" r="10.7" fill="#1e3a5f" opacity="0.26"/><circle cx="229.9" cy="252.4" r="10.7" fill="#1e3a5f" opacity="0.26"/><circle cx="179.2" cy="225.1" r="10.7" fill="#1e3a5f" opacity="0.26"/><circle cx="190.4" cy="171.5" r="10.7" fill="#1e3a5f" opacity="0.26"/><circle cx="215.3" cy="161.5" r="10.7" fill="#1e3a5f" opacity="0.26"/><circle cx="346.3" cy="345.1" r="10.7" fill="#1e3a5f" opacity="0.26"/><circle cx="354.8" cy="327.3" r="10.7" fill="#1e3a5f" opacity="0.26"/><circle cx="-105.7" cy="345.4" r="10.7" fill="#1e3a5f" opacity="0.26"/><circle cx="249.4" cy="153.5" r="10.7" fill="#1e3a5f" opacity="0.26"/><circle cx="171.9" cy="219.3" r="10.7" fill="#1e3a5f" opacity="0.26"/><circle cx="-105.0" cy="-71.6" r="10.7" fill="#1e3a5f" opacity="0.26"/><circle cx="-97.6" cy="-65.3" r="10.7" fill="#1e3a5f" opacity="0.26"/><circle cx="185.6" cy="205.7" r="10.7" fill="#1e3a5f" opacity="0.26"/><circle cx="-62.3" cy="352.0" r="10.7" fill="#1e3a5f" opacity="0.26"/><circle cx="248.3" cy="232.6" r="10.7" fill="#1e3a5f" opacity="0.26"/><circle cx="358.2" cy="374.4" r="10.7" fill="#1e3a5f" opacity="0.26"/><circle cx="331.3" cy="364.9" r="10.7" fill="#1e3a5f" opacity="0.26"/><circle cx="-91.8" cy="357.5" r="10.7" fill="#1e3a5f" opacity="0.26"/><circle cx="254.0" cy="171.6" r="10.7" fill="#1e3a5f" opacity="0.26"/><line x1="285.0" y1="213.5" x2="297.5" y2="231.4" stroke="#e2e8f0" stroke-width="0.9" opacity="0.5"/><line x1="232.8" y1="272.7" x2="248.5" y2="288.4" stroke="#e2e8f0" stroke-width="0.9" opacity="0.5"/><line x1="167.1" y1="200.7" x2="150.2" y2="187.2" stroke="#e2e8f0" stroke-width="0.9" opacity="0.5"/><line x1="307.8" y1="12.0" x2="327.9" y2="5.1" stroke="#e2e8f0" stroke-width="0.9" opacity="0.5"/><line x1="163.5" y1="179.0" x2="143.4" y2="170.6" stroke="#e2e8f0" stroke-width="0.9" opacity="0.5"/><line x1="253.1" y1="244.1" x2="268.6" y2="259.2" stroke="#e2e8f0" stroke-width="0.9" opacity="0.5"/><line x1="185.8" y1="160.0" x2="165.8" y2="150.7" stroke="#e2e8f0" stroke-width="0.9" opacity="0.5"/><line x1="165.8" y1="187.3" x2="145.9" y2="179.4" stroke="#e2e8f0" stroke-width="0.9" opacity="0.5"/><line x1="393.6" y1="426.3" x2="379.7" y2="443.4" stroke="#e2e8f0" stroke-width="0.9" opacity="0.5"/><line x1="313.2" y1="241.9" x2="316.1" y2="263.9" stroke="#e2e8f0" stroke-width="0.9" opacity="0.5"/><line x1="224.8" y1="267.4" x2="243.2" y2="279.3" stroke="#e2e8f0" stroke-width="0.9" opacity="0.5"/><line x1="161.1" y1="220.9" x2="142.3" y2="210.4" stroke="#e2e8f0" stroke-width="0.9" opacity="0.5"/><line x1="232.1" y1="262.3" x2="251.5" y2="272.5" stroke="#e2e8f0" stroke-width="0.9" opacity="0.5"/><line x1="371.3" y1="416.1" x2="369.8" y2="437.7" stroke="#e2e8f0" stroke-width="0.9" opacity="0.5"/><line x1="381.9" y1="417.2" x2="364.1" y2="429.8" stroke="#e2e8f0" stroke-width="0.9" opacity="0.5"/><line x1="324.3" y1="396.2" x2="323.4" y2="418.2" stroke="#e2e8f0" stroke-width="0.9" opacity="0.5"/><line x1="334.1" y1="397.7" x2="333.2" y2="419.6" stroke="#e2e8f0" stroke-width="0.9" opacity="0.5"/><line x1="218.8" y1="285.1" x2="234.6" y2="300.5" stroke="#e2e8f0" stroke-width="0.9" opacity="0.5"/><line x1="247.3" y1="249.0" x2="261.6" y2="265.5" stroke="#e2e8f0" stroke-width="0.9" opacity="0.5"/><line x1="319.5" y1="405.7" x2="316.7" y2="427.1" stroke="#e2e8f0" stroke-width="0.9" opacity="0.5"/><line x1="330.0" y1="327.0" x2="313.6" y2="312.2" stroke="#e2e8f0" stroke-width="0.9" opacity="0.5"/><line x1="394.7" y1="436.4" x2="382.2" y2="454.1" stroke="#e2e8f0" stroke-width="0.9" opacity="0.5"/><line x1="268.5" y1="225.9" x2="277.6" y2="245.7" stroke="#e2e8f0" stroke-width="0.9" opacity="0.5"/><line x1="189.5" y1="150.6" x2="170.0" y2="140.4" stroke="#e2e8f0" stroke-width="0.9" opacity="0.5"/><line x1="249.2" y1="256.9" x2="262.5" y2="274.3" stroke="#e2e8f0" stroke-width="0.9" opacity="0.5"/><line x1="279.8" y1="221.8" x2="291.0" y2="240.6" stroke="#e2e8f0" stroke-width="0.9" opacity="0.5"/><line x1="316.1" y1="340.8" x2="301.0" y2="324.6" stroke="#e2e8f0" stroke-width="0.9" opacity="0.5"/><line x1="339.1" y1="409.1" x2="333.7" y2="430.2" stroke="#e2e8f0" stroke-width="0.9" opacity="0.5"/><line x1="258.5" y1="253.6" x2="271.7" y2="271.2" stroke="#e2e8f0" stroke-width="0.9" opacity="0.5"/><line x1="279.6" y1="341.7" x2="271.1" y2="320.9" stroke="#e2e8f0" stroke-width="0.9" opacity="0.5"/><line x1="181.3" y1="169.5" x2="159.3" y2="168.7" stroke="#e2e8f0" stroke-width="0.9" opacity="0.5"/><line x1="356.7" y1="411.1" x2="352.4" y2="432.3" stroke="#e2e8f0" stroke-width="0.9" opacity="0.5"/><line x1="356.3" y1="401.4" x2="351.1" y2="422.4" stroke="#e2e8f0" stroke-width="0.9" opacity="0.5"/><line x1="390.3" y1="413.0" x2="378.3" y2="431.1" stroke="#e2e8f0" stroke-width="0.9" opacity="0.5"/><line x1="263.9" y1="246.1" x2="276.9" y2="263.8" stroke="#e2e8f0" stroke-width="0.9" opacity="0.5"/><line x1="347.4" y1="404.5" x2="343.2" y2="425.5" stroke="#e2e8f0" stroke-width="0.9" opacity="0.5"/><line x1="308.1" y1="391.4" x2="305.4" y2="413.0" stroke="#e2e8f0" stroke-width="0.9" opacity="0.5"/><line x1="357.1" y1="26.9" x2="341.7" y2="11.8" stroke="#e2e8f0" stroke-width="0.9" opacity="0.5"/><line x1="155.1" y1="212.8" x2="134.5" y2="205.2" stroke="#e2e8f0" stroke-width="0.9" opacity="0.5"/><line x1="159.2" y1="196.8" x2="138.4" y2="190.2" stroke="#e2e8f0" stroke-width="0.9" opacity="0.5"/><line x1="342.3" y1="293.8" x2="324.3" y2="281.3" stroke="#e2e8f0" stroke-width="0.9" opacity="0.5"/><line x1="102.3" y1="210.3" x2="102.1" y2="188.6" stroke="#e2e8f0" stroke-width="0.9" opacity="0.5"/><line x1="173.5" y1="160.8" x2="153.3" y2="152.4" stroke="#e2e8f0" stroke-width="0.9" opacity="0.5"/><line x1="292.4" y1="427.5" x2="302.4" y2="446.8" stroke="#e2e8f0" stroke-width="0.9" opacity="0.5"/><line x1="159.4" y1="230.1" x2="139.4" y2="222.2" stroke="#e2e8f0" stroke-width="0.9" opacity="0.5"/><line x1="277.7" y1="232.5" x2="289.8" y2="250.8" stroke="#e2e8f0" stroke-width="0.9" opacity="0.5"/><line x1="267.5" y1="235.9" x2="279.0" y2="254.6" stroke="#e2e8f0" stroke-width="0.9" opacity="0.5"/><line x1="341.9" y1="311.2" x2="324.6" y2="297.3" stroke="#e2e8f0" stroke-width="0.9" opacity="0.5"/><line x1="165.1" y1="210.3" x2="146.9" y2="198.7" stroke="#e2e8f0" stroke-width="0.9" opacity="0.5"/><line x1="298.8" y1="342.1" x2="287.3" y2="323.1" stroke="#e2e8f0" stroke-width="0.9" opacity="0.5"/><line x1="317.0" y1="327.9" x2="300.2" y2="312.8" stroke="#e2e8f0" stroke-width="0.9" opacity="0.5"/><line x1="329.9" y1="313.2" x2="313.0" y2="298.9" stroke="#e2e8f0" stroke-width="0.9" opacity="0.5"/><line x1="410.3" y1="437.0" x2="396.9" y2="454.0" stroke="#e2e8f0" stroke-width="0.9" opacity="0.5"/><line x1="161.5" y1="241.7" x2="140.5" y2="236.8" stroke="#e2e8f0" stroke-width="0.9" opacity="0.5"/><line x1="172.0" y1="171.4" x2="152.1" y2="163.0" stroke="#e2e8f0" stroke-width="0.9" opacity="0.5"/><line x1="216.1" y1="272.6" x2="233.2" y2="286.5" stroke="#e2e8f0" stroke-width="0.9" opacity="0.5"/><line x1="245.3" y1="263.7" x2="257.7" y2="282.2" stroke="#e2e8f0" stroke-width="0.9" opacity="0.5"/><line x1="297.5" y1="231.4" x2="303.2" y2="252.1" stroke="#e2e8f0" stroke-width="0.9" opacity="0.5"/><line x1="248.5" y1="288.4" x2="268.0" y2="297.4" stroke="#e2e8f0" stroke-width="0.9" opacity="0.5"/><line x1="150.2" y1="187.2" x2="134.2" y2="173.2" stroke="#e2e8f0" stroke-width="0.9" opacity="0.5"/><line x1="327.9" y1="5.1" x2="349.0" y2="0.8" stroke="#e2e8f0" stroke-width="0.9" opacity="0.5"/><line x1="143.4" y1="170.6" x2="123.6" y2="161.8" stroke="#e2e8f0" stroke-width="0.9" opacity="0.5"/><line x1="268.6" y1="259.2" x2="283.0" y2="274.7" stroke="#e2e8f0" stroke-width="0.9" opacity="0.5"/><line x1="165.8" y1="150.7" x2="154.0" y2="132.1" stroke="#e2e8f0" stroke-width="0.9" opacity="0.5"/><line x1="145.9" y1="179.4" x2="125.1" y2="173.5" stroke="#e2e8f0" stroke-width="0.9" opacity="0.5"/><line x1="316.1" y1="263.9" x2="306.2" y2="284.0" stroke="#e2e8f0" stroke-width="0.9" opacity="0.5"/><line x1="243.2" y1="279.3" x2="260.3" y2="291.6" stroke="#e2e8f0" stroke-width="0.9" opacity="0.5"/><line x1="142.3" y1="210.4" x2="126.0" y2="196.7" stroke="#e2e8f0" stroke-width="0.9" opacity="0.5"/><line x1="251.5" y1="272.5" x2="268.9" y2="284.4" stroke="#e2e8f0" stroke-width="0.9" opacity="0.5"/><line x1="369.8" y1="437.7" x2="368.9" y2="459.1" stroke="#e2e8f0" stroke-width="0.9" opacity="0.5"/><line x1="323.4" y1="418.2" x2="331.1" y2="438.4" stroke="#e2e8f0" stroke-width="0.9" opacity="0.5"/><line x1="333.2" y1="419.6" x2="322.2" y2="438.5" stroke="#e2e8f0" stroke-width="0.9" opacity="0.5"/><line x1="234.6" y1="300.5" x2="252.8" y2="312.0" stroke="#e2e8f0" stroke-width="0.9" opacity="0.5"/><line x1="261.6" y1="265.5" x2="276.5" y2="280.6" stroke="#e2e8f0" stroke-width="0.9" opacity="0.5"/><line x1="316.7" y1="427.1" x2="318.3" y2="448.7" stroke="#e2e8f0" stroke-width="0.9" opacity="0.5"/><line x1="313.6" y1="312.2" x2="302.4" y2="294.4" stroke="#e2e8f0" stroke-width="0.9" opacity="0.5"/><line x1="382.2" y1="454.1" x2="367.6" y2="469.6" stroke="#e2e8f0" stroke-width="0.9" opacity="0.5"/><line x1="277.6" y1="245.7" x2="286.7" y2="264.8" stroke="#e2e8f0" stroke-width="0.9" opacity="0.5"/><line x1="170.0" y1="140.4" x2="148.0" y2="143.0" stroke="#e2e8f0" stroke-width="0.9" opacity="0.5"/><line x1="262.5" y1="274.3" x2="276.9" y2="289.9" stroke="#e2e8f0" stroke-width="0.9" opacity="0.5"/><line x1="291.0" y1="240.6" x2="296.2" y2="261.2" stroke="#e2e8f0" stroke-width="0.9" opacity="0.5"/><line x1="301.0" y1="324.6" x2="294.9" y2="304.0" stroke="#e2e8f0" stroke-width="0.9" opacity="0.5"/><line x1="333.7" y1="430.2" x2="330.4" y2="451.5" stroke="#e2e8f0" stroke-width="0.9" opacity="0.5"/><line x1="271.7" y1="271.2" x2="285.9" y2="286.9" stroke="#e2e8f0" stroke-width="0.9" opacity="0.5"/><line x1="271.1" y1="320.9" x2="277.2" y2="299.9" stroke="#e2e8f0" stroke-width="0.9" opacity="0.5"/><line x1="159.3" y1="168.7" x2="139.9" y2="159.6" stroke="#e2e8f0" stroke-width="0.9" opacity="0.5"/><line x1="352.4" y1="432.3" x2="346.1" y2="452.8" stroke="#e2e8f0" stroke-width="0.9" opacity="0.5"/><line x1="351.1" y1="422.4" x2="350.0" y2="443.9" stroke="#e2e8f0" stroke-width="0.9" opacity="0.5"/><line x1="378.3" y1="431.1" x2="367.5" y2="449.4" stroke="#e2e8f0" stroke-width="0.9" opacity="0.5"/><line x1="276.9" y1="263.8" x2="291.1" y2="279.8" stroke="#e2e8f0" stroke-width="0.9" opacity="0.5"/><line x1="343.2" y1="425.5" x2="338.8" y2="446.6" stroke="#e2e8f0" stroke-width="0.9" opacity="0.5"/><line x1="305.4" y1="413.0" x2="308.9" y2="434.1" stroke="#e2e8f0" stroke-width="0.9" opacity="0.5"/><line x1="341.7" y1="11.8" x2="331.6" y2="-7.3" stroke="#e2e8f0" stroke-width="0.9" opacity="0.5"/><line x1="134.5" y1="205.2" x2="114.8" y2="197.5" stroke="#e2e8f0" stroke-width="0.9" opacity="0.5"/><line x1="138.4" y1="190.2" x2="118.3" y2="182.3" stroke="#e2e8f0" stroke-width="0.9" opacity="0.5"/><line x1="324.3" y1="281.3" x2="303.0" y2="276.7" stroke="#e2e8f0" stroke-width="0.9" opacity="0.5"/><line x1="102.1" y1="188.6" x2="107.4" y2="167.9" stroke="#e2e8f0" stroke-width="0.9" opacity="0.5"/><line x1="153.3" y1="152.4" x2="135.1" y2="140.9" stroke="#e2e8f0" stroke-width="0.9" opacity="0.5"/><line x1="302.4" y1="446.8" x2="315.6" y2="463.4" stroke="#e2e8f0" stroke-width="0.9" opacity="0.5"/><line x1="139.4" y1="222.2" x2="121.0" y2="211.6" stroke="#e2e8f0" stroke-width="0.9" opacity="0.5"/><line x1="289.8" y1="250.8" x2="305.6" y2="265.1" stroke="#e2e8f0" stroke-width="0.9" opacity="0.5"/><line x1="279.0" y1="254.6" x2="293.1" y2="270.7" stroke="#e2e8f0" stroke-width="0.9" opacity="0.5"/><line x1="324.6" y1="297.3" x2="313.5" y2="279.3" stroke="#e2e8f0" stroke-width="0.9" opacity="0.5"/><line x1="146.9" y1="198.7" x2="129.9" y2="186.0" stroke="#e2e8f0" stroke-width="0.9" opacity="0.5"/><line x1="287.3" y1="323.1" x2="286.0" y2="301.6" stroke="#e2e8f0" stroke-width="0.9" opacity="0.5"/><line x1="300.2" y1="312.8" x2="278.5" y2="310.5" stroke="#e2e8f0" stroke-width="0.9" opacity="0.5"/><line x1="313.0" y1="298.9" x2="293.3" y2="291.2" stroke="#e2e8f0" stroke-width="0.9" opacity="0.5"/><line x1="359.3" y1="7.4" x2="342.7" y2="-6.4" stroke="#e2e8f0" stroke-width="0.9" opacity="0.5"/><line x1="396.9" y1="454.0" x2="383.2" y2="470.3" stroke="#e2e8f0" stroke-width="0.9" opacity="0.5"/><line x1="140.5" y1="236.8" x2="121.7" y2="226.4" stroke="#e2e8f0" stroke-width="0.9" opacity="0.5"/><line x1="152.1" y1="163.0" x2="132.5" y2="154.1" stroke="#e2e8f0" stroke-width="0.9" opacity="0.5"/><line x1="359.5" y1="439.3" x2="353.8" y2="459.9" stroke="#e2e8f0" stroke-width="0.9" opacity="0.5"/><line x1="233.2" y1="286.5" x2="249.5" y2="299.7" stroke="#e2e8f0" stroke-width="0.9" opacity="0.5"/><line x1="257.7" y1="282.2" x2="262.5" y2="303.4" stroke="#e2e8f0" stroke-width="0.9" opacity="0.5"/><circle cx="285.0" cy="213.5" r="10.7" fill="#38bdf8" opacity="0.78" stroke="#0b0e13" stroke-width="0.5"/><circle cx="297.5" cy="231.4" r="10.7" fill="#fb923c" opacity="0.78" stroke="#0b0e13" stroke-width="0.5"/><circle cx="303.2" cy="252.1" r="10.7" fill="#fb923c" opacity="0.78" stroke="#0b0e13" stroke-width="0.5"/><circle cx="232.8" cy="272.7" r="10.7" fill="#38bdf8" opacity="0.78" stroke="#0b0e13" stroke-width="0.5"/><circle cx="248.5" cy="288.4" r="10.7" fill="#fb923c" opacity="0.78" stroke="#0b0e13" stroke-width="0.5"/><circle cx="268.0" cy="297.4" r="10.7" fill="#fb923c" opacity="0.78" stroke="#0b0e13" stroke-width="0.5"/><circle cx="167.1" cy="200.7" r="10.7" fill="#38bdf8" opacity="0.78" stroke="#0b0e13" stroke-width="0.5"/><circle cx="150.2" cy="187.2" r="10.7" fill="#fb923c" opacity="0.78" stroke="#0b0e13" stroke-width="0.5"/><circle cx="134.2" cy="173.2" r="10.7" fill="#fb923c" opacity="0.78" stroke="#0b0e13" stroke-width="0.5"/><circle cx="307.8" cy="12.0" r="10.7" fill="#38bdf8" opacity="0.78" stroke="#0b0e13" stroke-width="0.5"/><circle cx="327.9" cy="5.1" r="10.7" fill="#fb923c" opacity="0.78" stroke="#0b0e13" stroke-width="0.5"/><circle cx="349.0" cy="0.8" r="10.7" fill="#fb923c" opacity="0.78" stroke="#0b0e13" stroke-width="0.5"/><circle cx="163.5" cy="179.0" r="10.7" fill="#38bdf8" opacity="0.78" stroke="#0b0e13" stroke-width="0.5"/><circle cx="143.4" cy="170.6" r="10.7" fill="#fb923c" opacity="0.78" stroke="#0b0e13" stroke-width="0.5"/><circle cx="123.6" cy="161.8" r="10.7" fill="#fb923c" opacity="0.78" stroke="#0b0e13" stroke-width="0.5"/><circle cx="253.1" cy="244.1" r="10.7" fill="#38bdf8" opacity="0.78" stroke="#0b0e13" stroke-width="0.5"/><circle cx="268.6" cy="259.2" r="10.7" fill="#fb923c" opacity="0.78" stroke="#0b0e13" stroke-width="0.5"/><circle cx="283.0" cy="274.7" r="10.7" fill="#fb923c" opacity="0.78" stroke="#0b0e13" stroke-width="0.5"/><circle cx="185.8" cy="160.0" r="10.7" fill="#38bdf8" opacity="0.78" stroke="#0b0e13" stroke-width="0.5"/><circle cx="165.8" cy="150.7" r="10.7" fill="#fb923c" opacity="0.78" stroke="#0b0e13" stroke-width="0.5"/><circle cx="154.0" cy="132.1" r="10.7" fill="#fb923c" opacity="0.78" stroke="#0b0e13" stroke-width="0.5"/><circle cx="165.8" cy="187.3" r="10.7" fill="#38bdf8" opacity="0.78" stroke="#0b0e13" stroke-width="0.5"/><circle cx="145.9" cy="179.4" r="10.7" fill="#fb923c" opacity="0.78" stroke="#0b0e13" stroke-width="0.5"/><circle cx="125.1" cy="173.5" r="10.7" fill="#fb923c" opacity="0.78" stroke="#0b0e13" stroke-width="0.5"/><circle cx="393.6" cy="426.3" r="10.7" fill="#38bdf8" opacity="0.78" stroke="#0b0e13" stroke-width="0.5"/><circle cx="379.7" cy="443.4" r="10.7" fill="#fb923c" opacity="0.78" stroke="#0b0e13" stroke-width="0.5"/><circle cx="829.8" cy="451.9" r="10.7" fill="#fb923c" opacity="0.78" stroke="#0b0e13" stroke-width="0.5"/><circle cx="313.2" cy="241.9" r="10.7" fill="#38bdf8" opacity="0.78" stroke="#0b0e13" stroke-width="0.5"/><circle cx="316.1" cy="263.9" r="10.7" fill="#fb923c" opacity="0.78" stroke="#0b0e13" stroke-width="0.5"/><circle cx="306.2" cy="284.0" r="10.7" fill="#fb923c" opacity="0.78" stroke="#0b0e13" stroke-width="0.5"/><circle cx="224.8" cy="267.4" r="10.7" fill="#38bdf8" opacity="0.78" stroke="#0b0e13" stroke-width="0.5"/><circle cx="243.2" cy="279.3" r="10.7" fill="#fb923c" opacity="0.78" stroke="#0b0e13" stroke-width="0.5"/><circle cx="260.3" cy="291.6" r="10.7" fill="#fb923c" opacity="0.78" stroke="#0b0e13" stroke-width="0.5"/><circle cx="161.1" cy="220.9" r="10.7" fill="#38bdf8" opacity="0.78" stroke="#0b0e13" stroke-width="0.5"/><circle cx="142.3" cy="210.4" r="10.7" fill="#fb923c" opacity="0.78" stroke="#0b0e13" stroke-width="0.5"/><circle cx="126.0" cy="196.7" r="10.7" fill="#fb923c" opacity="0.78" stroke="#0b0e13" stroke-width="0.5"/><circle cx="232.1" cy="262.3" r="10.7" fill="#38bdf8" opacity="0.78" stroke="#0b0e13" stroke-width="0.5"/><circle cx="251.5" cy="272.5" r="10.7" fill="#fb923c" opacity="0.78" stroke="#0b0e13" stroke-width="0.5"/><circle cx="268.9" cy="284.4" r="10.7" fill="#fb923c" opacity="0.78" stroke="#0b0e13" stroke-width="0.5"/><circle cx="371.3" cy="416.1" r="10.7" fill="#38bdf8" opacity="0.78" stroke="#0b0e13" stroke-width="0.5"/><circle cx="369.8" cy="437.7" r="10.7" fill="#fb923c" opacity="0.78" stroke="#0b0e13" stroke-width="0.5"/><circle cx="368.9" cy="459.1" r="10.7" fill="#fb923c" opacity="0.78" stroke="#0b0e13" stroke-width="0.5"/><circle cx="381.9" cy="417.2" r="10.7" fill="#38bdf8" opacity="0.78" stroke="#0b0e13" stroke-width="0.5"/><circle cx="364.1" cy="429.8" r="10.7" fill="#fb923c" opacity="0.78" stroke="#0b0e13" stroke-width="0.5"/><circle cx="814.4" cy="437.5" r="10.7" fill="#fb923c" opacity="0.78" stroke="#0b0e13" stroke-width="0.5"/><circle cx="324.3" cy="396.2" r="10.7" fill="#38bdf8" opacity="0.78" stroke="#0b0e13" stroke-width="0.5"/><circle cx="323.4" cy="418.2" r="10.7" fill="#fb923c" opacity="0.78" stroke="#0b0e13" stroke-width="0.5"/><circle cx="331.1" cy="438.4" r="10.7" fill="#fb923c" opacity="0.78" stroke="#0b0e13" stroke-width="0.5"/><circle cx="334.1" cy="397.7" r="10.7" fill="#38bdf8" opacity="0.78" stroke="#0b0e13" stroke-width="0.5"/><circle cx="333.2" cy="419.6" r="10.7" fill="#fb923c" opacity="0.78" stroke="#0b0e13" stroke-width="0.5"/><circle cx="322.2" cy="438.5" r="10.7" fill="#fb923c" opacity="0.78" stroke="#0b0e13" stroke-width="0.5"/><circle cx="218.8" cy="285.1" r="10.7" fill="#38bdf8" opacity="0.78" stroke="#0b0e13" stroke-width="0.5"/><circle cx="234.6" cy="300.5" r="10.7" fill="#fb923c" opacity="0.78" stroke="#0b0e13" stroke-width="0.5"/><circle cx="252.8" cy="312.0" r="10.7" fill="#fb923c" opacity="0.78" stroke="#0b0e13" stroke-width="0.5"/><circle cx="247.3" cy="249.0" r="10.7" fill="#38bdf8" opacity="0.78" stroke="#0b0e13" stroke-width="0.5"/><circle cx="261.6" cy="265.5" r="10.7" fill="#fb923c" opacity="0.78" stroke="#0b0e13" stroke-width="0.5"/><circle cx="276.5" cy="280.6" r="10.7" fill="#fb923c" opacity="0.78" stroke="#0b0e13" stroke-width="0.5"/><circle cx="319.5" cy="405.7" r="10.7" fill="#38bdf8" opacity="0.78" stroke="#0b0e13" stroke-width="0.5"/><circle cx="316.7" cy="427.1" r="10.7" fill="#fb923c" opacity="0.78" stroke="#0b0e13" stroke-width="0.5"/><circle cx="318.3" cy="448.7" r="10.7" fill="#fb923c" opacity="0.78" stroke="#0b0e13" stroke-width="0.5"/><circle cx="330.0" cy="327.0" r="10.7" fill="#38bdf8" opacity="0.78" stroke="#0b0e13" stroke-width="0.5"/><circle cx="313.6" cy="312.2" r="10.7" fill="#fb923c" opacity="0.78" stroke="#0b0e13" stroke-width="0.5"/><circle cx="302.4" cy="294.4" r="10.7" fill="#fb923c" opacity="0.78" stroke="#0b0e13" stroke-width="0.5"/><circle cx="394.7" cy="436.4" r="10.7" fill="#38bdf8" opacity="0.78" stroke="#0b0e13" stroke-width="0.5"/><circle cx="382.2" cy="454.1" r="10.7" fill="#fb923c" opacity="0.78" stroke="#0b0e13" stroke-width="0.5"/><circle cx="367.6" cy="469.6" r="10.7" fill="#fb923c" opacity="0.78" stroke="#0b0e13" stroke-width="0.5"/><circle cx="268.5" cy="225.9" r="10.7" fill="#38bdf8" opacity="0.78" stroke="#0b0e13" stroke-width="0.5"/><circle cx="277.6" cy="245.7" r="10.7" fill="#fb923c" opacity="0.78" stroke="#0b0e13" stroke-width="0.5"/><circle cx="286.7" cy="264.8" r="10.7" fill="#fb923c" opacity="0.78" stroke="#0b0e13" stroke-width="0.5"/><circle cx="189.5" cy="150.6" r="10.7" fill="#38bdf8" opacity="0.78" stroke="#0b0e13" stroke-width="0.5"/><circle cx="170.0" cy="140.4" r="10.7" fill="#fb923c" opacity="0.78" stroke="#0b0e13" stroke-width="0.5"/><circle cx="148.0" cy="143.0" r="10.7" fill="#fb923c" opacity="0.78" stroke="#0b0e13" stroke-width="0.5"/><circle cx="249.2" cy="256.9" r="10.7" fill="#38bdf8" opacity="0.78" stroke="#0b0e13" stroke-width="0.5"/><circle cx="262.5" cy="274.3" r="10.7" fill="#fb923c" opacity="0.78" stroke="#0b0e13" stroke-width="0.5"/><circle cx="276.9" cy="289.9" r="10.7" fill="#fb923c" opacity="0.78" stroke="#0b0e13" stroke-width="0.5"/><circle cx="279.8" cy="221.8" r="10.7" fill="#38bdf8" opacity="0.78" stroke="#0b0e13" stroke-width="0.5"/><circle cx="291.0" cy="240.6" r="10.7" fill="#fb923c" opacity="0.78" stroke="#0b0e13" stroke-width="0.5"/><circle cx="296.2" cy="261.2" r="10.7" fill="#fb923c" opacity="0.78" stroke="#0b0e13" stroke-width="0.5"/><circle cx="316.1" cy="340.8" r="10.7" fill="#38bdf8" opacity="0.78" stroke="#0b0e13" stroke-width="0.5"/><circle cx="301.0" cy="324.6" r="10.7" fill="#fb923c" opacity="0.78" stroke="#0b0e13" stroke-width="0.5"/><circle cx="294.9" cy="304.0" r="10.7" fill="#fb923c" opacity="0.78" stroke="#0b0e13" stroke-width="0.5"/><circle cx="339.1" cy="409.1" r="10.7" fill="#38bdf8" opacity="0.78" stroke="#0b0e13" stroke-width="0.5"/><circle cx="333.7" cy="430.2" r="10.7" fill="#fb923c" opacity="0.78" stroke="#0b0e13" stroke-width="0.5"/><circle cx="330.4" cy="451.5" r="10.7" fill="#fb923c" opacity="0.78" stroke="#0b0e13" stroke-width="0.5"/><circle cx="258.5" cy="253.6" r="10.7" fill="#38bdf8" opacity="0.78" stroke="#0b0e13" stroke-width="0.5"/><circle cx="271.7" cy="271.2" r="10.7" fill="#fb923c" opacity="0.78" stroke="#0b0e13" stroke-width="0.5"/><circle cx="285.9" cy="286.9" r="10.7" fill="#fb923c" opacity="0.78" stroke="#0b0e13" stroke-width="0.5"/><circle cx="279.6" cy="341.7" r="10.7" fill="#38bdf8" opacity="0.78" stroke="#0b0e13" stroke-width="0.5"/><circle cx="271.1" cy="320.9" r="10.7" fill="#fb923c" opacity="0.78" stroke="#0b0e13" stroke-width="0.5"/><circle cx="277.2" cy="299.9" r="10.7" fill="#fb923c" opacity="0.78" stroke="#0b0e13" stroke-width="0.5"/><circle cx="181.3" cy="169.5" r="10.7" fill="#38bdf8" opacity="0.78" stroke="#0b0e13" stroke-width="0.5"/><circle cx="159.3" cy="168.7" r="10.7" fill="#fb923c" opacity="0.78" stroke="#0b0e13" stroke-width="0.5"/><circle cx="139.9" cy="159.6" r="10.7" fill="#fb923c" opacity="0.78" stroke="#0b0e13" stroke-width="0.5"/><circle cx="356.7" cy="411.1" r="10.7" fill="#38bdf8" opacity="0.78" stroke="#0b0e13" stroke-width="0.5"/><circle cx="352.4" cy="432.3" r="10.7" fill="#fb923c" opacity="0.78" stroke="#0b0e13" stroke-width="0.5"/><circle cx="346.1" cy="452.8" r="10.7" fill="#fb923c" opacity="0.78" stroke="#0b0e13" stroke-width="0.5"/><circle cx="356.3" cy="401.4" r="10.7" fill="#38bdf8" opacity="0.78" stroke="#0b0e13" stroke-width="0.5"/><circle cx="351.1" cy="422.4" r="10.7" fill="#fb923c" opacity="0.78" stroke="#0b0e13" stroke-width="0.5"/><circle cx="350.0" cy="443.9" r="10.7" fill="#fb923c" opacity="0.78" stroke="#0b0e13" stroke-width="0.5"/><circle cx="390.3" cy="413.0" r="10.7" fill="#38bdf8" opacity="0.78" stroke="#0b0e13" stroke-width="0.5"/><circle cx="378.3" cy="431.1" r="10.7" fill="#fb923c" opacity="0.78" stroke="#0b0e13" stroke-width="0.5"/><circle cx="367.5" cy="449.4" r="10.7" fill="#fb923c" opacity="0.78" stroke="#0b0e13" stroke-width="0.5"/><circle cx="263.9" cy="246.1" r="10.7" fill="#38bdf8" opacity="0.78" stroke="#0b0e13" stroke-width="0.5"/><circle cx="276.9" cy="263.8" r="10.7" fill="#fb923c" opacity="0.78" stroke="#0b0e13" stroke-width="0.5"/><circle cx="291.1" cy="279.8" r="10.7" fill="#fb923c" opacity="0.78" stroke="#0b0e13" stroke-width="0.5"/><circle cx="347.4" cy="404.5" r="10.7" fill="#38bdf8" opacity="0.78" stroke="#0b0e13" stroke-width="0.5"/><circle cx="343.2" cy="425.5" r="10.7" fill="#fb923c" opacity="0.78" stroke="#0b0e13" stroke-width="0.5"/><circle cx="338.8" cy="446.6" r="10.7" fill="#fb923c" opacity="0.78" stroke="#0b0e13" stroke-width="0.5"/><circle cx="308.1" cy="391.4" r="10.7" fill="#38bdf8" opacity="0.78" stroke="#0b0e13" stroke-width="0.5"/><circle cx="305.4" cy="413.0" r="10.7" fill="#fb923c" opacity="0.78" stroke="#0b0e13" stroke-width="0.5"/><circle cx="308.9" cy="434.1" r="10.7" fill="#fb923c" opacity="0.78" stroke="#0b0e13" stroke-width="0.5"/><circle cx="357.1" cy="26.9" r="10.7" fill="#38bdf8" opacity="0.78" stroke="#0b0e13" stroke-width="0.5"/><circle cx="341.7" cy="11.8" r="10.7" fill="#fb923c" opacity="0.78" stroke="#0b0e13" stroke-width="0.5"/><circle cx="331.6" cy="-7.3" r="10.7" fill="#fb923c" opacity="0.78" stroke="#0b0e13" stroke-width="0.5"/><circle cx="155.1" cy="212.8" r="10.7" fill="#38bdf8" opacity="0.78" stroke="#0b0e13" stroke-width="0.5"/><circle cx="134.5" cy="205.2" r="10.7" fill="#fb923c" opacity="0.78" stroke="#0b0e13" stroke-width="0.5"/><circle cx="114.8" cy="197.5" r="10.7" fill="#fb923c" opacity="0.78" stroke="#0b0e13" stroke-width="0.5"/><circle cx="159.2" cy="196.8" r="10.7" fill="#38bdf8" opacity="0.78" stroke="#0b0e13" stroke-width="0.5"/><circle cx="138.4" cy="190.2" r="10.7" fill="#fb923c" opacity="0.78" stroke="#0b0e13" stroke-width="0.5"/><circle cx="118.3" cy="182.3" r="10.7" fill="#fb923c" opacity="0.78" stroke="#0b0e13" stroke-width="0.5"/><circle cx="342.3" cy="293.8" r="10.7" fill="#38bdf8" opacity="0.78" stroke="#0b0e13" stroke-width="0.5"/><circle cx="324.3" cy="281.3" r="10.7" fill="#fb923c" opacity="0.78" stroke="#0b0e13" stroke-width="0.5"/><circle cx="303.0" cy="276.7" r="10.7" fill="#fb923c" opacity="0.78" stroke="#0b0e13" stroke-width="0.5"/><circle cx="102.3" cy="210.3" r="10.7" fill="#38bdf8" opacity="0.78" stroke="#0b0e13" stroke-width="0.5"/><circle cx="102.1" cy="188.6" r="10.7" fill="#fb923c" opacity="0.78" stroke="#0b0e13" stroke-width="0.5"/><circle cx="107.4" cy="167.9" r="10.7" fill="#fb923c" opacity="0.78" stroke="#0b0e13" stroke-width="0.5"/><circle cx="173.5" cy="160.8" r="10.7" fill="#38bdf8" opacity="0.78" stroke="#0b0e13" stroke-width="0.5"/><circle cx="153.3" cy="152.4" r="10.7" fill="#fb923c" opacity="0.78" stroke="#0b0e13" stroke-width="0.5"/><circle cx="135.1" cy="140.9" r="10.7" fill="#fb923c" opacity="0.78" stroke="#0b0e13" stroke-width="0.5"/><circle cx="292.4" cy="427.5" r="10.7" fill="#38bdf8" opacity="0.78" stroke="#0b0e13" stroke-width="0.5"/><circle cx="302.4" cy="446.8" r="10.7" fill="#fb923c" opacity="0.78" stroke="#0b0e13" stroke-width="0.5"/><circle cx="315.6" cy="463.4" r="10.7" fill="#fb923c" opacity="0.78" stroke="#0b0e13" stroke-width="0.5"/><circle cx="159.4" cy="230.1" r="10.7" fill="#38bdf8" opacity="0.78" stroke="#0b0e13" stroke-width="0.5"/><circle cx="139.4" cy="222.2" r="10.7" fill="#fb923c" opacity="0.78" stroke="#0b0e13" stroke-width="0.5"/><circle cx="121.0" cy="211.6" r="10.7" fill="#fb923c" opacity="0.78" stroke="#0b0e13" stroke-width="0.5"/><circle cx="277.7" cy="232.5" r="10.7" fill="#38bdf8" opacity="0.78" stroke="#0b0e13" stroke-width="0.5"/><circle cx="289.8" cy="250.8" r="10.7" fill="#fb923c" opacity="0.78" stroke="#0b0e13" stroke-width="0.5"/><circle cx="305.6" cy="265.1" r="10.7" fill="#fb923c" opacity="0.78" stroke="#0b0e13" stroke-width="0.5"/><circle cx="267.5" cy="235.9" r="10.7" fill="#38bdf8" opacity="0.78" stroke="#0b0e13" stroke-width="0.5"/><circle cx="279.0" cy="254.6" r="10.7" fill="#fb923c" opacity="0.78" stroke="#0b0e13" stroke-width="0.5"/><circle cx="293.1" cy="270.7" r="10.7" fill="#fb923c" opacity="0.78" stroke="#0b0e13" stroke-width="0.5"/><circle cx="341.9" cy="311.2" r="10.7" fill="#38bdf8" opacity="0.78" stroke="#0b0e13" stroke-width="0.5"/><circle cx="324.6" cy="297.3" r="10.7" fill="#fb923c" opacity="0.78" stroke="#0b0e13" stroke-width="0.5"/><circle cx="313.5" cy="279.3" r="10.7" fill="#fb923c" opacity="0.78" stroke="#0b0e13" stroke-width="0.5"/><circle cx="165.1" cy="210.3" r="10.7" fill="#38bdf8" opacity="0.78" stroke="#0b0e13" stroke-width="0.5"/><circle cx="146.9" cy="198.7" r="10.7" fill="#fb923c" opacity="0.78" stroke="#0b0e13" stroke-width="0.5"/><circle cx="129.9" cy="186.0" r="10.7" fill="#fb923c" opacity="0.78" stroke="#0b0e13" stroke-width="0.5"/><circle cx="298.8" cy="342.1" r="10.7" fill="#38bdf8" opacity="0.78" stroke="#0b0e13" stroke-width="0.5"/><circle cx="287.3" cy="323.1" r="10.7" fill="#fb923c" opacity="0.78" stroke="#0b0e13" stroke-width="0.5"/><circle cx="286.0" cy="301.6" r="10.7" fill="#fb923c" opacity="0.78" stroke="#0b0e13" stroke-width="0.5"/><circle cx="317.0" cy="327.9" r="10.7" fill="#38bdf8" opacity="0.78" stroke="#0b0e13" stroke-width="0.5"/><circle cx="300.2" cy="312.8" r="10.7" fill="#fb923c" opacity="0.78" stroke="#0b0e13" stroke-width="0.5"/><circle cx="278.5" cy="310.5" r="10.7" fill="#fb923c" opacity="0.78" stroke="#0b0e13" stroke-width="0.5"/><circle cx="329.9" cy="313.2" r="10.7" fill="#38bdf8" opacity="0.78" stroke="#0b0e13" stroke-width="0.5"/><circle cx="313.0" cy="298.9" r="10.7" fill="#fb923c" opacity="0.78" stroke="#0b0e13" stroke-width="0.5"/><circle cx="293.3" cy="291.2" r="10.7" fill="#fb923c" opacity="0.78" stroke="#0b0e13" stroke-width="0.5"/><circle cx="-93.7" cy="19.6" r="10.7" fill="#38bdf8" opacity="0.78" stroke="#0b0e13" stroke-width="0.5"/><circle cx="359.3" cy="7.4" r="10.7" fill="#fb923c" opacity="0.78" stroke="#0b0e13" stroke-width="0.5"/><circle cx="342.7" cy="-6.4" r="10.7" fill="#fb923c" opacity="0.78" stroke="#0b0e13" stroke-width="0.5"/><circle cx="410.3" cy="437.0" r="10.7" fill="#38bdf8" opacity="0.78" stroke="#0b0e13" stroke-width="0.5"/><circle cx="396.9" cy="454.0" r="10.7" fill="#fb923c" opacity="0.78" stroke="#0b0e13" stroke-width="0.5"/><circle cx="383.2" cy="470.3" r="10.7" fill="#fb923c" opacity="0.78" stroke="#0b0e13" stroke-width="0.5"/><circle cx="161.5" cy="241.7" r="10.7" fill="#38bdf8" opacity="0.78" stroke="#0b0e13" stroke-width="0.5"/><circle cx="140.5" cy="236.8" r="10.7" fill="#fb923c" opacity="0.78" stroke="#0b0e13" stroke-width="0.5"/><circle cx="121.7" cy="226.4" r="10.7" fill="#fb923c" opacity="0.78" stroke="#0b0e13" stroke-width="0.5"/><circle cx="172.0" cy="171.4" r="10.7" fill="#38bdf8" opacity="0.78" stroke="#0b0e13" stroke-width="0.5"/><circle cx="152.1" cy="163.0" r="10.7" fill="#fb923c" opacity="0.78" stroke="#0b0e13" stroke-width="0.5"/><circle cx="132.5" cy="154.1" r="10.7" fill="#fb923c" opacity="0.78" stroke="#0b0e13" stroke-width="0.5"/><circle cx="-107.0" cy="417.9" r="10.7" fill="#38bdf8" opacity="0.78" stroke="#0b0e13" stroke-width="0.5"/><circle cx="359.5" cy="439.3" r="10.7" fill="#fb923c" opacity="0.78" stroke="#0b0e13" stroke-width="0.5"/><circle cx="353.8" cy="459.9" r="10.7" fill="#fb923c" opacity="0.78" stroke="#0b0e13" stroke-width="0.5"/><circle cx="216.1" cy="272.6" r="10.7" fill="#38bdf8" opacity="0.78" stroke="#0b0e13" stroke-width="0.5"/><circle cx="233.2" cy="286.5" r="10.7" fill="#fb923c" opacity="0.78" stroke="#0b0e13" stroke-width="0.5"/><circle cx="249.5" cy="299.7" r="10.7" fill="#fb923c" opacity="0.78" stroke="#0b0e13" stroke-width="0.5"/><circle cx="245.3" cy="263.7" r="10.7" fill="#38bdf8" opacity="0.78" stroke="#0b0e13" stroke-width="0.5"/><circle cx="257.7" cy="282.2" r="10.7" fill="#fb923c" opacity="0.78" stroke="#0b0e13" stroke-width="0.5"/><circle cx="262.5" cy="303.4" r="10.7" fill="#fb923c" opacity="0.78" stroke="#0b0e13" stroke-width="0.5"/><rect x="0" y="518" width="560" height="42" fill="#0b0e13" opacity="0.92"/><text x="9" y="535" fill="#e2e8f0" font-family="monospace" font-size="12">2-D self-assembly, satt010_s3, t=20000</text><text x="9" y="552" fill="#94a3b8" font-family="monospace" font-size="11">cores 3 mean 19.7 largest 25  exposed 0.119  (all-bead linkage would say 3 / 25)   slab 2.0 thick, 177 lipid beads shown</text></svg>