<svg xmlns="http://www.w3.org/2000/svg" width="560" height="560"><rect width="560" height="560" fill="#0b0e13"/><circle cx="741.7" cy="671.0" r="10.7" fill="#1e3a5f" opacity="0.26"/><circle cx="775.5" cy="646.1" r="10.7" fill="#1e3a5f" opacity="0.26"/><circle cx="776.4" cy="358.7" r="10.7" fill="#1e3a5f" opacity="0.26"/><circle cx="711.4" cy="714.7" r="10.7" fill="#1e3a5f" opacity="0.26"/><circle cx="647.1" cy="492.7" r="10.7" fill="#1e3a5f" opacity="0.26"/><circle cx="723.3" cy="630.1" r="10.7" fill="#1e3a5f" opacity="0.26"/><circle cx="759.4" cy="680.8" r="10.7" fill="#1e3a5f" opacity="0.26"/><circle cx="751.2" cy="661.7" r="10.7" fill="#1e3a5f" opacity="0.26"/><circle cx="511.3" cy="397.6" r="10.7" fill="#1e3a5f" opacity="0.26"/><circle cx="545.4" cy="433.0" r="10.7" fill="#1e3a5f" opacity="0.26"/><circle cx="328.0" cy="396.4" r="10.7" fill="#1e3a5f" opacity="0.26"/><circle cx="524.3" cy="472.2" r="10.7" fill="#1e3a5f" opacity="0.26"/><circle cx="755.7" cy="635.5" r="10.7" fill="#1e3a5f" opacity="0.26"/><circle cx="672.0" cy="520.4" r="10.7" fill="#1e3a5f" opacity="0.26"/><circle cx="754.9" cy="382.2" r="10.7" fill="#1e3a5f" opacity="0.26"/><circle cx="660.1" cy="546.2" r="10.7" fill="#1e3a5f" opacity="0.26"/><circle cx="331.8" cy="359.3" r="10.7" fill="#1e3a5f" opacity="0.26"/><circle cx="394.8" cy="745.9" r="10.7" fill="#1e3a5f" opacity="0.26"/><circle cx="706.5" cy="681.1" r="10.7" fill="#1e3a5f" opacity="0.26"/><circle cx="661.5" cy="477.1" r="10.7" fill="#1e3a5f" opacity="0.26"/><circle cx="334.9" cy="348.5" r="10.7" fill="#1e3a5f" opacity="0.26"/><circle cx="538.7" cy="486.1" r="10.7" fill="#1e3a5f" opacity="0.26"/><circle cx="682.6" cy="525.7" r="10.7" fill="#1e3a5f" opacity="0.26"/><circle cx="550.7" cy="460.7" r="10.7" fill="#1e3a5f" opacity="0.26"/><circle cx="510.8" cy="438.9" r="10.7" fill="#1e3a5f" opacity="0.26"/><circle cx="770.5" cy="381.0" r="10.7" fill="#1e3a5f" opacity="0.26"/><circle cx="531.7" cy="454.0" r="10.7" fill="#1e3a5f" opacity="0.26"/><circle cx="325.8" cy="376.8" r="10.7" fill="#1e3a5f" opacity="0.26"/><circle cx="766.0" cy="647.4" r="10.7" fill="#1e3a5f" opacity="0.26"/><circle cx="766.8" cy="638.9" r="10.7" fill="#1e3a5f" opacity="0.26"/><circle cx="527.4" cy="398.8" r="10.7" fill="#1e3a5f" opacity="0.26"/><circle cx="666.9" cy="500.7" r="10.7" fill="#1e3a5f" opacity="0.26"/><circle cx="510.7" cy="410.8" r="10.7" fill="#1e3a5f" opacity="0.26"/><circle cx="747.3" cy="641.0" r="10.7" fill="#1e3a5f" opacity="0.26"/><circle cx="549.0" cy="441.8" r="10.7" fill="#1e3a5f" opacity="0.26"/><circle cx="722.5" cy="684.8" r="10.7" fill="#1e3a5f" opacity="0.26"/><circle cx="755.5" cy="696.2" r="10.7" fill="#1e3a5f" opacity="0.26"/><circle cx="398.4" cy="295.2" r="10.7" fill="#1e3a5f" opacity="0.26"/><circle cx="740.8" cy="690.7" r="10.7" fill="#1e3a5f" opacity="0.26"/><circle cx="633.1" cy="507.2" r="10.7" fill="#1e3a5f" opacity="0.26"/><circle cx="552.3" cy="451.1" r="10.7" fill="#1e3a5f" opacity="0.26"/><circle cx="413.5" cy="753.0" r="10.7" fill="#1e3a5f" opacity="0.26"/><circle cx="752.8" cy="342.3" r="10.7" fill="#1e3a5f" opacity="0.26"/><circle cx="718.5" cy="704.8" r="10.7" fill="#1e3a5f" opacity="0.26"/><circle cx="748.2" cy="372.7" r="10.7" fill="#1e3a5f" opacity="0.26"/><circle cx="665.2" cy="491.3" r="10.7" fill="#1e3a5f" opacity="0.26"/><circle cx="320.3" cy="685.2" r="10.7" fill="#1e3a5f" opacity="0.26"/><circle cx="785.4" cy="648.0" r="10.7" fill="#1e3a5f" opacity="0.26"/><circle cx="481.6" cy="468.2" r="10.7" fill="#1e3a5f" opacity="0.26"/><circle cx="490.0" cy="476.1" r="10.7" fill="#1e3a5f" opacity="0.26"/><circle cx="758.3" cy="665.6" r="10.7" fill="#1e3a5f" opacity="0.26"/><circle cx="689.3" cy="476.6" r="10.7" fill="#1e3a5f" opacity="0.26"/><circle cx="649.7" cy="477.4" r="10.7" fill="#1e3a5f" opacity="0.26"/><circle cx="730.3" cy="661.0" r="10.7" fill="#1e3a5f" opacity="0.26"/><circle cx="716.3" cy="676.7" r="10.7" fill="#1e3a5f" opacity="0.26"/><circle cx="781.7" cy="328.7" r="10.7" fill="#1e3a5f" opacity="0.26"/><circle cx="343.8" cy="366.9" r="10.7" fill="#1e3a5f" opacity="0.26"/><circle cx="662.9" cy="530.2" r="10.7" fill="#1e3a5f" opacity="0.26"/><circle cx="767.8" cy="352.8" r="10.7" fill="#1e3a5f" opacity="0.26"/><circle cx="324.4" cy="366.7" r="10.7" fill="#1e3a5f" opacity="0.26"/><circle cx="746.1" cy="696.5" r="10.7" fill="#1e3a5f" opacity="0.26"/><circle cx="542.7" cy="496.9" r="10.7" fill="#1e3a5f" opacity="0.26"/><circle cx="727.2" cy="668.0" r="10.7" fill="#1e3a5f" opacity="0.26"/><circle cx="748.7" cy="360.9" r="10.7" fill="#1e3a5f" opacity="0.26"/><circle cx="493.6" cy="432.0" r="10.7" fill="#1e3a5f" opacity="0.26"/><circle cx="739.5" cy="624.1" r="10.7" fill="#1e3a5f" opacity="0.26"/><circle cx="543.8" cy="454.1" r="10.7" fill="#1e3a5f" opacity="0.26"/><circle cx="755.4" cy="624.4" r="10.7" fill="#1e3a5f" opacity="0.26"/><circle cx="682.9" cy="514.8" r="10.7" fill="#1e3a5f" opacity="0.26"/><circle cx="514.7" cy="471.6" r="10.7" fill="#1e3a5f" opacity="0.26"/><circle cx="524.9" cy="489.2" r="10.7" fill="#1e3a5f" opacity="0.26"/><circle cx="779.9" cy="376.9" r="10.7" fill="#1e3a5f" opacity="0.26"/><circle cx="781.2" cy="367.3" r="10.7" fill="#1e3a5f" opacity="0.26"/><circle cx="760.9" cy="690.8" r="10.7" fill="#1e3a5f" opacity="0.26"/><circle cx="779.5" cy="683.2" r="10.7" fill="#1e3a5f" opacity="0.26"/><circle cx="747.7" cy="682.5" r="10.7" fill="#1e3a5f" opacity="0.26"/><circle cx="518.6" cy="416.1" r="10.7" fill="#1e3a5f" opacity="0.26"/><circle cx="734.4" cy="654.6" r="10.7" fill="#1e3a5f" opacity="0.26"/><circle cx="512.9" cy="431.2" r="10.7" fill="#1e3a5f" opacity="0.26"/><circle cx="766.9" cy="392.0" r="10.7" fill="#1e3a5f" opacity="0.26"/><circle cx="737.4" cy="664.7" r="10.7" fill="#1e3a5f" opacity="0.26"/><circle cx="504.5" cy="457.0" r="10.7" fill="#1e3a5f" opacity="0.26"/><circle cx="763.2" cy="337.0" r="10.7" fill="#1e3a5f" opacity="0.26"/><circle cx="768.0" cy="688.0" r="10.7" fill="#1e3a5f" opacity="0.26"/><circle cx="656.4" cy="497.6" r="10.7" fill="#1e3a5f" opacity="0.26"/><circle cx="763.4" cy="371.7" r="10.7" fill="#1e3a5f" opacity="0.26"/><circle cx="644.5" cy="522.0" r="10.7" fill="#1e3a5f" opacity="0.26"/><circle cx="658.8" cy="508.0" r="10.7" fill="#1e3a5f" opacity="0.26"/><circle cx="527.8" cy="501.2" r="10.7" fill="#1e3a5f" opacity="0.26"/><circle cx="787.6" cy="357.7" r="10.7" fill="#1e3a5f" opacity="0.26"/><circle cx="625.8" cy="524.6" r="10.7" fill="#1e3a5f" opacity="0.26"/><circle cx="541.4" cy="444.9" r="10.7" fill="#1e3a5f" opacity="0.26"/><circle cx="520.8" cy="426.6" r="10.7" fill="#1e3a5f" opacity="0.26"/><circle cx="755.6" cy="686.1" r="10.7" fill="#1e3a5f" opacity="0.26"/><circle cx="556.4" cy="413.2" r="10.7" fill="#1e3a5f" opacity="0.26"/><circle cx="766.2" cy="697.5" r="10.7" fill="#1e3a5f" opacity="0.26"/><circle cx="754.1" cy="671.8" r="10.7" fill="#1e3a5f" opacity="0.26"/><circle cx="738.5" cy="684.5" r="10.7" fill="#1e3a5f" opacity="0.26"/><circle cx="640.7" cy="501.9" r="10.7" fill="#1e3a5f" opacity="0.26"/><circle cx="511.0" cy="502.2" r="10.7" fill="#1e3a5f" opacity="0.26"/><circle cx="786.2" cy="676.0" r="10.7" fill="#1e3a5f" opacity="0.26"/><circle cx="766.5" cy="679.9" r="10.7" fill="#1e3a5f" opacity="0.26"/><circle cx="506.6" cy="466.3" r="10.7" fill="#1e3a5f" opacity="0.26"/><circle cx="748.8" cy="689.5" r="10.7" fill="#1e3a5f" opacity="0.26"/><circle cx="778.1" cy="672.5" r="10.7" fill="#1e3a5f" opacity="0.26"/><circle cx="331.8" cy="322.7" r="10.7" fill="#1e3a5f" opacity="0.26"/><circle cx="497.5" cy="459.3" r="10.7" fill="#1e3a5f" opacity="0.26"/><circle cx="526.4" cy="410.2" r="10.7" fill="#1e3a5f" opacity="0.26"/><circle cx="768.4" cy="671.0" r="10.7" fill="#1e3a5f" opacity="0.26"/><circle cx="725.1" cy="676.4" r="10.7" fill="#1e3a5f" opacity="0.26"/><circle cx="733.0" cy="363.6" r="10.7" fill="#1e3a5f" opacity="0.26"/><circle cx="738.6" cy="345.0" r="10.7" fill="#1e3a5f" opacity="0.26"/><circle cx="748.7" cy="326.6" r="10.7" fill="#1e3a5f" opacity="0.26"/><circle cx="783.0" cy="635.3" r="10.7" fill="#1e3a5f" opacity="0.26"/><circle cx="417.2" cy="301.8" r="10.7" fill="#1e3a5f" opacity="0.26"/><circle cx="519.7" cy="439.2" r="10.7" fill="#1e3a5f" opacity="0.26"/><circle cx="523.8" cy="454.9" r="10.7" fill="#1e3a5f" opacity="0.26"/><circle cx="673.6" cy="531.8" r="10.7" fill="#1e3a5f" opacity="0.26"/><circle cx="607.2" cy="530.2" r="10.7" fill="#1e3a5f" opacity="0.26"/><circle cx="730.9" cy="693.2" r="10.7" fill="#1e3a5f" opacity="0.26"/><circle cx="542.5" cy="466.8" r="10.7" fill="#1e3a5f" opacity="0.26"/><circle cx="532.0" cy="464.8" r="10.7" fill="#1e3a5f" opacity="0.26"/><circle cx="714.3" cy="686.9" r="10.7" fill="#1e3a5f" opacity="0.26"/><circle cx="729.0" cy="639.7" r="10.7" fill="#1e3a5f" opacity="0.26"/><circle cx="557.3" cy="432.2" r="10.7" fill="#1e3a5f" opacity="0.26"/><circle cx="537.8" cy="459.3" r="10.7" fill="#1e3a5f" opacity="0.26"/><circle cx="659.1" cy="463.1" r="10.7" fill="#1e3a5f" opacity="0.26"/><circle cx="641.0" cy="512.2" r="10.7" fill="#1e3a5f" opacity="0.26"/><circle cx="530.0" cy="440.4" r="10.7" fill="#1e3a5f" opacity="0.26"/><circle cx="622.0" cy="536.6" r="10.7" fill="#1e3a5f" opacity="0.26"/><circle cx="687.4" cy="506.3" r="10.7" fill="#1e3a5f" opacity="0.26"/><circle cx="747.5" cy="649.7" r="10.7" fill="#1e3a5f" opacity="0.26"/><circle cx="670.3" cy="482.2" r="10.7" fill="#1e3a5f" opacity="0.26"/><circle cx="701.7" cy="653.1" r="10.7" fill="#1e3a5f" opacity="0.26"/><circle cx="781.4" cy="656.1" r="10.7" fill="#1e3a5f" opacity="0.26"/><circle cx="327.3" cy="341.3" r="10.7" fill="#1e3a5f" opacity="0.26"/><circle cx="699.0" cy="490.2" r="10.7" fill="#1e3a5f" opacity="0.26"/><circle cx="690.1" cy="537.8" r="10.7" fill="#1e3a5f" opacity="0.26"/><circle cx="727.6" cy="648.7" r="10.7" fill="#1e3a5f" opacity="0.26"/><circle cx="529.4" cy="420.0" r="10.7" fill="#1e3a5f" opacity="0.26"/><circle cx="679.5" cy="486.7" r="10.7" fill="#1e3a5f" opacity="0.26"/><circle cx="519.6" cy="480.4" r="10.7" fill="#1e3a5f" opacity="0.26"/><circle cx="684.7" cy="495.5" r="10.7" fill="#1e3a5f" opacity="0.26"/><circle cx="350.2" cy="350.7" r="10.7" fill="#1e3a5f" opacity="0.26"/><circle cx="488.6" cy="457.4" r="10.7" fill="#1e3a5f" opacity="0.26"/><circle cx="524.1" cy="446.6" r="10.7" fill="#1e3a5f" opacity="0.26"/><circle cx="508.7" cy="477.0" r="10.7" fill="#1e3a5f" opacity="0.26"/><circle cx="409.5" cy="734.1" r="10.7" fill="#1e3a5f" opacity="0.26"/><circle cx="770.7" cy="627.9" r="10.7" fill="#1e3a5f" opacity="0.26"/><circle cx="424.9" cy="722.1" r="10.7" fill="#1e3a5f" opacity="0.26"/><circle cx="524.7" cy="434.0" r="10.7" fill="#1e3a5f" opacity="0.26"/><circle cx="743.7" cy="661.2" r="10.7" fill="#1e3a5f" opacity="0.26"/><circle cx="770.7" cy="664.0" r="10.7" fill="#1e3a5f" opacity="0.26"/><circle cx="670.3" cy="510.9" r="10.7" fill="#1e3a5f" opacity="0.26"/><circle cx="538.8" cy="415.6" r="10.7" fill="#1e3a5f" opacity="0.26"/><circle cx="651.7" cy="535.0" r="10.7" fill="#1e3a5f" opacity="0.26"/><circle cx="533.8" cy="447.9" r="10.7" fill="#1e3a5f" opacity="0.26"/><circle cx="748.0" cy="669.1" r="10.7" fill="#1e3a5f" opacity="0.26"/><circle cx="717.4" cy="649.3" r="10.7" fill="#1e3a5f" opacity="0.26"/><circle cx="504.0" cy="431.0" r="10.7" fill="#1e3a5f" opacity="0.26"/><circle cx="741.9" cy="677.9" r="10.7" fill="#1e3a5f" opacity="0.26"/><circle cx="772.7" cy="345.0" r="10.7" fill="#1e3a5f" opacity="0.26"/><circle cx="317.5" cy="348.4" r="10.7" fill="#1e3a5f" opacity="0.26"/><circle cx="765.6" cy="363.8" r="10.7" fill="#1e3a5f" opacity="0.26"/><circle cx="635.1" cy="522.1" r="10.7" fill="#1e3a5f" opacity="0.26"/><circle cx="514.1" cy="489.7" r="10.7" fill="#1e3a5f" opacity="0.26"/><circle cx="737.6" cy="645.0" r="10.7" fill="#1e3a5f" opacity="0.26"/><circle cx="336.8" cy="677.9" r="10.7" fill="#1e3a5f" opacity="0.26"/><circle cx="753.6" cy="655.1" r="10.7" fill="#1e3a5f" opacity="0.26"/><circle cx="734.1" cy="672.4" r="10.7" fill="#1e3a5f" opacity="0.26"/><circle cx="721.6" cy="695.6" r="10.7" fill="#1e3a5f" opacity="0.26"/><circle cx="540.2" cy="424.5" r="10.7" fill="#1e3a5f" opacity="0.26"/><circle cx="326.2" cy="677.4" r="10.7" fill="#1e3a5f" opacity="0.26"/><circle cx="650.4" cy="506.3" r="10.7" fill="#1e3a5f" opacity="0.26"/><circle cx="496.5" cy="449.8" r="10.7" fill="#1e3a5f" opacity="0.26"/><circle cx="537.5" cy="436.4" r="10.7" fill="#1e3a5f" opacity="0.26"/><circle cx="642.0" cy="532.9" r="10.7" fill="#1e3a5f" opacity="0.26"/><circle cx="680.1" cy="550.1" r="10.7" fill="#1e3a5f" opacity="0.26"/><circle cx="770.8" cy="655.7" r="10.7" fill="#1e3a5f" opacity="0.26"/><circle cx="711.0" cy="640.0" r="10.7" fill="#1e3a5f" opacity="0.26"/><circle cx="768.4" cy="329.2" r="10.7" fill="#1e3a5f" opacity="0.26"/><circle cx="495.7" cy="467.3" r="10.7" fill="#1e3a5f" opacity="0.26"/><circle cx="701.0" cy="700.3" r="10.7" fill="#1e3a5f" opacity="0.26"/><circle cx="531.6" cy="429.3" r="10.7" fill="#1e3a5f" opacity="0.26"/><circle cx="338.1" cy="381.9" r="10.7" fill="#1e3a5f" opacity="0.26"/><circle cx="756.2" cy="353.6" r="10.7" fill="#1e3a5f" opacity="0.26"/><circle cx="779.8" cy="399.8" r="10.7" fill="#1e3a5f" opacity="0.26"/><circle cx="502.5" cy="441.0" r="10.7" fill="#1e3a5f" opacity="0.26"/><circle cx="761.3" cy="672.7" r="10.7" fill="#1e3a5f" opacity="0.26"/><circle cx="655.2" cy="526.0" r="10.7" fill="#1e3a5f" opacity="0.26"/><circle cx="543.4" cy="404.6" r="10.7" fill="#1e3a5f" opacity="0.26"/><circle cx="786.8" cy="386.0" r="10.7" fill="#1e3a5f" opacity="0.26"/><circle cx="676.4" cy="467.0" r="10.7" fill="#1e3a5f" opacity="0.26"/><circle cx="665.3" cy="559.8" r="10.7" fill="#1e3a5f" opacity="0.26"/><circle cx="722.4" cy="657.5" r="10.7" fill="#1e3a5f" opacity="0.26"/><circle cx="472.7" cy="478.6" r="10.7" fill="#1e3a5f" opacity="0.26"/><circle cx="652.5" cy="516.0" r="10.7" fill="#1e3a5f" opacity="0.26"/><circle cx="737.0" cy="698.6" r="10.7" fill="#1e3a5f" opacity="0.26"/><circle cx="320.9" cy="658.9" r="10.7" fill="#1e3a5f" opacity="0.26"/><circle cx="323.7" cy="331.3" r="10.7" fill="#1e3a5f" opacity="0.26"/><circle cx="756.3" cy="645.0" r="10.7" fill="#1e3a5f" opacity="0.26"/><circle cx="499.5" cy="475.2" r="10.7" fill="#1e3a5f" opacity="0.26"/><circle cx="732.3" cy="711.7" r="10.7" fill="#1e3a5f" opacity="0.26"/><circle cx="485.4" cy="487.1" r="10.7" fill="#1e3a5f" opacity="0.26"/><circle cx="543.2" cy="477.3" r="10.7" fill="#1e3a5f" opacity="0.26"/><circle cx="732.9" cy="679.3" r="10.7" fill="#1e3a5f" opacity="0.26"/><circle cx="669.9" cy="540.8" r="10.7" fill="#1e3a5f" opacity="0.26"/><circle cx="739.0" cy="706.0" r="10.7" fill="#1e3a5f" opacity="0.26"/><circle cx="524.5" cy="462.8" r="10.7" fill="#1e3a5f" opacity="0.26"/><circle cx="708.9" cy="669.3" r="10.7" fill="#1e3a5f" opacity="0.26"/><circle cx="778.2" cy="664.1" r="10.7" fill="#1e3a5f" opacity="0.26"/><circle cx="496.5" cy="494.2" r="10.7" fill="#1e3a5f" opacity="0.26"/><circle cx="512.0" cy="458.4" r="10.7" fill="#1e3a5f" opacity="0.26"/><circle cx="428.7" cy="741.1" r="10.7" fill="#1e3a5f" opacity="0.26"/><circle cx="504.4" cy="485.6" r="10.7" fill="#1e3a5f" opacity="0.26"/><circle cx="513.9" cy="446.0" r="10.7" fill="#1e3a5f" opacity="0.26"/><circle cx="331.6" cy="661.5" r="10.7" fill="#1e3a5f" opacity="0.26"/><circle cx="530.0" cy="480.8" r="10.7" fill="#1e3a5f" opacity="0.26"/><circle cx="379.4" cy="287.8" r="10.7" fill="#1e3a5f" opacity="0.26"/><circle cx="729.7" cy="686.7" r="10.7" fill="#1e3a5f" opacity="0.26"/><circle cx="727.9" cy="703.0" r="10.7" fill="#1e3a5f" opacity="0.26"/><circle cx="760.8" cy="654.1" r="10.7" fill="#1e3a5f" opacity="0.26"/><circle cx="534.5" cy="472.6" r="10.7" fill="#1e3a5f" opacity="0.26"/><circle cx="675.3" cy="501.7" r="10.7" fill="#1e3a5f" opacity="0.26"/><circle cx="781.5" cy="340.5" r="10.7" fill="#1e3a5f" opacity="0.26"/><circle cx="742.1" cy="654.3" r="10.7" fill="#1e3a5f" opacity="0.26"/><circle cx="511.1" cy="422.4" r="10.7" fill="#1e3a5f" opacity="0.26"/><circle cx="698.2" cy="523.0" r="10.7" fill="#1e3a5f" opacity="0.26"/><circle cx="701.1" cy="507.1" r="10.7" fill="#1e3a5f" opacity="0.26"/><circle cx="619.1" cy="516.6" r="10.7" fill="#1e3a5f" opacity="0.26"/><circle cx="517.0" cy="464.5" r="10.7" fill="#1e3a5f" opacity="0.26"/><circle cx="774.6" cy="691.1" r="10.7" fill="#1e3a5f" opacity="0.26"/><circle cx="652.8" cy="486.8" r="10.7" fill="#1e3a5f" opacity="0.26"/><circle cx="552.0" cy="424.0" r="10.7" fill="#1e3a5f" opacity="0.26"/><circle cx="662.8" cy="517.8" r="10.7" fill="#1e3a5f" opacity="0.26"/><circle cx="505.9" cy="448.9" r="10.7" fill="#1e3a5f" opacity="0.26"/><circle cx="773.1" cy="678.5" r="10.7" fill="#1e3a5f" opacity="0.26"/><circle cx="516.9" cy="452.7" r="10.7" fill="#1e3a5f" opacity="0.26"/><circle cx="718.9" cy="667.5" r="10.7" fill="#1e3a5f" opacity="0.26"/><circle cx="711.3" cy="696.0" r="10.7" fill="#1e3a5f" opacity="0.26"/><circle cx="752.0" cy="677.6" r="10.7" fill="#1e3a5f" opacity="0.26"/><circle cx="318.2" cy="667.4" r="10.7" fill="#1e3a5f" opacity="0.26"/><circle cx="740.4" cy="634.8" r="10.7" fill="#1e3a5f" opacity="0.26"/><circle cx="747.6" cy="703.2" r="10.7" fill="#1e3a5f" opacity="0.26"/><circle cx="650.1" cy="546.4" r="10.7" fill="#1e3a5f" opacity="0.26"/><circle cx="432.5" cy="289.5" r="10.7" fill="#1e3a5f" opacity="0.26"/><circle cx="763.1" cy="661.2" r="10.7" fill="#1e3a5f" opacity="0.26"/><circle cx="344.2" cy="333.2" r="10.7" fill="#1e3a5f" opacity="0.26"/><circle cx="712.3" cy="659.5" r="10.7" fill="#1e3a5f" opacity="0.26"/><circle cx="724.5" cy="718.1" r="10.7" fill="#1e3a5f" opacity="0.26"/><line x1="494.0" y1="440.4" x2="475.1" y2="429.2" stroke="#e2e8f0" stroke-width="0.9" opacity="0.5"/><line x1="356.7" y1="262.6" x2="338.8" y2="274.4" stroke="#e2e8f0" stroke-width="0.9" opacity="0.5"/><line x1="292.3" y1="409.8" x2="279.4" y2="427.1" stroke="#e2e8f0" stroke-width="0.9" opacity="0.5"/><line x1="622.7" y1="505.9" x2="606.9" y2="491.1" stroke="#e2e8f0" stroke-width="0.9" opacity="0.5"/><line x1="697.2" y1="197.7" x2="676.8" y2="204.3" stroke="#e2e8f0" stroke-width="0.9" opacity="0.5"/><line x1="500.7" y1="420.8" x2="479.0" y2="420.1" stroke="#e2e8f0" stroke-width="0.9" opacity="0.5"/><line x1="311.8" y1="317.2" x2="311.4" y2="295.3" stroke="#e2e8f0" stroke-width="0.9" opacity="0.5"/><line x1="293.2" y1="238.2" x2="303.6" y2="257.5" stroke="#e2e8f0" stroke-width="0.9" opacity="0.5"/><line x1="631.8" y1="485.5" x2="616.1" y2="470.3" stroke="#e2e8f0" stroke-width="0.9" opacity="0.5"/><line x1="620.6" y1="497.3" x2="608.6" y2="479.3" stroke="#e2e8f0" stroke-width="0.9" opacity="0.5"/><line x1="461.7" y1="466.5" x2="453.0" y2="446.4" stroke="#e2e8f0" stroke-width="0.9" opacity="0.5"/><line x1="272.1" y1="254.6" x2="290.1" y2="266.9" stroke="#e2e8f0" stroke-width="0.9" opacity="0.5"/><line x1="304.9" y1="228.8" x2="308.7" y2="250.4" stroke="#e2e8f0" stroke-width="0.9" opacity="0.5"/><line x1="469.3" y1="452.7" x2="456.6" y2="434.8" stroke="#e2e8f0" stroke-width="0.9" opacity="0.5"/><line x1="559.2" y1="491.0" x2="580.6" y2="489.3" stroke="#e2e8f0" stroke-width="0.9" opacity="0.5"/><line x1="491.9" y1="390.0" x2="470.8" y2="395.5" stroke="#e2e8f0" stroke-width="0.9" opacity="0.5"/><line x1="499.0" y1="407.9" x2="476.6" y2="408.7" stroke="#e2e8f0" stroke-width="0.9" opacity="0.5"/><line x1="484.4" y1="448.1" x2="467.4" y2="434.4" stroke="#e2e8f0" stroke-width="0.9" opacity="0.5"/><line x1="287.6" y1="232.6" x2="300.9" y2="250.1" stroke="#e2e8f0" stroke-width="0.9" opacity="0.5"/><line x1="442.8" y1="464.9" x2="443.8" y2="442.8" stroke="#e2e8f0" stroke-width="0.9" opacity="0.5"/><line x1="338.2" y1="239.5" x2="327.7" y2="258.7" stroke="#e2e8f0" stroke-width="0.9" opacity="0.5"/><line x1="405.7" y1="595.6" x2="384.5" y2="599.5" stroke="#e2e8f0" stroke-width="0.9" opacity="0.5"/><line x1="559.9" y1="444.1" x2="578.2" y2="455.6" stroke="#e2e8f0" stroke-width="0.9" opacity="0.5"/><line x1="352.1" y1="241.5" x2="337.3" y2="257.8" stroke="#e2e8f0" stroke-width="0.9" opacity="0.5"/><line x1="491.8" y1="421.3" x2="470.7" y2="416.2" stroke="#e2e8f0" stroke-width="0.9" opacity="0.5"/><line x1="398.8" y1="614.9" x2="377.4" y2="616.3" stroke="#e2e8f0" stroke-width="0.9" opacity="0.5"/><line x1="327.8" y1="643.9" x2="347.5" y2="634.9" stroke="#e2e8f0" stroke-width="0.9" opacity="0.5"/><line x1="261.4" y1="259.4" x2="281.8" y2="268.7" stroke="#e2e8f0" stroke-width="0.9" opacity="0.5"/><line x1="228.9" y1="460.2" x2="242.5" y2="442.7" stroke="#e2e8f0" stroke-width="0.9" opacity="0.5"/><line x1="604.8" y1="511.6" x2="593.5" y2="493.4" stroke="#e2e8f0" stroke-width="0.9" opacity="0.5"/><line x1="483.1" y1="439.7" x2="466.5" y2="425.4" stroke="#e2e8f0" stroke-width="0.9" opacity="0.5"/><line x1="553.7" y1="471.3" x2="575.7" y2="469.8" stroke="#e2e8f0" stroke-width="0.9" opacity="0.5"/><line x1="635.9" y1="492.5" x2="618.2" y2="479.1" stroke="#e2e8f0" stroke-width="0.9" opacity="0.5"/><line x1="553.3" y1="481.3" x2="574.6" y2="478.7" stroke="#e2e8f0" stroke-width="0.9" opacity="0.5"/><line x1="640.7" y1="459.4" x2="620.3" y2="452.4" stroke="#e2e8f0" stroke-width="0.9" opacity="0.5"/><line x1="335.0" y1="225.0" x2="328.6" y2="246.3" stroke="#e2e8f0" stroke-width="0.9" opacity="0.5"/><line x1="566.6" y1="451.1" x2="587.9" y2="456.2" stroke="#e2e8f0" stroke-width="0.9" opacity="0.5"/><line x1="560.8" y1="465.1" x2="582.5" y2="464.5" stroke="#e2e8f0" stroke-width="0.9" opacity="0.5"/><line x1="272.8" y1="245.0" x2="289.8" y2="258.8" stroke="#e2e8f0" stroke-width="0.9" opacity="0.5"/><line x1="573.7" y1="588.4" x2="592.7" y2="577.5" stroke="#e2e8f0" stroke-width="0.9" opacity="0.5"/><line x1="264.9" y1="384.4" x2="258.9" y2="405.3" stroke="#e2e8f0" stroke-width="0.9" opacity="0.5"/><line x1="314.5" y1="222.0" x2="315.3" y2="244.3" stroke="#e2e8f0" stroke-width="0.9" opacity="0.5"/><line x1="340.5" y1="307.5" x2="332.1" y2="287.5" stroke="#e2e8f0" stroke-width="0.9" opacity="0.5"/><line x1="266.1" y1="274.3" x2="286.3" y2="281.8" stroke="#e2e8f0" stroke-width="0.9" opacity="0.5"/><line x1="647.4" y1="563.4" x2="630.8" y2="577.8" stroke="#e2e8f0" stroke-width="0.9" opacity="0.5"/><line x1="278.3" y1="397.2" x2="271.1" y2="417.7" stroke="#e2e8f0" stroke-width="0.9" opacity="0.5"/><line x1="569.5" y1="435.0" x2="586.6" y2="448.0" stroke="#e2e8f0" stroke-width="0.9" opacity="0.5"/><line x1="325.0" y1="227.9" x2="322.2" y2="249.9" stroke="#e2e8f0" stroke-width="0.9" opacity="0.5"/><line x1="294.4" y1="316.3" x2="297.4" y2="294.9" stroke="#e2e8f0" stroke-width="0.9" opacity="0.5"/><line x1="577.8" y1="570.5" x2="592.1" y2="587.3" stroke="#e2e8f0" stroke-width="0.9" opacity="0.5"/><line x1="302.1" y1="237.6" x2="310.9" y2="257.7" stroke="#e2e8f0" stroke-width="0.9" opacity="0.5"/><line x1="422.7" y1="443.3" x2="430.2" y2="422.9" stroke="#e2e8f0" stroke-width="0.9" opacity="0.5"/><line x1="636.9" y1="550.1" x2="624.6" y2="567.8" stroke="#e2e8f0" stroke-width="0.9" opacity="0.5"/><line x1="478.2" y1="459.4" x2="464.3" y2="442.4" stroke="#e2e8f0" stroke-width="0.9" opacity="0.5"/><line x1="282.7" y1="240.3" x2="296.9" y2="256.8" stroke="#e2e8f0" stroke-width="0.9" opacity="0.5"/><line x1="695.8" y1="213.9" x2="676.3" y2="222.9" stroke="#e2e8f0" stroke-width="0.9" opacity="0.5"/><line x1="633.2" y1="540.0" x2="616.4" y2="553.8" stroke="#e2e8f0" stroke-width="0.9" opacity="0.5"/><line x1="488.0" y1="403.9" x2="466.4" y2="406.3" stroke="#e2e8f0" stroke-width="0.9" opacity="0.5"/><line x1="315.3" y1="232.1" x2="316.9" y2="253.9" stroke="#e2e8f0" stroke-width="0.9" opacity="0.5"/><line x1="572.8" y1="421.9" x2="587.9" y2="438.1" stroke="#e2e8f0" stroke-width="0.9" opacity="0.5"/><line x1="637.7" y1="474.2" x2="619.6" y2="463.1" stroke="#e2e8f0" stroke-width="0.9" opacity="0.5"/><line x1="284.1" y1="248.4" x2="298.7" y2="264.7" stroke="#e2e8f0" stroke-width="0.9" opacity="0.5"/><line x1="475.1" y1="429.2" x2="461.2" y2="413.2" stroke="#e2e8f0" stroke-width="0.9" opacity="0.5"/><line x1="279.4" y1="427.1" x2="260.8" y2="438.6" stroke="#e2e8f0" stroke-width="0.9" opacity="0.5"/><line x1="606.9" y1="491.1" x2="587.2" y2="482.7" stroke="#e2e8f0" stroke-width="0.9" opacity="0.5"/><line x1="676.8" y1="204.3" x2="657.8" y2="213.9" stroke="#e2e8f0" stroke-width="0.9" opacity="0.5"/><line x1="479.0" y1="420.1" x2="458.0" y2="418.9" stroke="#e2e8f0" stroke-width="0.9" opacity="0.5"/><line x1="616.1" y1="470.3" x2="609.4" y2="449.3" stroke="#e2e8f0" stroke-width="0.9" opacity="0.5"/><line x1="608.6" y1="479.3" x2="590.3" y2="467.5" stroke="#e2e8f0" stroke-width="0.9" opacity="0.5"/><line x1="453.0" y1="446.4" x2="437.7" y2="431.4" stroke="#e2e8f0" stroke-width="0.9" opacity="0.5"/><line x1="290.1" y1="266.9" x2="303.8" y2="283.3" stroke="#e2e8f0" stroke-width="0.9" opacity="0.5"/><line x1="308.7" y1="250.4" x2="301.5" y2="270.8" stroke="#e2e8f0" stroke-width="0.9" opacity="0.5"/><line x1="456.6" y1="434.8" x2="441.1" y2="419.9" stroke="#e2e8f0" stroke-width="0.9" opacity="0.5"/><line x1="580.6" y1="489.3" x2="601.5" y2="484.7" stroke="#e2e8f0" stroke-width="0.9" opacity="0.5"/><line x1="470.8" y1="395.5" x2="449.4" y2="395.7" stroke="#e2e8f0" stroke-width="0.9" opacity="0.5"/><line x1="476.6" y1="408.7" x2="457.8" y2="398.2" stroke="#e2e8f0" stroke-width="0.9" opacity="0.5"/><line x1="467.4" y1="434.4" x2="448.9" y2="424.4" stroke="#e2e8f0" stroke-width="0.9" opacity="0.5"/><line x1="443.8" y1="442.8" x2="457.6" y2="425.8" stroke="#e2e8f0" stroke-width="0.9" opacity="0.5"/><line x1="327.7" y1="258.7" x2="323.6" y2="279.9" stroke="#e2e8f0" stroke-width="0.9" opacity="0.5"/><line x1="384.5" y1="599.5" x2="363.6" y2="602.6" stroke="#e2e8f0" stroke-width="0.9" opacity="0.5"/><line x1="578.2" y1="455.6" x2="597.0" y2="465.3" stroke="#e2e8f0" stroke-width="0.9" opacity="0.5"/><line x1="337.3" y1="257.8" x2="331.0" y2="278.3" stroke="#e2e8f0" stroke-width="0.9" opacity="0.5"/><line x1="470.7" y1="416.2" x2="449.4" y2="415.4" stroke="#e2e8f0" stroke-width="0.9" opacity="0.5"/><line x1="377.4" y1="616.3" x2="356.2" y2="618.1" stroke="#e2e8f0" stroke-width="0.9" opacity="0.5"/><line x1="347.5" y1="634.9" x2="368.6" y2="631.7" stroke="#e2e8f0" stroke-width="0.9" opacity="0.5"/><line x1="281.8" y1="268.7" x2="295.0" y2="285.5" stroke="#e2e8f0" stroke-width="0.9" opacity="0.5"/><line x1="242.5" y1="442.7" x2="246.9" y2="421.7" stroke="#e2e8f0" stroke-width="0.9" opacity="0.5"/><line x1="593.5" y1="493.4" x2="585.2" y2="473.7" stroke="#e2e8f0" stroke-width="0.9" opacity="0.5"/><line x1="466.5" y1="425.4" x2="455.2" y2="407.3" stroke="#e2e8f0" stroke-width="0.9" opacity="0.5"/><line x1="575.7" y1="469.8" x2="594.8" y2="480.4" stroke="#e2e8f0" stroke-width="0.9" opacity="0.5"/><line x1="618.2" y1="479.1" x2="609.9" y2="459.1" stroke="#e2e8f0" stroke-width="0.9" opacity="0.5"/><line x1="574.6" y1="478.7" x2="595.3" y2="473.9" stroke="#e2e8f0" stroke-width="0.9" opacity="0.5"/><line x1="620.3" y1="452.4" x2="601.6" y2="442.2" stroke="#e2e8f0" stroke-width="0.9" opacity="0.5"/><line x1="328.6" y1="246.3" x2="322.2" y2="266.0" stroke="#e2e8f0" stroke-width="0.9" opacity="0.5"/><line x1="587.9" y1="456.2" x2="606.3" y2="467.6" stroke="#e2e8f0" stroke-width="0.9" opacity="0.5"/><line x1="582.5" y1="464.5" x2="602.5" y2="473.4" stroke="#e2e8f0" stroke-width="0.9" opacity="0.5"/><line x1="289.8" y1="258.8" x2="308.0" y2="269.5" stroke="#e2e8f0" stroke-width="0.9" opacity="0.5"/><line x1="592.7" y1="577.5" x2="612.4" y2="570.4" stroke="#e2e8f0" stroke-width="0.9" opacity="0.5"/><line x1="258.9" y1="405.3" x2="259.5" y2="426.6" stroke="#e2e8f0" stroke-width="0.9" opacity="0.5"/><line x1="315.3" y1="244.3" x2="308.2" y2="264.2" stroke="#e2e8f0" stroke-width="0.9" opacity="0.5"/><line x1="630.8" y1="577.8" x2="609.2" y2="581.7" stroke="#e2e8f0" stroke-width="0.9" opacity="0.5"/><line x1="271.1" y1="417.7" x2="274.2" y2="439.4" stroke="#e2e8f0" stroke-width="0.9" opacity="0.5"/><line x1="586.6" y1="448.0" x2="603.0" y2="461.3" stroke="#e2e8f0" stroke-width="0.9" opacity="0.5"/><line x1="322.2" y1="249.9" x2="327.4" y2="270.6" stroke="#e2e8f0" stroke-width="0.9" opacity="0.5"/><line x1="592.1" y1="587.3" x2="609.0" y2="599.7" stroke="#e2e8f0" stroke-width="0.9" opacity="0.5"/><line x1="430.2" y1="422.9" x2="437.3" y2="403.2" stroke="#e2e8f0" stroke-width="0.9" opacity="0.5"/><line x1="624.6" y1="567.8" x2="620.8" y2="589.2" stroke="#e2e8f0" stroke-width="0.9" opacity="0.5"/><line x1="464.3" y1="442.4" x2="446.6" y2="431.1" stroke="#e2e8f0" stroke-width="0.9" opacity="0.5"/><line x1="296.9" y1="256.8" x2="305.8" y2="276.3" stroke="#e2e8f0" stroke-width="0.9" opacity="0.5"/><line x1="676.3" y1="222.9" x2="657.5" y2="232.7" stroke="#e2e8f0" stroke-width="0.9" opacity="0.5"/><line x1="616.4" y1="553.8" x2="598.0" y2="564.0" stroke="#e2e8f0" stroke-width="0.9" opacity="0.5"/><line x1="466.4" y1="406.3" x2="445.1" y2="409.5" stroke="#e2e8f0" stroke-width="0.9" opacity="0.5"/><line x1="316.9" y1="253.9" x2="312.6" y2="274.8" stroke="#e2e8f0" stroke-width="0.9" opacity="0.5"/><line x1="587.9" y1="438.1" x2="594.8" y2="458.0" stroke="#e2e8f0" stroke-width="0.9" opacity="0.5"/><line x1="619.6" y1="463.1" x2="600.8" y2="452.3" stroke="#e2e8f0" stroke-width="0.9" opacity="0.5"/><line x1="298.7" y1="264.7" x2="311.6" y2="281.7" stroke="#e2e8f0" stroke-width="0.9" opacity="0.5"/><circle cx="494.0" cy="440.4" r="10.7" fill="#38bdf8" opacity="0.78" stroke="#0b0e13" stroke-width="0.5"/><circle cx="475.1" cy="429.2" r="10.7" fill="#fb923c" opacity="0.78" stroke="#0b0e13" stroke-width="0.5"/><circle cx="461.2" cy="413.2" r="10.7" fill="#fb923c" opacity="0.78" stroke="#0b0e13" stroke-width="0.5"/><circle cx="356.7" cy="262.6" r="10.7" fill="#38bdf8" opacity="0.78" stroke="#0b0e13" stroke-width="0.5"/><circle cx="338.8" cy="274.4" r="10.7" fill="#fb923c" opacity="0.78" stroke="#0b0e13" stroke-width="0.5"/><circle cx="323.8" cy="-180.5" r="10.7" fill="#fb923c" opacity="0.78" stroke="#0b0e13" stroke-width="0.5"/><circle cx="292.3" cy="409.8" r="10.7" fill="#38bdf8" opacity="0.78" stroke="#0b0e13" stroke-width="0.5"/><circle cx="279.4" cy="427.1" r="10.7" fill="#fb923c" opacity="0.78" stroke="#0b0e13" stroke-width="0.5"/><circle cx="260.8" cy="438.6" r="10.7" fill="#fb923c" opacity="0.78" stroke="#0b0e13" stroke-width="0.5"/><circle cx="622.7" cy="505.9" r="10.7" fill="#38bdf8" opacity="0.78" stroke="#0b0e13" stroke-width="0.5"/><circle cx="606.9" cy="491.1" r="10.7" fill="#fb923c" opacity="0.78" stroke="#0b0e13" stroke-width="0.5"/><circle cx="587.2" cy="482.7" r="10.7" fill="#fb923c" opacity="0.78" stroke="#0b0e13" stroke-width="0.5"/><circle cx="697.2" cy="197.7" r="10.7" fill="#38bdf8" opacity="0.78" stroke="#0b0e13" stroke-width="0.5"/><circle cx="676.8" cy="204.3" r="10.7" fill="#fb923c" opacity="0.78" stroke="#0b0e13" stroke-width="0.5"/><circle cx="657.8" cy="213.9" r="10.7" fill="#fb923c" opacity="0.78" stroke="#0b0e13" stroke-width="0.5"/><circle cx="500.7" cy="420.8" r="10.7" fill="#38bdf8" opacity="0.78" stroke="#0b0e13" stroke-width="0.5"/><circle cx="479.0" cy="420.1" r="10.7" fill="#fb923c" opacity="0.78" stroke="#0b0e13" stroke-width="0.5"/><circle cx="458.0" cy="418.9" r="10.7" fill="#fb923c" opacity="0.78" stroke="#0b0e13" stroke-width="0.5"/><circle cx="311.8" cy="317.2" r="10.7" fill="#38bdf8" opacity="0.78" stroke="#0b0e13" stroke-width="0.5"/><circle cx="311.4" cy="295.3" r="10.7" fill="#fb923c" opacity="0.78" stroke="#0b0e13" stroke-width="0.5"/><circle cx="298.9" cy="747.6" r="10.7" fill="#fb923c" opacity="0.78" stroke="#0b0e13" stroke-width="0.5"/><circle cx="293.2" cy="238.2" r="10.7" fill="#38bdf8" opacity="0.78" stroke="#0b0e13" stroke-width="0.5"/><circle cx="303.6" cy="257.5" r="10.7" fill="#fb923c" opacity="0.78" stroke="#0b0e13" stroke-width="0.5"/><circle cx="-150.7" cy="271.6" r="10.7" fill="#fb923c" opacity="0.78" stroke="#0b0e13" stroke-width="0.5"/><circle cx="631.8" cy="485.5" r="10.7" fill="#38bdf8" opacity="0.78" stroke="#0b0e13" stroke-width="0.5"/><circle cx="616.1" cy="470.3" r="10.7" fill="#fb923c" opacity="0.78" stroke="#0b0e13" stroke-width="0.5"/><circle cx="609.4" cy="449.3" r="10.7" fill="#fb923c" opacity="0.78" stroke="#0b0e13" stroke-width="0.5"/><circle cx="620.6" cy="497.3" r="10.7" fill="#38bdf8" opacity="0.78" stroke="#0b0e13" stroke-width="0.5"/><circle cx="608.6" cy="479.3" r="10.7" fill="#fb923c" opacity="0.78" stroke="#0b0e13" stroke-width="0.5"/><circle cx="590.3" cy="467.5" r="10.7" fill="#fb923c" opacity="0.78" stroke="#0b0e13" stroke-width="0.5"/><circle cx="461.7" cy="466.5" r="10.7" fill="#38bdf8" opacity="0.78" stroke="#0b0e13" stroke-width="0.5"/><circle cx="453.0" cy="446.4" r="10.7" fill="#fb923c" opacity="0.78" stroke="#0b0e13" stroke-width="0.5"/><circle cx="437.7" cy="431.4" r="10.7" fill="#fb923c" opacity="0.78" stroke="#0b0e13" stroke-width="0.5"/><circle cx="272.1" cy="254.6" r="10.7" fill="#38bdf8" opacity="0.78" stroke="#0b0e13" stroke-width="0.5"/><circle cx="290.1" cy="266.9" r="10.7" fill="#fb923c" opacity="0.78" stroke="#0b0e13" stroke-width="0.5"/><circle cx="303.8" cy="283.3" r="10.7" fill="#fb923c" opacity="0.78" stroke="#0b0e13" stroke-width="0.5"/><circle cx="304.9" cy="228.8" r="10.7" fill="#38bdf8" opacity="0.78" stroke="#0b0e13" stroke-width="0.5"/><circle cx="308.7" cy="250.4" r="10.7" fill="#fb923c" opacity="0.78" stroke="#0b0e13" stroke-width="0.5"/><circle cx="301.5" cy="270.8" r="10.7" fill="#fb923c" opacity="0.78" stroke="#0b0e13" stroke-width="0.5"/><circle cx="469.3" cy="452.7" r="10.7" fill="#38bdf8" opacity="0.78" stroke="#0b0e13" stroke-width="0.5"/><circle cx="456.6" cy="434.8" r="10.7" fill="#fb923c" opacity="0.78" stroke="#0b0e13" stroke-width="0.5"/><circle cx="441.1" cy="419.9" r="10.7" fill="#fb923c" opacity="0.78" stroke="#0b0e13" stroke-width="0.5"/><circle cx="559.2" cy="491.0" r="10.7" fill="#38bdf8" opacity="0.78" stroke="#0b0e13" stroke-width="0.5"/><circle cx="580.6" cy="489.3" r="10.7" fill="#fb923c" opacity="0.78" stroke="#0b0e13" stroke-width="0.5"/><circle cx="601.5" cy="484.7" r="10.7" fill="#fb923c" opacity="0.78" stroke="#0b0e13" stroke-width="0.5"/><circle cx="491.9" cy="390.0" r="10.7" fill="#38bdf8" opacity="0.78" stroke="#0b0e13" stroke-width="0.5"/><circle cx="470.8" cy="395.5" r="10.7" fill="#fb923c" opacity="0.78" stroke="#0b0e13" stroke-width="0.5"/><circle cx="449.4" cy="395.7" r="10.7" fill="#fb923c" opacity="0.78" stroke="#0b0e13" stroke-width="0.5"/><circle cx="499.0" cy="407.9" r="10.7" fill="#38bdf8" opacity="0.78" stroke="#0b0e13" stroke-width="0.5"/><circle cx="476.6" cy="408.7" r="10.7" fill="#fb923c" opacity="0.78" stroke="#0b0e13" stroke-width="0.5"/><circle cx="457.8" cy="398.2" r="10.7" fill="#fb923c" opacity="0.78" stroke="#0b0e13" stroke-width="0.5"/><circle cx="484.4" cy="448.1" r="10.7" fill="#38bdf8" opacity="0.78" stroke="#0b0e13" stroke-width="0.5"/><circle cx="467.4" cy="434.4" r="10.7" fill="#fb923c" opacity="0.78" stroke="#0b0e13" stroke-width="0.5"/><circle cx="448.9" cy="424.4" r="10.7" fill="#fb923c" opacity="0.78" stroke="#0b0e13" stroke-width="0.5"/><circle cx="287.6" cy="232.6" r="10.7" fill="#38bdf8" opacity="0.78" stroke="#0b0e13" stroke-width="0.5"/><circle cx="300.9" cy="250.1" r="10.7" fill="#fb923c" opacity="0.78" stroke="#0b0e13" stroke-width="0.5"/><circle cx="-151.2" cy="261.1" r="10.7" fill="#fb923c" opacity="0.78" stroke="#0b0e13" stroke-width="0.5"/><circle cx="442.8" cy="464.9" r="10.7" fill="#38bdf8" opacity="0.78" stroke="#0b0e13" stroke-width="0.5"/><circle cx="443.8" cy="442.8" r="10.7" fill="#fb923c" opacity="0.78" stroke="#0b0e13" stroke-width="0.5"/><circle cx="457.6" cy="425.8" r="10.7" fill="#fb923c" opacity="0.78" stroke="#0b0e13" stroke-width="0.5"/><circle cx="338.2" cy="239.5" r="10.7" fill="#38bdf8" opacity="0.78" stroke="#0b0e13" stroke-width="0.5"/><circle cx="327.7" cy="258.7" r="10.7" fill="#fb923c" opacity="0.78" stroke="#0b0e13" stroke-width="0.5"/><circle cx="323.6" cy="279.9" r="10.7" fill="#fb923c" opacity="0.78" stroke="#0b0e13" stroke-width="0.5"/><circle cx="405.7" cy="595.6" r="10.7" fill="#38bdf8" opacity="0.78" stroke="#0b0e13" stroke-width="0.5"/><circle cx="384.5" cy="599.5" r="10.7" fill="#fb923c" opacity="0.78" stroke="#0b0e13" stroke-width="0.5"/><circle cx="363.6" cy="602.6" r="10.7" fill="#fb923c" opacity="0.78" stroke="#0b0e13" stroke-width="0.5"/><circle cx="559.9" cy="444.1" r="10.7" fill="#38bdf8" opacity="0.78" stroke="#0b0e13" stroke-width="0.5"/><circle cx="578.2" cy="455.6" r="10.7" fill="#fb923c" opacity="0.78" stroke="#0b0e13" stroke-width="0.5"/><circle cx="597.0" cy="465.3" r="10.7" fill="#fb923c" opacity="0.78" stroke="#0b0e13" stroke-width="0.5"/><circle cx="352.1" cy="241.5" r="10.7" fill="#38bdf8" opacity="0.78" stroke="#0b0e13" stroke-width="0.5"/><circle cx="337.3" cy="257.8" r="10.7" fill="#fb923c" opacity="0.78" stroke="#0b0e13" stroke-width="0.5"/><circle cx="331.0" cy="278.3" r="10.7" fill="#fb923c" opacity="0.78" stroke="#0b0e13" stroke-width="0.5"/><circle cx="-148.0" cy="309.0" r="10.7" fill="#38bdf8" opacity="0.78" stroke="#0b0e13" stroke-width="0.5"/><circle cx="316.3" cy="288.3" r="10.7" fill="#fb923c" opacity="0.78" stroke="#0b0e13" stroke-width="0.5"/><circle cx="314.5" cy="737.2" r="10.7" fill="#fb923c" opacity="0.78" stroke="#0b0e13" stroke-width="0.5"/><circle cx="491.8" cy="421.3" r="10.7" fill="#38bdf8" opacity="0.78" stroke="#0b0e13" stroke-width="0.5"/><circle cx="470.7" cy="416.2" r="10.7" fill="#fb923c" opacity="0.78" stroke="#0b0e13" stroke-width="0.5"/><circle cx="449.4" cy="415.4" r="10.7" fill="#fb923c" opacity="0.78" stroke="#0b0e13" stroke-width="0.5"/><circle cx="398.8" cy="614.9" r="10.7" fill="#38bdf8" opacity="0.78" stroke="#0b0e13" stroke-width="0.5"/><circle cx="377.4" cy="616.3" r="10.7" fill="#fb923c" opacity="0.78" stroke="#0b0e13" stroke-width="0.5"/><circle cx="356.2" cy="618.1" r="10.7" fill="#fb923c" opacity="0.78" stroke="#0b0e13" stroke-width="0.5"/><circle cx="327.8" cy="643.9" r="10.7" fill="#38bdf8" opacity="0.78" stroke="#0b0e13" stroke-width="0.5"/><circle cx="347.5" cy="634.9" r="10.7" fill="#fb923c" opacity="0.78" stroke="#0b0e13" stroke-width="0.5"/><circle cx="368.6" cy="631.7" r="10.7" fill="#fb923c" opacity="0.78" stroke="#0b0e13" stroke-width="0.5"/><circle cx="261.4" cy="259.4" r="10.7" fill="#38bdf8" opacity="0.78" stroke="#0b0e13" stroke-width="0.5"/><circle cx="281.8" cy="268.7" r="10.7" fill="#fb923c" opacity="0.78" stroke="#0b0e13" stroke-width="0.5"/><circle cx="295.0" cy="285.5" r="10.7" fill="#fb923c" opacity="0.78" stroke="#0b0e13" stroke-width="0.5"/><circle cx="228.9" cy="460.2" r="10.7" fill="#38bdf8" opacity="0.78" stroke="#0b0e13" stroke-width="0.5"/><circle cx="242.5" cy="442.7" r="10.7" fill="#fb923c" opacity="0.78" stroke="#0b0e13" stroke-width="0.5"/><circle cx="246.9" cy="421.7" r="10.7" fill="#fb923c" opacity="0.78" stroke="#0b0e13" stroke-width="0.5"/><circle cx="604.8" cy="511.6" r="10.7" fill="#38bdf8" opacity="0.78" stroke="#0b0e13" stroke-width="0.5"/><circle cx="593.5" cy="493.4" r="10.7" fill="#fb923c" opacity="0.78" stroke="#0b0e13" stroke-width="0.5"/><circle cx="585.2" cy="473.7" r="10.7" fill="#fb923c" opacity="0.78" stroke="#0b0e13" stroke-width="0.5"/><circle cx="483.1" cy="439.7" r="10.7" fill="#38bdf8" opacity="0.78" stroke="#0b0e13" stroke-width="0.5"/><circle cx="466.5" cy="425.4" r="10.7" fill="#fb923c" opacity="0.78" stroke="#0b0e13" stroke-width="0.5"/><circle cx="455.2" cy="407.3" r="10.7" fill="#fb923c" opacity="0.78" stroke="#0b0e13" stroke-width="0.5"/><circle cx="553.7" cy="471.3" r="10.7" fill="#38bdf8" opacity="0.78" stroke="#0b0e13" stroke-width="0.5"/><circle cx="575.7" cy="469.8" r="10.7" fill="#fb923c" opacity="0.78" stroke="#0b0e13" stroke-width="0.5"/><circle cx="594.8" cy="480.4" r="10.7" fill="#fb923c" opacity="0.78" stroke="#0b0e13" stroke-width="0.5"/><circle cx="635.9" cy="492.5" r="10.7" fill="#38bdf8" opacity="0.78" stroke="#0b0e13" stroke-width="0.5"/><circle cx="618.2" cy="479.1" r="10.7" fill="#fb923c" opacity="0.78" stroke="#0b0e13" stroke-width="0.5"/><circle cx="609.9" cy="459.1" r="10.7" fill="#fb923c" opacity="0.78" stroke="#0b0e13" stroke-width="0.5"/><circle cx="553.3" cy="481.3" r="10.7" fill="#38bdf8" opacity="0.78" stroke="#0b0e13" stroke-width="0.5"/><circle cx="574.6" cy="478.7" r="10.7" fill="#fb923c" opacity="0.78" stroke="#0b0e13" stroke-width="0.5"/><circle cx="595.3" cy="473.9" r="10.7" fill="#fb923c" opacity="0.78" stroke="#0b0e13" stroke-width="0.5"/><circle cx="640.7" cy="459.4" r="10.7" fill="#38bdf8" opacity="0.78" stroke="#0b0e13" stroke-width="0.5"/><circle cx="620.3" cy="452.4" r="10.7" fill="#fb923c" opacity="0.78" stroke="#0b0e13" stroke-width="0.5"/><circle cx="601.6" cy="442.2" r="10.7" fill="#fb923c" opacity="0.78" stroke="#0b0e13" stroke-width="0.5"/><circle cx="335.0" cy="225.0" r="10.7" fill="#38bdf8" opacity="0.78" stroke="#0b0e13" stroke-width="0.5"/><circle cx="328.6" cy="246.3" r="10.7" fill="#fb923c" opacity="0.78" stroke="#0b0e13" stroke-width="0.5"/><circle cx="322.2" cy="266.0" r="10.7" fill="#fb923c" opacity="0.78" stroke="#0b0e13" stroke-width="0.5"/><circle cx="566.6" cy="451.1" r="10.7" fill="#38bdf8" opacity="0.78" stroke="#0b0e13" stroke-width="0.5"/><circle cx="587.9" cy="456.2" r="10.7" fill="#fb923c" opacity="0.78" stroke="#0b0e13" stroke-width="0.5"/><circle cx="606.3" cy="467.6" r="10.7" fill="#fb923c" opacity="0.78" stroke="#0b0e13" stroke-width="0.5"/><circle cx="560.8" cy="465.1" r="10.7" fill="#38bdf8" opacity="0.78" stroke="#0b0e13" stroke-width="0.5"/><circle cx="582.5" cy="464.5" r="10.7" fill="#fb923c" opacity="0.78" stroke="#0b0e13" stroke-width="0.5"/><circle cx="602.5" cy="473.4" r="10.7" fill="#fb923c" opacity="0.78" stroke="#0b0e13" stroke-width="0.5"/><circle cx="272.8" cy="245.0" r="10.7" fill="#38bdf8" opacity="0.78" stroke="#0b0e13" stroke-width="0.5"/><circle cx="289.8" cy="258.8" r="10.7" fill="#fb923c" opacity="0.78" stroke="#0b0e13" stroke-width="0.5"/><circle cx="308.0" cy="269.5" r="10.7" fill="#fb923c" opacity="0.78" stroke="#0b0e13" stroke-width="0.5"/><circle cx="573.7" cy="588.4" r="10.7" fill="#38bdf8" opacity="0.78" stroke="#0b0e13" stroke-width="0.5"/><circle cx="592.7" cy="577.5" r="10.7" fill="#fb923c" opacity="0.78" stroke="#0b0e13" stroke-width="0.5"/><circle cx="612.4" cy="570.4" r="10.7" fill="#fb923c" opacity="0.78" stroke="#0b0e13" stroke-width="0.5"/><circle cx="264.9" cy="384.4" r="10.7" fill="#38bdf8" opacity="0.78" stroke="#0b0e13" stroke-width="0.5"/><circle cx="258.9" cy="405.3" r="10.7" fill="#fb923c" opacity="0.78" stroke="#0b0e13" stroke-width="0.5"/><circle cx="259.5" cy="426.6" r="10.7" fill="#fb923c" opacity="0.78" stroke="#0b0e13" stroke-width="0.5"/><circle cx="314.5" cy="222.0" r="10.7" fill="#38bdf8" opacity="0.78" stroke="#0b0e13" stroke-width="0.5"/><circle cx="315.3" cy="244.3" r="10.7" fill="#fb923c" opacity="0.78" stroke="#0b0e13" stroke-width="0.5"/><circle cx="308.2" cy="264.2" r="10.7" fill="#fb923c" opacity="0.78" stroke="#0b0e13" stroke-width="0.5"/><circle cx="340.5" cy="307.5" r="10.7" fill="#38bdf8" opacity="0.78" stroke="#0b0e13" stroke-width="0.5"/><circle cx="332.1" cy="287.5" r="10.7" fill="#fb923c" opacity="0.78" stroke="#0b0e13" stroke-width="0.5"/><circle cx="333.5" cy="736.1" r="10.7" fill="#fb923c" opacity="0.78" stroke="#0b0e13" stroke-width="0.5"/><circle cx="266.1" cy="274.3" r="10.7" fill="#38bdf8" opacity="0.78" stroke="#0b0e13" stroke-width="0.5"/><circle cx="286.3" cy="281.8" r="10.7" fill="#fb923c" opacity="0.78" stroke="#0b0e13" stroke-width="0.5"/><circle cx="306.0" cy="-180.5" r="10.7" fill="#fb923c" opacity="0.78" stroke="#0b0e13" stroke-width="0.5"/><circle cx="647.4" cy="563.4" r="10.7" fill="#38bdf8" opacity="0.78" stroke="#0b0e13" stroke-width="0.5"/><circle cx="630.8" cy="577.8" r="10.7" fill="#fb923c" opacity="0.78" stroke="#0b0e13" stroke-width="0.5"/><circle cx="609.2" cy="581.7" r="10.7" fill="#fb923c" opacity="0.78" stroke="#0b0e13" stroke-width="0.5"/><circle cx="278.3" cy="397.2" r="10.7" fill="#38bdf8" opacity="0.78" stroke="#0b0e13" stroke-width="0.5"/><circle cx="271.1" cy="417.7" r="10.7" fill="#fb923c" opacity="0.78" stroke="#0b0e13" stroke-width="0.5"/><circle cx="274.2" cy="439.4" r="10.7" fill="#fb923c" opacity="0.78" stroke="#0b0e13" stroke-width="0.5"/><circle cx="569.5" cy="435.0" r="10.7" fill="#38bdf8" opacity="0.78" stroke="#0b0e13" stroke-width="0.5"/><circle cx="586.6" cy="448.0" r="10.7" fill="#fb923c" opacity="0.78" stroke="#0b0e13" stroke-width="0.5"/><circle cx="603.0" cy="461.3" r="10.7" fill="#fb923c" opacity="0.78" stroke="#0b0e13" stroke-width="0.5"/><circle cx="325.0" cy="227.9" r="10.7" fill="#38bdf8" opacity="0.78" stroke="#0b0e13" stroke-width="0.5"/><circle cx="322.2" cy="249.9" r="10.7" fill="#fb923c" opacity="0.78" stroke="#0b0e13" stroke-width="0.5"/><circle cx="327.4" cy="270.6" r="10.7" fill="#fb923c" opacity="0.78" stroke="#0b0e13" stroke-width="0.5"/><circle cx="294.4" cy="316.3" r="10.7" fill="#38bdf8" opacity="0.78" stroke="#0b0e13" stroke-width="0.5"/><circle cx="297.4" cy="294.9" r="10.7" fill="#fb923c" opacity="0.78" stroke="#0b0e13" stroke-width="0.5"/><circle cx="292.7" cy="744.4" r="10.7" fill="#fb923c" opacity="0.78" stroke="#0b0e13" stroke-width="0.5"/><circle cx="577.8" cy="570.5" r="10.7" fill="#38bdf8" opacity="0.78" stroke="#0b0e13" stroke-width="0.5"/><circle cx="592.1" cy="587.3" r="10.7" fill="#fb923c" opacity="0.78" stroke="#0b0e13" stroke-width="0.5"/><circle cx="609.0" cy="599.7" r="10.7" fill="#fb923c" opacity="0.78" stroke="#0b0e13" stroke-width="0.5"/><circle cx="302.1" cy="237.6" r="10.7" fill="#38bdf8" opacity="0.78" stroke="#0b0e13" stroke-width="0.5"/><circle cx="310.9" cy="257.7" r="10.7" fill="#fb923c" opacity="0.78" stroke="#0b0e13" stroke-width="0.5"/><circle cx="-152.3" cy="277.7" r="10.7" fill="#fb923c" opacity="0.78" stroke="#0b0e13" stroke-width="0.5"/><circle cx="422.7" cy="443.3" r="10.7" fill="#38bdf8" opacity="0.78" stroke="#0b0e13" stroke-width="0.5"/><circle cx="430.2" cy="422.9" r="10.7" fill="#fb923c" opacity="0.78" stroke="#0b0e13" stroke-width="0.5"/><circle cx="437.3" cy="403.2" r="10.7" fill="#fb923c" opacity="0.78" stroke="#0b0e13" stroke-width="0.5"/><circle cx="636.9" cy="550.1" r="10.7" fill="#38bdf8" opacity="0.78" stroke="#0b0e13" stroke-width="0.5"/><circle cx="624.6" cy="567.8" r="10.7" fill="#fb923c" opacity="0.78" stroke="#0b0e13" stroke-width="0.5"/><circle cx="620.8" cy="589.2" r="10.7" fill="#fb923c" opacity="0.78" stroke="#0b0e13" stroke-width="0.5"/><circle cx="478.2" cy="459.4" r="10.7" fill="#38bdf8" opacity="0.78" stroke="#0b0e13" stroke-width="0.5"/><circle cx="464.3" cy="442.4" r="10.7" fill="#fb923c" opacity="0.78" stroke="#0b0e13" stroke-width="0.5"/><circle cx="446.6" cy="431.1" r="10.7" fill="#fb923c" opacity="0.78" stroke="#0b0e13" stroke-width="0.5"/><circle cx="282.7" cy="240.3" r="10.7" fill="#38bdf8" opacity="0.78" stroke="#0b0e13" stroke-width="0.5"/><circle cx="296.9" cy="256.8" r="10.7" fill="#fb923c" opacity="0.78" stroke="#0b0e13" stroke-width="0.5"/><circle cx="305.8" cy="276.3" r="10.7" fill="#fb923c" opacity="0.78" stroke="#0b0e13" stroke-width="0.5"/><circle cx="695.8" cy="213.9" r="10.7" fill="#38bdf8" opacity="0.78" stroke="#0b0e13" stroke-width="0.5"/><circle cx="676.3" cy="222.9" r="10.7" fill="#fb923c" opacity="0.78" stroke="#0b0e13" stroke-width="0.5"/><circle cx="657.5" cy="232.7" r="10.7" fill="#fb923c" opacity="0.78" stroke="#0b0e13" stroke-width="0.5"/><circle cx="633.2" cy="540.0" r="10.7" fill="#38bdf8" opacity="0.78" stroke="#0b0e13" stroke-width="0.5"/><circle cx="616.4" cy="553.8" r="10.7" fill="#fb923c" opacity="0.78" stroke="#0b0e13" stroke-width="0.5"/><circle cx="598.0" cy="564.0" r="10.7" fill="#fb923c" opacity="0.78" stroke="#0b0e13" stroke-width="0.5"/><circle cx="488.0" cy="403.9" r="10.7" fill="#38bdf8" opacity="0.78" stroke="#0b0e13" stroke-width="0.5"/><circle cx="466.4" cy="406.3" r="10.7" fill="#fb923c" opacity="0.78" stroke="#0b0e13" stroke-width="0.5"/><circle cx="445.1" cy="409.5" r="10.7" fill="#fb923c" opacity="0.78" stroke="#0b0e13" stroke-width="0.5"/><circle cx="315.3" cy="232.1" r="10.7" fill="#38bdf8" opacity="0.78" stroke="#0b0e13" stroke-width="0.5"/><circle cx="316.9" cy="253.9" r="10.7" fill="#fb923c" opacity="0.78" stroke="#0b0e13" stroke-width="0.5"/><circle cx="312.6" cy="274.8" r="10.7" fill="#fb923c" opacity="0.78" stroke="#0b0e13" stroke-width="0.5"/><circle cx="572.8" cy="421.9" r="10.7" fill="#38bdf8" opacity="0.78" stroke="#0b0e13" stroke-width="0.5"/><circle cx="587.9" cy="438.1" r="10.7" fill="#fb923c" opacity="0.78" stroke="#0b0e13" stroke-width="0.5"/><circle cx="594.8" cy="458.0" r="10.7" fill="#fb923c" opacity="0.78" stroke="#0b0e13" stroke-width="0.5"/><circle cx="637.7" cy="474.2" r="10.7" fill="#38bdf8" opacity="0.78" stroke="#0b0e13" stroke-width="0.5"/><circle cx="619.6" cy="463.1" r="10.7" fill="#fb923c" opacity="0.78" stroke="#0b0e13" stroke-width="0.5"/><circle cx="600.8" cy="452.3" r="10.7" fill="#fb923c" opacity="0.78" stroke="#0b0e13" stroke-width="0.5"/><circle cx="284.1" cy="248.4" r="10.7" fill="#38bdf8" opacity="0.78" stroke="#0b0e13" stroke-width="0.5"/><circle cx="298.7" cy="264.7" r="10.7" fill="#fb923c" opacity="0.78" stroke="#0b0e13" stroke-width="0.5"/><circle cx="311.6" cy="281.7" r="10.7" fill="#fb923c" opacity="0.78" stroke="#0b0e13" stroke-width="0.5"/><rect x="0" y="518" width="560" height="42" fill="#0b0e13" opacity="0.92"/><text x="9" y="535" fill="#e2e8f0" font-family="monospace" font-size="12">2-D self-assembly, T_e130, t=20000</text><text x="9" y="552" fill="#94a3b8" font-family="monospace" font-size="11">cores 6 mean 10.2 largest 21  exposed 0.079  (all-bead linkage would say 6 / 21)   slab 2.0 thick, 189 lipid beads shown</text></svg>