<svg xmlns="http://www.w3.org/2000/svg" width="720" height="520"><rect width="720" height="520" fill="#0b0e13"/><circle cx="424.4" cy="69.6" r="2.2" fill="#38bdf8" opacity="0.35"/><circle cx="423.1" cy="25.7" r="2.2" fill="#38bdf8" opacity="0.35"/><circle cx="613.1" cy="570.8" r="2.2" fill="#38bdf8" opacity="0.35"/><circle cx="180.3" cy="374.0" r="2.2" fill="#38bdf8" opacity="0.35"/><circle cx="664.2" cy="524.5" r="2.2" fill="#38bdf8" opacity="0.35"/><circle cx="485.0" cy="111.9" r="2.2" fill="#38bdf8" opacity="0.35"/><circle cx="463.7" cy="412.2" r="2.2" fill="#38bdf8" opacity="0.35"/><circle cx="678.1" cy="546.5" r="2.2" fill="#38bdf8" opacity="0.35"/><circle cx="513.0" cy="110.1" r="2.2" fill="#38bdf8" opacity="0.35"/><circle cx="490.2" cy="413.1" r="2.2" fill="#38bdf8" opacity="0.35"/><circle cx="384.0" cy="457.0" r="2.2" fill="#38bdf8" opacity="0.35"/><circle cx="423.9" cy="434.5" r="2.2" fill="#38bdf8" opacity="0.35"/><circle cx="136.1" cy="150.5" r="2.2" fill="#38bdf8" opacity="0.35"/><circle cx="95.7" cy="-29.3" r="2.2" fill="#38bdf8" opacity="0.35"/><circle cx="571.2" cy="456.2" r="2.2" fill="#38bdf8" opacity="0.35"/><circle cx="625.9" cy="548.0" r="2.2" fill="#38bdf8" opacity="0.35"/><circle cx="118.3" cy="543.8" r="2.2" fill="#38bdf8" opacity="0.35"/><circle cx="312.7" cy="486.4" r="2.2" fill="#38bdf8" opacity="0.35"/><circle cx="55.7" cy="204.4" r="2.2" fill="#38bdf8" opacity="0.35"/><circle cx="200.0" cy="116.7" r="2.2" fill="#38bdf8" opacity="0.35"/><circle cx="108.8" cy="-51.7" r="2.2" fill="#38bdf8" opacity="0.35"/><circle cx="435.0" cy="-0.5" r="2.2" fill="#38bdf8" opacity="0.35"/><circle cx="359.2" cy="49.7" r="2.2" fill="#38bdf8" opacity="0.35"/><circle cx="384.7" cy="411.9" r="2.2" fill="#38bdf8" opacity="0.35"/><circle cx="677.9" cy="318.9" r="2.2" fill="#38bdf8" opacity="0.35"/><circle cx="612.1" cy="274.3" r="2.2" fill="#38bdf8" opacity="0.35"/><circle cx="268.2" cy="84.0" r="2.2" fill="#38bdf8" opacity="0.35"/><circle cx="65.9" cy="-29.6" r="2.2" fill="#38bdf8" opacity="0.35"/><circle cx="679.7" cy="591.8" r="2.2" fill="#38bdf8" opacity="0.35"/><circle cx="51.0" cy="568.3" r="2.2" fill="#38bdf8" opacity="0.35"/><circle cx="335.1" cy="472.7" r="2.2" fill="#38bdf8" opacity="0.35"/><circle cx="152.2" cy="250.7" r="2.2" fill="#38bdf8" opacity="0.35"/><circle cx="371.8" cy="72.4" r="2.2" fill="#38bdf8" opacity="0.35"/><circle cx="74.7" cy="185.3" r="2.2" fill="#38bdf8" opacity="0.35"/><circle cx="438.0" cy="502.9" r="2.2" fill="#38bdf8" opacity="0.35"/><circle cx="616.3" cy="248.3" r="2.2" fill="#38bdf8" opacity="0.35"/><circle cx="623.9" cy="455.1" r="2.2" fill="#38bdf8" opacity="0.35"/><circle cx="144.9" cy="399.3" r="2.2" fill="#38bdf8" opacity="0.35"/><circle cx="463.4" cy="256.1" r="2.2" fill="#38bdf8" opacity="0.35"/><circle cx="641.6" cy="254.4" r="2.2" fill="#38bdf8" opacity="0.35"/><circle cx="197.2" cy="395.8" r="2.2" fill="#38bdf8" opacity="0.35"/><circle cx="642.5" cy="349.9" r="2.2" fill="#38bdf8" opacity="0.35"/><circle cx="598.8" cy="503.0" r="2.2" fill="#38bdf8" opacity="0.35"/><circle cx="275.9" cy="59.2" r="2.2" fill="#38bdf8" opacity="0.35"/><circle cx="638.2" cy="525.0" r="2.2" fill="#38bdf8" opacity="0.35"/><circle cx="599.8" cy="548.5" r="2.2" fill="#38bdf8" opacity="0.35"/><circle cx="286.3" cy="422.7" r="2.2" fill="#38bdf8" opacity="0.35"/><circle cx="570.6" cy="411.3" r="2.2" fill="#38bdf8" opacity="0.35"/><circle cx="181.6" cy="64.3" r="2.2" fill="#38bdf8" opacity="0.35"/><circle cx="243.9" cy="477.1" r="2.2" fill="#38bdf8" opacity="0.35"/><circle cx="650.1" cy="110.4" r="2.2" fill="#38bdf8" opacity="0.35"/><circle cx="461.3" cy="-2.9" r="2.2" fill="#38bdf8" opacity="0.35"/><circle cx="683.9" cy="143.2" r="2.2" fill="#38bdf8" opacity="0.35"/><circle cx="597.9" cy="455.6" r="2.2" fill="#38bdf8" opacity="0.35"/><circle cx="505.6" cy="481.0" r="2.2" fill="#38bdf8" opacity="0.35"/><circle cx="333.0" cy="49.2" r="2.2" fill="#38bdf8" opacity="0.35"/><circle cx="414.2" cy="139.1" r="2.2" fill="#38bdf8" opacity="0.35"/><circle cx="399.1" cy="525.1" r="2.2" fill="#38bdf8" opacity="0.35"/><circle cx="658.7" cy="233.7" r="2.2" fill="#38bdf8" opacity="0.35"/><circle cx="67.3" cy="159.0" r="2.2" fill="#38bdf8" opacity="0.35"/><circle cx="30.2" cy="196.6" r="2.2" fill="#38bdf8" opacity="0.35"/><circle cx="427.5" cy="114.9" r="2.2" fill="#38bdf8" opacity="0.35"/><circle cx="651.8" cy="547.4" r="2.2" fill="#38bdf8" opacity="0.35"/><circle cx="128.7" cy="378.7" r="2.2" fill="#38bdf8" opacity="0.35"/><circle cx="681.8" cy="292.0" r="2.2" fill="#38bdf8" opacity="0.35"/><circle cx="677.0" cy="117.7" r="2.2" fill="#38bdf8" opacity="0.35"/><circle cx="644.9" cy="180.6" r="2.2" fill="#38bdf8" opacity="0.35"/><circle cx="503.9" cy="435.3" r="2.2" fill="#38bdf8" opacity="0.35"/><circle cx="41.4" cy="250.0" r="2.2" fill="#38bdf8" opacity="0.35"/><circle cx="162.8" cy="85.7" r="2.2" fill="#38bdf8" opacity="0.35"/><circle cx="91.7" cy="591.3" r="2.2" fill="#38bdf8" opacity="0.35"/><circle cx="450.0" cy="22.3" r="2.2" fill="#38bdf8" opacity="0.35"/><circle cx="289.1" cy="475.4" r="2.2" fill="#38bdf8" opacity="0.35"/><circle cx="34.0" cy="124.2" r="2.2" fill="#38bdf8" opacity="0.35"/><circle cx="333.3" cy="394.8" r="2.2" fill="#38bdf8" opacity="0.35"/><circle cx="612.2" cy="525.6" r="2.2" fill="#38bdf8" opacity="0.35"/><circle cx="479.9" cy="67.1" r="2.2" fill="#38bdf8" opacity="0.35"/><circle cx="285.5" cy="396.0" r="2.2" fill="#38bdf8" opacity="0.35"/><circle cx="411.6" cy="502.2" r="2.2" fill="#38bdf8" opacity="0.35"/><circle cx="506.3" cy="64.3" r="2.2" fill="#38bdf8" opacity="0.35"/><circle cx="600.6" cy="593.5" r="2.2" fill="#38bdf8" opacity="0.35"/><circle cx="635.3" cy="376.4" r="2.2" fill="#38bdf8" opacity="0.35"/><circle cx="630.4" cy="129.2" r="2.2" fill="#38bdf8" opacity="0.35"/><circle cx="450.0" cy="479.9" r="2.2" fill="#38bdf8" opacity="0.35"/><circle cx="341.6" cy="333.8" r="2.2" fill="#38bdf8" opacity="0.35"/><circle cx="325.2" cy="185.4" r="2.2" fill="#38bdf8" opacity="0.35"/><circle cx="64.6" cy="590.4" r="2.2" fill="#38bdf8" opacity="0.35"/><circle cx="678.8" cy="213.9" r="2.2" fill="#38bdf8" opacity="0.35"/><circle cx="587.3" cy="362.6" r="2.2" fill="#38bdf8" opacity="0.35"/><circle cx="423.8" cy="479.6" r="2.2" fill="#38bdf8" opacity="0.35"/><circle cx="531.3" cy="434.4" r="2.2" fill="#38bdf8" opacity="0.35"/><circle cx="154.2" cy="58.7" r="2.2" fill="#38bdf8" opacity="0.35"/><circle cx="444.1" cy="277.1" r="2.2" fill="#38bdf8" opacity="0.35"/><circle cx="110.2" cy="145.5" r="2.2" fill="#38bdf8" opacity="0.35"/><circle cx="637.8" cy="477.4" r="2.2" fill="#38bdf8" opacity="0.35"/><circle cx="633.7" cy="227.0" r="2.2" fill="#38bdf8" opacity="0.35"/><circle cx="49.1" cy="177.8" r="2.2" fill="#38bdf8" opacity="0.35"/><circle cx="87.1" cy="237.0" r="2.2" fill="#38bdf8" opacity="0.35"/><circle cx="315.6" cy="29.6" r="2.2" fill="#38bdf8" opacity="0.35"/><circle cx="624.9" cy="502.2" r="2.2" fill="#38bdf8" opacity="0.35"/><circle cx="266.1" cy="463.4" r="2.2" fill="#38bdf8" opacity="0.35"/><circle cx="437.0" cy="456.9" r="2.2" fill="#38bdf8" opacity="0.35"/><circle cx="332.0" cy="420.7" r="2.2" fill="#38bdf8" opacity="0.35"/><circle cx="170.9" cy="110.4" r="2.2" fill="#38bdf8" opacity="0.35"/><circle cx="452.6" cy="68.6" r="2.2" fill="#38bdf8" opacity="0.35"/><circle cx="69.1" cy="352.6" r="2.2" fill="#38bdf8" opacity="0.35"/><circle cx="397.7" cy="389.2" r="2.2" fill="#38bdf8" opacity="0.35"/><circle cx="692.3" cy="523.6" r="2.2" fill="#38bdf8" opacity="0.35"/><circle cx="651.0" cy="502.1" r="2.2" fill="#38bdf8" opacity="0.35"/><circle cx="625.7" cy="101.3" r="2.2" fill="#38bdf8" opacity="0.35"/><circle cx="604.8" cy="121.2" r="2.2" fill="#38bdf8" opacity="0.35"/><circle cx="475.9" cy="20.4" r="2.2" fill="#38bdf8" opacity="0.35"/><circle cx="585.8" cy="479.3" r="2.2" fill="#38bdf8" opacity="0.35"/><circle cx="288.0" cy="449.4" r="2.2" fill="#38bdf8" opacity="0.35"/><circle cx="215.0" cy="93.8" r="2.2" fill="#38bdf8" opacity="0.35"/><circle cx="692.4" cy="169.6" r="2.2" fill="#38bdf8" opacity="0.35"/><circle cx="476.4" cy="435.1" r="2.2" fill="#38bdf8" opacity="0.35"/><circle cx="410.4" cy="457.0" r="2.2" fill="#38bdf8" opacity="0.35"/><circle cx="558.3" cy="479.0" r="2.2" fill="#38bdf8" opacity="0.35"/><circle cx="436.5" cy="209.9" r="2.2" fill="#38bdf8" opacity="0.35"/><circle cx="285.2" cy="103.7" r="2.2" fill="#38bdf8" opacity="0.35"/><circle cx="357.2" cy="458.6" r="2.2" fill="#38bdf8" opacity="0.35"/><circle cx="673.6" cy="188.3" r="2.2" fill="#38bdf8" opacity="0.35"/><circle cx="464.1" cy="44.6" r="2.2" fill="#38bdf8" opacity="0.35"/><circle cx="639.3" cy="570.3" r="2.2" fill="#38bdf8" opacity="0.35"/><circle cx="360.1" cy="95.6" r="2.2" fill="#38bdf8" opacity="0.35"/><circle cx="92.3" cy="546.0" r="2.2" fill="#38bdf8" opacity="0.35"/><circle cx="84.8" cy="139.7" r="2.2" fill="#38bdf8" opacity="0.35"/><circle cx="625.1" cy="407.8" r="2.2" fill="#38bdf8" opacity="0.35"/><circle cx="244.0" cy="97.2" r="2.2" fill="#38bdf8" opacity="0.35"/><circle cx="397.3" cy="434.6" r="2.2" fill="#38bdf8" opacity="0.35"/><circle cx="439.3" cy="90.9" r="2.2" fill="#38bdf8" opacity="0.35"/><circle cx="478.8" cy="235.2" r="2.2" fill="#38bdf8" opacity="0.35"/><circle cx="264.8" cy="437.5" r="2.2" fill="#38bdf8" opacity="0.35"/><circle cx="386.1" cy="95.2" r="2.2" fill="#38bdf8" opacity="0.35"/><circle cx="319.8" cy="72.9" r="2.2" fill="#38bdf8" opacity="0.35"/><circle cx="77.2" cy="-54.1" r="2.2" fill="#38bdf8" opacity="0.35"/><circle cx="637.1" cy="430.8" r="2.2" fill="#38bdf8" opacity="0.35"/><circle cx="41.6" cy="282.9" r="2.2" fill="#38bdf8" opacity="0.35"/><circle cx="79.2" cy="568.5" r="2.2" fill="#38bdf8" opacity="0.35"/><circle cx="626.5" cy="593.0" r="2.2" fill="#38bdf8" opacity="0.35"/><circle cx="417.7" cy="228.0" r="2.2" fill="#38bdf8" opacity="0.35"/><circle cx="638.9" cy="155.3" r="2.2" fill="#38bdf8" opacity="0.35"/><circle cx="385.6" cy="502.9" r="2.2" fill="#38bdf8" opacity="0.35"/><circle cx="171.8" cy="179.9" r="2.2" fill="#38bdf8" opacity="0.35"/><circle cx="293.9" cy="79.2" r="2.2" fill="#38bdf8" opacity="0.35"/><circle cx="450.1" cy="434.6" r="2.2" fill="#38bdf8" opacity="0.35"/><circle cx="591.7" cy="257.5" r="2.2" fill="#38bdf8" opacity="0.35"/><circle cx="42.3" cy="149.8" r="2.2" fill="#38bdf8" opacity="0.35"/><circle cx="89.4" cy="500.4" r="2.2" fill="#38bdf8" opacity="0.35"/><circle cx="321.0" cy="258.3" r="2.2" fill="#38bdf8" opacity="0.35"/><circle cx="388.2" cy="139.6" r="2.2" fill="#38bdf8" opacity="0.35"/><circle cx="519.1" cy="503.3" r="2.2" fill="#38bdf8" opacity="0.35"/><circle cx="438.3" cy="47.0" r="2.2" fill="#38bdf8" opacity="0.35"/><circle cx="218.6" cy="439.6" r="2.2" fill="#38bdf8" opacity="0.35"/><circle cx="103.2" cy="522.5" r="2.2" fill="#38bdf8" opacity="0.35"/><circle cx="63.7" cy="545.5" r="2.2" fill="#38bdf8" opacity="0.35"/><circle cx="397.4" cy="479.7" r="2.2" fill="#38bdf8" opacity="0.35"/><circle cx="243.3" cy="303.3" r="2.2" fill="#38bdf8" opacity="0.35"/><circle cx="171.0" cy="398.4" r="2.2" fill="#38bdf8" opacity="0.35"/><circle cx="161.2" cy="422.7" r="2.2" fill="#38bdf8" opacity="0.35"/><circle cx="468.1" cy="90.2" r="2.2" fill="#38bdf8" opacity="0.35"/><circle cx="35.8" cy="222.7" r="2.2" fill="#38bdf8" opacity="0.35"/><circle cx="611.1" cy="432.3" r="2.2" fill="#38bdf8" opacity="0.35"/><circle cx="495.5" cy="88.0" r="2.2" fill="#38bdf8" opacity="0.35"/><circle cx="309.4" cy="434.6" r="2.2" fill="#38bdf8" opacity="0.35"/><circle cx="53.1" cy="326.1" r="2.2" fill="#38bdf8" opacity="0.35"/><circle cx="479.2" cy="389.5" r="2.2" fill="#38bdf8" opacity="0.35"/><circle cx="517.2" cy="457.7" r="2.2" fill="#38bdf8" opacity="0.35"/><circle cx="585.5" cy="282.7" r="2.2" fill="#38bdf8" opacity="0.35"/><circle cx="92.9" cy="165.9" r="2.2" fill="#38bdf8" opacity="0.35"/><circle cx="531.8" cy="480.5" r="2.2" fill="#38bdf8" opacity="0.35"/><circle cx="657.3" cy="135.9" r="2.2" fill="#38bdf8" opacity="0.35"/><circle cx="179.6" cy="137.2" r="2.2" fill="#38bdf8" opacity="0.35"/><circle cx="394.7" cy="293.9" r="2.2" fill="#38bdf8" opacity="0.35"/><circle cx="630.9" cy="306.9" r="2.2" fill="#38bdf8" opacity="0.35"/><circle cx="372.5" cy="263.1" r="2.2" fill="#38bdf8" opacity="0.35"/><circle cx="572.4" cy="501.5" r="2.2" fill="#38bdf8" opacity="0.35"/><circle cx="38.1" cy="591.2" r="2.2" fill="#38bdf8" opacity="0.35"/><circle cx="216.2" cy="413.7" r="2.2" fill="#38bdf8" opacity="0.35"/><circle cx="637.8" cy="280.9" r="2.2" fill="#38bdf8" opacity="0.35"/><circle cx="311.7" cy="460.4" r="2.2" fill="#38bdf8" opacity="0.35"/><circle cx="34.3" cy="308.1" r="2.2" fill="#38bdf8" opacity="0.35"/><circle cx="36.9" cy="546.3" r="2.2" fill="#38bdf8" opacity="0.35"/><circle cx="490.1" cy="457.3" r="2.2" fill="#38bdf8" opacity="0.35"/><circle cx="398.0" cy="71.1" r="2.2" fill="#38bdf8" opacity="0.35"/><circle cx="242.3" cy="451.1" r="2.2" fill="#38bdf8" opacity="0.35"/><circle cx="605.4" cy="299.4" r="2.2" fill="#38bdf8" opacity="0.35"/><circle cx="491.9" cy="41.9" r="2.2" fill="#38bdf8" opacity="0.35"/><circle cx="688.4" cy="266.1" r="2.2" fill="#38bdf8" opacity="0.35"/><circle cx="582.9" cy="388.4" r="2.2" fill="#38bdf8" opacity="0.35"/><circle cx="28.8" cy="338.5" r="2.2" fill="#38bdf8" opacity="0.35"/><circle cx="587.2" cy="571.2" r="2.2" fill="#38bdf8" opacity="0.35"/><circle cx="544.6" cy="411.6" r="2.2" fill="#38bdf8" opacity="0.35"/><circle cx="371.3" cy="480.4" r="2.2" fill="#38bdf8" opacity="0.35"/><circle cx="611.8" cy="479.5" r="2.2" fill="#38bdf8" opacity="0.35"/><circle cx="401.0" cy="116.5" r="2.2" fill="#38bdf8" opacity="0.35"/><circle cx="662.6" cy="273.1" r="2.2" fill="#38bdf8" opacity="0.35"/><circle cx="664.5" cy="163.3" r="2.2" fill="#38bdf8" opacity="0.35"/><circle cx="653.4" cy="592.2" r="2.2" fill="#38bdf8" opacity="0.35"/><circle cx="80.8" cy="211.1" r="2.2" fill="#38bdf8" opacity="0.35"/><circle cx="191.1" cy="421.3" r="2.2" fill="#38bdf8" opacity="0.35"/><circle cx="128.6" cy="125.5" r="2.2" fill="#38bdf8" opacity="0.35"/><circle cx="586.1" cy="525.6" r="2.2" fill="#38bdf8" opacity="0.35"/><circle cx="656.4" cy="299.3" r="2.2" fill="#38bdf8" opacity="0.35"/><circle cx="612.8" cy="149.4" r="2.2" fill="#38bdf8" opacity="0.35"/><circle cx="137.3" cy="80.4" r="2.2" fill="#38bdf8" opacity="0.35"/><circle cx="118.9" cy="169.9" r="2.2" fill="#38bdf8" opacity="0.35"/><circle cx="476.6" cy="479.5" r="2.2" fill="#38bdf8" opacity="0.35"/><circle cx="585.2" cy="432.8" r="2.2" fill="#38bdf8" opacity="0.35"/><circle cx="517.7" cy="38.2" r="2.2" fill="#38bdf8" opacity="0.35"/><circle cx="103.4" cy="119.5" r="2.2" fill="#38bdf8" opacity="0.35"/><circle cx="369.4" cy="434.6" r="2.2" fill="#38bdf8" opacity="0.35"/><circle cx="266.8" cy="489.5" r="2.2" fill="#38bdf8" opacity="0.35"/><circle cx="691.8" cy="568.6" r="2.2" fill="#38bdf8" opacity="0.35"/><circle cx="51.4" cy="-51.5" r="2.2" fill="#38bdf8" opacity="0.35"/><circle cx="543.9" cy="457.5" r="2.2" fill="#38bdf8" opacity="0.35"/><circle cx="161.6" cy="156.1" r="2.2" fill="#38bdf8" opacity="0.35"/><circle cx="333.7" cy="446.7" r="2.2" fill="#38bdf8" opacity="0.35"/><circle cx="668.5" cy="347.9" r="2.2" fill="#38bdf8" opacity="0.35"/><circle cx="557.8" cy="433.9" r="2.2" fill="#38bdf8" opacity="0.35"/><circle cx="651.6" cy="207.7" r="2.2" fill="#38bdf8" opacity="0.35"/><circle cx="546.3" cy="502.1" r="2.2" fill="#38bdf8" opacity="0.35"/><circle cx="262.6" cy="411.6" r="2.2" fill="#38bdf8" opacity="0.35"/><circle cx="412.2" cy="93.0" r="2.2" fill="#38bdf8" opacity="0.35"/><circle cx="60.3" cy="301.1" r="2.2" fill="#38bdf8" opacity="0.35"/><circle cx="665.7" cy="569.4" r="2.2" fill="#38bdf8" opacity="0.35"/><circle cx="240.4" cy="425.2" r="2.2" fill="#38bdf8" opacity="0.35"/><circle cx="301.3" cy="54.3" r="2.2" fill="#38bdf8" opacity="0.35"/><circle cx="345.7" cy="71.9" r="2.2" fill="#38bdf8" opacity="0.35"/><circle cx="410.8" cy="412.0" r="2.2" fill="#38bdf8" opacity="0.35"/><circle cx="188.5" cy="90.6" r="2.2" fill="#38bdf8" opacity="0.35"/><circle cx="462.9" cy="457.2" r="2.2" fill="#38bdf8" opacity="0.35"/><circle cx="77.1" cy="523.3" r="2.2" fill="#38bdf8" opacity="0.35"/><circle cx="649.9" cy="324.9" r="2.2" fill="#38bdf8" opacity="0.35"/><circle cx="502.4" cy="17.2" r="2.2" fill="#38bdf8" opacity="0.35"/><circle cx="107.8" cy="567.9" r="2.2" fill="#38bdf8" opacity="0.35"/><circle cx="145.4" cy="105.2" r="2.2" fill="#38bdf8" opacity="0.35"/><circle cx="684.1" cy="239.6" r="2.2" fill="#38bdf8" opacity="0.35"/><circle cx="154.3" cy="130.4" r="2.2" fill="#38bdf8" opacity="0.35"/><circle cx="61.4" cy="233.3" r="4.5" fill="#60a5fa" opacity="0.95"/><circle cx="70.6" cy="257.9" r="3.6" fill="#f9923a" opacity="0.95"/><circle cx="86.5" cy="278.7" r="3.6" fill="#f9923a" opacity="0.95"/><circle cx="112.0" cy="229.3" r="4.5" fill="#60a5fa" opacity="0.95"/><circle cx="126.1" cy="251.3" r="3.6" fill="#f9923a" opacity="0.95"/><circle cx="138.2" cy="274.2" r="3.6" fill="#f9923a" opacity="0.95"/><circle cx="104.0" cy="191.2" r="4.5" fill="#60a5fa" opacity="0.95"/><circle cx="125.9" cy="205.9" r="3.6" fill="#f9923a" opacity="0.95"/><circle cx="141.2" cy="227.2" r="3.6" fill="#f9923a" opacity="0.95"/><circle cx="144.6" cy="179.3" r="4.5" fill="#60a5fa" opacity="0.95"/><circle cx="153.2" cy="204.1" r="3.6" fill="#f9923a" opacity="0.95"/><circle cx="167.2" cy="226.1" r="3.6" fill="#f9923a" opacity="0.95"/><circle cx="194.5" cy="198.7" r="4.5" fill="#60a5fa" opacity="0.95"/><circle cx="196.7" cy="224.8" r="3.6" fill="#f9923a" opacity="0.95"/><circle cx="205.7" cy="249.4" r="3.6" fill="#f9923a" opacity="0.95"/><circle cx="224.0" cy="225.9" r="4.5" fill="#60a5fa" opacity="0.95"/><circle cx="231.7" cy="251.0" r="3.6" fill="#f9923a" opacity="0.95"/><circle cx="231.3" cy="277.2" r="3.6" fill="#f9923a" opacity="0.95"/><circle cx="192.0" cy="162.6" r="4.5" fill="#60a5fa" opacity="0.95"/><circle cx="213.1" cy="178.3" r="3.6" fill="#f9923a" opacity="0.95"/><circle cx="229.0" cy="199.0" r="3.6" fill="#f9923a" opacity="0.95"/><circle cx="233.6" cy="124.7" r="4.5" fill="#60a5fa" opacity="0.95"/><circle cx="242.0" cy="149.6" r="3.6" fill="#f9923a" opacity="0.95"/><circle cx="242.8" cy="175.7" r="3.6" fill="#f9923a" opacity="0.95"/><circle cx="268.6" cy="179.2" r="4.5" fill="#60a5fa" opacity="0.95"/><circle cx="255.2" cy="201.8" r="3.6" fill="#f9923a" opacity="0.95"/><circle cx="250.0" cy="227.6" r="3.6" fill="#f9923a" opacity="0.95"/><circle cx="280.8" cy="207.2" r="4.5" fill="#60a5fa" opacity="0.95"/><circle cx="275.5" cy="232.9" r="3.6" fill="#f9923a" opacity="0.95"/><circle cx="262.7" cy="255.8" r="3.6" fill="#f9923a" opacity="0.95"/><circle cx="259.9" cy="118.0" r="4.5" fill="#60a5fa" opacity="0.95"/><circle cx="271.3" cy="141.6" r="3.6" fill="#f9923a" opacity="0.95"/><circle cx="288.5" cy="161.2" r="3.6" fill="#f9923a" opacity="0.95"/><circle cx="299.3" cy="187.8" r="4.5" fill="#60a5fa" opacity="0.95"/><circle cx="305.9" cy="213.3" r="3.6" fill="#f9923a" opacity="0.95"/><circle cx="303.1" cy="239.4" r="3.6" fill="#f9923a" opacity="0.95"/><circle cx="330.9" cy="96.5" r="4.5" fill="#60a5fa" opacity="0.95"/><circle cx="312.6" cy="115.2" r="3.6" fill="#f9923a" opacity="0.95"/><circle cx="299.2" cy="137.6" r="3.6" fill="#f9923a" opacity="0.95"/><circle cx="330.6" cy="233.8" r="4.5" fill="#60a5fa" opacity="0.95"/><circle cx="356.8" cy="230.7" r="3.6" fill="#f9923a" opacity="0.95"/><circle cx="382.2" cy="237.1" r="3.6" fill="#f9923a" opacity="0.95"/><circle cx="345.4" cy="118.2" r="4.5" fill="#60a5fa" opacity="0.95"/><circle cx="327.0" cy="136.9" r="3.6" fill="#f9923a" opacity="0.95"/><circle cx="314.4" cy="159.8" r="3.6" fill="#f9923a" opacity="0.95"/><circle cx="373.4" cy="118.2" r="4.5" fill="#60a5fa" opacity="0.95"/><circle cx="359.5" cy="140.4" r="3.6" fill="#f9923a" opacity="0.95"/><circle cx="341.0" cy="158.8" r="3.6" fill="#f9923a" opacity="0.95"/><circle cx="370.3" cy="167.1" r="4.5" fill="#60a5fa" opacity="0.95"/><circle cx="369.5" cy="203.1" r="3.6" fill="#f9923a" opacity="0.95"/><circle cx="338.4" cy="209.8" r="3.6" fill="#f9923a" opacity="0.95"/><circle cx="400.2" cy="163.8" r="4.5" fill="#60a5fa" opacity="0.95"/><circle cx="386.6" cy="187.3" r="3.6" fill="#f9923a" opacity="0.95"/><circle cx="352.7" cy="181.8" r="3.6" fill="#f9923a" opacity="0.95"/><circle cx="426.2" cy="171.6" r="4.5" fill="#60a5fa" opacity="0.95"/><circle cx="414.4" cy="195.8" r="3.6" fill="#f9923a" opacity="0.95"/><circle cx="395.2" cy="213.0" r="3.6" fill="#f9923a" opacity="0.95"/><circle cx="441.6" cy="138.3" r="4.5" fill="#60a5fa" opacity="0.95"/><circle cx="452.3" cy="162.4" r="3.6" fill="#f9923a" opacity="0.95"/><circle cx="453.7" cy="188.6" r="3.6" fill="#f9923a" opacity="0.95"/><circle cx="461.9" cy="215.4" r="4.5" fill="#60a5fa" opacity="0.95"/><circle cx="445.4" cy="235.7" r="3.6" fill="#f9923a" opacity="0.95"/><circle cx="425.7" cy="252.7" r="3.6" fill="#f9923a" opacity="0.95"/><circle cx="455.7" cy="116.1" r="4.5" fill="#60a5fa" opacity="0.95"/><circle cx="469.7" cy="138.0" r="3.6" fill="#f9923a" opacity="0.95"/><circle cx="478.9" cy="162.5" r="3.6" fill="#f9923a" opacity="0.95"/><circle cx="482.1" cy="190.7" r="4.5" fill="#60a5fa" opacity="0.95"/><circle cx="499.7" cy="210.4" r="3.6" fill="#f9923a" opacity="0.95"/><circle cx="508.2" cy="235.4" r="3.6" fill="#f9923a" opacity="0.95"/><circle cx="507.1" cy="170.3" r="4.5" fill="#60a5fa" opacity="0.95"/><circle cx="520.5" cy="192.8" r="3.6" fill="#f9923a" opacity="0.95"/><circle cx="527.7" cy="217.8" r="3.6" fill="#f9923a" opacity="0.95"/><circle cx="503.2" cy="134.2" r="4.5" fill="#60a5fa" opacity="0.95"/><circle cx="524.2" cy="150.0" r="3.6" fill="#f9923a" opacity="0.95"/><circle cx="539.2" cy="171.5" r="3.6" fill="#f9923a" opacity="0.95"/><circle cx="548.0" cy="198.7" r="4.5" fill="#60a5fa" opacity="0.95"/><circle cx="553.0" cy="224.3" r="3.6" fill="#f9923a" opacity="0.95"/><circle cx="563.0" cy="248.3" r="3.6" fill="#f9923a" opacity="0.95"/><circle cx="545.9" cy="129.1" r="4.5" fill="#60a5fa" opacity="0.95"/><circle cx="558.1" cy="152.2" r="3.6" fill="#f9923a" opacity="0.95"/><circle cx="565.1" cy="177.3" r="3.6" fill="#f9923a" opacity="0.95"/><circle cx="583.0" cy="106.6" r="4.5" fill="#60a5fa" opacity="0.95"/><circle cx="578.0" cy="132.6" r="3.6" fill="#f9923a" opacity="0.95"/><circle cx="583.8" cy="158.3" r="3.6" fill="#f9923a" opacity="0.95"/><circle cx="617.6" cy="175.6" r="4.5" fill="#60a5fa" opacity="0.95"/><circle cx="593.3" cy="186.0" r="3.6" fill="#f9923a" opacity="0.95"/><circle cx="574.4" cy="204.1" r="3.6" fill="#f9923a" opacity="0.95"/><circle cx="625.4" cy="200.6" r="4.5" fill="#60a5fa" opacity="0.95"/><circle cx="601.1" cy="211.1" r="3.6" fill="#f9923a" opacity="0.95"/><circle cx="582.2" cy="229.3" r="3.6" fill="#f9923a" opacity="0.95"/><circle cx="80.7" cy="320.1" r="4.5" fill="#60a5fa" opacity="0.95"/><circle cx="99.8" cy="302.1" r="3.6" fill="#f9923a" opacity="0.95"/><circle cx="112.8" cy="279.4" r="3.6" fill="#f9923a" opacity="0.95"/><circle cx="97.8" cy="341.5" r="4.5" fill="#60a5fa" opacity="0.95"/><circle cx="115.8" cy="322.6" r="3.6" fill="#f9923a" opacity="0.95"/><circle cx="128.7" cy="299.8" r="3.6" fill="#f9923a" opacity="0.95"/><circle cx="155.1" cy="298.6" r="4.5" fill="#60a5fa" opacity="0.95"/><circle cx="166.9" cy="276.0" r="3.6" fill="#f9923a" opacity="0.95"/><circle cx="179.6" cy="252.0" r="3.6" fill="#f9923a" opacity="0.95"/><circle cx="154.0" cy="372.7" r="4.5" fill="#60a5fa" opacity="0.95"/><circle cx="143.7" cy="348.4" r="3.6" fill="#f9923a" opacity="0.95"/><circle cx="141.9" cy="322.5" r="3.6" fill="#f9923a" opacity="0.95"/><circle cx="169.6" cy="348.2" r="4.5" fill="#60a5fa" opacity="0.95"/><circle cx="170.1" cy="321.8" r="3.6" fill="#f9923a" opacity="0.95"/><circle cx="181.2" cy="297.8" r="3.6" fill="#f9923a" opacity="0.95"/><circle cx="206.3" cy="371.4" r="4.5" fill="#60a5fa" opacity="0.95"/><circle cx="198.5" cy="346.4" r="3.6" fill="#f9923a" opacity="0.95"/><circle cx="196.1" cy="320.4" r="3.6" fill="#f9923a" opacity="0.95"/><circle cx="222.6" cy="319.1" r="4.5" fill="#60a5fa" opacity="0.95"/><circle cx="210.2" cy="296.1" r="3.6" fill="#f9923a" opacity="0.95"/><circle cx="194.5" cy="275.4" r="3.6" fill="#f9923a" opacity="0.95"/><circle cx="237.9" cy="397.8" r="4.5" fill="#60a5fa" opacity="0.95"/><circle cx="235.3" cy="371.6" r="3.6" fill="#f9923a" opacity="0.95"/><circle cx="225.1" cy="347.5" r="3.6" fill="#f9923a" opacity="0.95"/><circle cx="261.5" cy="382.7" r="4.5" fill="#60a5fa" opacity="0.95"/><circle cx="259.0" cy="356.6" r="3.6" fill="#f9923a" opacity="0.95"/><circle cx="250.6" cy="331.9" r="3.6" fill="#f9923a" opacity="0.95"/><circle cx="276.6" cy="332.5" r="4.5" fill="#60a5fa" opacity="0.95"/><circle cx="268.7" cy="306.8" r="3.6" fill="#f9923a" opacity="0.95"/><circle cx="261.5" cy="282.3" r="3.6" fill="#f9923a" opacity="0.95"/><circle cx="294.6" cy="313.1" r="4.5" fill="#60a5fa" opacity="0.95"/><circle cx="288.2" cy="287.7" r="3.6" fill="#f9923a" opacity="0.95"/><circle cx="287.9" cy="261.6" r="3.6" fill="#f9923a" opacity="0.95"/><circle cx="309.6" cy="405.7" r="4.5" fill="#60a5fa" opacity="0.95"/><circle cx="307.2" cy="379.4" r="3.6" fill="#f9923a" opacity="0.95"/><circle cx="296.4" cy="355.5" r="3.6" fill="#f9923a" opacity="0.95"/><circle cx="315.6" cy="335.4" r="4.5" fill="#60a5fa" opacity="0.95"/><circle cx="320.2" cy="309.5" r="3.6" fill="#f9923a" opacity="0.95"/><circle cx="315.4" cy="283.7" r="3.6" fill="#f9923a" opacity="0.95"/><circle cx="347.1" cy="307.4" r="4.5" fill="#60a5fa" opacity="0.95"/><circle cx="342.7" cy="281.5" r="3.6" fill="#f9923a" opacity="0.95"/><circle cx="346.8" cy="255.6" r="3.6" fill="#f9923a" opacity="0.95"/><circle cx="358.7" cy="409.7" r="4.5" fill="#60a5fa" opacity="0.95"/><circle cx="356.7" cy="383.4" r="3.6" fill="#f9923a" opacity="0.95"/><circle cx="345.8" cy="359.5" r="3.6" fill="#f9923a" opacity="0.95"/><circle cx="369.3" cy="341.2" r="4.5" fill="#60a5fa" opacity="0.95"/><circle cx="373.0" cy="315.1" r="3.6" fill="#f9923a" opacity="0.95"/><circle cx="367.8" cy="289.4" r="3.6" fill="#f9923a" opacity="0.95"/><circle cx="383.7" cy="365.9" r="4.5" fill="#60a5fa" opacity="0.95"/><circle cx="396.1" cy="342.3" r="3.6" fill="#f9923a" opacity="0.95"/><circle cx="409.9" cy="320.6" r="3.6" fill="#f9923a" opacity="0.95"/><circle cx="431.9" cy="300.1" r="4.5" fill="#60a5fa" opacity="0.95"/><circle cx="416.6" cy="279.1" r="3.6" fill="#f9923a" opacity="0.95"/><circle cx="398.9" cy="260.0" r="3.6" fill="#f9923a" opacity="0.95"/><circle cx="436.6" cy="408.7" r="4.5" fill="#60a5fa" opacity="0.95"/><circle cx="424.8" cy="385.4" r="3.6" fill="#f9923a" opacity="0.95"/><circle cx="413.3" cy="362.1" r="3.6" fill="#f9923a" opacity="0.95"/><circle cx="450.9" cy="386.5" r="4.5" fill="#60a5fa" opacity="0.95"/><circle cx="439.4" cy="363.2" r="3.6" fill="#f9923a" opacity="0.95"/><circle cx="427.6" cy="339.6" r="3.6" fill="#f9923a" opacity="0.95"/><circle cx="481.4" cy="340.9" r="4.5" fill="#60a5fa" opacity="0.95"/><circle cx="456.2" cy="313.9" r="3.6" fill="#f9923a" opacity="0.95"/><circle cx="466.9" cy="290.4" r="3.6" fill="#f9923a" opacity="0.95"/><circle cx="465.5" cy="364.6" r="4.5" fill="#60a5fa" opacity="0.95"/><circle cx="455.6" cy="340.7" r="3.6" fill="#f9923a" opacity="0.95"/><circle cx="481.9" cy="314.6" r="3.6" fill="#f9923a" opacity="0.95"/><circle cx="488.1" cy="264.9" r="4.5" fill="#60a5fa" opacity="0.95"/><circle cx="514.2" cy="260.6" r="3.6" fill="#f9923a" opacity="0.95"/><circle cx="536.2" cy="246.2" r="3.6" fill="#f9923a" opacity="0.95"/><circle cx="516.1" cy="410.4" r="4.5" fill="#60a5fa" opacity="0.95"/><circle cx="508.6" cy="385.2" r="3.6" fill="#f9923a" opacity="0.95"/><circle cx="509.3" cy="359.0" r="3.6" fill="#f9923a" opacity="0.95"/><circle cx="496.7" cy="290.1" r="4.5" fill="#60a5fa" opacity="0.95"/><circle cx="522.7" cy="285.6" r="3.6" fill="#f9923a" opacity="0.95"/><circle cx="545.0" cy="271.6" r="3.6" fill="#f9923a" opacity="0.95"/><circle cx="507.4" cy="332.3" r="4.5" fill="#60a5fa" opacity="0.95"/><circle cx="526.0" cy="313.9" r="3.6" fill="#f9923a" opacity="0.95"/><circle cx="547.8" cy="299.6" r="3.6" fill="#f9923a" opacity="0.95"/><circle cx="532.3" cy="374.6" r="4.5" fill="#60a5fa" opacity="0.95"/><circle cx="536.6" cy="348.6" r="3.6" fill="#f9923a" opacity="0.95"/><circle cx="549.2" cy="325.6" r="3.6" fill="#f9923a" opacity="0.95"/><circle cx="556.3" cy="386.1" r="4.5" fill="#60a5fa" opacity="0.95"/><circle cx="560.0" cy="360.0" r="3.6" fill="#f9923a" opacity="0.95"/><circle cx="572.6" cy="337.0" r="3.6" fill="#f9923a" opacity="0.95"/><circle cx="598.9" cy="408.9" r="4.5" fill="#60a5fa" opacity="0.95"/><circle cx="608.6" cy="384.5" r="3.6" fill="#f9923a" opacity="0.95"/><circle cx="613.0" cy="358.9" r="3.6" fill="#f9923a" opacity="0.95"/><circle cx="620.7" cy="331.0" r="4.5" fill="#60a5fa" opacity="0.95"/><circle cx="595.4" cy="324.4" r="3.6" fill="#f9923a" opacity="0.95"/><circle cx="572.8" cy="311.1" r="3.6" fill="#f9923a" opacity="0.95"/><text x="16" y="26" fill="#e2e8f0" font-family="monospace" font-size="15">finite ribbon N=60 repel=192.0 hydrophobic=0.6 t=20000</text><text x="16" y="464" fill="#e2e8f0" font-family="monospace" font-size="13">align 0.477  (bilayer 1.00, micelle 0.09, vesicle 0.03, random 0.08)</text><text x="16" y="484" fill="#94a3b8" font-family="monospace" font-size="12">hollow nan   enclosed 0.55 (bulk = 1.0)   edge 0.35   aspect 0.29</text><text x="16" y="504" fill="#64748b" font-family="monospace" font-size="12">bond 1.02   60/60 lipids   DISQUALIFIED: molecule deformed (bond mean 1.02, 3% > 1.25)   blue=head orange=tail faint=water</text></svg>