<svg xmlns="http://www.w3.org/2000/svg" width="720" height="520"><rect width="720" height="520" fill="#0b0e13"/><circle cx="337.6" cy="108.5" r="2.2" fill="#38bdf8" opacity="0.35"/><circle cx="325.6" cy="52.1" r="2.2" fill="#38bdf8" opacity="0.35"/><circle cx="468.5" cy="443.7" r="2.2" fill="#38bdf8" opacity="0.35"/><circle cx="268.2" cy="302.7" r="2.2" fill="#38bdf8" opacity="0.35"/><circle cx="522.7" cy="399.8" r="2.2" fill="#38bdf8" opacity="0.35"/><circle cx="355.8" cy="260.8" r="2.2" fill="#38bdf8" opacity="0.35"/><circle cx="317.2" cy="277.1" r="2.2" fill="#38bdf8" opacity="0.35"/><circle cx="629.2" cy="59.1" r="2.2" fill="#38bdf8" opacity="0.35"/><circle cx="377.8" cy="143.4" r="2.2" fill="#38bdf8" opacity="0.35"/><circle cx="327.3" cy="291.0" r="2.2" fill="#38bdf8" opacity="0.35"/><circle cx="303.7" cy="302.1" r="2.2" fill="#38bdf8" opacity="0.35"/><circle cx="319.3" cy="302.9" r="2.2" fill="#38bdf8" opacity="0.35"/><circle cx="271.5" cy="278.7" r="2.2" fill="#38bdf8" opacity="0.35"/><circle cx="82.9" cy="60.8" r="2.2" fill="#38bdf8" opacity="0.35"/><circle cx="507.5" cy="369.7" r="2.2" fill="#38bdf8" opacity="0.35"/><circle cx="486.8" cy="430.1" r="2.2" fill="#38bdf8" opacity="0.35"/><circle cx="76.3" cy="24.3" r="2.2" fill="#38bdf8" opacity="0.35"/><circle cx="301.0" cy="308.4" r="2.2" fill="#38bdf8" opacity="0.35"/><circle cx="261.9" cy="278.5" r="2.2" fill="#38bdf8" opacity="0.35"/><circle cx="276.6" cy="256.1" r="2.2" fill="#38bdf8" opacity="0.35"/><circle cx="100.9" cy="49.5" r="2.2" fill="#38bdf8" opacity="0.35"/><circle cx="340.8" cy="71.6" r="2.2" fill="#38bdf8" opacity="0.35"/><circle cx="316.0" cy="73.8" r="2.2" fill="#38bdf8" opacity="0.35"/><circle cx="317.3" cy="293.8" r="2.2" fill="#38bdf8" opacity="0.35"/><circle cx="520.2" cy="351.7" r="2.2" fill="#38bdf8" opacity="0.35"/><circle cx="490.8" cy="393.7" r="2.2" fill="#38bdf8" opacity="0.35"/><circle cx="301.8" cy="119.4" r="2.2" fill="#38bdf8" opacity="0.35"/><circle cx="640.4" cy="56.6" r="2.2" fill="#38bdf8" opacity="0.35"/><circle cx="608.3" cy="3.8" r="2.2" fill="#38bdf8" opacity="0.35"/><circle cx="636.3" cy="36.8" r="2.2" fill="#38bdf8" opacity="0.35"/><circle cx="324.4" cy="311.1" r="2.2" fill="#38bdf8" opacity="0.35"/><circle cx="278.2" cy="280.0" r="2.2" fill="#38bdf8" opacity="0.35"/><circle cx="309.8" cy="85.0" r="2.2" fill="#38bdf8" opacity="0.35"/><circle cx="81.8" cy="86.0" r="2.2" fill="#38bdf8" opacity="0.35"/><circle cx="422.3" cy="406.9" r="2.2" fill="#38bdf8" opacity="0.35"/><circle cx="466.2" cy="385.0" r="2.2" fill="#38bdf8" opacity="0.35"/><circle cx="506.3" cy="381.2" r="2.2" fill="#38bdf8" opacity="0.35"/><circle cx="135.4" cy="387.2" r="2.2" fill="#38bdf8" opacity="0.35"/><circle cx="349.1" cy="272.6" r="2.2" fill="#38bdf8" opacity="0.35"/><circle cx="466.2" cy="371.3" r="2.2" fill="#38bdf8" opacity="0.35"/><circle cx="146.4" cy="353.5" r="2.2" fill="#38bdf8" opacity="0.35"/><circle cx="496.9" cy="347.0" r="2.2" fill="#38bdf8" opacity="0.35"/><circle cx="496.2" cy="382.4" r="2.2" fill="#38bdf8" opacity="0.35"/><circle cx="313.3" cy="113.8" r="2.2" fill="#38bdf8" opacity="0.35"/><circle cx="479.0" cy="420.8" r="2.2" fill="#38bdf8" opacity="0.35"/><circle cx="278.9" cy="311.6" r="2.2" fill="#38bdf8" opacity="0.35"/><circle cx="482.5" cy="374.6" r="2.2" fill="#38bdf8" opacity="0.35"/><circle cx="271.3" cy="113.4" r="2.2" fill="#38bdf8" opacity="0.35"/><circle cx="595.0" cy="56.5" r="2.2" fill="#38bdf8" opacity="0.35"/><circle cx="347.2" cy="56.4" r="2.2" fill="#38bdf8" opacity="0.35"/><circle cx="606.9" cy="71.0" r="2.2" fill="#38bdf8" opacity="0.35"/><circle cx="499.0" cy="372.2" r="2.2" fill="#38bdf8" opacity="0.35"/><circle cx="454.6" cy="397.0" r="2.2" fill="#38bdf8" opacity="0.35"/><circle cx="287.4" cy="72.1" r="2.2" fill="#38bdf8" opacity="0.35"/><circle cx="315.0" cy="269.3" r="2.2" fill="#38bdf8" opacity="0.35"/><circle cx="323.0" cy="333.7" r="2.2" fill="#38bdf8" opacity="0.35"/><circle cx="519.6" cy="330.7" r="2.2" fill="#38bdf8" opacity="0.35"/><circle cx="644.3" cy="77.1" r="2.2" fill="#38bdf8" opacity="0.35"/><circle cx="486.9" cy="340.2" r="2.2" fill="#38bdf8" opacity="0.35"/><circle cx="332.5" cy="257.6" r="2.2" fill="#38bdf8" opacity="0.35"/><circle cx="515.3" cy="413.2" r="2.2" fill="#38bdf8" opacity="0.35"/><circle cx="128.0" cy="365.2" r="2.2" fill="#38bdf8" opacity="0.35"/><circle cx="484.7" cy="351.1" r="2.2" fill="#38bdf8" opacity="0.35"/><circle cx="605.9" cy="47.2" r="2.2" fill="#38bdf8" opacity="0.35"/><circle cx="503.4" cy="321.4" r="2.2" fill="#38bdf8" opacity="0.35"/><circle cx="454.3" cy="387.9" r="2.2" fill="#38bdf8" opacity="0.35"/><circle cx="293.0" cy="269.7" r="2.2" fill="#38bdf8" opacity="0.35"/><circle cx="246.3" cy="243.1" r="2.2" fill="#38bdf8" opacity="0.35"/><circle cx="77.3" cy="47.0" r="2.2" fill="#38bdf8" opacity="0.35"/><circle cx="346.8" cy="85.0" r="2.2" fill="#38bdf8" opacity="0.35"/><circle cx="280.9" cy="293.4" r="2.2" fill="#38bdf8" opacity="0.35"/><circle cx="616.6" cy="61.7" r="2.2" fill="#38bdf8" opacity="0.35"/><circle cx="295.6" cy="286.1" r="2.2" fill="#38bdf8" opacity="0.35"/><circle cx="498.3" cy="403.9" r="2.2" fill="#38bdf8" opacity="0.35"/><circle cx="360.3" cy="117.4" r="2.2" fill="#38bdf8" opacity="0.35"/><circle cx="269.1" cy="314.7" r="2.2" fill="#38bdf8" opacity="0.35"/><circle cx="445.0" cy="402.7" r="2.2" fill="#38bdf8" opacity="0.35"/><circle cx="368.3" cy="89.1" r="2.2" fill="#38bdf8" opacity="0.35"/><circle cx="502.0" cy="425.6" r="2.2" fill="#38bdf8" opacity="0.35"/><circle cx="501.5" cy="360.3" r="2.2" fill="#38bdf8" opacity="0.35"/><circle cx="495.8" cy="333.5" r="2.2" fill="#38bdf8" opacity="0.35"/><circle cx="432.4" cy="423.4" r="2.2" fill="#38bdf8" opacity="0.35"/><circle cx="289.7" cy="293.9" r="2.2" fill="#38bdf8" opacity="0.35"/><circle cx="309.5" cy="277.5" r="2.2" fill="#38bdf8" opacity="0.35"/><circle cx="624.6" cy="37.7" r="2.2" fill="#38bdf8" opacity="0.35"/><circle cx="470.1" cy="331.4" r="2.2" fill="#38bdf8" opacity="0.35"/><circle cx="470.7" cy="362.8" r="2.2" fill="#38bdf8" opacity="0.35"/><circle cx="445.9" cy="381.1" r="2.2" fill="#38bdf8" opacity="0.35"/><circle cx="487.7" cy="381.1" r="2.2" fill="#38bdf8" opacity="0.35"/><circle cx="262.1" cy="244.3" r="2.2" fill="#38bdf8" opacity="0.35"/><circle cx="335.1" cy="289.1" r="2.2" fill="#38bdf8" opacity="0.35"/><circle cx="282.5" cy="244.7" r="2.2" fill="#38bdf8" opacity="0.35"/><circle cx="517.5" cy="389.1" r="2.2" fill="#38bdf8" opacity="0.35"/><circle cx="475.2" cy="385.5" r="2.2" fill="#38bdf8" opacity="0.35"/><circle cx="642.9" cy="95.4" r="2.2" fill="#38bdf8" opacity="0.35"/><circle cx="304.3" cy="256.6" r="2.2" fill="#38bdf8" opacity="0.35"/><circle cx="305.2" cy="60.9" r="2.2" fill="#38bdf8" opacity="0.35"/><circle cx="488.2" cy="407.0" r="2.2" fill="#38bdf8" opacity="0.35"/><circle cx="298.5" cy="317.4" r="2.2" fill="#38bdf8" opacity="0.35"/><circle cx="441.7" cy="390.8" r="2.2" fill="#38bdf8" opacity="0.35"/><circle cx="278.8" cy="302.7" r="2.2" fill="#38bdf8" opacity="0.35"/><circle cx="288.6" cy="112.4" r="2.2" fill="#38bdf8" opacity="0.35"/><circle cx="367.2" cy="129.6" r="2.2" fill="#38bdf8" opacity="0.35"/><circle cx="129.2" cy="341.2" r="2.2" fill="#38bdf8" opacity="0.35"/><circle cx="305.3" cy="292.5" r="2.2" fill="#38bdf8" opacity="0.35"/><circle cx="541.1" cy="384.8" r="2.2" fill="#38bdf8" opacity="0.35"/><circle cx="510.7" cy="402.5" r="2.2" fill="#38bdf8" opacity="0.35"/><circle cx="583.5" cy="35.8" r="2.2" fill="#38bdf8" opacity="0.35"/><circle cx="486.7" cy="314.4" r="2.2" fill="#38bdf8" opacity="0.35"/><circle cx="364.6" cy="65.1" r="2.2" fill="#38bdf8" opacity="0.35"/><circle cx="469.1" cy="407.6" r="2.2" fill="#38bdf8" opacity="0.35"/><circle cx="286.5" cy="277.4" r="2.2" fill="#38bdf8" opacity="0.35"/><circle cx="274.5" cy="91.1" r="2.2" fill="#38bdf8" opacity="0.35"/><circle cx="621.2" cy="82.4" r="2.2" fill="#38bdf8" opacity="0.35"/><circle cx="327.4" cy="300.2" r="2.2" fill="#38bdf8" opacity="0.35"/><circle cx="330.5" cy="325.3" r="2.2" fill="#38bdf8" opacity="0.35"/><circle cx="455.4" cy="424.2" r="2.2" fill="#38bdf8" opacity="0.35"/><circle cx="326.7" cy="264.8" r="2.2" fill="#38bdf8" opacity="0.35"/><circle cx="311.5" cy="252.2" r="2.2" fill="#38bdf8" opacity="0.35"/><circle cx="333.3" cy="313.2" r="2.2" fill="#38bdf8" opacity="0.35"/><circle cx="622.8" cy="99.9" r="2.2" fill="#38bdf8" opacity="0.35"/><circle cx="357.4" cy="79.1" r="2.2" fill="#38bdf8" opacity="0.35"/><circle cx="536.0" cy="404.5" r="2.2" fill="#38bdf8" opacity="0.35"/><circle cx="336.7" cy="121.9" r="2.2" fill="#38bdf8" opacity="0.35"/><circle cx="638.4" cy="15.4" r="2.2" fill="#38bdf8" opacity="0.35"/><circle cx="97.1" cy="71.6" r="2.2" fill="#38bdf8" opacity="0.35"/><circle cx="478.1" cy="365.2" r="2.2" fill="#38bdf8" opacity="0.35"/><circle cx="297.6" cy="262.6" r="2.2" fill="#38bdf8" opacity="0.35"/><circle cx="313.3" cy="310.6" r="2.2" fill="#38bdf8" opacity="0.35"/><circle cx="344.8" cy="261.3" r="2.2" fill="#38bdf8" opacity="0.35"/><circle cx="337.5" cy="268.8" r="2.2" fill="#38bdf8" opacity="0.35"/><circle cx="300.1" cy="328.5" r="2.2" fill="#38bdf8" opacity="0.35"/><circle cx="315.5" cy="261.4" r="2.2" fill="#38bdf8" opacity="0.35"/><circle cx="326.9" cy="114.6" r="2.2" fill="#38bdf8" opacity="0.35"/><circle cx="645.2" cy="45.7" r="2.2" fill="#38bdf8" opacity="0.35"/><circle cx="527.7" cy="383.7" r="2.2" fill="#38bdf8" opacity="0.35"/><circle cx="508.6" cy="340.3" r="2.2" fill="#38bdf8" opacity="0.35"/><circle cx="84.9" cy="36.4" r="2.2" fill="#38bdf8" opacity="0.35"/><circle cx="525.5" cy="422.7" r="2.2" fill="#38bdf8" opacity="0.35"/><circle cx="325.8" cy="271.5" r="2.2" fill="#38bdf8" opacity="0.35"/><circle cx="458.6" cy="366.5" r="2.2" fill="#38bdf8" opacity="0.35"/><circle cx="317.8" cy="346.7" r="2.2" fill="#38bdf8" opacity="0.35"/><circle cx="288.6" cy="261.4" r="2.2" fill="#38bdf8" opacity="0.35"/><circle cx="304.5" cy="103.4" r="2.2" fill="#38bdf8" opacity="0.35"/><circle cx="351.9" cy="285.5" r="2.2" fill="#38bdf8" opacity="0.35"/><circle cx="335.0" cy="277.3" r="2.2" fill="#38bdf8" opacity="0.35"/><circle cx="630.8" cy="75.0" r="2.2" fill="#38bdf8" opacity="0.35"/><circle cx="85.6" cy="10.6" r="2.2" fill="#38bdf8" opacity="0.35"/><circle cx="286.5" cy="317.6" r="2.2" fill="#38bdf8" opacity="0.35"/><circle cx="307.1" cy="265.3" r="2.2" fill="#38bdf8" opacity="0.35"/><circle cx="448.5" cy="436.3" r="2.2" fill="#38bdf8" opacity="0.35"/><circle cx="334.1" cy="87.0" r="2.2" fill="#38bdf8" opacity="0.35"/><circle cx="292.4" cy="338.5" r="2.2" fill="#38bdf8" opacity="0.35"/><circle cx="648.3" cy="2.1" r="2.2" fill="#38bdf8" opacity="0.35"/><circle cx="644.6" cy="27.4" r="2.2" fill="#38bdf8" opacity="0.35"/><circle cx="432.6" cy="398.1" r="2.2" fill="#38bdf8" opacity="0.35"/><circle cx="286.2" cy="286.0" r="2.2" fill="#38bdf8" opacity="0.35"/><circle cx="158.4" cy="392.2" r="2.2" fill="#38bdf8" opacity="0.35"/><circle cx="178.8" cy="395.6" r="2.2" fill="#38bdf8" opacity="0.35"/><circle cx="363.5" cy="250.6" r="2.2" fill="#38bdf8" opacity="0.35"/><circle cx="265.5" cy="289.5" r="2.2" fill="#38bdf8" opacity="0.35"/><circle cx="517.6" cy="376.3" r="2.2" fill="#38bdf8" opacity="0.35"/><circle cx="373.7" cy="111.6" r="2.2" fill="#38bdf8" opacity="0.35"/><circle cx="273.8" cy="291.2" r="2.2" fill="#38bdf8" opacity="0.35"/><circle cx="135.1" cy="319.6" r="2.2" fill="#38bdf8" opacity="0.35"/><circle cx="336.1" cy="302.5" r="2.2" fill="#38bdf8" opacity="0.35"/><circle cx="484.2" cy="399.4" r="2.2" fill="#38bdf8" opacity="0.35"/><circle cx="342.6" cy="294.9" r="2.2" fill="#38bdf8" opacity="0.35"/><circle cx="254.9" cy="266.8" r="2.2" fill="#38bdf8" opacity="0.35"/><circle cx="465.9" cy="418.1" r="2.2" fill="#38bdf8" opacity="0.35"/><circle cx="586.8" cy="75.7" r="2.2" fill="#38bdf8" opacity="0.35"/><circle cx="297.0" cy="251.8" r="2.2" fill="#38bdf8" opacity="0.35"/><circle cx="310.6" cy="286.3" r="2.2" fill="#38bdf8" opacity="0.35"/><circle cx="493.2" cy="357.5" r="2.2" fill="#38bdf8" opacity="0.35"/><circle cx="303.0" cy="282.5" r="2.2" fill="#38bdf8" opacity="0.35"/><circle cx="478.1" cy="409.6" r="2.2" fill="#38bdf8" opacity="0.35"/><circle cx="619.5" cy="26.3" r="2.2" fill="#38bdf8" opacity="0.35"/><circle cx="248.8" cy="275.4" r="2.2" fill="#38bdf8" opacity="0.35"/><circle cx="474.0" cy="376.3" r="2.2" fill="#38bdf8" opacity="0.35"/><circle cx="288.8" cy="326.7" r="2.2" fill="#38bdf8" opacity="0.35"/><circle cx="474.4" cy="341.9" r="2.2" fill="#38bdf8" opacity="0.35"/><circle cx="625.6" cy="14.2" r="2.2" fill="#38bdf8" opacity="0.35"/><circle cx="454.4" cy="411.8" r="2.2" fill="#38bdf8" opacity="0.35"/><circle cx="344.4" cy="97.3" r="2.2" fill="#38bdf8" opacity="0.35"/><circle cx="197.7" cy="408.1" r="2.2" fill="#38bdf8" opacity="0.35"/><circle cx="342.2" cy="282.6" r="2.2" fill="#38bdf8" opacity="0.35"/><circle cx="382.0" cy="77.8" r="2.2" fill="#38bdf8" opacity="0.35"/><circle cx="463.6" cy="356.4" r="2.2" fill="#38bdf8" opacity="0.35"/><circle cx="482.6" cy="388.3" r="2.2" fill="#38bdf8" opacity="0.35"/><circle cx="532.3" cy="345.8" r="2.2" fill="#38bdf8" opacity="0.35"/><circle cx="489.7" cy="443.5" r="2.2" fill="#38bdf8" opacity="0.35"/><circle cx="466.6" cy="393.6" r="2.2" fill="#38bdf8" opacity="0.35"/><circle cx="321.2" cy="321.1" r="2.2" fill="#38bdf8" opacity="0.35"/><circle cx="507.2" cy="391.2" r="2.2" fill="#38bdf8" opacity="0.35"/><circle cx="342.5" cy="251.2" r="2.2" fill="#38bdf8" opacity="0.35"/><circle cx="508.1" cy="351.7" r="2.2" fill="#38bdf8" opacity="0.35"/><circle cx="602.0" cy="91.3" r="2.2" fill="#38bdf8" opacity="0.35"/><circle cx="509.9" cy="436.2" r="2.2" fill="#38bdf8" opacity="0.35"/><circle cx="275.8" cy="266.0" r="2.2" fill="#38bdf8" opacity="0.35"/><circle cx="152.5" cy="371.9" r="2.2" fill="#38bdf8" opacity="0.35"/><circle cx="267.8" cy="268.7" r="2.2" fill="#38bdf8" opacity="0.35"/><circle cx="491.2" cy="417.8" r="2.2" fill="#38bdf8" opacity="0.35"/><circle cx="474.5" cy="352.4" r="2.2" fill="#38bdf8" opacity="0.35"/><circle cx="452.1" cy="373.2" r="2.2" fill="#38bdf8" opacity="0.35"/><circle cx="250.7" cy="257.1" r="2.2" fill="#38bdf8" opacity="0.35"/><circle cx="295.0" cy="278.0" r="2.2" fill="#38bdf8" opacity="0.35"/><circle cx="442.4" cy="414.1" r="2.2" fill="#38bdf8" opacity="0.35"/><circle cx="539.4" cy="364.6" r="2.2" fill="#38bdf8" opacity="0.35"/><circle cx="388.0" cy="99.4" r="2.2" fill="#38bdf8" opacity="0.35"/><circle cx="264.9" cy="258.0" r="2.2" fill="#38bdf8" opacity="0.35"/><circle cx="297.7" cy="295.3" r="2.2" fill="#38bdf8" opacity="0.35"/><circle cx="296.6" cy="351.1" r="2.2" fill="#38bdf8" opacity="0.35"/><circle cx="605.8" cy="23.2" r="2.2" fill="#38bdf8" opacity="0.35"/><circle cx="619.0" cy="48.3" r="2.2" fill="#38bdf8" opacity="0.35"/><circle cx="499.0" cy="393.3" r="2.2" fill="#38bdf8" opacity="0.35"/><circle cx="283.1" cy="268.9" r="2.2" fill="#38bdf8" opacity="0.35"/><circle cx="308.6" cy="316.4" r="2.2" fill="#38bdf8" opacity="0.35"/><circle cx="526.2" cy="367.6" r="2.2" fill="#38bdf8" opacity="0.35"/><circle cx="475.3" cy="397.3" r="2.2" fill="#38bdf8" opacity="0.35"/><circle cx="464.1" cy="346.6" r="2.2" fill="#38bdf8" opacity="0.35"/><circle cx="470.4" cy="430.0" r="2.2" fill="#38bdf8" opacity="0.35"/><circle cx="290.7" cy="309.4" r="2.2" fill="#38bdf8" opacity="0.35"/><circle cx="322.3" cy="255.5" r="2.2" fill="#38bdf8" opacity="0.35"/><circle cx="297.5" cy="83.9" r="2.2" fill="#38bdf8" opacity="0.35"/><circle cx="628.1" cy="-6.0" r="2.2" fill="#38bdf8" opacity="0.35"/><circle cx="485.2" cy="362.1" r="2.2" fill="#38bdf8" opacity="0.35"/><circle cx="305.1" cy="242.9" r="2.2" fill="#38bdf8" opacity="0.35"/><circle cx="271.4" cy="246.7" r="2.2" fill="#38bdf8" opacity="0.35"/><circle cx="302.7" cy="272.5" r="2.2" fill="#38bdf8" opacity="0.35"/><circle cx="71.3" cy="67.1" r="2.2" fill="#38bdf8" opacity="0.35"/><circle cx="315.1" cy="99.6" r="2.2" fill="#38bdf8" opacity="0.35"/><circle cx="491.6" cy="370.1" r="2.2" fill="#38bdf8" opacity="0.35"/><circle cx="503.0" cy="413.7" r="2.2" fill="#38bdf8" opacity="0.35"/><circle cx="462.0" cy="402.4" r="2.2" fill="#38bdf8" opacity="0.35"/><circle cx="459.7" cy="379.4" r="2.2" fill="#38bdf8" opacity="0.35"/><circle cx="287.0" cy="252.5" r="2.2" fill="#38bdf8" opacity="0.35"/><circle cx="310.8" cy="325.3" r="2.2" fill="#38bdf8" opacity="0.35"/><circle cx="588.1" cy="14.4" r="2.2" fill="#38bdf8" opacity="0.35"/><circle cx="340.4" cy="238.6" r="2.2" fill="#38bdf8" opacity="0.35"/><circle cx="328.3" cy="101.3" r="2.2" fill="#38bdf8" opacity="0.35"/><circle cx="575.5" cy="55.7" r="2.2" fill="#38bdf8" opacity="0.35"/><circle cx="101.1" cy="26.5" r="2.2" fill="#38bdf8" opacity="0.35"/><circle cx="319.2" cy="286.3" r="2.2" fill="#38bdf8" opacity="0.35"/><circle cx="600.3" cy="35.2" r="2.2" fill="#38bdf8" opacity="0.35"/><circle cx="311.8" cy="299.9" r="2.2" fill="#38bdf8" opacity="0.35"/><circle cx="388.2" cy="123.0" r="2.2" fill="#38bdf8" opacity="0.35"/><circle cx="351.8" cy="104.3" r="2.2" fill="#38bdf8" opacity="0.35"/><circle cx="326.6" cy="280.7" r="2.2" fill="#38bdf8" opacity="0.35"/><circle cx="328.0" cy="70.4" r="2.2" fill="#38bdf8" opacity="0.35"/><circle cx="291.1" cy="97.5" r="2.2" fill="#38bdf8" opacity="0.35"/><circle cx="308.6" cy="337.1" r="2.2" fill="#38bdf8" opacity="0.35"/><circle cx="290.1" cy="301.8" r="2.2" fill="#38bdf8" opacity="0.35"/><circle cx="323.3" cy="90.0" r="2.2" fill="#38bdf8" opacity="0.35"/><circle cx="146.4" cy="297.7" r="2.2" fill="#38bdf8" opacity="0.35"/><circle cx="349.4" cy="119.3" r="2.2" fill="#38bdf8" opacity="0.35"/><circle cx="480.7" cy="328.4" r="2.2" fill="#38bdf8" opacity="0.35"/><circle cx="515.7" cy="363.2" r="2.2" fill="#38bdf8" opacity="0.35"/><circle cx="364.1" cy="100.3" r="2.2" fill="#38bdf8" opacity="0.35"/><circle cx="448.6" cy="332.8" r="4.5" fill="#60a5fa" opacity="0.95"/><circle cx="423.3" cy="324.3" r="3.6" fill="#f9923a" opacity="0.95"/><circle cx="400.8" cy="311.2" r="3.6" fill="#f9923a" opacity="0.95"/><circle cx="457.2" cy="316.9" r="4.5" fill="#60a5fa" opacity="0.95"/><circle cx="430.6" cy="315.0" r="3.6" fill="#f9923a" opacity="0.95"/><circle cx="406.3" cy="306.1" r="3.6" fill="#f9923a" opacity="0.95"/><circle cx="468.0" cy="310.1" r="4.5" fill="#60a5fa" opacity="0.95"/><circle cx="440.9" cy="309.6" r="3.6" fill="#f9923a" opacity="0.95"/><circle cx="416.9" cy="319.4" r="3.6" fill="#f9923a" opacity="0.95"/><circle cx="455.4" cy="292.7" r="4.5" fill="#60a5fa" opacity="0.95"/><circle cx="430.0" cy="300.4" r="3.6" fill="#f9923a" opacity="0.95"/><circle cx="403.8" cy="296.2" r="3.6" fill="#f9923a" opacity="0.95"/><circle cx="438.2" cy="276.3" r="4.5" fill="#60a5fa" opacity="0.95"/><circle cx="413.4" cy="285.4" r="3.6" fill="#f9923a" opacity="0.95"/><circle cx="394.2" cy="303.2" r="3.6" fill="#f9923a" opacity="0.95"/><circle cx="369.9" cy="166.0" r="4.5" fill="#60a5fa" opacity="0.95"/><circle cx="352.4" cy="185.5" r="3.6" fill="#f9923a" opacity="0.95"/><circle cx="330.0" cy="199.3" r="3.6" fill="#f9923a" opacity="0.95"/><circle cx="356.8" cy="151.3" r="4.5" fill="#60a5fa" opacity="0.95"/><circle cx="346.6" cy="175.3" r="3.6" fill="#f9923a" opacity="0.95"/><circle cx="339.8" cy="200.5" r="3.6" fill="#f9923a" opacity="0.95"/><circle cx="353.6" cy="139.9" r="4.5" fill="#60a5fa" opacity="0.95"/><circle cx="341.4" cy="163.7" r="3.6" fill="#f9923a" opacity="0.95"/><circle cx="338.7" cy="189.5" r="3.6" fill="#f9923a" opacity="0.95"/><circle cx="333.3" cy="141.2" r="4.5" fill="#60a5fa" opacity="0.95"/><circle cx="326.0" cy="167.0" r="3.6" fill="#f9923a" opacity="0.95"/><circle cx="308.3" cy="186.7" r="3.6" fill="#f9923a" opacity="0.95"/><circle cx="342.8" cy="132.7" r="4.5" fill="#60a5fa" opacity="0.95"/><circle cx="331.7" cy="157.0" r="3.6" fill="#f9923a" opacity="0.95"/><circle cx="312.1" cy="174.0" r="3.6" fill="#f9923a" opacity="0.95"/><circle cx="318.7" cy="125.1" r="4.5" fill="#60a5fa" opacity="0.95"/><circle cx="314.2" cy="151.8" r="3.6" fill="#f9923a" opacity="0.95"/><circle cx="323.8" cy="176.1" r="3.6" fill="#f9923a" opacity="0.95"/><circle cx="318.2" cy="136.0" r="4.5" fill="#60a5fa" opacity="0.95"/><circle cx="318.5" cy="162.2" r="3.6" fill="#f9923a" opacity="0.95"/><circle cx="317.8" cy="188.3" r="3.6" fill="#f9923a" opacity="0.95"/><circle cx="298.4" cy="134.8" r="4.5" fill="#60a5fa" opacity="0.95"/><circle cx="295.1" cy="161.4" r="3.6" fill="#f9923a" opacity="0.95"/><circle cx="280.8" cy="183.4" r="3.6" fill="#f9923a" opacity="0.95"/><circle cx="284.5" cy="132.1" r="4.5" fill="#60a5fa" opacity="0.95"/><circle cx="300.6" cy="153.5" r="3.6" fill="#f9923a" opacity="0.95"/><circle cx="304.5" cy="179.5" r="3.6" fill="#f9923a" opacity="0.95"/><circle cx="265.7" cy="137.4" r="4.5" fill="#60a5fa" opacity="0.95"/><circle cx="283.7" cy="157.1" r="3.6" fill="#f9923a" opacity="0.95"/><circle cx="308.8" cy="165.5" r="3.6" fill="#f9923a" opacity="0.95"/><circle cx="251.5" cy="157.5" r="4.5" fill="#60a5fa" opacity="0.95"/><circle cx="274.3" cy="171.2" r="3.6" fill="#f9923a" opacity="0.95"/><circle cx="300.7" cy="172.1" r="3.6" fill="#f9923a" opacity="0.95"/><circle cx="259.3" cy="216.5" r="4.5" fill="#60a5fa" opacity="0.95"/><circle cx="272.4" cy="193.7" r="3.6" fill="#f9923a" opacity="0.95"/><circle cx="288.4" cy="173.3" r="3.6" fill="#f9923a" opacity="0.95"/><circle cx="265.6" cy="229.9" r="4.5" fill="#60a5fa" opacity="0.95"/><circle cx="280.2" cy="207.4" r="3.6" fill="#f9923a" opacity="0.95"/><circle cx="304.7" cy="195.9" r="3.6" fill="#f9923a" opacity="0.95"/><circle cx="287.8" cy="231.9" r="4.5" fill="#60a5fa" opacity="0.95"/><circle cx="288.2" cy="205.8" r="3.6" fill="#f9923a" opacity="0.95"/><circle cx="293.3" cy="180.4" r="3.6" fill="#f9923a" opacity="0.95"/><circle cx="278.9" cy="228.9" r="4.5" fill="#60a5fa" opacity="0.95"/><circle cx="296.3" cy="209.1" r="3.6" fill="#f9923a" opacity="0.95"/><circle cx="320.1" cy="198.0" r="3.6" fill="#f9923a" opacity="0.95"/><circle cx="294.0" cy="241.6" r="4.5" fill="#60a5fa" opacity="0.95"/><circle cx="300.7" cy="216.2" r="3.6" fill="#f9923a" opacity="0.95"/><circle cx="297.3" cy="189.8" r="3.6" fill="#f9923a" opacity="0.95"/><circle cx="343.6" cy="334.0" r="4.5" fill="#60a5fa" opacity="0.95"/><circle cx="368.5" cy="325.8" r="3.6" fill="#f9923a" opacity="0.95"/><circle cx="391.5" cy="313.9" r="3.6" fill="#f9923a" opacity="0.95"/><circle cx="338.5" cy="348.2" r="4.5" fill="#60a5fa" opacity="0.95"/><circle cx="365.6" cy="347.2" r="3.6" fill="#f9923a" opacity="0.95"/><circle cx="386.4" cy="329.9" r="3.6" fill="#f9923a" opacity="0.95"/><circle cx="407.4" cy="391.2" r="4.5" fill="#60a5fa" opacity="0.95"/><circle cx="397.2" cy="366.0" r="3.6" fill="#f9923a" opacity="0.95"/><circle cx="405.5" cy="340.3" r="3.6" fill="#f9923a" opacity="0.95"/><circle cx="421.4" cy="375.2" r="4.5" fill="#60a5fa" opacity="0.95"/><circle cx="404.3" cy="354.3" r="3.6" fill="#f9923a" opacity="0.95"/><circle cx="380.2" cy="343.8" r="3.6" fill="#f9923a" opacity="0.95"/><circle cx="425.9" cy="385.6" r="4.5" fill="#60a5fa" opacity="0.95"/><circle cx="408.3" cy="365.4" r="3.6" fill="#f9923a" opacity="0.95"/><circle cx="386.2" cy="352.0" r="3.6" fill="#f9923a" opacity="0.95"/><circle cx="432.0" cy="363.2" r="4.5" fill="#60a5fa" opacity="0.95"/><circle cx="412.1" cy="345.7" r="3.6" fill="#f9923a" opacity="0.95"/><circle cx="395.6" cy="325.8" r="3.6" fill="#f9923a" opacity="0.95"/><circle cx="435.8" cy="375.8" r="4.5" fill="#60a5fa" opacity="0.95"/><circle cx="417.5" cy="355.6" r="3.6" fill="#f9923a" opacity="0.95"/><circle cx="412.4" cy="330.0" r="3.6" fill="#f9923a" opacity="0.95"/><circle cx="442.7" cy="366.2" r="4.5" fill="#60a5fa" opacity="0.95"/><circle cx="422.6" cy="347.9" r="3.6" fill="#f9923a" opacity="0.95"/><circle cx="397.0" cy="342.3" r="3.6" fill="#f9923a" opacity="0.95"/><circle cx="450.8" cy="357.6" r="4.5" fill="#60a5fa" opacity="0.95"/><circle cx="429.9" cy="341.1" r="3.6" fill="#f9923a" opacity="0.95"/><circle cx="405.5" cy="332.6" r="3.6" fill="#f9923a" opacity="0.95"/><circle cx="440.7" cy="351.8" r="4.5" fill="#60a5fa" opacity="0.95"/><circle cx="418.9" cy="336.7" r="3.6" fill="#f9923a" opacity="0.95"/><circle cx="399.5" cy="319.7" r="3.6" fill="#f9923a" opacity="0.95"/><circle cx="452.1" cy="348.7" r="4.5" fill="#60a5fa" opacity="0.95"/><circle cx="430.3" cy="333.0" r="3.6" fill="#f9923a" opacity="0.95"/><circle cx="418.8" cy="309.7" r="3.6" fill="#f9923a" opacity="0.95"/><circle cx="459.0" cy="334.4" r="4.5" fill="#60a5fa" opacity="0.95"/><circle cx="434.6" cy="324.3" r="3.6" fill="#f9923a" opacity="0.95"/><circle cx="408.4" cy="323.9" r="3.6" fill="#f9923a" opacity="0.95"/><circle cx="360.7" cy="296.1" r="4.5" fill="#60a5fa" opacity="0.95"/><circle cx="384.4" cy="306.7" r="3.6" fill="#f9923a" opacity="0.95"/><circle cx="409.2" cy="315.3" r="3.6" fill="#f9923a" opacity="0.95"/><circle cx="379.9" cy="264.1" r="4.5" fill="#60a5fa" opacity="0.95"/><circle cx="397.5" cy="284.0" r="3.6" fill="#f9923a" opacity="0.95"/><circle cx="421.5" cy="294.8" r="3.6" fill="#f9923a" opacity="0.95"/><circle cx="360.2" cy="224.8" r="4.5" fill="#60a5fa" opacity="0.95"/><circle cx="351.1" cy="200.3" r="3.6" fill="#f9923a" opacity="0.95"/><circle cx="336.5" cy="178.4" r="3.6" fill="#f9923a" opacity="0.95"/><circle cx="351.8" cy="237.5" r="4.5" fill="#60a5fa" opacity="0.95"/><circle cx="339.8" cy="214.2" r="3.6" fill="#f9923a" opacity="0.95"/><circle cx="328.4" cy="191.0" r="3.6" fill="#f9923a" opacity="0.95"/><circle cx="329.8" cy="246.0" r="4.5" fill="#60a5fa" opacity="0.95"/><circle cx="326.6" cy="219.2" r="3.6" fill="#f9923a" opacity="0.95"/><circle cx="312.2" cy="197.3" r="3.6" fill="#f9923a" opacity="0.95"/><circle cx="328.5" cy="234.6" r="4.5" fill="#60a5fa" opacity="0.95"/><circle cx="327.1" cy="208.5" r="3.6" fill="#f9923a" opacity="0.95"/><circle cx="328.4" cy="182.4" r="3.6" fill="#f9923a" opacity="0.95"/><circle cx="314.9" cy="235.4" r="4.5" fill="#60a5fa" opacity="0.95"/><circle cx="307.3" cy="209.4" r="3.6" fill="#f9923a" opacity="0.95"/><circle cx="287.5" cy="191.7" r="3.6" fill="#f9923a" opacity="0.95"/><circle cx="303.2" cy="232.0" r="4.5" fill="#60a5fa" opacity="0.95"/><circle cx="316.0" cy="208.1" r="3.6" fill="#f9923a" opacity="0.95"/><circle cx="316.1" cy="181.7" r="3.6" fill="#f9923a" opacity="0.95"/><circle cx="318.7" cy="244.5" r="4.5" fill="#60a5fa" opacity="0.95"/><circle cx="314.3" cy="217.9" r="3.6" fill="#f9923a" opacity="0.95"/><circle cx="297.3" cy="197.5" r="3.6" fill="#f9923a" opacity="0.95"/><circle cx="344.0" cy="323.6" r="4.5" fill="#60a5fa" opacity="0.95"/><circle cx="367.3" cy="337.1" r="3.6" fill="#f9923a" opacity="0.95"/><circle cx="380.1" cy="360.4" r="3.6" fill="#f9923a" opacity="0.95"/><circle cx="353.4" cy="317.7" r="4.5" fill="#60a5fa" opacity="0.95"/><circle cx="377.2" cy="329.8" r="3.6" fill="#f9923a" opacity="0.95"/><circle cx="394.9" cy="349.1" r="3.6" fill="#f9923a" opacity="0.95"/><circle cx="344.6" cy="308.5" r="4.5" fill="#60a5fa" opacity="0.95"/><circle cx="370.6" cy="316.2" r="3.6" fill="#f9923a" opacity="0.95"/><circle cx="387.1" cy="337.4" r="3.6" fill="#f9923a" opacity="0.95"/><circle cx="353.9" cy="302.9" r="4.5" fill="#60a5fa" opacity="0.95"/><circle cx="378.1" cy="313.6" r="3.6" fill="#f9923a" opacity="0.95"/><circle cx="396.3" cy="332.7" r="3.6" fill="#f9923a" opacity="0.95"/><circle cx="370.1" cy="275.0" r="4.5" fill="#60a5fa" opacity="0.95"/><circle cx="389.4" cy="292.5" r="3.6" fill="#f9923a" opacity="0.95"/><circle cx="413.9" cy="302.2" r="3.6" fill="#f9923a" opacity="0.95"/><circle cx="360.4" cy="277.5" r="4.5" fill="#60a5fa" opacity="0.95"/><circle cx="378.3" cy="297.1" r="3.6" fill="#f9923a" opacity="0.95"/><circle cx="387.0" cy="321.6" r="3.6" fill="#f9923a" opacity="0.95"/><text x="16" y="26" fill="#e2e8f0" font-family="monospace" font-size="15">RING N=65 matched density, curvature=0.0, t=20000</text><text x="16" y="464" fill="#e2e8f0" font-family="monospace" font-size="13">align 0.258  (bilayer 1.00, micelle 0.09, vesicle 0.03, random 0.08)</text><text x="16" y="484" fill="#94a3b8" font-family="monospace" font-size="12">hollow nan   enclosed 3.89 (bulk = 1.0)   edge 0.00   aspect 0.10</text><text x="16" y="504" fill="#64748b" font-family="monospace" font-size="12">bond 1.02   48/65 lipids   ADMISSIBLE   blue=head orange=tail faint=water</text></svg>