<svg xmlns="http://www.w3.org/2000/svg" width="560" height="560"><rect width="560" height="560" fill="#0b0e13"/><circle cx="410.0" cy="418.8" r="8.2" fill="#1e3a5f" opacity="0.26"/><circle cx="206.4" cy="383.9" r="8.2" fill="#1e3a5f" opacity="0.26"/><circle cx="483.1" cy="138.6" r="8.2" fill="#1e3a5f" opacity="0.26"/><circle cx="297.6" cy="455.0" r="8.2" fill="#1e3a5f" opacity="0.26"/><circle cx="296.3" cy="439.6" r="8.2" fill="#1e3a5f" opacity="0.26"/><circle cx="313.5" cy="261.1" r="8.2" fill="#1e3a5f" opacity="0.26"/><circle cx="257.3" cy="403.7" r="8.2" fill="#1e3a5f" opacity="0.26"/><circle cx="467.2" cy="434.1" r="8.2" fill="#1e3a5f" opacity="0.26"/><circle cx="438.8" cy="426.9" r="8.2" fill="#1e3a5f" opacity="0.26"/><circle cx="204.5" cy="137.4" r="8.2" fill="#1e3a5f" opacity="0.26"/><circle cx="322.0" cy="159.9" r="8.2" fill="#1e3a5f" opacity="0.26"/><circle cx="81.3" cy="245.6" r="8.2" fill="#1e3a5f" opacity="0.26"/><circle cx="221.0" cy="243.2" r="8.2" fill="#1e3a5f" opacity="0.26"/><circle cx="92.1" cy="357.5" r="8.2" fill="#1e3a5f" opacity="0.26"/><circle cx="405.4" cy="314.9" r="8.2" fill="#1e3a5f" opacity="0.26"/><circle cx="49.0" cy="219.2" r="8.2" fill="#1e3a5f" opacity="0.26"/><circle cx="384.3" cy="338.6" r="8.2" fill="#1e3a5f" opacity="0.26"/><circle cx="46.8" cy="107.1" r="8.2" fill="#1e3a5f" opacity="0.26"/><circle cx="189.2" cy="137.3" r="8.2" fill="#1e3a5f" opacity="0.26"/><circle cx="255.9" cy="434.2" r="8.2" fill="#1e3a5f" opacity="0.26"/><circle cx="389.5" cy="221.0" r="8.2" fill="#1e3a5f" opacity="0.26"/><circle cx="491.1" cy="112.6" r="8.2" fill="#1e3a5f" opacity="0.26"/><circle cx="234.3" cy="269.0" r="8.2" fill="#1e3a5f" opacity="0.26"/><circle cx="425.1" cy="332.5" r="8.2" fill="#1e3a5f" opacity="0.26"/><circle cx="293.1" cy="170.2" r="8.2" fill="#1e3a5f" opacity="0.26"/><circle cx="205.9" cy="271.0" r="8.2" fill="#1e3a5f" opacity="0.26"/><circle cx="497.7" cy="143.3" r="8.2" fill="#1e3a5f" opacity="0.26"/><circle cx="225.8" cy="151.4" r="8.2" fill="#1e3a5f" opacity="0.26"/><circle cx="57.2" cy="233.1" r="8.2" fill="#1e3a5f" opacity="0.26"/><circle cx="397.1" cy="260.9" r="8.2" fill="#1e3a5f" opacity="0.26"/><circle cx="125.4" cy="377.0" r="8.2" fill="#1e3a5f" opacity="0.26"/><circle cx="221.2" cy="378.1" r="8.2" fill="#1e3a5f" opacity="0.26"/><circle cx="242.5" cy="126.1" r="8.2" fill="#1e3a5f" opacity="0.26"/><circle cx="367.2" cy="260.1" r="8.2" fill="#1e3a5f" opacity="0.26"/><circle cx="234.6" cy="139.0" r="8.2" fill="#1e3a5f" opacity="0.26"/><circle cx="76.9" cy="353.7" r="8.2" fill="#1e3a5f" opacity="0.26"/><circle cx="334.5" cy="170.2" r="8.2" fill="#1e3a5f" opacity="0.26"/><circle cx="309.5" cy="431.0" r="8.2" fill="#1e3a5f" opacity="0.26"/><circle cx="221.3" cy="297.3" r="8.2" fill="#1e3a5f" opacity="0.26"/><circle cx="131.0" cy="431.9" r="8.2" fill="#1e3a5f" opacity="0.26"/><circle cx="197.5" cy="123.9" r="8.2" fill="#1e3a5f" opacity="0.26"/><circle cx="443.1" cy="441.5" r="8.2" fill="#1e3a5f" opacity="0.26"/><circle cx="311.3" cy="277.4" r="8.2" fill="#1e3a5f" opacity="0.26"/><circle cx="319.9" cy="175.4" r="8.2" fill="#1e3a5f" opacity="0.26"/><circle cx="206.4" cy="111.4" r="8.2" fill="#1e3a5f" opacity="0.26"/><circle cx="437.5" cy="110.9" r="8.2" fill="#1e3a5f" opacity="0.26"/><circle cx="403.9" cy="445.4" r="8.2" fill="#1e3a5f" opacity="0.26"/><circle cx="469.5" cy="133.4" r="8.2" fill="#1e3a5f" opacity="0.26"/><circle cx="381.8" cy="260.6" r="8.2" fill="#1e3a5f" opacity="0.26"/><circle cx="462.2" cy="460.2" r="8.2" fill="#1e3a5f" opacity="0.26"/><circle cx="218.5" cy="408.1" r="8.2" fill="#1e3a5f" opacity="0.26"/><circle cx="151.9" cy="259.6" r="8.2" fill="#1e3a5f" opacity="0.26"/><circle cx="86.3" cy="205.1" r="8.2" fill="#1e3a5f" opacity="0.26"/><circle cx="84.8" cy="383.7" r="8.2" fill="#1e3a5f" opacity="0.26"/><circle cx="504.8" cy="247.1" r="8.2" fill="#1e3a5f" opacity="0.26"/><circle cx="397.3" cy="234.6" r="8.2" fill="#1e3a5f" opacity="0.26"/><circle cx="269.4" cy="411.1" r="8.2" fill="#1e3a5f" opacity="0.26"/><circle cx="283.2" cy="448.5" r="8.2" fill="#1e3a5f" opacity="0.26"/><circle cx="444.2" cy="84.6" r="8.2" fill="#1e3a5f" opacity="0.26"/><circle cx="79.5" cy="218.9" r="8.2" fill="#1e3a5f" opacity="0.26"/><circle cx="395.0" cy="326.7" r="8.2" fill="#1e3a5f" opacity="0.26"/><circle cx="451.8" cy="114.6" r="8.2" fill="#1e3a5f" opacity="0.26"/><circle cx="49.8" cy="122.4" r="8.2" fill="#1e3a5f" opacity="0.26"/><circle cx="453.1" cy="430.5" r="8.2" fill="#1e3a5f" opacity="0.26"/><circle cx="287.2" cy="217.7" r="8.2" fill="#1e3a5f" opacity="0.26"/><circle cx="296.0" cy="409.1" r="8.2" fill="#1e3a5f" opacity="0.26"/><circle cx="440.9" cy="126.0" r="8.2" fill="#1e3a5f" opacity="0.26"/><circle cx="228.5" cy="192.2" r="8.2" fill="#1e3a5f" opacity="0.26"/><circle cx="282.0" cy="403.2" r="8.2" fill="#1e3a5f" opacity="0.26"/><circle cx="247.1" cy="165.7" r="8.2" fill="#1e3a5f" opacity="0.26"/><circle cx="107.3" cy="361.1" r="8.2" fill="#1e3a5f" opacity="0.26"/><circle cx="420.4" cy="317.8" r="8.2" fill="#1e3a5f" opacity="0.26"/><circle cx="228.4" cy="256.2" r="8.2" fill="#1e3a5f" opacity="0.26"/><circle cx="198.5" cy="285.5" r="8.2" fill="#1e3a5f" opacity="0.26"/><circle cx="51.8" cy="138.3" r="8.2" fill="#1e3a5f" opacity="0.26"/><circle cx="508.2" cy="132.2" r="8.2" fill="#1e3a5f" opacity="0.26"/><circle cx="100.2" cy="427.2" r="8.2" fill="#1e3a5f" opacity="0.26"/><circle cx="115.6" cy="429.5" r="8.2" fill="#1e3a5f" opacity="0.26"/><circle cx="449.0" cy="415.9" r="8.2" fill="#1e3a5f" opacity="0.26"/><circle cx="212.8" cy="125.1" r="8.2" fill="#1e3a5f" opacity="0.26"/><circle cx="282.4" cy="418.1" r="8.2" fill="#1e3a5f" opacity="0.26"/><circle cx="222.6" cy="177.7" r="8.2" fill="#1e3a5f" opacity="0.26"/><circle cx="448.4" cy="99.9" r="8.2" fill="#1e3a5f" opacity="0.26"/><circle cx="65.6" cy="246.5" r="8.2" fill="#1e3a5f" opacity="0.26"/><circle cx="414.2" cy="434.2" r="8.2" fill="#1e3a5f" opacity="0.26"/><circle cx="167.4" cy="258.5" r="8.2" fill="#1e3a5f" opacity="0.26"/><circle cx="434.0" cy="96.1" r="8.2" fill="#1e3a5f" opacity="0.26"/><circle cx="104.8" cy="401.0" r="8.2" fill="#1e3a5f" opacity="0.26"/><circle cx="366.0" cy="234.4" r="8.2" fill="#1e3a5f" opacity="0.26"/><circle cx="466.0" cy="118.5" r="8.2" fill="#1e3a5f" opacity="0.26"/><circle cx="401.0" cy="300.6" r="8.2" fill="#1e3a5f" opacity="0.26"/><circle cx="396.0" cy="286.7" r="8.2" fill="#1e3a5f" opacity="0.26"/><circle cx="228.6" cy="283.4" r="8.2" fill="#1e3a5f" opacity="0.26"/><circle cx="502.5" cy="102.0" r="8.2" fill="#1e3a5f" opacity="0.26"/><circle cx="291.7" cy="335.7" r="8.2" fill="#1e3a5f" opacity="0.26"/><circle cx="277.4" cy="167.1" r="8.2" fill="#1e3a5f" opacity="0.26"/><circle cx="210.3" cy="150.7" r="8.2" fill="#1e3a5f" opacity="0.26"/><circle cx="482.3" cy="435.5" r="8.2" fill="#1e3a5f" opacity="0.26"/><circle cx="426.1" cy="121.7" r="8.2" fill="#1e3a5f" opacity="0.26"/><circle cx="94.7" cy="412.7" r="8.2" fill="#1e3a5f" opacity="0.26"/><circle cx="464.2" cy="419.4" r="8.2" fill="#1e3a5f" opacity="0.26"/><circle cx="433.1" cy="452.4" r="8.2" fill="#1e3a5f" opacity="0.26"/><circle cx="381.3" cy="284.9" r="8.2" fill="#1e3a5f" opacity="0.26"/><circle cx="171.8" cy="312.6" r="8.2" fill="#1e3a5f" opacity="0.26"/><circle cx="134.9" cy="405.4" r="8.2" fill="#1e3a5f" opacity="0.26"/><circle cx="110.1" cy="415.0" r="8.2" fill="#1e3a5f" opacity="0.26"/><circle cx="175.7" cy="271.8" r="8.2" fill="#1e3a5f" opacity="0.26"/><circle cx="433.8" cy="412.0" r="8.2" fill="#1e3a5f" opacity="0.26"/><circle cx="125.3" cy="417.3" r="8.2" fill="#1e3a5f" opacity="0.26"/><circle cx="488.1" cy="97.4" r="8.2" fill="#1e3a5f" opacity="0.26"/><circle cx="160.6" cy="272.8" r="8.2" fill="#1e3a5f" opacity="0.26"/><circle cx="250.2" cy="112.7" r="8.2" fill="#1e3a5f" opacity="0.26"/><circle cx="99.9" cy="386.9" r="8.2" fill="#1e3a5f" opacity="0.26"/><circle cx="295.6" cy="424.4" r="8.2" fill="#1e3a5f" opacity="0.26"/><circle cx="455.2" cy="129.2" r="8.2" fill="#1e3a5f" opacity="0.26"/><circle cx="458.5" cy="144.3" r="8.2" fill="#1e3a5f" opacity="0.26"/><circle cx="422.5" cy="106.4" r="8.2" fill="#1e3a5f" opacity="0.26"/><circle cx="144.4" cy="392.5" r="8.2" fill="#1e3a5f" opacity="0.26"/><circle cx="221.1" cy="112.8" r="8.2" fill="#1e3a5f" opacity="0.26"/><circle cx="235.5" cy="112.1" r="8.2" fill="#1e3a5f" opacity="0.26"/><circle cx="237.9" cy="178.8" r="8.2" fill="#1e3a5f" opacity="0.26"/><circle cx="409.7" cy="329.4" r="8.2" fill="#1e3a5f" opacity="0.26"/><circle cx="266.8" cy="327.3" r="8.2" fill="#1e3a5f" opacity="0.26"/><circle cx="408.0" cy="460.4" r="8.2" fill="#1e3a5f" opacity="0.26"/><circle cx="313.4" cy="232.3" r="8.2" fill="#1e3a5f" opacity="0.26"/><circle cx="273.6" cy="226.4" r="8.2" fill="#1e3a5f" opacity="0.26"/><circle cx="282.5" cy="433.1" r="8.2" fill="#1e3a5f" opacity="0.26"/><circle cx="269.3" cy="395.2" r="8.2" fill="#1e3a5f" opacity="0.26"/><circle cx="162.5" cy="299.8" r="8.2" fill="#1e3a5f" opacity="0.26"/><circle cx="373.8" cy="220.9" r="8.2" fill="#1e3a5f" opacity="0.26"/><circle cx="281.0" cy="111.9" r="8.2" fill="#1e3a5f" opacity="0.26"/><circle cx="381.6" cy="234.5" r="8.2" fill="#1e3a5f" opacity="0.26"/><circle cx="301.4" cy="356.3" r="8.2" fill="#1e3a5f" opacity="0.26"/><circle cx="241.0" cy="152.2" r="8.2" fill="#1e3a5f" opacity="0.26"/><circle cx="288.8" cy="389.8" r="8.2" fill="#1e3a5f" opacity="0.26"/><circle cx="416.0" cy="303.1" r="8.2" fill="#1e3a5f" opacity="0.26"/><circle cx="80.8" cy="368.9" r="8.2" fill="#1e3a5f" opacity="0.26"/><circle cx="389.5" cy="247.8" r="8.2" fill="#1e3a5f" opacity="0.26"/><circle cx="246.7" cy="394.3" r="8.2" fill="#1e3a5f" opacity="0.26"/><circle cx="192.8" cy="392.9" r="8.2" fill="#1e3a5f" opacity="0.26"/><circle cx="476.9" cy="108.1" r="8.2" fill="#1e3a5f" opacity="0.26"/><circle cx="405.2" cy="247.9" r="8.2" fill="#1e3a5f" opacity="0.26"/><circle cx="414.6" cy="344.3" r="8.2" fill="#1e3a5f" opacity="0.26"/><circle cx="242.9" cy="425.9" r="8.2" fill="#1e3a5f" opacity="0.26"/><circle cx="249.6" cy="139.4" r="8.2" fill="#1e3a5f" opacity="0.26"/><circle cx="412.7" cy="261.6" r="8.2" fill="#1e3a5f" opacity="0.26"/><circle cx="213.2" cy="256.7" r="8.2" fill="#1e3a5f" opacity="0.26"/><circle cx="411.2" cy="288.4" r="8.2" fill="#1e3a5f" opacity="0.26"/><circle cx="70.3" cy="205.7" r="8.2" fill="#1e3a5f" opacity="0.26"/><circle cx="190.1" cy="243.6" r="8.2" fill="#1e3a5f" opacity="0.26"/><circle cx="222.9" cy="216.2" r="8.2" fill="#1e3a5f" opacity="0.26"/><circle cx="168.8" cy="285.8" r="8.2" fill="#1e3a5f" opacity="0.26"/><circle cx="190.8" cy="109.9" r="8.2" fill="#1e3a5f" opacity="0.26"/><circle cx="182.5" cy="364.7" r="8.2" fill="#1e3a5f" opacity="0.26"/><circle cx="140.8" cy="419.6" r="8.2" fill="#1e3a5f" opacity="0.26"/><circle cx="232.0" cy="164.8" r="8.2" fill="#1e3a5f" opacity="0.26"/><circle cx="399.3" cy="430.3" r="8.2" fill="#1e3a5f" opacity="0.26"/><circle cx="110.4" cy="375.7" r="8.2" fill="#1e3a5f" opacity="0.26"/><circle cx="389.0" cy="273.2" r="8.2" fill="#1e3a5f" opacity="0.26"/><circle cx="307.5" cy="165.0" r="8.2" fill="#1e3a5f" opacity="0.26"/><circle cx="390.9" cy="312.5" r="8.2" fill="#1e3a5f" opacity="0.26"/><circle cx="268.0" cy="179.7" r="8.2" fill="#1e3a5f" opacity="0.26"/><circle cx="472.8" cy="448.5" r="8.2" fill="#1e3a5f" opacity="0.26"/><circle cx="230.5" cy="417.1" r="8.2" fill="#1e3a5f" opacity="0.26"/><circle cx="219.6" cy="138.3" r="8.2" fill="#1e3a5f" opacity="0.26"/><circle cx="424.3" cy="423.3" r="8.2" fill="#1e3a5f" opacity="0.26"/><circle cx="473.7" cy="92.9" r="8.2" fill="#1e3a5f" opacity="0.26"/><circle cx="480.2" cy="123.0" r="8.2" fill="#1e3a5f" opacity="0.26"/><circle cx="493.9" cy="127.7" r="8.2" fill="#1e3a5f" opacity="0.26"/><circle cx="371.1" cy="294.7" r="8.2" fill="#1e3a5f" opacity="0.26"/><circle cx="119.8" cy="403.4" r="8.2" fill="#1e3a5f" opacity="0.26"/><circle cx="183.8" cy="284.8" r="8.2" fill="#1e3a5f" opacity="0.26"/><circle cx="444.5" cy="400.9" r="8.2" fill="#1e3a5f" opacity="0.26"/><circle cx="150.4" cy="407.1" r="8.2" fill="#1e3a5f" opacity="0.26"/><circle cx="459.9" cy="404.6" r="8.2" fill="#1e3a5f" opacity="0.26"/><circle cx="388.8" cy="442.3" r="8.2" fill="#1e3a5f" opacity="0.26"/><circle cx="269.4" cy="441.5" r="8.2" fill="#1e3a5f" opacity="0.26"/><circle cx="265.3" cy="112.7" r="8.2" fill="#1e3a5f" opacity="0.26"/><circle cx="114.8" cy="389.5" r="8.2" fill="#1e3a5f" opacity="0.26"/><circle cx="374.1" cy="247.4" r="8.2" fill="#1e3a5f" opacity="0.26"/><circle cx="213.7" cy="229.5" r="8.2" fill="#1e3a5f" opacity="0.26"/><circle cx="257.7" cy="126.5" r="8.2" fill="#1e3a5f" opacity="0.26"/><circle cx="386.4" cy="298.5" r="8.2" fill="#1e3a5f" opacity="0.26"/><circle cx="380.5" cy="323.8" r="8.2" fill="#1e3a5f" opacity="0.26"/><circle cx="206.3" cy="399.6" r="8.2" fill="#1e3a5f" opacity="0.26"/><circle cx="244.1" cy="410.1" r="8.2" fill="#1e3a5f" opacity="0.26"/><circle cx="419.7" cy="90.7" r="8.2" fill="#1e3a5f" opacity="0.26"/><circle cx="205.7" cy="243.2" r="8.2" fill="#1e3a5f" opacity="0.26"/><circle cx="269.3" cy="426.1" r="8.2" fill="#1e3a5f" opacity="0.26"/><circle cx="265.2" cy="139.8" r="8.2" fill="#1e3a5f" opacity="0.26"/><circle cx="64.2" cy="219.7" r="8.2" fill="#1e3a5f" opacity="0.26"/><circle cx="462.7" cy="103.9" r="8.2" fill="#1e3a5f" opacity="0.26"/><circle cx="50.1" cy="246.9" r="8.2" fill="#1e3a5f" opacity="0.26"/><circle cx="216.6" cy="164.0" r="8.2" fill="#1e3a5f" opacity="0.26"/><circle cx="89.4" cy="398.4" r="8.2" fill="#1e3a5f" opacity="0.26"/><circle cx="404.4" cy="274.5" r="8.2" fill="#1e3a5f" opacity="0.26"/><circle cx="227.9" cy="125.9" r="8.2" fill="#1e3a5f" opacity="0.26"/><circle cx="200.4" cy="97.2" r="8.2" fill="#1e3a5f" opacity="0.26"/><circle cx="72.6" cy="232.7" r="8.2" fill="#1e3a5f" opacity="0.26"/><circle cx="41.8" cy="233.2" r="8.2" fill="#1e3a5f" opacity="0.26"/><circle cx="369.3" cy="335.0" r="8.2" fill="#1e3a5f" opacity="0.26"/><circle cx="302.1" cy="150.8" r="8.2" fill="#1e3a5f" opacity="0.26"/><circle cx="256.4" cy="418.8" r="8.2" fill="#1e3a5f" opacity="0.26"/><circle cx="296.4" cy="298.7" r="8.2" fill="#1e3a5f" opacity="0.26"/><circle cx="88.4" cy="231.5" r="8.2" fill="#1e3a5f" opacity="0.26"/><circle cx="428.7" cy="437.8" r="8.2" fill="#1e3a5f" opacity="0.26"/><circle cx="271.8" cy="153.3" r="8.2" fill="#1e3a5f" opacity="0.26"/><circle cx="219.9" cy="392.6" r="8.2" fill="#1e3a5f" opacity="0.26"/><circle cx="198.3" cy="257.3" r="8.2" fill="#1e3a5f" opacity="0.26"/><circle cx="358.3" cy="247.1" r="8.2" fill="#1e3a5f" opacity="0.26"/><circle cx="505.3" cy="117.3" r="8.2" fill="#1e3a5f" opacity="0.26"/><circle cx="457.3" cy="445.5" r="8.2" fill="#1e3a5f" opacity="0.26"/><circle cx="129.4" cy="391.5" r="8.2" fill="#1e3a5f" opacity="0.26"/><circle cx="459.1" cy="88.7" r="8.2" fill="#1e3a5f" opacity="0.26"/><circle cx="95.8" cy="372.4" r="8.2" fill="#1e3a5f" opacity="0.26"/><circle cx="153.4" cy="287.0" r="8.2" fill="#1e3a5f" opacity="0.26"/><circle cx="447.0" cy="457.0" r="8.2" fill="#1e3a5f" opacity="0.26"/><circle cx="145.0" cy="273.8" r="8.2" fill="#1e3a5f" opacity="0.26"/><circle cx="256.1" cy="152.6" r="8.2" fill="#1e3a5f" opacity="0.26"/><circle cx="232.4" cy="401.4" r="8.2" fill="#1e3a5f" opacity="0.26"/><circle cx="216.2" cy="98.6" r="8.2" fill="#1e3a5f" opacity="0.26"/><circle cx="418.6" cy="449.0" r="8.2" fill="#1e3a5f" opacity="0.26"/><circle cx="399.4" cy="341.4" r="8.2" fill="#1e3a5f" opacity="0.26"/><circle cx="423.5" cy="464.1" r="8.2" fill="#1e3a5f" opacity="0.26"/><line x1="236.8" y1="243.3" x2="253.3" y2="243.5" stroke="#e2e8f0" stroke-width="0.9" opacity="0.5"/><line x1="250.5" y1="350.1" x2="254.3" y2="366.5" stroke="#e2e8f0" stroke-width="0.9" opacity="0.5"/><line x1="281.7" y1="181.0" x2="274.7" y2="196.1" stroke="#e2e8f0" stroke-width="0.9" opacity="0.5"/><line x1="331.2" y1="239.5" x2="315.1" y2="245.1" stroke="#e2e8f0" stroke-width="0.9" opacity="0.5"/><line x1="339.3" y1="264.9" x2="334.9" y2="280.8" stroke="#e2e8f0" stroke-width="0.9" opacity="0.5"/><line x1="227.2" y1="311.2" x2="236.4" y2="297.8" stroke="#e2e8f0" stroke-width="0.9" opacity="0.5"/><line x1="191.2" y1="377.7" x2="198.5" y2="362.5" stroke="#e2e8f0" stroke-width="0.9" opacity="0.5"/><line x1="178.5" y1="298.6" x2="192.6" y2="307.3" stroke="#e2e8f0" stroke-width="0.9" opacity="0.5"/><line x1="174.0" y1="244.0" x2="182.9" y2="257.8" stroke="#e2e8f0" stroke-width="0.9" opacity="0.5"/><line x1="318.8" y1="193.1" x2="324.7" y2="209.2" stroke="#e2e8f0" stroke-width="0.9" opacity="0.5"/><line x1="262.1" y1="165.8" x2="253.2" y2="179.7" stroke="#e2e8f0" stroke-width="0.9" opacity="0.5"/><line x1="262.4" y1="341.5" x2="273.7" y2="353.0" stroke="#e2e8f0" stroke-width="0.9" opacity="0.5"/><line x1="310.5" y1="293.7" x2="320.9" y2="306.6" stroke="#e2e8f0" stroke-width="0.9" opacity="0.5"/><line x1="361.8" y1="349.0" x2="347.2" y2="340.5" stroke="#e2e8f0" stroke-width="0.9" opacity="0.5"/><line x1="365.9" y1="320.0" x2="350.2" y2="315.1" stroke="#e2e8f0" stroke-width="0.9" opacity="0.5"/><line x1="353.5" y1="261.5" x2="349.1" y2="277.5" stroke="#e2e8f0" stroke-width="0.9" opacity="0.5"/><line x1="286.8" y1="350.2" x2="275.5" y2="364.0" stroke="#e2e8f0" stroke-width="0.9" opacity="0.5"/><line x1="235.2" y1="372.2" x2="236.8" y2="355.3" stroke="#e2e8f0" stroke-width="0.9" opacity="0.5"/><line x1="251.8" y1="329.1" x2="236.0" y2="324.4" stroke="#e2e8f0" stroke-width="0.9" opacity="0.5"/><line x1="226.0" y1="347.6" x2="210.3" y2="342.0" stroke="#e2e8f0" stroke-width="0.9" opacity="0.5"/><line x1="331.7" y1="185.8" x2="341.3" y2="200.0" stroke="#e2e8f0" stroke-width="0.9" opacity="0.5"/><line x1="209.7" y1="368.4" x2="204.4" y2="352.3" stroke="#e2e8f0" stroke-width="0.9" opacity="0.5"/><line x1="277.1" y1="338.3" x2="282.4" y2="322.7" stroke="#e2e8f0" stroke-width="0.9" opacity="0.5"/><line x1="298.3" y1="284.6" x2="299.5" y2="268.2" stroke="#e2e8f0" stroke-width="0.9" opacity="0.5"/><line x1="376.3" y1="309.2" x2="360.2" y2="305.8" stroke="#e2e8f0" stroke-width="0.9" opacity="0.5"/><line x1="343.3" y1="187.4" x2="330.1" y2="198.5" stroke="#e2e8f0" stroke-width="0.9" opacity="0.5"/><line x1="259.7" y1="192.7" x2="249.8" y2="205.7" stroke="#e2e8f0" stroke-width="0.9" opacity="0.5"/><line x1="220.1" y1="270.1" x2="213.3" y2="285.1" stroke="#e2e8f0" stroke-width="0.9" opacity="0.5"/><line x1="224.5" y1="334.5" x2="209.2" y2="328.5" stroke="#e2e8f0" stroke-width="0.9" opacity="0.5"/><line x1="258.0" y1="282.0" x2="250.9" y2="296.9" stroke="#e2e8f0" stroke-width="0.9" opacity="0.5"/><line x1="235.9" y1="206.6" x2="249.9" y2="216.7" stroke="#e2e8f0" stroke-width="0.9" opacity="0.5"/><line x1="320.7" y1="335.2" x2="312.6" y2="320.4" stroke="#e2e8f0" stroke-width="0.9" opacity="0.5"/><line x1="247.8" y1="270.4" x2="263.9" y2="267.1" stroke="#e2e8f0" stroke-width="0.9" opacity="0.5"/><line x1="353.9" y1="329.7" x2="336.6" y2="334.5" stroke="#e2e8f0" stroke-width="0.9" opacity="0.5"/><line x1="244.4" y1="256.1" x2="261.5" y2="255.3" stroke="#e2e8f0" stroke-width="0.9" opacity="0.5"/><line x1="284.1" y1="290.5" x2="272.6" y2="301.9" stroke="#e2e8f0" stroke-width="0.9" opacity="0.5"/><line x1="306.7" y1="308.4" x2="302.3" y2="325.2" stroke="#e2e8f0" stroke-width="0.9" opacity="0.5"/><line x1="285.4" y1="243.5" x2="288.4" y2="259.6" stroke="#e2e8f0" stroke-width="0.9" opacity="0.5"/><line x1="306.2" y1="179.8" x2="303.5" y2="196.2" stroke="#e2e8f0" stroke-width="0.9" opacity="0.5"/><line x1="271.8" y1="280.9" x2="264.8" y2="296.2" stroke="#e2e8f0" stroke-width="0.9" opacity="0.5"/><line x1="353.2" y1="205.9" x2="336.7" y2="211.1" stroke="#e2e8f0" stroke-width="0.9" opacity="0.5"/><line x1="327.7" y1="254.6" x2="325.0" y2="270.9" stroke="#e2e8f0" stroke-width="0.9" opacity="0.5"/><line x1="287.5" y1="155.8" x2="281.8" y2="140.4" stroke="#e2e8f0" stroke-width="0.9" opacity="0.5"/><line x1="229.6" y1="230.4" x2="246.5" y2="230.1" stroke="#e2e8f0" stroke-width="0.9" opacity="0.5"/><line x1="227.4" y1="363.7" x2="244.5" y2="363.1" stroke="#e2e8f0" stroke-width="0.9" opacity="0.5"/><line x1="234.5" y1="386.6" x2="248.6" y2="378.1" stroke="#e2e8f0" stroke-width="0.9" opacity="0.5"/><line x1="284.7" y1="232.0" x2="299.8" y2="225.7" stroke="#e2e8f0" stroke-width="0.9" opacity="0.5"/><line x1="293.8" y1="186.0" x2="288.4" y2="202.0" stroke="#e2e8f0" stroke-width="0.9" opacity="0.5"/><line x1="342.9" y1="249.4" x2="346.0" y2="232.7" stroke="#e2e8f0" stroke-width="0.9" opacity="0.5"/><line x1="372.9" y1="273.4" x2="360.1" y2="283.6" stroke="#e2e8f0" stroke-width="0.9" opacity="0.5"/><line x1="253.3" y1="243.5" x2="269.5" y2="241.0" stroke="#e2e8f0" stroke-width="0.9" opacity="0.5"/><line x1="254.3" y1="366.5" x2="260.1" y2="382.2" stroke="#e2e8f0" stroke-width="0.9" opacity="0.5"/><line x1="274.7" y1="196.1" x2="262.7" y2="207.4" stroke="#e2e8f0" stroke-width="0.9" opacity="0.5"/><line x1="315.1" y1="245.1" x2="299.1" y2="239.2" stroke="#e2e8f0" stroke-width="0.9" opacity="0.5"/><line x1="334.9" y1="280.8" x2="331.8" y2="296.9" stroke="#e2e8f0" stroke-width="0.9" opacity="0.5"/><line x1="236.4" y1="297.8" x2="244.0" y2="283.5" stroke="#e2e8f0" stroke-width="0.9" opacity="0.5"/><line x1="198.5" y1="362.5" x2="214.9" y2="355.8" stroke="#e2e8f0" stroke-width="0.9" opacity="0.5"/><line x1="192.6" y1="307.3" x2="207.3" y2="314.3" stroke="#e2e8f0" stroke-width="0.9" opacity="0.5"/><line x1="182.9" y1="257.8" x2="191.4" y2="271.7" stroke="#e2e8f0" stroke-width="0.9" opacity="0.5"/><line x1="324.7" y1="209.2" x2="333.8" y2="223.2" stroke="#e2e8f0" stroke-width="0.9" opacity="0.5"/><line x1="253.2" y1="179.7" x2="244.2" y2="193.3" stroke="#e2e8f0" stroke-width="0.9" opacity="0.5"/><line x1="273.7" y1="353.0" x2="286.9" y2="363.9" stroke="#e2e8f0" stroke-width="0.9" opacity="0.5"/><line x1="320.9" y1="306.6" x2="326.6" y2="322.1" stroke="#e2e8f0" stroke-width="0.9" opacity="0.5"/><line x1="347.2" y1="340.5" x2="340.7" y2="324.2" stroke="#e2e8f0" stroke-width="0.9" opacity="0.5"/><line x1="350.2" y1="315.1" x2="334.3" y2="311.3" stroke="#e2e8f0" stroke-width="0.9" opacity="0.5"/><line x1="349.1" y1="277.5" x2="354.2" y2="294.0" stroke="#e2e8f0" stroke-width="0.9" opacity="0.5"/><line x1="275.5" y1="364.0" x2="275.5" y2="380.5" stroke="#e2e8f0" stroke-width="0.9" opacity="0.5"/><line x1="236.8" y1="355.3" x2="239.5" y2="339.4" stroke="#e2e8f0" stroke-width="0.9" opacity="0.5"/><line x1="236.0" y1="324.4" x2="219.9" y2="321.5" stroke="#e2e8f0" stroke-width="0.9" opacity="0.5"/><line x1="210.3" y1="342.0" x2="193.4" y2="347.2" stroke="#e2e8f0" stroke-width="0.9" opacity="0.5"/><line x1="341.3" y1="200.0" x2="345.1" y2="216.4" stroke="#e2e8f0" stroke-width="0.9" opacity="0.5"/><line x1="204.4" y1="352.3" x2="198.4" y2="336.9" stroke="#e2e8f0" stroke-width="0.9" opacity="0.5"/><line x1="282.4" y1="322.7" x2="284.4" y2="306.5" stroke="#e2e8f0" stroke-width="0.9" opacity="0.5"/><line x1="299.5" y1="268.2" x2="300.9" y2="252.0" stroke="#e2e8f0" stroke-width="0.9" opacity="0.5"/><line x1="360.2" y1="305.8" x2="344.0" y2="303.4" stroke="#e2e8f0" stroke-width="0.9" opacity="0.5"/><line x1="330.1" y1="198.5" x2="314.6" y2="204.5" stroke="#e2e8f0" stroke-width="0.9" opacity="0.5"/><line x1="249.8" y1="205.7" x2="238.9" y2="218.5" stroke="#e2e8f0" stroke-width="0.9" opacity="0.5"/><line x1="213.3" y1="285.1" x2="206.1" y2="299.8" stroke="#e2e8f0" stroke-width="0.9" opacity="0.5"/><line x1="209.2" y1="328.5" x2="194.0" y2="322.6" stroke="#e2e8f0" stroke-width="0.9" opacity="0.5"/><line x1="250.9" y1="296.9" x2="243.3" y2="311.4" stroke="#e2e8f0" stroke-width="0.9" opacity="0.5"/><line x1="249.9" y1="216.7" x2="258.9" y2="230.8" stroke="#e2e8f0" stroke-width="0.9" opacity="0.5"/><line x1="312.6" y1="320.4" x2="295.8" y2="314.7" stroke="#e2e8f0" stroke-width="0.9" opacity="0.5"/><line x1="263.9" y1="267.1" x2="275.2" y2="253.7" stroke="#e2e8f0" stroke-width="0.9" opacity="0.5"/><line x1="336.6" y1="334.5" x2="327.1" y2="348.1" stroke="#e2e8f0" stroke-width="0.9" opacity="0.5"/><line x1="261.5" y1="255.3" x2="275.5" y2="265.7" stroke="#e2e8f0" stroke-width="0.9" opacity="0.5"/><line x1="272.6" y1="301.9" x2="257.8" y2="309.9" stroke="#e2e8f0" stroke-width="0.9" opacity="0.5"/><line x1="302.3" y1="325.2" x2="306.5" y2="341.1" stroke="#e2e8f0" stroke-width="0.9" opacity="0.5"/><line x1="288.4" y1="259.6" x2="286.2" y2="275.9" stroke="#e2e8f0" stroke-width="0.9" opacity="0.5"/><line x1="303.5" y1="196.2" x2="300.7" y2="212.0" stroke="#e2e8f0" stroke-width="0.9" opacity="0.5"/><line x1="264.8" y1="296.2" x2="270.0" y2="313.2" stroke="#e2e8f0" stroke-width="0.9" opacity="0.5"/><line x1="336.7" y1="211.1" x2="324.6" y2="222.8" stroke="#e2e8f0" stroke-width="0.9" opacity="0.5"/><line x1="325.0" y1="270.9" x2="322.9" y2="287.1" stroke="#e2e8f0" stroke-width="0.9" opacity="0.5"/><line x1="281.8" y1="140.4" x2="273.9" y2="126.1" stroke="#e2e8f0" stroke-width="0.9" opacity="0.5"/><line x1="246.5" y1="230.1" x2="260.9" y2="220.5" stroke="#e2e8f0" stroke-width="0.9" opacity="0.5"/><line x1="244.5" y1="363.1" x2="260.2" y2="357.2" stroke="#e2e8f0" stroke-width="0.9" opacity="0.5"/><line x1="248.6" y1="378.1" x2="264.1" y2="371.5" stroke="#e2e8f0" stroke-width="0.9" opacity="0.5"/><line x1="299.8" y1="225.7" x2="313.7" y2="217.5" stroke="#e2e8f0" stroke-width="0.9" opacity="0.5"/><line x1="288.4" y1="202.0" x2="274.8" y2="212.1" stroke="#e2e8f0" stroke-width="0.9" opacity="0.5"/><line x1="346.0" y1="232.7" x2="357.8" y2="220.7" stroke="#e2e8f0" stroke-width="0.9" opacity="0.5"/><line x1="360.1" y1="283.6" x2="344.2" y2="289.6" stroke="#e2e8f0" stroke-width="0.9" opacity="0.5"/><circle cx="236.8" cy="243.3" r="8.2" fill="#38bdf8" opacity="0.78" stroke="#0b0e13" stroke-width="0.5"/><circle cx="253.3" cy="243.5" r="8.2" fill="#fb923c" opacity="0.78" stroke="#0b0e13" stroke-width="0.5"/><circle cx="269.5" cy="241.0" r="8.2" fill="#fb923c" opacity="0.78" stroke="#0b0e13" stroke-width="0.5"/><circle cx="250.5" cy="350.1" r="8.2" fill="#38bdf8" opacity="0.78" stroke="#0b0e13" stroke-width="0.5"/><circle cx="254.3" cy="366.5" r="8.2" fill="#fb923c" opacity="0.78" stroke="#0b0e13" stroke-width="0.5"/><circle cx="260.1" cy="382.2" r="8.2" fill="#fb923c" opacity="0.78" stroke="#0b0e13" stroke-width="0.5"/><circle cx="281.7" cy="181.0" r="8.2" fill="#38bdf8" opacity="0.78" stroke="#0b0e13" stroke-width="0.5"/><circle cx="274.7" cy="196.1" r="8.2" fill="#fb923c" opacity="0.78" stroke="#0b0e13" stroke-width="0.5"/><circle cx="262.7" cy="207.4" r="8.2" fill="#fb923c" opacity="0.78" stroke="#0b0e13" stroke-width="0.5"/><circle cx="331.2" cy="239.5" r="8.2" fill="#38bdf8" opacity="0.78" stroke="#0b0e13" stroke-width="0.5"/><circle cx="315.1" cy="245.1" r="8.2" fill="#fb923c" opacity="0.78" stroke="#0b0e13" stroke-width="0.5"/><circle cx="299.1" cy="239.2" r="8.2" fill="#fb923c" opacity="0.78" stroke="#0b0e13" stroke-width="0.5"/><circle cx="339.3" cy="264.9" r="8.2" fill="#38bdf8" opacity="0.78" stroke="#0b0e13" stroke-width="0.5"/><circle cx="334.9" cy="280.8" r="8.2" fill="#fb923c" opacity="0.78" stroke="#0b0e13" stroke-width="0.5"/><circle cx="331.8" cy="296.9" r="8.2" fill="#fb923c" opacity="0.78" stroke="#0b0e13" stroke-width="0.5"/><circle cx="227.2" cy="311.2" r="8.2" fill="#38bdf8" opacity="0.78" stroke="#0b0e13" stroke-width="0.5"/><circle cx="236.4" cy="297.8" r="8.2" fill="#fb923c" opacity="0.78" stroke="#0b0e13" stroke-width="0.5"/><circle cx="244.0" cy="283.5" r="8.2" fill="#fb923c" opacity="0.78" stroke="#0b0e13" stroke-width="0.5"/><circle cx="191.2" cy="377.7" r="8.2" fill="#38bdf8" opacity="0.78" stroke="#0b0e13" stroke-width="0.5"/><circle cx="198.5" cy="362.5" r="8.2" fill="#fb923c" opacity="0.78" stroke="#0b0e13" stroke-width="0.5"/><circle cx="214.9" cy="355.8" r="8.2" fill="#fb923c" opacity="0.78" stroke="#0b0e13" stroke-width="0.5"/><circle cx="178.5" cy="298.6" r="8.2" fill="#38bdf8" opacity="0.78" stroke="#0b0e13" stroke-width="0.5"/><circle cx="192.6" cy="307.3" r="8.2" fill="#fb923c" opacity="0.78" stroke="#0b0e13" stroke-width="0.5"/><circle cx="207.3" cy="314.3" r="8.2" fill="#fb923c" opacity="0.78" stroke="#0b0e13" stroke-width="0.5"/><circle cx="174.0" cy="244.0" r="8.2" fill="#38bdf8" opacity="0.78" stroke="#0b0e13" stroke-width="0.5"/><circle cx="182.9" cy="257.8" r="8.2" fill="#fb923c" opacity="0.78" stroke="#0b0e13" stroke-width="0.5"/><circle cx="191.4" cy="271.7" r="8.2" fill="#fb923c" opacity="0.78" stroke="#0b0e13" stroke-width="0.5"/><circle cx="318.8" cy="193.1" r="8.2" fill="#38bdf8" opacity="0.78" stroke="#0b0e13" stroke-width="0.5"/><circle cx="324.7" cy="209.2" r="8.2" fill="#fb923c" opacity="0.78" stroke="#0b0e13" stroke-width="0.5"/><circle cx="333.8" cy="223.2" r="8.2" fill="#fb923c" opacity="0.78" stroke="#0b0e13" stroke-width="0.5"/><circle cx="262.1" cy="165.8" r="8.2" fill="#38bdf8" opacity="0.78" stroke="#0b0e13" stroke-width="0.5"/><circle cx="253.2" cy="179.7" r="8.2" fill="#fb923c" opacity="0.78" stroke="#0b0e13" stroke-width="0.5"/><circle cx="244.2" cy="193.3" r="8.2" fill="#fb923c" opacity="0.78" stroke="#0b0e13" stroke-width="0.5"/><circle cx="262.4" cy="341.5" r="8.2" fill="#38bdf8" opacity="0.78" stroke="#0b0e13" stroke-width="0.5"/><circle cx="273.7" cy="353.0" r="8.2" fill="#fb923c" opacity="0.78" stroke="#0b0e13" stroke-width="0.5"/><circle cx="286.9" cy="363.9" r="8.2" fill="#fb923c" opacity="0.78" stroke="#0b0e13" stroke-width="0.5"/><circle cx="310.5" cy="293.7" r="8.2" fill="#38bdf8" opacity="0.78" stroke="#0b0e13" stroke-width="0.5"/><circle cx="320.9" cy="306.6" r="8.2" fill="#fb923c" opacity="0.78" stroke="#0b0e13" stroke-width="0.5"/><circle cx="326.6" cy="322.1" r="8.2" fill="#fb923c" opacity="0.78" stroke="#0b0e13" stroke-width="0.5"/><circle cx="361.8" cy="349.0" r="8.2" fill="#38bdf8" opacity="0.78" stroke="#0b0e13" stroke-width="0.5"/><circle cx="347.2" cy="340.5" r="8.2" fill="#fb923c" opacity="0.78" stroke="#0b0e13" stroke-width="0.5"/><circle cx="340.7" cy="324.2" r="8.2" fill="#fb923c" opacity="0.78" stroke="#0b0e13" stroke-width="0.5"/><circle cx="365.9" cy="320.0" r="8.2" fill="#38bdf8" opacity="0.78" stroke="#0b0e13" stroke-width="0.5"/><circle cx="350.2" cy="315.1" r="8.2" fill="#fb923c" opacity="0.78" stroke="#0b0e13" stroke-width="0.5"/><circle cx="334.3" cy="311.3" r="8.2" fill="#fb923c" opacity="0.78" stroke="#0b0e13" stroke-width="0.5"/><circle cx="353.5" cy="261.5" r="8.2" fill="#38bdf8" opacity="0.78" stroke="#0b0e13" stroke-width="0.5"/><circle cx="349.1" cy="277.5" r="8.2" fill="#fb923c" opacity="0.78" stroke="#0b0e13" stroke-width="0.5"/><circle cx="354.2" cy="294.0" r="8.2" fill="#fb923c" opacity="0.78" stroke="#0b0e13" stroke-width="0.5"/><circle cx="286.8" cy="350.2" r="8.2" fill="#38bdf8" opacity="0.78" stroke="#0b0e13" stroke-width="0.5"/><circle cx="275.5" cy="364.0" r="8.2" fill="#fb923c" opacity="0.78" stroke="#0b0e13" stroke-width="0.5"/><circle cx="275.5" cy="380.5" r="8.2" fill="#fb923c" opacity="0.78" stroke="#0b0e13" stroke-width="0.5"/><circle cx="235.2" cy="372.2" r="8.2" fill="#38bdf8" opacity="0.78" stroke="#0b0e13" stroke-width="0.5"/><circle cx="236.8" cy="355.3" r="8.2" fill="#fb923c" opacity="0.78" stroke="#0b0e13" stroke-width="0.5"/><circle cx="239.5" cy="339.4" r="8.2" fill="#fb923c" opacity="0.78" stroke="#0b0e13" stroke-width="0.5"/><circle cx="251.8" cy="329.1" r="8.2" fill="#38bdf8" opacity="0.78" stroke="#0b0e13" stroke-width="0.5"/><circle cx="236.0" cy="324.4" r="8.2" fill="#fb923c" opacity="0.78" stroke="#0b0e13" stroke-width="0.5"/><circle cx="219.9" cy="321.5" r="8.2" fill="#fb923c" opacity="0.78" stroke="#0b0e13" stroke-width="0.5"/><circle cx="226.0" cy="347.6" r="8.2" fill="#38bdf8" opacity="0.78" stroke="#0b0e13" stroke-width="0.5"/><circle cx="210.3" cy="342.0" r="8.2" fill="#fb923c" opacity="0.78" stroke="#0b0e13" stroke-width="0.5"/><circle cx="193.4" cy="347.2" r="8.2" fill="#fb923c" opacity="0.78" stroke="#0b0e13" stroke-width="0.5"/><circle cx="331.7" cy="185.8" r="8.2" fill="#38bdf8" opacity="0.78" stroke="#0b0e13" stroke-width="0.5"/><circle cx="341.3" cy="200.0" r="8.2" fill="#fb923c" opacity="0.78" stroke="#0b0e13" stroke-width="0.5"/><circle cx="345.1" cy="216.4" r="8.2" fill="#fb923c" opacity="0.78" stroke="#0b0e13" stroke-width="0.5"/><circle cx="209.7" cy="368.4" r="8.2" fill="#38bdf8" opacity="0.78" stroke="#0b0e13" stroke-width="0.5"/><circle cx="204.4" cy="352.3" r="8.2" fill="#fb923c" opacity="0.78" stroke="#0b0e13" stroke-width="0.5"/><circle cx="198.4" cy="336.9" r="8.2" fill="#fb923c" opacity="0.78" stroke="#0b0e13" stroke-width="0.5"/><circle cx="277.1" cy="338.3" r="8.2" fill="#38bdf8" opacity="0.78" stroke="#0b0e13" stroke-width="0.5"/><circle cx="282.4" cy="322.7" r="8.2" fill="#fb923c" opacity="0.78" stroke="#0b0e13" stroke-width="0.5"/><circle cx="284.4" cy="306.5" r="8.2" fill="#fb923c" opacity="0.78" stroke="#0b0e13" stroke-width="0.5"/><circle cx="298.3" cy="284.6" r="8.2" fill="#38bdf8" opacity="0.78" stroke="#0b0e13" stroke-width="0.5"/><circle cx="299.5" cy="268.2" r="8.2" fill="#fb923c" opacity="0.78" stroke="#0b0e13" stroke-width="0.5"/><circle cx="300.9" cy="252.0" r="8.2" fill="#fb923c" opacity="0.78" stroke="#0b0e13" stroke-width="0.5"/><circle cx="376.3" cy="309.2" r="8.2" fill="#38bdf8" opacity="0.78" stroke="#0b0e13" stroke-width="0.5"/><circle cx="360.2" cy="305.8" r="8.2" fill="#fb923c" opacity="0.78" stroke="#0b0e13" stroke-width="0.5"/><circle cx="344.0" cy="303.4" r="8.2" fill="#fb923c" opacity="0.78" stroke="#0b0e13" stroke-width="0.5"/><circle cx="343.3" cy="187.4" r="8.2" fill="#38bdf8" opacity="0.78" stroke="#0b0e13" stroke-width="0.5"/><circle cx="330.1" cy="198.5" r="8.2" fill="#fb923c" opacity="0.78" stroke="#0b0e13" stroke-width="0.5"/><circle cx="314.6" cy="204.5" r="8.2" fill="#fb923c" opacity="0.78" stroke="#0b0e13" stroke-width="0.5"/><circle cx="259.7" cy="192.7" r="8.2" fill="#38bdf8" opacity="0.78" stroke="#0b0e13" stroke-width="0.5"/><circle cx="249.8" cy="205.7" r="8.2" fill="#fb923c" opacity="0.78" stroke="#0b0e13" stroke-width="0.5"/><circle cx="238.9" cy="218.5" r="8.2" fill="#fb923c" opacity="0.78" stroke="#0b0e13" stroke-width="0.5"/><circle cx="220.1" cy="270.1" r="8.2" fill="#38bdf8" opacity="0.78" stroke="#0b0e13" stroke-width="0.5"/><circle cx="213.3" cy="285.1" r="8.2" fill="#fb923c" opacity="0.78" stroke="#0b0e13" stroke-width="0.5"/><circle cx="206.1" cy="299.8" r="8.2" fill="#fb923c" opacity="0.78" stroke="#0b0e13" stroke-width="0.5"/><circle cx="224.5" cy="334.5" r="8.2" fill="#38bdf8" opacity="0.78" stroke="#0b0e13" stroke-width="0.5"/><circle cx="209.2" cy="328.5" r="8.2" fill="#fb923c" opacity="0.78" stroke="#0b0e13" stroke-width="0.5"/><circle cx="194.0" cy="322.6" r="8.2" fill="#fb923c" opacity="0.78" stroke="#0b0e13" stroke-width="0.5"/><circle cx="258.0" cy="282.0" r="8.2" fill="#38bdf8" opacity="0.78" stroke="#0b0e13" stroke-width="0.5"/><circle cx="250.9" cy="296.9" r="8.2" fill="#fb923c" opacity="0.78" stroke="#0b0e13" stroke-width="0.5"/><circle cx="243.3" cy="311.4" r="8.2" fill="#fb923c" opacity="0.78" stroke="#0b0e13" stroke-width="0.5"/><circle cx="235.9" cy="206.6" r="8.2" fill="#38bdf8" opacity="0.78" stroke="#0b0e13" stroke-width="0.5"/><circle cx="249.9" cy="216.7" r="8.2" fill="#fb923c" opacity="0.78" stroke="#0b0e13" stroke-width="0.5"/><circle cx="258.9" cy="230.8" r="8.2" fill="#fb923c" opacity="0.78" stroke="#0b0e13" stroke-width="0.5"/><circle cx="320.7" cy="335.2" r="8.2" fill="#38bdf8" opacity="0.78" stroke="#0b0e13" stroke-width="0.5"/><circle cx="312.6" cy="320.4" r="8.2" fill="#fb923c" opacity="0.78" stroke="#0b0e13" stroke-width="0.5"/><circle cx="295.8" cy="314.7" r="8.2" fill="#fb923c" opacity="0.78" stroke="#0b0e13" stroke-width="0.5"/><circle cx="247.8" cy="270.4" r="8.2" fill="#38bdf8" opacity="0.78" stroke="#0b0e13" stroke-width="0.5"/><circle cx="263.9" cy="267.1" r="8.2" fill="#fb923c" opacity="0.78" stroke="#0b0e13" stroke-width="0.5"/><circle cx="275.2" cy="253.7" r="8.2" fill="#fb923c" opacity="0.78" stroke="#0b0e13" stroke-width="0.5"/><circle cx="353.9" cy="329.7" r="8.2" fill="#38bdf8" opacity="0.78" stroke="#0b0e13" stroke-width="0.5"/><circle cx="336.6" cy="334.5" r="8.2" fill="#fb923c" opacity="0.78" stroke="#0b0e13" stroke-width="0.5"/><circle cx="327.1" cy="348.1" r="8.2" fill="#fb923c" opacity="0.78" stroke="#0b0e13" stroke-width="0.5"/><circle cx="244.4" cy="256.1" r="8.2" fill="#38bdf8" opacity="0.78" stroke="#0b0e13" stroke-width="0.5"/><circle cx="261.5" cy="255.3" r="8.2" fill="#fb923c" opacity="0.78" stroke="#0b0e13" stroke-width="0.5"/><circle cx="275.5" cy="265.7" r="8.2" fill="#fb923c" opacity="0.78" stroke="#0b0e13" stroke-width="0.5"/><circle cx="284.1" cy="290.5" r="8.2" fill="#38bdf8" opacity="0.78" stroke="#0b0e13" stroke-width="0.5"/><circle cx="272.6" cy="301.9" r="8.2" fill="#fb923c" opacity="0.78" stroke="#0b0e13" stroke-width="0.5"/><circle cx="257.8" cy="309.9" r="8.2" fill="#fb923c" opacity="0.78" stroke="#0b0e13" stroke-width="0.5"/><circle cx="306.7" cy="308.4" r="8.2" fill="#38bdf8" opacity="0.78" stroke="#0b0e13" stroke-width="0.5"/><circle cx="302.3" cy="325.2" r="8.2" fill="#fb923c" opacity="0.78" stroke="#0b0e13" stroke-width="0.5"/><circle cx="306.5" cy="341.1" r="8.2" fill="#fb923c" opacity="0.78" stroke="#0b0e13" stroke-width="0.5"/><circle cx="285.4" cy="243.5" r="8.2" fill="#38bdf8" opacity="0.78" stroke="#0b0e13" stroke-width="0.5"/><circle cx="288.4" cy="259.6" r="8.2" fill="#fb923c" opacity="0.78" stroke="#0b0e13" stroke-width="0.5"/><circle cx="286.2" cy="275.9" r="8.2" fill="#fb923c" opacity="0.78" stroke="#0b0e13" stroke-width="0.5"/><circle cx="306.2" cy="179.8" r="8.2" fill="#38bdf8" opacity="0.78" stroke="#0b0e13" stroke-width="0.5"/><circle cx="303.5" cy="196.2" r="8.2" fill="#fb923c" opacity="0.78" stroke="#0b0e13" stroke-width="0.5"/><circle cx="300.7" cy="212.0" r="8.2" fill="#fb923c" opacity="0.78" stroke="#0b0e13" stroke-width="0.5"/><circle cx="271.8" cy="280.9" r="8.2" fill="#38bdf8" opacity="0.78" stroke="#0b0e13" stroke-width="0.5"/><circle cx="264.8" cy="296.2" r="8.2" fill="#fb923c" opacity="0.78" stroke="#0b0e13" stroke-width="0.5"/><circle cx="270.0" cy="313.2" r="8.2" fill="#fb923c" opacity="0.78" stroke="#0b0e13" stroke-width="0.5"/><circle cx="353.2" cy="205.9" r="8.2" fill="#38bdf8" opacity="0.78" stroke="#0b0e13" stroke-width="0.5"/><circle cx="336.7" cy="211.1" r="8.2" fill="#fb923c" opacity="0.78" stroke="#0b0e13" stroke-width="0.5"/><circle cx="324.6" cy="222.8" r="8.2" fill="#fb923c" opacity="0.78" stroke="#0b0e13" stroke-width="0.5"/><circle cx="327.7" cy="254.6" r="8.2" fill="#38bdf8" opacity="0.78" stroke="#0b0e13" stroke-width="0.5"/><circle cx="325.0" cy="270.9" r="8.2" fill="#fb923c" opacity="0.78" stroke="#0b0e13" stroke-width="0.5"/><circle cx="322.9" cy="287.1" r="8.2" fill="#fb923c" opacity="0.78" stroke="#0b0e13" stroke-width="0.5"/><circle cx="287.5" cy="155.8" r="8.2" fill="#38bdf8" opacity="0.78" stroke="#0b0e13" stroke-width="0.5"/><circle cx="281.8" cy="140.4" r="8.2" fill="#fb923c" opacity="0.78" stroke="#0b0e13" stroke-width="0.5"/><circle cx="273.9" cy="126.1" r="8.2" fill="#fb923c" opacity="0.78" stroke="#0b0e13" stroke-width="0.5"/><circle cx="229.6" cy="230.4" r="8.2" fill="#38bdf8" opacity="0.78" stroke="#0b0e13" stroke-width="0.5"/><circle cx="246.5" cy="230.1" r="8.2" fill="#fb923c" opacity="0.78" stroke="#0b0e13" stroke-width="0.5"/><circle cx="260.9" cy="220.5" r="8.2" fill="#fb923c" opacity="0.78" stroke="#0b0e13" stroke-width="0.5"/><circle cx="227.4" cy="363.7" r="8.2" fill="#38bdf8" opacity="0.78" stroke="#0b0e13" stroke-width="0.5"/><circle cx="244.5" cy="363.1" r="8.2" fill="#fb923c" opacity="0.78" stroke="#0b0e13" stroke-width="0.5"/><circle cx="260.2" cy="357.2" r="8.2" fill="#fb923c" opacity="0.78" stroke="#0b0e13" stroke-width="0.5"/><circle cx="234.5" cy="386.6" r="8.2" fill="#38bdf8" opacity="0.78" stroke="#0b0e13" stroke-width="0.5"/><circle cx="248.6" cy="378.1" r="8.2" fill="#fb923c" opacity="0.78" stroke="#0b0e13" stroke-width="0.5"/><circle cx="264.1" cy="371.5" r="8.2" fill="#fb923c" opacity="0.78" stroke="#0b0e13" stroke-width="0.5"/><circle cx="284.7" cy="232.0" r="8.2" fill="#38bdf8" opacity="0.78" stroke="#0b0e13" stroke-width="0.5"/><circle cx="299.8" cy="225.7" r="8.2" fill="#fb923c" opacity="0.78" stroke="#0b0e13" stroke-width="0.5"/><circle cx="313.7" cy="217.5" r="8.2" fill="#fb923c" opacity="0.78" stroke="#0b0e13" stroke-width="0.5"/><circle cx="293.8" cy="186.0" r="8.2" fill="#38bdf8" opacity="0.78" stroke="#0b0e13" stroke-width="0.5"/><circle cx="288.4" cy="202.0" r="8.2" fill="#fb923c" opacity="0.78" stroke="#0b0e13" stroke-width="0.5"/><circle cx="274.8" cy="212.1" r="8.2" fill="#fb923c" opacity="0.78" stroke="#0b0e13" stroke-width="0.5"/><circle cx="342.9" cy="249.4" r="8.2" fill="#38bdf8" opacity="0.78" stroke="#0b0e13" stroke-width="0.5"/><circle cx="346.0" cy="232.7" r="8.2" fill="#fb923c" opacity="0.78" stroke="#0b0e13" stroke-width="0.5"/><circle cx="357.8" cy="220.7" r="8.2" fill="#fb923c" opacity="0.78" stroke="#0b0e13" stroke-width="0.5"/><circle cx="372.9" cy="273.4" r="8.2" fill="#38bdf8" opacity="0.78" stroke="#0b0e13" stroke-width="0.5"/><circle cx="360.1" cy="283.6" r="8.2" fill="#fb923c" opacity="0.78" stroke="#0b0e13" stroke-width="0.5"/><circle cx="344.2" cy="289.6" r="8.2" fill="#fb923c" opacity="0.78" stroke="#0b0e13" stroke-width="0.5"/><rect x="0" y="518" width="560" height="42" fill="#0b0e13" opacity="0.92"/><text x="9" y="535" fill="#e2e8f0" font-family="monospace" font-size="12">SELF-ASSEMBLY, 50 lipids, box 29, t=100000</text><text x="9" y="552" fill="#94a3b8" font-family="monospace" font-size="11">encloses 0.0025 (loop 0.030, sheet 0.009)  splay 0.679  packing 0.796  aspect 0.532   slab 2.0 thick, 150 lipid beads shown</text></svg>