<svg xmlns="http://www.w3.org/2000/svg" width="760" height="500"><rect width="760" height="500" fill="#0b0e13"/><circle cx="216.9" cy="251.8" r="5.0" fill="#60a5fa" opacity="0.9"/><circle cx="217.4" cy="232.9" r="4.0" fill="#f9923a" opacity="0.9"/><circle cx="396.6" cy="250.5" r="4.0" fill="#f9923a" opacity="0.9"/><circle cx="405.8" cy="236.4" r="4.0" fill="#f9923a" opacity="0.9"/><circle cx="440.0" cy="291.6" r="5.0" fill="#60a5fa" opacity="0.9"/><circle cx="439.5" cy="270.8" r="4.0" fill="#f9923a" opacity="0.9"/><circle cx="445.5" cy="248.7" r="4.0" fill="#f9923a" opacity="0.9"/><circle cx="448.7" cy="224.3" r="4.0" fill="#f9923a" opacity="0.9"/><circle cx="385.8" cy="228.2" r="5.0" fill="#60a5fa" opacity="0.9"/><circle cx="398.5" cy="230.6" r="4.0" fill="#f9923a" opacity="0.9"/><circle cx="414.5" cy="240.0" r="4.0" fill="#f9923a" opacity="0.9"/><circle cx="428.1" cy="255.6" r="4.0" fill="#f9923a" opacity="0.9"/><circle cx="435.7" cy="171.4" r="5.0" fill="#60a5fa" opacity="0.9"/><circle cx="434.9" cy="193.2" r="4.0" fill="#f9923a" opacity="0.9"/><circle cx="441.9" cy="214.6" r="4.0" fill="#f9923a" opacity="0.9"/><circle cx="445.4" cy="239.0" r="4.0" fill="#f9923a" opacity="0.9"/><circle cx="374.0" cy="243.9" r="5.0" fill="#60a5fa" opacity="0.9"/><circle cx="389.4" cy="244.0" r="4.0" fill="#f9923a" opacity="0.9"/><circle cx="404.3" cy="249.2" r="4.0" fill="#f9923a" opacity="0.9"/><circle cx="420.8" cy="254.6" r="4.0" fill="#f9923a" opacity="0.9"/><circle cx="359.5" cy="276.6" r="5.0" fill="#60a5fa" opacity="0.9"/><circle cx="381.7" cy="269.2" r="4.0" fill="#f9923a" opacity="0.9"/><circle cx="404.6" cy="260.6" r="4.0" fill="#f9923a" opacity="0.9"/><circle cx="424.5" cy="247.0" r="4.0" fill="#f9923a" opacity="0.9"/><circle cx="449.3" cy="320.2" r="5.0" fill="#60a5fa" opacity="0.9"/><circle cx="471.8" cy="329.5" r="4.0" fill="#f9923a" opacity="0.9"/><circle cx="491.0" cy="341.0" r="4.0" fill="#f9923a" opacity="0.9"/><circle cx="214.0" cy="304.8" r="4.0" fill="#f9923a" opacity="0.9"/><circle cx="375.5" cy="178.7" r="5.0" fill="#60a5fa" opacity="0.9"/><circle cx="392.5" cy="191.8" r="4.0" fill="#f9923a" opacity="0.9"/><circle cx="414.5" cy="198.7" r="4.0" fill="#f9923a" opacity="0.9"/><circle cx="438.1" cy="196.6" r="4.0" fill="#f9923a" opacity="0.9"/><circle cx="462.5" cy="286.9" r="5.0" fill="#60a5fa" opacity="0.9"/><circle cx="483.5" cy="299.3" r="4.0" fill="#f9923a" opacity="0.9"/><circle cx="501.5" cy="315.6" r="4.0" fill="#f9923a" opacity="0.9"/><circle cx="232.1" cy="275.2" r="4.0" fill="#f9923a" opacity="0.9"/><circle cx="160.3" cy="300.0" r="5.0" fill="#60a5fa" opacity="0.9"/><circle cx="184.6" cy="298.2" r="4.0" fill="#f9923a" opacity="0.9"/><circle cx="207.2" cy="296.7" r="4.0" fill="#f9923a" opacity="0.9"/><circle cx="-61.4" cy="239.5" r="4.0" fill="#f9923a" opacity="0.9"/><circle cx="281.9" cy="259.8" r="5.0" fill="#60a5fa" opacity="0.9"/><circle cx="258.2" cy="266.4" r="4.0" fill="#f9923a" opacity="0.9"/><circle cx="233.5" cy="265.9" r="4.0" fill="#f9923a" opacity="0.9"/><circle cx="502.3" cy="305.6" r="4.0" fill="#f9923a" opacity="0.9"/><circle cx="256.4" cy="325.9" r="5.0" fill="#60a5fa" opacity="0.9"/><circle cx="251.5" cy="301.9" r="4.0" fill="#f9923a" opacity="0.9"/><circle cx="252.6" cy="278.0" r="4.0" fill="#f9923a" opacity="0.9"/><circle cx="256.5" cy="257.7" r="4.0" fill="#f9923a" opacity="0.9"/><circle cx="198.3" cy="217.7" r="5.0" fill="#60a5fa" opacity="0.9"/><circle cx="212.0" cy="205.9" r="4.0" fill="#f9923a" opacity="0.9"/><circle cx="391.2" cy="229.4" r="4.0" fill="#f9923a" opacity="0.9"/><circle cx="392.7" cy="209.9" r="4.0" fill="#f9923a" opacity="0.9"/><circle cx="274.3" cy="314.4" r="5.0" fill="#60a5fa" opacity="0.9"/><circle cx="253.8" cy="301.0" r="4.0" fill="#f9923a" opacity="0.9"/><circle cx="232.1" cy="289.4" r="4.0" fill="#f9923a" opacity="0.9"/><circle cx="503.8" cy="326.1" r="4.0" fill="#f9923a" opacity="0.9"/><circle cx="246.8" cy="319.8" r="5.0" fill="#60a5fa" opacity="0.9"/><circle cx="233.6" cy="300.0" r="4.0" fill="#f9923a" opacity="0.9"/><circle cx="507.2" cy="333.0" r="4.0" fill="#f9923a" opacity="0.9"/><circle cx="493.8" cy="312.0" r="4.0" fill="#f9923a" opacity="0.9"/><circle cx="425.9" cy="185.6" r="5.0" fill="#60a5fa" opacity="0.9"/><circle cx="424.9" cy="203.3" r="4.0" fill="#f9923a" opacity="0.9"/><circle cx="424.5" cy="224.4" r="4.0" fill="#f9923a" opacity="0.9"/><circle cx="427.3" cy="248.4" r="4.0" fill="#f9923a" opacity="0.9"/><circle cx="426.9" cy="281.8" r="5.0" fill="#60a5fa" opacity="0.9"/><circle cx="417.9" cy="273.0" r="4.0" fill="#f9923a" opacity="0.9"/><circle cx="413.3" cy="269.4" r="4.0" fill="#f9923a" opacity="0.9"/><circle cx="242.9" cy="231.8" r="4.0" fill="#f9923a" opacity="0.9"/><circle cx="279.9" cy="261.6" r="5.0" fill="#60a5fa" opacity="0.9"/><circle cx="259.4" cy="271.0" r="4.0" fill="#f9923a" opacity="0.9"/><circle cx="238.7" cy="282.2" r="4.0" fill="#f9923a" opacity="0.9"/><circle cx="219.6" cy="296.0" r="4.0" fill="#f9923a" opacity="0.9"/><circle cx="435.4" cy="191.6" r="5.0" fill="#60a5fa" opacity="0.9"/><circle cx="422.0" cy="202.6" r="4.0" fill="#f9923a" opacity="0.9"/><circle cx="402.4" cy="214.9" r="4.0" fill="#f9923a" opacity="0.9"/><circle cx="387.5" cy="234.1" r="4.0" fill="#f9923a" opacity="0.9"/><circle cx="467.6" cy="346.4" r="5.0" fill="#60a5fa" opacity="0.9"/><circle cx="487.6" cy="332.5" r="4.0" fill="#f9923a" opacity="0.9"/><circle cx="510.4" cy="322.4" r="4.0" fill="#f9923a" opacity="0.9"/><circle cx="240.5" cy="267.1" r="4.0" fill="#f9923a" opacity="0.9"/><circle cx="247.2" cy="204.6" r="5.0" fill="#60a5fa" opacity="0.9"/><circle cx="237.8" cy="225.6" r="4.0" fill="#f9923a" opacity="0.9"/><circle cx="229.9" cy="246.2" r="4.0" fill="#f9923a" opacity="0.9"/><circle cx="226.1" cy="267.3" r="4.0" fill="#f9923a" opacity="0.9"/><circle cx="409.4" cy="223.5" r="5.0" fill="#60a5fa" opacity="0.9"/><circle cx="413.0" cy="222.6" r="4.0" fill="#f9923a" opacity="0.9"/><circle cx="421.1" cy="215.9" r="4.0" fill="#f9923a" opacity="0.9"/><circle cx="434.4" cy="204.9" r="4.0" fill="#f9923a" opacity="0.9"/><circle cx="477.3" cy="276.0" r="5.0" fill="#60a5fa" opacity="0.9"/><circle cx="464.2" cy="254.8" r="4.0" fill="#f9923a" opacity="0.9"/><circle cx="448.2" cy="237.4" r="4.0" fill="#f9923a" opacity="0.9"/><circle cx="439.5" cy="216.9" r="4.0" fill="#f9923a" opacity="0.9"/><circle cx="395.3" cy="306.6" r="5.0" fill="#60a5fa" opacity="0.9"/><circle cx="410.5" cy="287.7" r="4.0" fill="#f9923a" opacity="0.9"/><circle cx="428.9" cy="273.7" r="4.0" fill="#f9923a" opacity="0.9"/><circle cx="450.7" cy="266.4" r="4.0" fill="#f9923a" opacity="0.9"/><circle cx="184.4" cy="286.2" r="5.0" fill="#60a5fa" opacity="0.9"/><circle cx="199.0" cy="296.8" r="4.0" fill="#f9923a" opacity="0.9"/><circle cx="218.0" cy="307.7" r="4.0" fill="#f9923a" opacity="0.9"/><circle cx="-53.2" cy="263.7" r="4.0" fill="#f9923a" opacity="0.9"/><circle cx="467.8" cy="250.1" r="5.0" fill="#60a5fa" opacity="0.9"/><circle cx="457.0" cy="244.5" r="4.0" fill="#f9923a" opacity="0.9"/><circle cx="454.9" cy="234.9" r="4.0" fill="#f9923a" opacity="0.9"/><circle cx="623.9" cy="262.5" r="4.0" fill="#f9923a" opacity="0.9"/><circle cx="381.9" cy="282.5" r="5.0" fill="#60a5fa" opacity="0.9"/><circle cx="396.4" cy="269.9" r="4.0" fill="#f9923a" opacity="0.9"/><circle cx="407.7" cy="264.3" r="4.0" fill="#f9923a" opacity="0.9"/><circle cx="239.8" cy="228.1" r="4.0" fill="#f9923a" opacity="0.9"/><circle cx="455.4" cy="324.5" r="5.0" fill="#60a5fa" opacity="0.9"/><circle cx="477.1" cy="316.4" r="4.0" fill="#f9923a" opacity="0.9"/><circle cx="500.1" cy="307.3" r="4.0" fill="#f9923a" opacity="0.9"/><circle cx="523.5" cy="303.5" r="4.0" fill="#f9923a" opacity="0.9"/><circle cx="464.5" cy="208.9" r="5.0" fill="#60a5fa" opacity="0.9"/><circle cx="456.9" cy="220.7" r="4.0" fill="#f9923a" opacity="0.9"/><circle cx="444.3" cy="235.4" r="4.0" fill="#f9923a" opacity="0.9"/><circle cx="431.9" cy="253.9" r="4.0" fill="#f9923a" opacity="0.9"/><circle cx="448.4" cy="306.6" r="5.0" fill="#60a5fa" opacity="0.9"/><circle cx="464.7" cy="314.9" r="4.0" fill="#f9923a" opacity="0.9"/><circle cx="481.2" cy="322.9" r="4.0" fill="#f9923a" opacity="0.9"/><circle cx="495.5" cy="332.8" r="4.0" fill="#f9923a" opacity="0.9"/><circle cx="249.2" cy="318.1" r="5.0" fill="#60a5fa" opacity="0.9"/><circle cx="228.8" cy="306.1" r="4.0" fill="#f9923a" opacity="0.9"/><circle cx="204.9" cy="300.7" r="4.0" fill="#f9923a" opacity="0.9"/><circle cx="476.1" cy="344.4" r="4.0" fill="#f9923a" opacity="0.9"/><circle cx="438.1" cy="170.4" r="5.0" fill="#60a5fa" opacity="0.9"/><circle cx="428.9" cy="192.2" r="4.0" fill="#f9923a" opacity="0.9"/><circle cx="413.8" cy="210.6" r="4.0" fill="#f9923a" opacity="0.9"/><circle cx="394.2" cy="220.5" r="4.0" fill="#f9923a" opacity="0.9"/><circle cx="413.3" cy="167.5" r="5.0" fill="#60a5fa" opacity="0.9"/><circle cx="415.1" cy="191.8" r="4.0" fill="#f9923a" opacity="0.9"/><circle cx="415.0" cy="216.6" r="4.0" fill="#f9923a" opacity="0.9"/><circle cx="236.2" cy="198.9" r="4.0" fill="#f9923a" opacity="0.9"/><circle cx="413.0" cy="168.6" r="5.0" fill="#60a5fa" opacity="0.9"/><circle cx="413.6" cy="193.1" r="4.0" fill="#f9923a" opacity="0.9"/><circle cx="407.7" cy="217.2" r="4.0" fill="#f9923a" opacity="0.9"/><circle cx="400.5" cy="239.2" r="4.0" fill="#f9923a" opacity="0.9"/><circle cx="248.5" cy="273.3" r="5.0" fill="#60a5fa" opacity="0.9"/><circle cx="240.6" cy="275.6" r="4.0" fill="#f9923a" opacity="0.9"/><circle cx="237.1" cy="281.0" r="4.0" fill="#f9923a" opacity="0.9"/><circle cx="241.0" cy="287.5" r="4.0" fill="#f9923a" opacity="0.9"/><circle cx="395.4" cy="247.8" r="5.0" fill="#60a5fa" opacity="0.9"/><circle cx="405.2" cy="244.4" r="4.0" fill="#f9923a" opacity="0.9"/><circle cx="421.1" cy="236.5" r="4.0" fill="#f9923a" opacity="0.9"/><circle cx="428.9" cy="228.8" r="4.0" fill="#f9923a" opacity="0.9"/><circle cx="391.6" cy="209.1" r="5.0" fill="#60a5fa" opacity="0.9"/><circle cx="389.4" cy="215.0" r="4.0" fill="#f9923a" opacity="0.9"/><circle cx="387.6" cy="211.5" r="4.0" fill="#f9923a" opacity="0.9"/><circle cx="383.1" cy="201.6" r="4.0" fill="#f9923a" opacity="0.9"/><circle cx="347.6" cy="239.1" r="5.0" fill="#60a5fa" opacity="0.9"/><circle cx="370.8" cy="236.4" r="4.0" fill="#f9923a" opacity="0.9"/><circle cx="391.5" cy="240.0" r="4.0" fill="#f9923a" opacity="0.9"/><circle cx="405.6" cy="246.9" r="4.0" fill="#f9923a" opacity="0.9"/><circle cx="477.0" cy="185.3" r="5.0" fill="#60a5fa" opacity="0.9"/><circle cx="460.2" cy="203.2" r="4.0" fill="#f9923a" opacity="0.9"/><circle cx="448.7" cy="224.9" r="4.0" fill="#f9923a" opacity="0.9"/><circle cx="438.8" cy="243.9" r="4.0" fill="#f9923a" opacity="0.9"/><circle cx="369.7" cy="202.0" r="5.0" fill="#60a5fa" opacity="0.9"/><circle cx="378.9" cy="215.7" r="4.0" fill="#f9923a" opacity="0.9"/><circle cx="383.6" cy="227.8" r="4.0" fill="#f9923a" opacity="0.9"/><circle cx="388.6" cy="242.8" r="4.0" fill="#f9923a" opacity="0.9"/><circle cx="362.5" cy="255.3" r="5.0" fill="#60a5fa" opacity="0.9"/><circle cx="384.9" cy="249.5" r="4.0" fill="#f9923a" opacity="0.9"/><circle cx="406.0" cy="246.2" r="4.0" fill="#f9923a" opacity="0.9"/><circle cx="597.3" cy="287.4" r="4.0" fill="#f9923a" opacity="0.9"/><circle cx="362.1" cy="235.2" r="5.0" fill="#60a5fa" opacity="0.9"/><circle cx="380.6" cy="231.0" r="4.0" fill="#f9923a" opacity="0.9"/><circle cx="401.5" cy="224.1" r="4.0" fill="#f9923a" opacity="0.9"/><circle cx="422.5" cy="216.1" r="4.0" fill="#f9923a" opacity="0.9"/><circle cx="491.1" cy="263.9" r="5.0" fill="#60a5fa" opacity="0.9"/><circle cx="470.1" cy="251.9" r="4.0" fill="#f9923a" opacity="0.9"/><circle cx="452.7" cy="235.1" r="4.0" fill="#f9923a" opacity="0.9"/><circle cx="606.8" cy="258.2" r="4.0" fill="#f9923a" opacity="0.9"/><circle cx="291.7" cy="259.3" r="5.0" fill="#60a5fa" opacity="0.9"/><circle cx="270.1" cy="269.7" r="4.0" fill="#f9923a" opacity="0.9"/><circle cx="248.0" cy="276.4" r="4.0" fill="#f9923a" opacity="0.9"/><circle cx="223.8" cy="278.3" r="4.0" fill="#f9923a" opacity="0.9"/><circle cx="243.6" cy="204.6" r="5.0" fill="#60a5fa" opacity="0.9"/><circle cx="240.8" cy="223.9" r="4.0" fill="#f9923a" opacity="0.9"/><circle cx="239.8" cy="243.5" r="4.0" fill="#f9923a" opacity="0.9"/><circle cx="233.9" cy="259.2" r="4.0" fill="#f9923a" opacity="0.9"/><circle cx="379.5" cy="216.6" r="5.0" fill="#60a5fa" opacity="0.9"/><circle cx="395.4" cy="223.6" r="4.0" fill="#f9923a" opacity="0.9"/><circle cx="412.4" cy="226.6" r="4.0" fill="#f9923a" opacity="0.9"/><circle cx="432.7" cy="227.2" r="4.0" fill="#f9923a" opacity="0.9"/><circle cx="399.5" cy="174.7" r="5.0" fill="#60a5fa" opacity="0.9"/><circle cx="404.9" cy="195.9" r="4.0" fill="#f9923a" opacity="0.9"/><circle cx="409.3" cy="218.6" r="4.0" fill="#f9923a" opacity="0.9"/><circle cx="413.5" cy="243.3" r="4.0" fill="#f9923a" opacity="0.9"/><circle cx="442.6" cy="200.0" r="5.0" fill="#60a5fa" opacity="0.9"/><circle cx="429.6" cy="216.4" r="4.0" fill="#f9923a" opacity="0.9"/><circle cx="413.3" cy="227.0" r="4.0" fill="#f9923a" opacity="0.9"/><circle cx="395.3" cy="242.1" r="4.0" fill="#f9923a" opacity="0.9"/><circle cx="285.3" cy="138.2" r="5.0" fill="#60a5fa" opacity="0.9"/><circle cx="274.3" cy="155.4" r="4.0" fill="#f9923a" opacity="0.9"/><circle cx="429.9" cy="210.5" r="4.0" fill="#f9923a" opacity="0.9"/><circle cx="409.5" cy="224.4" r="4.0" fill="#f9923a" opacity="0.9"/><circle cx="281.8" cy="293.9" r="5.0" fill="#60a5fa" opacity="0.9"/><circle cx="258.5" cy="285.7" r="4.0" fill="#f9923a" opacity="0.9"/><circle cx="238.3" cy="270.9" r="4.0" fill="#f9923a" opacity="0.9"/><circle cx="220.1" cy="257.1" r="4.0" fill="#f9923a" opacity="0.9"/><circle cx="349.1" cy="239.6" r="5.0" fill="#60a5fa" opacity="0.9"/><circle cx="369.2" cy="243.9" r="4.0" fill="#f9923a" opacity="0.9"/><circle cx="385.0" cy="252.8" r="4.0" fill="#f9923a" opacity="0.9"/><circle cx="228.9" cy="225.3" r="4.0" fill="#f9923a" opacity="0.9"/><circle cx="265.6" cy="299.6" r="5.0" fill="#60a5fa" opacity="0.9"/><circle cx="249.8" cy="293.6" r="4.0" fill="#f9923a" opacity="0.9"/><circle cx="236.3" cy="289.8" r="4.0" fill="#f9923a" opacity="0.9"/><circle cx="220.1" cy="292.9" r="4.0" fill="#f9923a" opacity="0.9"/><circle cx="438.2" cy="250.3" r="5.0" fill="#60a5fa" opacity="0.9"/><circle cx="436.9" cy="248.1" r="4.0" fill="#f9923a" opacity="0.9"/><circle cx="431.8" cy="241.9" r="4.0" fill="#f9923a" opacity="0.9"/><circle cx="600.9" cy="269.3" r="4.0" fill="#f9923a" opacity="0.9"/><circle cx="462.6" cy="229.9" r="5.0" fill="#60a5fa" opacity="0.9"/><circle cx="449.4" cy="236.0" r="4.0" fill="#f9923a" opacity="0.9"/><circle cx="435.0" cy="249.3" r="4.0" fill="#f9923a" opacity="0.9"/><circle cx="425.1" cy="268.2" r="4.0" fill="#f9923a" opacity="0.9"/><circle cx="284.3" cy="134.8" r="5.0" fill="#60a5fa" opacity="0.9"/><circle cx="443.5" cy="192.6" r="4.0" fill="#f9923a" opacity="0.9"/><circle cx="432.7" cy="213.5" r="4.0" fill="#f9923a" opacity="0.9"/><circle cx="418.8" cy="234.2" r="4.0" fill="#f9923a" opacity="0.9"/><circle cx="222.7" cy="254.6" r="5.0" fill="#60a5fa" opacity="0.9"/><circle cx="221.9" cy="258.6" r="4.0" fill="#f9923a" opacity="0.9"/><circle cx="222.4" cy="264.4" r="4.0" fill="#f9923a" opacity="0.9"/><circle cx="-69.0" cy="228.6" r="4.0" fill="#f9923a" opacity="0.9"/><circle cx="378.0" cy="300.1" r="5.0" fill="#60a5fa" opacity="0.9"/><circle cx="395.5" cy="284.9" r="4.0" fill="#f9923a" opacity="0.9"/><circle cx="412.2" cy="275.9" r="4.0" fill="#f9923a" opacity="0.9"/><circle cx="419.8" cy="264.5" r="4.0" fill="#f9923a" opacity="0.9"/><circle cx="250.8" cy="231.9" r="5.0" fill="#60a5fa" opacity="0.9"/><circle cx="235.1" cy="235.2" r="4.0" fill="#f9923a" opacity="0.9"/><circle cx="220.5" cy="236.6" r="4.0" fill="#f9923a" opacity="0.9"/><circle cx="498.2" cy="282.1" r="4.0" fill="#f9923a" opacity="0.9"/><circle cx="357.7" cy="191.8" r="5.0" fill="#60a5fa" opacity="0.9"/><circle cx="377.6" cy="205.5" r="4.0" fill="#f9923a" opacity="0.9"/><circle cx="391.5" cy="221.3" r="4.0" fill="#f9923a" opacity="0.9"/><circle cx="407.8" cy="233.4" r="4.0" fill="#f9923a" opacity="0.9"/><circle cx="415.4" cy="178.3" r="5.0" fill="#60a5fa" opacity="0.9"/><circle cx="410.0" cy="194.2" r="4.0" fill="#f9923a" opacity="0.9"/><circle cx="397.1" cy="207.4" r="4.0" fill="#f9923a" opacity="0.9"/><circle cx="386.0" cy="218.9" r="4.0" fill="#f9923a" opacity="0.9"/><circle cx="275.2" cy="261.8" r="5.0" fill="#60a5fa" opacity="0.9"/><circle cx="439.6" cy="278.0" r="4.0" fill="#f9923a" opacity="0.9"/><circle cx="426.0" cy="258.7" r="4.0" fill="#f9923a" opacity="0.9"/><circle cx="406.7" cy="244.2" r="4.0" fill="#f9923a" opacity="0.9"/><circle cx="457.5" cy="188.6" r="5.0" fill="#60a5fa" opacity="0.9"/><circle cx="437.6" cy="195.9" r="4.0" fill="#f9923a" opacity="0.9"/><circle cx="417.7" cy="194.7" r="4.0" fill="#f9923a" opacity="0.9"/><circle cx="570.2" cy="237.8" r="4.0" fill="#f9923a" opacity="0.9"/><circle cx="263.9" cy="119.0" r="5.0" fill="#60a5fa" opacity="0.9"/><circle cx="256.8" cy="142.6" r="4.0" fill="#f9923a" opacity="0.9"/><circle cx="421.8" cy="204.3" r="4.0" fill="#f9923a" opacity="0.9"/><circle cx="246.5" cy="190.3" r="4.0" fill="#f9923a" opacity="0.9"/><circle cx="491.0" cy="240.6" r="5.0" fill="#60a5fa" opacity="0.9"/><circle cx="468.3" cy="232.0" r="4.0" fill="#f9923a" opacity="0.9"/><circle cx="450.0" cy="215.1" r="4.0" fill="#f9923a" opacity="0.9"/><circle cx="603.9" cy="239.0" r="4.0" fill="#f9923a" opacity="0.9"/><circle cx="460.9" cy="299.0" r="5.0" fill="#60a5fa" opacity="0.9"/><circle cx="445.6" cy="279.4" r="4.0" fill="#f9923a" opacity="0.9"/><circle cx="438.0" cy="255.6" r="4.0" fill="#f9923a" opacity="0.9"/><circle cx="431.9" cy="232.2" r="4.0" fill="#f9923a" opacity="0.9"/><circle cx="462.3" cy="267.8" r="5.0" fill="#60a5fa" opacity="0.9"/><circle cx="476.3" cy="287.4" r="4.0" fill="#f9923a" opacity="0.9"/><circle cx="484.6" cy="310.4" r="4.0" fill="#f9923a" opacity="0.9"/><circle cx="496.2" cy="332.2" r="4.0" fill="#f9923a" opacity="0.9"/><circle cx="379.8" cy="186.3" r="5.0" fill="#60a5fa" opacity="0.9"/><circle cx="389.5" cy="208.2" r="4.0" fill="#f9923a" opacity="0.9"/><circle cx="402.5" cy="226.7" r="4.0" fill="#f9923a" opacity="0.9"/><circle cx="420.3" cy="238.2" r="4.0" fill="#f9923a" opacity="0.9"/><circle cx="264.7" cy="262.3" r="5.0" fill="#60a5fa" opacity="0.9"/><circle cx="249.3" cy="248.0" r="4.0" fill="#f9923a" opacity="0.9"/><circle cx="402.6" cy="276.1" r="4.0" fill="#f9923a" opacity="0.9"/><circle cx="387.0" cy="260.4" r="4.0" fill="#f9923a" opacity="0.9"/><circle cx="365.5" cy="260.4" r="5.0" fill="#60a5fa" opacity="0.9"/><circle cx="375.4" cy="252.7" r="4.0" fill="#f9923a" opacity="0.9"/><circle cx="378.2" cy="248.7" r="4.0" fill="#f9923a" opacity="0.9"/><circle cx="376.7" cy="248.5" r="4.0" fill="#f9923a" opacity="0.9"/><circle cx="481.3" cy="241.1" r="5.0" fill="#60a5fa" opacity="0.9"/><circle cx="462.0" cy="229.9" r="4.0" fill="#f9923a" opacity="0.9"/><circle cx="438.2" cy="223.7" r="4.0" fill="#f9923a" opacity="0.9"/><circle cx="413.7" cy="225.5" r="4.0" fill="#f9923a" opacity="0.9"/><circle cx="356.2" cy="206.7" r="5.0" fill="#60a5fa" opacity="0.9"/><circle cx="369.9" cy="225.2" r="4.0" fill="#f9923a" opacity="0.9"/><circle cx="383.0" cy="239.9" r="4.0" fill="#f9923a" opacity="0.9"/><circle cx="393.9" cy="260.9" r="4.0" fill="#f9923a" opacity="0.9"/><circle cx="185.5" cy="279.6" r="5.0" fill="#60a5fa" opacity="0.9"/><circle cx="202.2" cy="286.0" r="4.0" fill="#f9923a" opacity="0.9"/><circle cx="218.1" cy="295.9" r="4.0" fill="#f9923a" opacity="0.9"/><circle cx="235.7" cy="310.3" r="4.0" fill="#f9923a" opacity="0.9"/><circle cx="445.3" cy="242.3" r="5.0" fill="#60a5fa" opacity="0.9"/><circle cx="441.8" cy="242.1" r="4.0" fill="#f9923a" opacity="0.9"/><circle cx="444.5" cy="243.9" r="4.0" fill="#f9923a" opacity="0.9"/><circle cx="267.7" cy="211.4" r="4.0" fill="#f9923a" opacity="0.9"/><circle cx="276.0" cy="238.1" r="5.0" fill="#60a5fa" opacity="0.9"/><circle cx="261.9" cy="251.9" r="4.0" fill="#f9923a" opacity="0.9"/><circle cx="245.5" cy="264.9" r="4.0" fill="#f9923a" opacity="0.9"/><circle cx="226.1" cy="277.0" r="4.0" fill="#f9923a" opacity="0.9"/><circle cx="430.0" cy="276.4" r="5.0" fill="#60a5fa" opacity="0.9"/><circle cx="429.1" cy="258.3" r="4.0" fill="#f9923a" opacity="0.9"/><circle cx="434.8" cy="237.7" r="4.0" fill="#f9923a" opacity="0.9"/><circle cx="442.7" cy="214.7" r="4.0" fill="#f9923a" opacity="0.9"/><circle cx="255.9" cy="302.8" r="5.0" fill="#60a5fa" opacity="0.9"/><circle cx="248.6" cy="287.1" r="4.0" fill="#f9923a" opacity="0.9"/><circle cx="239.5" cy="271.4" r="4.0" fill="#f9923a" opacity="0.9"/><circle cx="227.7" cy="258.9" r="4.0" fill="#f9923a" opacity="0.9"/><circle cx="389.0" cy="272.5" r="5.0" fill="#60a5fa" opacity="0.9"/><circle cx="401.1" cy="259.6" r="4.0" fill="#f9923a" opacity="0.9"/><circle cx="416.2" cy="247.2" r="4.0" fill="#f9923a" opacity="0.9"/><circle cx="433.6" cy="240.3" r="4.0" fill="#f9923a" opacity="0.9"/><circle cx="448.8" cy="220.5" r="5.0" fill="#60a5fa" opacity="0.9"/><circle cx="440.3" cy="230.3" r="4.0" fill="#f9923a" opacity="0.9"/><circle cx="424.1" cy="233.5" r="4.0" fill="#f9923a" opacity="0.9"/><circle cx="405.8" cy="226.5" r="4.0" fill="#f9923a" opacity="0.9"/><circle cx="491.6" cy="289.4" r="5.0" fill="#60a5fa" opacity="0.9"/><circle cx="498.8" cy="291.0" r="4.0" fill="#f9923a" opacity="0.9"/><circle cx="507.4" cy="294.7" r="4.0" fill="#f9923a" opacity="0.9"/><circle cx="228.5" cy="251.5" r="4.0" fill="#f9923a" opacity="0.9"/><circle cx="420.9" cy="241.7" r="5.0" fill="#60a5fa" opacity="0.9"/><circle cx="422.9" cy="242.9" r="4.0" fill="#f9923a" opacity="0.9"/><circle cx="424.1" cy="254.0" r="4.0" fill="#f9923a" opacity="0.9"/><circle cx="426.9" cy="271.0" r="4.0" fill="#f9923a" opacity="0.9"/><circle cx="394.5" cy="167.8" r="5.0" fill="#60a5fa" opacity="0.9"/><circle cx="410.2" cy="187.0" r="4.0" fill="#f9923a" opacity="0.9"/><circle cx="425.6" cy="205.4" r="4.0" fill="#f9923a" opacity="0.9"/><circle cx="443.2" cy="216.5" r="4.0" fill="#f9923a" opacity="0.9"/><circle cx="483.5" cy="273.7" r="5.0" fill="#60a5fa" opacity="0.9"/><circle cx="480.6" cy="294.2" r="4.0" fill="#f9923a" opacity="0.9"/><circle cx="471.2" cy="312.0" r="4.0" fill="#f9923a" opacity="0.9"/><circle cx="465.5" cy="328.7" r="4.0" fill="#f9923a" opacity="0.9"/><circle cx="417.1" cy="295.2" r="5.0" fill="#60a5fa" opacity="0.9"/><circle cx="405.6" cy="276.1" r="4.0" fill="#f9923a" opacity="0.9"/><circle cx="397.4" cy="252.8" r="4.0" fill="#f9923a" opacity="0.9"/><circle cx="562.6" cy="270.5" r="4.0" fill="#f9923a" opacity="0.9"/><circle cx="391.5" cy="166.5" r="5.0" fill="#60a5fa" opacity="0.9"/><circle cx="399.0" cy="188.9" r="4.0" fill="#f9923a" opacity="0.9"/><circle cx="404.1" cy="213.2" r="4.0" fill="#f9923a" opacity="0.9"/><circle cx="413.0" cy="234.2" r="4.0" fill="#f9923a" opacity="0.9"/><circle cx="270.6" cy="270.0" r="5.0" fill="#60a5fa" opacity="0.9"/><circle cx="268.2" cy="245.6" r="4.0" fill="#f9923a" opacity="0.9"/><circle cx="435.9" cy="264.2" r="4.0" fill="#f9923a" opacity="0.9"/><circle cx="427.1" cy="244.1" r="4.0" fill="#f9923a" opacity="0.9"/><circle cx="404.6" cy="290.5" r="5.0" fill="#60a5fa" opacity="0.9"/><circle cx="409.2" cy="272.0" r="4.0" fill="#f9923a" opacity="0.9"/><circle cx="417.9" cy="250.5" r="4.0" fill="#f9923a" opacity="0.9"/><circle cx="433.7" cy="232.8" r="4.0" fill="#f9923a" opacity="0.9"/><circle cx="489.5" cy="228.1" r="5.0" fill="#60a5fa" opacity="0.9"/><circle cx="469.5" cy="235.4" r="4.0" fill="#f9923a" opacity="0.9"/><circle cx="454.0" cy="248.2" r="4.0" fill="#f9923a" opacity="0.9"/><circle cx="614.6" cy="296.0" r="4.0" fill="#f9923a" opacity="0.9"/><circle cx="472.6" cy="255.2" r="5.0" fill="#60a5fa" opacity="0.9"/><circle cx="457.3" cy="246.9" r="4.0" fill="#f9923a" opacity="0.9"/><circle cx="444.8" cy="232.4" r="4.0" fill="#f9923a" opacity="0.9"/><circle cx="426.8" cy="218.8" r="4.0" fill="#f9923a" opacity="0.9"/><circle cx="211.5" cy="200.6" r="5.0" fill="#60a5fa" opacity="0.9"/><circle cx="221.3" cy="218.5" r="4.0" fill="#f9923a" opacity="0.9"/><circle cx="232.9" cy="232.1" r="4.0" fill="#f9923a" opacity="0.9"/><circle cx="239.7" cy="245.5" r="4.0" fill="#f9923a" opacity="0.9"/><circle cx="278.6" cy="281.9" r="5.0" fill="#60a5fa" opacity="0.9"/><circle cx="255.2" cy="285.1" r="4.0" fill="#f9923a" opacity="0.9"/><circle cx="234.7" cy="297.9" r="4.0" fill="#f9923a" opacity="0.9"/><circle cx="217.2" cy="315.4" r="4.0" fill="#f9923a" opacity="0.9"/><circle cx="384.6" cy="304.5" r="5.0" fill="#60a5fa" opacity="0.9"/><circle cx="394.1" cy="282.9" r="4.0" fill="#f9923a" opacity="0.9"/><circle cx="396.6" cy="258.2" r="4.0" fill="#f9923a" opacity="0.9"/><circle cx="390.9" cy="234.6" r="4.0" fill="#f9923a" opacity="0.9"/><circle cx="454.8" cy="337.9" r="5.0" fill="#60a5fa" opacity="0.9"/><circle cx="476.9" cy="326.5" r="4.0" fill="#f9923a" opacity="0.9"/><circle cx="204.9" cy="265.1" r="4.0" fill="#f9923a" opacity="0.9"/><circle cx="219.8" cy="252.7" r="4.0" fill="#f9923a" opacity="0.9"/><circle cx="468.1" cy="208.5" r="5.0" fill="#60a5fa" opacity="0.9"/><circle cx="452.5" cy="220.7" r="4.0" fill="#f9923a" opacity="0.9"/><circle cx="436.7" cy="237.5" r="4.0" fill="#f9923a" opacity="0.9"/><circle cx="415.8" cy="245.0" r="4.0" fill="#f9923a" opacity="0.9"/><circle cx="419.5" cy="307.7" r="5.0" fill="#60a5fa" opacity="0.9"/><circle cx="428.5" cy="284.4" r="4.0" fill="#f9923a" opacity="0.9"/><circle cx="444.6" cy="266.3" r="4.0" fill="#f9923a" opacity="0.9"/><circle cx="454.0" cy="245.4" r="4.0" fill="#f9923a" opacity="0.9"/><circle cx="369.8" cy="278.1" r="5.0" fill="#60a5fa" opacity="0.9"/><circle cx="388.0" cy="262.7" r="4.0" fill="#f9923a" opacity="0.9"/><circle cx="404.6" cy="244.1" r="4.0" fill="#f9923a" opacity="0.9"/><circle cx="417.5" cy="224.0" r="4.0" fill="#f9923a" opacity="0.9"/><circle cx="511.0" cy="251.2" r="5.0" fill="#60a5fa" opacity="0.9"/><circle cx="504.7" cy="275.0" r="4.0" fill="#f9923a" opacity="0.9"/><circle cx="496.5" cy="297.8" r="4.0" fill="#f9923a" opacity="0.9"/><circle cx="485.0" cy="317.5" r="4.0" fill="#f9923a" opacity="0.9"/><circle cx="394.6" cy="203.3" r="5.0" fill="#60a5fa" opacity="0.9"/><circle cx="400.6" cy="209.8" r="4.0" fill="#f9923a" opacity="0.9"/><circle cx="410.8" cy="216.0" r="4.0" fill="#f9923a" opacity="0.9"/><circle cx="594.2" cy="259.6" r="4.0" fill="#f9923a" opacity="0.9"/><circle cx="488.5" cy="209.7" r="5.0" fill="#60a5fa" opacity="0.9"/><circle cx="464.8" cy="215.5" r="4.0" fill="#f9923a" opacity="0.9"/><circle cx="442.3" cy="226.4" r="4.0" fill="#f9923a" opacity="0.9"/><circle cx="420.1" cy="234.0" r="4.0" fill="#f9923a" opacity="0.9"/><circle cx="403.5" cy="225.0" r="5.0" fill="#60a5fa" opacity="0.9"/><circle cx="404.5" cy="226.3" r="4.0" fill="#f9923a" opacity="0.9"/><circle cx="401.7" cy="227.2" r="4.0" fill="#f9923a" opacity="0.9"/><circle cx="398.0" cy="229.5" r="4.0" fill="#f9923a" opacity="0.9"/><circle cx="375.8" cy="179.2" r="5.0" fill="#60a5fa" opacity="0.9"/><circle cx="391.6" cy="197.8" r="4.0" fill="#f9923a" opacity="0.9"/><circle cx="401.6" cy="218.8" r="4.0" fill="#f9923a" opacity="0.9"/><circle cx="400.7" cy="241.8" r="4.0" fill="#f9923a" opacity="0.9"/><circle cx="479.6" cy="280.5" r="5.0" fill="#60a5fa" opacity="0.9"/><circle cx="459.7" cy="270.9" r="4.0" fill="#f9923a" opacity="0.9"/><circle cx="437.6" cy="269.6" r="4.0" fill="#f9923a" opacity="0.9"/><circle cx="420.9" cy="270.0" r="4.0" fill="#f9923a" opacity="0.9"/><circle cx="480.0" cy="217.5" r="5.0" fill="#60a5fa" opacity="0.9"/><circle cx="461.2" cy="217.4" r="4.0" fill="#f9923a" opacity="0.9"/><circle cx="439.6" cy="210.1" r="4.0" fill="#f9923a" opacity="0.9"/><circle cx="415.5" cy="204.7" r="4.0" fill="#f9923a" opacity="0.9"/><circle cx="403.7" cy="303.4" r="5.0" fill="#60a5fa" opacity="0.9"/><circle cx="411.4" cy="280.7" r="4.0" fill="#f9923a" opacity="0.9"/><circle cx="421.9" cy="261.0" r="4.0" fill="#f9923a" opacity="0.9"/><circle cx="599.2" cy="278.7" r="4.0" fill="#f9923a" opacity="0.9"/><circle cx="418.9" cy="203.2" r="5.0" fill="#60a5fa" opacity="0.9"/><circle cx="417.5" cy="205.9" r="4.0" fill="#f9923a" opacity="0.9"/><circle cx="412.8" cy="205.8" r="4.0" fill="#f9923a" opacity="0.9"/><circle cx="576.6" cy="247.2" r="4.0" fill="#f9923a" opacity="0.9"/><circle cx="361.3" cy="284.6" r="5.0" fill="#60a5fa" opacity="0.9"/><circle cx="381.9" cy="273.9" r="4.0" fill="#f9923a" opacity="0.9"/><circle cx="405.4" cy="266.3" r="4.0" fill="#f9923a" opacity="0.9"/><circle cx="255.7" cy="222.4" r="4.0" fill="#f9923a" opacity="0.9"/><circle cx="438.9" cy="222.5" r="5.0" fill="#60a5fa" opacity="0.9"/><circle cx="431.3" cy="236.3" r="4.0" fill="#f9923a" opacity="0.9"/><circle cx="425.6" cy="256.1" r="4.0" fill="#f9923a" opacity="0.9"/><circle cx="427.7" cy="278.7" r="4.0" fill="#f9923a" opacity="0.9"/><circle cx="403.9" cy="285.9" r="5.0" fill="#60a5fa" opacity="0.9"/><circle cx="402.1" cy="266.0" r="4.0" fill="#f9923a" opacity="0.9"/><circle cx="393.4" cy="248.2" r="4.0" fill="#f9923a" opacity="0.9"/><circle cx="383.2" cy="229.3" r="4.0" fill="#f9923a" opacity="0.9"/><circle cx="465.0" cy="285.9" r="5.0" fill="#60a5fa" opacity="0.9"/><circle cx="448.1" cy="277.6" r="4.0" fill="#f9923a" opacity="0.9"/><circle cx="430.9" cy="270.8" r="4.0" fill="#f9923a" opacity="0.9"/><circle cx="418.9" cy="261.1" r="4.0" fill="#f9923a" opacity="0.9"/><circle cx="212.6" cy="220.0" r="5.0" fill="#60a5fa" opacity="0.9"/><circle cx="214.5" cy="236.1" r="4.0" fill="#f9923a" opacity="0.9"/><circle cx="217.7" cy="247.0" r="4.0" fill="#f9923a" opacity="0.9"/><circle cx="226.6" cy="252.5" r="4.0" fill="#f9923a" opacity="0.9"/><circle cx="487.0" cy="230.0" r="5.0" fill="#60a5fa" opacity="0.9"/><circle cx="463.1" cy="234.5" r="4.0" fill="#f9923a" opacity="0.9"/><circle cx="440.5" cy="232.4" r="4.0" fill="#f9923a" opacity="0.9"/><circle cx="421.5" cy="239.2" r="4.0" fill="#f9923a" opacity="0.9"/><circle cx="393.0" cy="251.7" r="5.0" fill="#60a5fa" opacity="0.9"/><circle cx="406.3" cy="250.9" r="4.0" fill="#f9923a" opacity="0.9"/><circle cx="424.3" cy="241.2" r="4.0" fill="#f9923a" opacity="0.9"/><circle cx="435.8" cy="222.1" r="4.0" fill="#f9923a" opacity="0.9"/><circle cx="223.3" cy="236.7" r="5.0" fill="#60a5fa" opacity="0.9"/><circle cx="222.3" cy="242.4" r="4.0" fill="#f9923a" opacity="0.9"/><circle cx="221.0" cy="237.2" r="4.0" fill="#f9923a" opacity="0.9"/><circle cx="-76.1" cy="175.2" r="4.0" fill="#f9923a" opacity="0.9"/><circle cx="477.3" cy="260.8" r="5.0" fill="#60a5fa" opacity="0.9"/><circle cx="489.8" cy="281.7" r="4.0" fill="#f9923a" opacity="0.9"/><circle cx="209.1" cy="254.8" r="4.0" fill="#f9923a" opacity="0.9"/><circle cx="212.3" cy="279.2" r="4.0" fill="#f9923a" opacity="0.9"/><circle cx="349.6" cy="258.1" r="5.0" fill="#60a5fa" opacity="0.9"/><circle cx="373.8" cy="262.8" r="4.0" fill="#f9923a" opacity="0.9"/><circle cx="396.4" cy="268.5" r="4.0" fill="#f9923a" opacity="0.9"/><circle cx="418.5" cy="276.9" r="4.0" fill="#f9923a" opacity="0.9"/><circle cx="372.9" cy="221.4" r="5.0" fill="#60a5fa" opacity="0.9"/><circle cx="388.0" cy="229.8" r="4.0" fill="#f9923a" opacity="0.9"/><circle cx="395.3" cy="241.1" r="4.0" fill="#f9923a" opacity="0.9"/><circle cx="398.9" cy="256.9" r="4.0" fill="#f9923a" opacity="0.9"/><circle cx="426.4" cy="218.3" r="5.0" fill="#60a5fa" opacity="0.9"/><circle cx="422.2" cy="232.2" r="4.0" fill="#f9923a" opacity="0.9"/><circle cx="415.6" cy="243.9" r="4.0" fill="#f9923a" opacity="0.9"/><circle cx="407.9" cy="252.4" r="4.0" fill="#f9923a" opacity="0.9"/><circle cx="453.8" cy="267.3" r="5.0" fill="#60a5fa" opacity="0.9"/><circle cx="449.8" cy="257.7" r="4.0" fill="#f9923a" opacity="0.9"/><circle cx="449.0" cy="256.5" r="4.0" fill="#f9923a" opacity="0.9"/><circle cx="455.9" cy="256.5" r="4.0" fill="#f9923a" opacity="0.9"/><circle cx="229.5" cy="258.2" r="5.0" fill="#60a5fa" opacity="0.9"/><circle cx="240.5" cy="252.9" r="4.0" fill="#f9923a" opacity="0.9"/><circle cx="251.1" cy="241.7" r="4.0" fill="#f9923a" opacity="0.9"/><circle cx="255.2" cy="234.0" r="4.0" fill="#f9923a" opacity="0.9"/><circle cx="460.0" cy="274.1" r="5.0" fill="#60a5fa" opacity="0.9"/><circle cx="448.7" cy="258.2" r="4.0" fill="#f9923a" opacity="0.9"/><circle cx="433.8" cy="250.2" r="4.0" fill="#f9923a" opacity="0.9"/><circle cx="245.6" cy="211.0" r="4.0" fill="#f9923a" opacity="0.9"/><circle cx="206.0" cy="264.8" r="5.0" fill="#60a5fa" opacity="0.9"/><circle cx="205.4" cy="268.1" r="4.0" fill="#f9923a" opacity="0.9"/><circle cx="201.3" cy="277.9" r="4.0" fill="#f9923a" opacity="0.9"/><circle cx="485.9" cy="331.1" r="4.0" fill="#f9923a" opacity="0.9"/><circle cx="262.2" cy="252.9" r="5.0" fill="#60a5fa" opacity="0.9"/><circle cx="254.5" cy="251.3" r="4.0" fill="#f9923a" opacity="0.9"/><circle cx="245.3" cy="246.5" r="4.0" fill="#f9923a" opacity="0.9"/><circle cx="239.8" cy="248.7" r="4.0" fill="#f9923a" opacity="0.9"/><circle cx="428.1" cy="312.0" r="5.0" fill="#60a5fa" opacity="0.9"/><circle cx="426.3" cy="287.8" r="4.0" fill="#f9923a" opacity="0.9"/><circle cx="417.8" cy="265.8" r="4.0" fill="#f9923a" opacity="0.9"/><circle cx="404.4" cy="246.5" r="4.0" fill="#f9923a" opacity="0.9"/><circle cx="414.8" cy="247.2" r="5.0" fill="#60a5fa" opacity="0.9"/><circle cx="418.5" cy="238.8" r="4.0" fill="#f9923a" opacity="0.9"/><circle cx="427.9" cy="225.8" r="4.0" fill="#f9923a" opacity="0.9"/><circle cx="441.9" cy="211.6" r="4.0" fill="#f9923a" opacity="0.9"/><circle cx="479.1" cy="226.7" r="5.0" fill="#60a5fa" opacity="0.9"/><circle cx="466.3" cy="234.5" r="4.0" fill="#f9923a" opacity="0.9"/><circle cx="459.0" cy="248.5" r="4.0" fill="#f9923a" opacity="0.9"/><circle cx="443.5" cy="257.0" r="4.0" fill="#f9923a" opacity="0.9"/><circle cx="221.2" cy="148.3" r="5.0" fill="#60a5fa" opacity="0.9"/><circle cx="226.1" cy="160.4" r="4.0" fill="#f9923a" opacity="0.9"/><circle cx="405.1" cy="205.0" r="4.0" fill="#f9923a" opacity="0.9"/><circle cx="410.0" cy="208.9" r="4.0" fill="#f9923a" opacity="0.9"/><circle cx="208.7" cy="335.7" r="5.0" fill="#60a5fa" opacity="0.9"/><circle cx="213.7" cy="317.2" r="4.0" fill="#f9923a" opacity="0.9"/><circle cx="213.8" cy="300.9" r="4.0" fill="#f9923a" opacity="0.9"/><circle cx="218.9" cy="281.0" r="4.0" fill="#f9923a" opacity="0.9"/><circle cx="471.3" cy="193.1" r="5.0" fill="#60a5fa" opacity="0.9"/><circle cx="451.1" cy="206.5" r="4.0" fill="#f9923a" opacity="0.9"/><circle cx="430.4" cy="220.1" r="4.0" fill="#f9923a" opacity="0.9"/><circle cx="411.4" cy="235.2" r="4.0" fill="#f9923a" opacity="0.9"/><circle cx="353.4" cy="202.1" r="5.0" fill="#60a5fa" opacity="0.9"/><circle cx="374.2" cy="214.5" r="4.0" fill="#f9923a" opacity="0.9"/><circle cx="396.4" cy="219.7" r="4.0" fill="#f9923a" opacity="0.9"/><circle cx="417.6" cy="227.5" r="4.0" fill="#f9923a" opacity="0.9"/><circle cx="475.6" cy="205.0" r="5.0" fill="#60a5fa" opacity="0.9"/><circle cx="452.5" cy="205.0" r="4.0" fill="#f9923a" opacity="0.9"/><circle cx="428.0" cy="205.1" r="4.0" fill="#f9923a" opacity="0.9"/><circle cx="403.5" cy="208.4" r="4.0" fill="#f9923a" opacity="0.9"/><circle cx="499.7" cy="326.3" r="5.0" fill="#60a5fa" opacity="0.9"/><circle cx="497.9" cy="324.7" r="4.0" fill="#f9923a" opacity="0.9"/><circle cx="491.0" cy="317.9" r="4.0" fill="#f9923a" opacity="0.9"/><circle cx="484.4" cy="302.4" r="4.0" fill="#f9923a" opacity="0.9"/><circle cx="288.0" cy="306.1" r="5.0" fill="#60a5fa" opacity="0.9"/><circle cx="268.4" cy="291.2" r="4.0" fill="#f9923a" opacity="0.9"/><circle cx="246.5" cy="279.5" r="4.0" fill="#f9923a" opacity="0.9"/><circle cx="225.8" cy="269.3" r="4.0" fill="#f9923a" opacity="0.9"/><circle cx="537.4" cy="319.3" r="5.0" fill="#60a5fa" opacity="0.9"/><circle cx="556.8" cy="304.4" r="4.0" fill="#f9923a" opacity="0.9"/><circle cx="406.3" cy="255.8" r="4.0" fill="#f9923a" opacity="0.9"/><circle cx="423.6" cy="238.5" r="4.0" fill="#f9923a" opacity="0.9"/><circle cx="356.3" cy="222.5" r="5.0" fill="#60a5fa" opacity="0.9"/><circle cx="375.2" cy="235.0" r="4.0" fill="#f9923a" opacity="0.9"/><circle cx="389.0" cy="251.5" r="4.0" fill="#f9923a" opacity="0.9"/><circle cx="394.9" cy="270.2" r="4.0" fill="#f9923a" opacity="0.9"/><circle cx="266.9" cy="313.1" r="5.0" fill="#60a5fa" opacity="0.9"/><circle cx="246.9" cy="298.5" r="4.0" fill="#f9923a" opacity="0.9"/><circle cx="223.5" cy="290.0" r="4.0" fill="#f9923a" opacity="0.9"/><circle cx="490.4" cy="339.3" r="4.0" fill="#f9923a" opacity="0.9"/><circle cx="232.9" cy="331.2" r="5.0" fill="#60a5fa" opacity="0.9"/><circle cx="227.9" cy="306.9" r="4.0" fill="#f9923a" opacity="0.9"/><circle cx="216.0" cy="285.2" r="4.0" fill="#f9923a" opacity="0.9"/><circle cx="493.9" cy="315.2" r="4.0" fill="#f9923a" opacity="0.9"/><circle cx="472.1" cy="266.0" r="5.0" fill="#60a5fa" opacity="0.9"/><circle cx="486.9" cy="282.0" r="4.0" fill="#f9923a" opacity="0.9"/><circle cx="499.3" cy="297.5" r="4.0" fill="#f9923a" opacity="0.9"/><circle cx="215.7" cy="267.7" r="4.0" fill="#f9923a" opacity="0.9"/><circle cx="274.6" cy="215.7" r="5.0" fill="#60a5fa" opacity="0.9"/><circle cx="256.0" cy="231.5" r="4.0" fill="#f9923a" opacity="0.9"/><circle cx="237.7" cy="247.4" r="4.0" fill="#f9923a" opacity="0.9"/><circle cx="509.9" cy="311.5" r="4.0" fill="#f9923a" opacity="0.9"/><circle cx="516.6" cy="341.8" r="5.0" fill="#60a5fa" opacity="0.9"/><circle cx="521.8" cy="327.3" r="4.0" fill="#f9923a" opacity="0.9"/><circle cx="242.4" cy="262.3" r="4.0" fill="#f9923a" opacity="0.9"/><circle cx="260.5" cy="250.6" r="4.0" fill="#f9923a" opacity="0.9"/><circle cx="485.3" cy="266.2" r="5.0" fill="#60a5fa" opacity="0.9"/><circle cx="495.3" cy="289.1" r="4.0" fill="#f9923a" opacity="0.9"/><circle cx="222.0" cy="257.0" r="4.0" fill="#f9923a" opacity="0.9"/><circle cx="245.4" cy="265.5" r="4.0" fill="#f9923a" opacity="0.9"/><circle cx="415.8" cy="161.1" r="5.0" fill="#60a5fa" opacity="0.9"/><circle cx="421.5" cy="185.0" r="4.0" fill="#f9923a" opacity="0.9"/><circle cx="421.7" cy="209.3" r="4.0" fill="#f9923a" opacity="0.9"/><circle cx="415.2" cy="232.6" r="4.0" fill="#f9923a" opacity="0.9"/><circle cx="313.9" cy="215.2" r="5.0" fill="#60a5fa" opacity="0.9"/><circle cx="290.3" cy="208.8" r="4.0" fill="#f9923a" opacity="0.9"/><circle cx="440.8" cy="248.7" r="4.0" fill="#f9923a" opacity="0.9"/><circle cx="423.3" cy="255.4" r="4.0" fill="#f9923a" opacity="0.9"/><circle cx="359.7" cy="219.9" r="5.0" fill="#60a5fa" opacity="0.9"/><circle cx="380.3" cy="225.9" r="4.0" fill="#f9923a" opacity="0.9"/><circle cx="401.0" cy="238.5" r="4.0" fill="#f9923a" opacity="0.9"/><circle cx="245.0" cy="217.8" r="4.0" fill="#f9923a" opacity="0.9"/><circle cx="208.9" cy="241.5" r="5.0" fill="#60a5fa" opacity="0.9"/><circle cx="198.4" cy="248.3" r="4.0" fill="#f9923a" opacity="0.9"/><circle cx="477.7" cy="300.8" r="4.0" fill="#f9923a" opacity="0.9"/><circle cx="466.1" cy="306.2" r="4.0" fill="#f9923a" opacity="0.9"/><circle cx="178.5" cy="313.8" r="5.0" fill="#60a5fa" opacity="0.9"/><circle cx="185.6" cy="291.9" r="4.0" fill="#f9923a" opacity="0.9"/><circle cx="190.2" cy="267.3" r="4.0" fill="#f9923a" opacity="0.9"/><circle cx="200.7" cy="247.2" r="4.0" fill="#f9923a" opacity="0.9"/><circle cx="348.7" cy="223.0" r="5.0" fill="#60a5fa" opacity="0.9"/><circle cx="372.7" cy="221.0" r="4.0" fill="#f9923a" opacity="0.9"/><circle cx="395.1" cy="219.3" r="4.0" fill="#f9923a" opacity="0.9"/><circle cx="412.8" cy="216.3" r="4.0" fill="#f9923a" opacity="0.9"/><circle cx="475.7" cy="194.3" r="5.0" fill="#60a5fa" opacity="0.9"/><circle cx="454.9" cy="206.7" r="4.0" fill="#f9923a" opacity="0.9"/><circle cx="432.0" cy="216.2" r="4.0" fill="#f9923a" opacity="0.9"/><circle cx="409.8" cy="222.3" r="4.0" fill="#f9923a" opacity="0.9"/><circle cx="434.8" cy="296.0" r="5.0" fill="#60a5fa" opacity="0.9"/><circle cx="433.1" cy="271.8" r="4.0" fill="#f9923a" opacity="0.9"/><circle cx="429.5" cy="247.2" r="4.0" fill="#f9923a" opacity="0.9"/><circle cx="431.5" cy="223.2" r="4.0" fill="#f9923a" opacity="0.9"/><circle cx="444.8" cy="265.3" r="5.0" fill="#60a5fa" opacity="0.9"/><circle cx="437.9" cy="260.3" r="4.0" fill="#f9923a" opacity="0.9"/><circle cx="428.3" cy="259.8" r="4.0" fill="#f9923a" opacity="0.9"/><circle cx="412.9" cy="256.4" r="4.0" fill="#f9923a" opacity="0.9"/><circle cx="387.1" cy="263.7" r="5.0" fill="#60a5fa" opacity="0.9"/><circle cx="389.1" cy="254.1" r="4.0" fill="#f9923a" opacity="0.9"/><circle cx="382.8" cy="242.1" r="4.0" fill="#f9923a" opacity="0.9"/><circle cx="369.4" cy="235.6" r="4.0" fill="#f9923a" opacity="0.9"/><circle cx="190.6" cy="325.0" r="5.0" fill="#60a5fa" opacity="0.9"/><circle cx="488.1" cy="360.4" r="4.0" fill="#f9923a" opacity="0.9"/><circle cx="495.1" cy="352.6" r="4.0" fill="#f9923a" opacity="0.9"/><circle cx="508.3" cy="341.9" r="4.0" fill="#f9923a" opacity="0.9"/><circle cx="456.9" cy="183.0" r="5.0" fill="#60a5fa" opacity="0.9"/><circle cx="446.0" cy="203.9" r="4.0" fill="#f9923a" opacity="0.9"/><circle cx="440.8" cy="227.8" r="4.0" fill="#f9923a" opacity="0.9"/><circle cx="260.0" cy="211.7" r="4.0" fill="#f9923a" opacity="0.9"/><circle cx="410.4" cy="264.0" r="5.0" fill="#60a5fa" opacity="0.9"/><circle cx="410.4" cy="255.7" r="4.0" fill="#f9923a" opacity="0.9"/><circle cx="413.2" cy="255.2" r="4.0" fill="#f9923a" opacity="0.9"/><circle cx="411.9" cy="246.2" r="4.0" fill="#f9923a" opacity="0.9"/><circle cx="407.7" cy="270.1" r="5.0" fill="#60a5fa" opacity="0.9"/><circle cx="415.0" cy="254.4" r="4.0" fill="#f9923a" opacity="0.9"/><circle cx="422.6" cy="234.5" r="4.0" fill="#f9923a" opacity="0.9"/><circle cx="430.6" cy="215.1" r="4.0" fill="#f9923a" opacity="0.9"/><circle cx="389.4" cy="188.4" r="5.0" fill="#60a5fa" opacity="0.9"/><circle cx="402.5" cy="207.8" r="4.0" fill="#f9923a" opacity="0.9"/><circle cx="421.3" cy="222.6" r="4.0" fill="#f9923a" opacity="0.9"/><circle cx="434.9" cy="237.2" r="4.0" fill="#f9923a" opacity="0.9"/><circle cx="366.4" cy="199.2" r="5.0" fill="#60a5fa" opacity="0.9"/><circle cx="384.4" cy="213.4" r="4.0" fill="#f9923a" opacity="0.9"/><circle cx="400.2" cy="232.9" r="4.0" fill="#f9923a" opacity="0.9"/><circle cx="408.1" cy="255.8" r="4.0" fill="#f9923a" opacity="0.9"/><circle cx="488.0" cy="206.2" r="5.0" fill="#60a5fa" opacity="0.9"/><circle cx="469.4" cy="218.1" r="4.0" fill="#f9923a" opacity="0.9"/><circle cx="455.8" cy="227.6" r="4.0" fill="#f9923a" opacity="0.9"/><circle cx="440.5" cy="228.6" r="4.0" fill="#f9923a" opacity="0.9"/><circle cx="407.4" cy="306.3" r="5.0" fill="#60a5fa" opacity="0.9"/><circle cx="408.4" cy="281.9" r="4.0" fill="#f9923a" opacity="0.9"/><circle cx="408.7" cy="257.1" r="4.0" fill="#f9923a" opacity="0.9"/><circle cx="398.0" cy="234.6" r="4.0" fill="#f9923a" opacity="0.9"/><circle cx="289.1" cy="278.7" r="5.0" fill="#60a5fa" opacity="0.9"/><circle cx="266.1" cy="269.9" r="4.0" fill="#f9923a" opacity="0.9"/><circle cx="245.5" cy="256.1" r="4.0" fill="#f9923a" opacity="0.9"/><circle cx="229.8" cy="236.8" r="4.0" fill="#f9923a" opacity="0.9"/><circle cx="480.0" cy="268.4" r="5.0" fill="#60a5fa" opacity="0.9"/><circle cx="463.9" cy="264.3" r="4.0" fill="#f9923a" opacity="0.9"/><circle cx="450.4" cy="262.2" r="4.0" fill="#f9923a" opacity="0.9"/><circle cx="439.3" cy="260.2" r="4.0" fill="#f9923a" opacity="0.9"/><circle cx="433.4" cy="178.9" r="5.0" fill="#60a5fa" opacity="0.9"/><circle cx="427.1" cy="200.0" r="4.0" fill="#f9923a" opacity="0.9"/><circle cx="416.7" cy="217.3" r="4.0" fill="#f9923a" opacity="0.9"/><circle cx="404.7" cy="234.3" r="4.0" fill="#f9923a" opacity="0.9"/><circle cx="461.5" cy="285.1" r="5.0" fill="#60a5fa" opacity="0.9"/><circle cx="455.2" cy="266.5" r="4.0" fill="#f9923a" opacity="0.9"/><circle cx="450.9" cy="244.1" r="4.0" fill="#f9923a" opacity="0.9"/><circle cx="454.2" cy="220.2" r="4.0" fill="#f9923a" opacity="0.9"/><circle cx="349.5" cy="261.6" r="5.0" fill="#60a5fa" opacity="0.9"/><circle cx="372.1" cy="256.3" r="4.0" fill="#f9923a" opacity="0.9"/><circle cx="391.6" cy="248.9" r="4.0" fill="#f9923a" opacity="0.9"/><circle cx="407.8" cy="236.8" r="4.0" fill="#f9923a" opacity="0.9"/><circle cx="455.0" cy="191.2" r="5.0" fill="#60a5fa" opacity="0.9"/><circle cx="439.1" cy="208.6" r="4.0" fill="#f9923a" opacity="0.9"/><circle cx="422.4" cy="220.8" r="4.0" fill="#f9923a" opacity="0.9"/><circle cx="400.5" cy="230.5" r="4.0" fill="#f9923a" opacity="0.9"/><circle cx="413.2" cy="199.1" r="5.0" fill="#60a5fa" opacity="0.9"/><circle cx="419.9" cy="214.6" r="4.0" fill="#f9923a" opacity="0.9"/><circle cx="431.0" cy="228.8" r="4.0" fill="#f9923a" opacity="0.9"/><circle cx="435.7" cy="239.4" r="4.0" fill="#f9923a" opacity="0.9"/><circle cx="264.3" cy="258.2" r="5.0" fill="#60a5fa" opacity="0.9"/><circle cx="246.5" cy="262.3" r="4.0" fill="#f9923a" opacity="0.9"/><circle cx="227.5" cy="268.2" r="4.0" fill="#f9923a" opacity="0.9"/><circle cx="502.2" cy="324.3" r="4.0" fill="#f9923a" opacity="0.9"/><circle cx="466.6" cy="232.1" r="5.0" fill="#60a5fa" opacity="0.9"/><circle cx="452.5" cy="233.8" r="4.0" fill="#f9923a" opacity="0.9"/><circle cx="443.4" cy="244.8" r="4.0" fill="#f9923a" opacity="0.9"/><circle cx="265.4" cy="224.5" r="4.0" fill="#f9923a" opacity="0.9"/><circle cx="241.4" cy="301.6" r="5.0" fill="#60a5fa" opacity="0.9"/><circle cx="231.5" cy="290.9" r="4.0" fill="#f9923a" opacity="0.9"/><circle cx="219.4" cy="278.2" r="4.0" fill="#f9923a" opacity="0.9"/><circle cx="499.4" cy="311.3" r="4.0" fill="#f9923a" opacity="0.9"/><text x="16" y="26" fill="#e2e8f0" font-family="monospace" font-size="15">SELF-ASSEMBLED from disorder, t=12k, corrected metrics</text><text x="16" y="448" fill="#e2e8f0" font-family="monospace" font-size="13">align 0.083   (planted bilayer 1.00, micelle 0.09, random 0.08)</text><text x="16" y="467" fill="#94a3b8" font-family="monospace" font-size="12">hollow 43.54 (vesicle 0.0, micelle 14.6)   lamellar 0.725 (ANTI-discriminates: micelle scores higher)</text><text x="16" y="486" fill="#64748b" font-family="monospace" font-size="12">bond 1.01   167/231 lipids in cluster   ADMISSIBLE</text></svg>