<svg xmlns="http://www.w3.org/2000/svg" width="720" height="520"><rect width="720" height="520" fill="#0b0e13"/><circle cx="285.1" cy="179.5" r="2.2" fill="#38bdf8" opacity="0.35"/><circle cx="281.1" cy="169.7" r="2.2" fill="#38bdf8" opacity="0.35"/><circle cx="371.6" cy="240.8" r="2.2" fill="#38bdf8" opacity="0.35"/><circle cx="279.2" cy="176.7" r="2.2" fill="#38bdf8" opacity="0.35"/><circle cx="367.2" cy="246.1" r="2.2" fill="#38bdf8" opacity="0.35"/><circle cx="285.1" cy="168.8" r="2.2" fill="#38bdf8" opacity="0.35"/><circle cx="367.7" cy="229.6" r="2.2" fill="#38bdf8" opacity="0.35"/><circle cx="374.2" cy="244.9" r="2.2" fill="#38bdf8" opacity="0.35"/><circle cx="283.2" cy="171.2" r="2.2" fill="#38bdf8" opacity="0.35"/><circle cx="361.9" cy="235.8" r="2.2" fill="#38bdf8" opacity="0.35"/><circle cx="359.7" cy="240.4" r="2.2" fill="#38bdf8" opacity="0.35"/><circle cx="356.6" cy="238.6" r="2.2" fill="#38bdf8" opacity="0.35"/><circle cx="278.4" cy="179.8" r="2.2" fill="#38bdf8" opacity="0.35"/><circle cx="392.3" cy="310.5" r="2.2" fill="#38bdf8" opacity="0.35"/><circle cx="360.5" cy="238.2" r="2.2" fill="#38bdf8" opacity="0.35"/><circle cx="371.9" cy="231.6" r="2.2" fill="#38bdf8" opacity="0.35"/><circle cx="378.1" cy="239.7" r="2.2" fill="#38bdf8" opacity="0.35"/><circle cx="283.4" cy="192.1" r="2.2" fill="#38bdf8" opacity="0.35"/><circle cx="411.1" cy="319.3" r="2.2" fill="#38bdf8" opacity="0.35"/><circle cx="281.5" cy="184.5" r="2.2" fill="#38bdf8" opacity="0.35"/><circle cx="380.9" cy="239.3" r="2.2" fill="#38bdf8" opacity="0.35"/><circle cx="368.8" cy="246.4" r="2.2" fill="#38bdf8" opacity="0.35"/><circle cx="284.6" cy="174.3" r="2.2" fill="#38bdf8" opacity="0.35"/><circle cx="293.7" cy="178.9" r="2.2" fill="#38bdf8" opacity="0.35"/><circle cx="366.9" cy="231.3" r="2.2" fill="#38bdf8" opacity="0.35"/><circle cx="364.9" cy="224.7" r="2.2" fill="#38bdf8" opacity="0.35"/><circle cx="282.4" cy="174.0" r="2.2" fill="#38bdf8" opacity="0.35"/><circle cx="388.3" cy="310.6" r="2.2" fill="#38bdf8" opacity="0.35"/><circle cx="376.1" cy="244.3" r="2.2" fill="#38bdf8" opacity="0.35"/><circle cx="374.8" cy="247.3" r="2.2" fill="#38bdf8" opacity="0.35"/><circle cx="364.8" cy="230.1" r="2.2" fill="#38bdf8" opacity="0.35"/><circle cx="273.1" cy="182.5" r="2.2" fill="#38bdf8" opacity="0.35"/><circle cx="276.6" cy="172.5" r="2.2" fill="#38bdf8" opacity="0.35"/><circle cx="405.7" cy="316.8" r="2.2" fill="#38bdf8" opacity="0.35"/><circle cx="358.5" cy="238.3" r="2.2" fill="#38bdf8" opacity="0.35"/><circle cx="361.3" cy="229.0" r="2.2" fill="#38bdf8" opacity="0.35"/><circle cx="378.7" cy="233.4" r="2.2" fill="#38bdf8" opacity="0.35"/><circle cx="274.9" cy="191.6" r="2.2" fill="#38bdf8" opacity="0.35"/><circle cx="288.0" cy="167.8" r="2.2" fill="#38bdf8" opacity="0.35"/><circle cx="389.5" cy="323.5" r="2.2" fill="#38bdf8" opacity="0.35"/><circle cx="280.1" cy="178.6" r="2.2" fill="#38bdf8" opacity="0.35"/><circle cx="373.0" cy="227.0" r="2.2" fill="#38bdf8" opacity="0.35"/><circle cx="377.3" cy="235.1" r="2.2" fill="#38bdf8" opacity="0.35"/><circle cx="278.8" cy="171.3" r="2.2" fill="#38bdf8" opacity="0.35"/><circle cx="369.4" cy="231.5" r="2.2" fill="#38bdf8" opacity="0.35"/><circle cx="273.0" cy="180.1" r="2.2" fill="#38bdf8" opacity="0.35"/><circle cx="361.6" cy="242.7" r="2.2" fill="#38bdf8" opacity="0.35"/><circle cx="382.6" cy="246.3" r="2.2" fill="#38bdf8" opacity="0.35"/><circle cx="393.7" cy="317.0" r="2.2" fill="#38bdf8" opacity="0.35"/><circle cx="366.5" cy="247.9" r="2.2" fill="#38bdf8" opacity="0.35"/><circle cx="396.9" cy="324.3" r="2.2" fill="#38bdf8" opacity="0.35"/><circle cx="377.7" cy="230.9" r="2.2" fill="#38bdf8" opacity="0.35"/><circle cx="371.6" cy="237.5" r="2.2" fill="#38bdf8" opacity="0.35"/><circle cx="280.5" cy="175.1" r="2.2" fill="#38bdf8" opacity="0.35"/><circle cx="287.6" cy="175.7" r="2.2" fill="#38bdf8" opacity="0.35"/><circle cx="354.7" cy="235.3" r="2.2" fill="#38bdf8" opacity="0.35"/><circle cx="404.3" cy="324.9" r="2.2" fill="#38bdf8" opacity="0.35"/><circle cx="401.4" cy="316.7" r="2.2" fill="#38bdf8" opacity="0.35"/><circle cx="399.0" cy="329.9" r="2.2" fill="#38bdf8" opacity="0.35"/><circle cx="284.3" cy="176.2" r="2.2" fill="#38bdf8" opacity="0.35"/><circle cx="371.2" cy="239.2" r="2.2" fill="#38bdf8" opacity="0.35"/><circle cx="275.0" cy="188.4" r="2.2" fill="#38bdf8" opacity="0.35"/><circle cx="368.0" cy="238.0" r="2.2" fill="#38bdf8" opacity="0.35"/><circle cx="397.1" cy="313.9" r="2.2" fill="#38bdf8" opacity="0.35"/><circle cx="401.4" cy="324.0" r="2.2" fill="#38bdf8" opacity="0.35"/><circle cx="366.7" cy="242.1" r="2.2" fill="#38bdf8" opacity="0.35"/><circle cx="406.7" cy="330.4" r="2.2" fill="#38bdf8" opacity="0.35"/><circle cx="400.1" cy="307.6" r="2.2" fill="#38bdf8" opacity="0.35"/><circle cx="380.3" cy="248.3" r="2.2" fill="#38bdf8" opacity="0.35"/><circle cx="372.3" cy="252.0" r="2.2" fill="#38bdf8" opacity="0.35"/><circle cx="281.9" cy="176.6" r="2.2" fill="#38bdf8" opacity="0.35"/><circle cx="394.0" cy="313.5" r="2.2" fill="#38bdf8" opacity="0.35"/><circle cx="286.8" cy="186.2" r="2.2" fill="#38bdf8" opacity="0.35"/><circle cx="362.4" cy="248.1" r="2.2" fill="#38bdf8" opacity="0.35"/><circle cx="370.4" cy="250.1" r="2.2" fill="#38bdf8" opacity="0.35"/><circle cx="278.8" cy="190.2" r="2.2" fill="#38bdf8" opacity="0.35"/><circle cx="354.5" cy="232.2" r="2.2" fill="#38bdf8" opacity="0.35"/><circle cx="370.1" cy="242.1" r="2.2" fill="#38bdf8" opacity="0.35"/><circle cx="373.1" cy="233.0" r="2.2" fill="#38bdf8" opacity="0.35"/><circle cx="365.2" cy="236.0" r="2.2" fill="#38bdf8" opacity="0.35"/><circle cx="385.8" cy="322.7" r="2.2" fill="#38bdf8" opacity="0.35"/><circle cx="361.5" cy="240.8" r="2.2" fill="#38bdf8" opacity="0.35"/><circle cx="275.7" cy="184.9" r="2.2" fill="#38bdf8" opacity="0.35"/><circle cx="289.4" cy="184.0" r="2.2" fill="#38bdf8" opacity="0.35"/><circle cx="377.7" cy="243.0" r="2.2" fill="#38bdf8" opacity="0.35"/><circle cx="393.0" cy="325.2" r="2.2" fill="#38bdf8" opacity="0.35"/><circle cx="363.5" cy="236.5" r="2.2" fill="#38bdf8" opacity="0.35"/><circle cx="365.4" cy="239.9" r="2.2" fill="#38bdf8" opacity="0.35"/><circle cx="368.6" cy="234.5" r="2.2" fill="#38bdf8" opacity="0.35"/><circle cx="379.2" cy="251.4" r="2.2" fill="#38bdf8" opacity="0.35"/><circle cx="295.2" cy="172.1" r="2.2" fill="#38bdf8" opacity="0.35"/><circle cx="409.5" cy="315.2" r="2.2" fill="#38bdf8" opacity="0.35"/><circle cx="383.1" cy="234.0" r="2.2" fill="#38bdf8" opacity="0.35"/><circle cx="368.8" cy="236.3" r="2.2" fill="#38bdf8" opacity="0.35"/><circle cx="403.2" cy="318.9" r="2.2" fill="#38bdf8" opacity="0.35"/><circle cx="277.9" cy="183.6" r="2.2" fill="#38bdf8" opacity="0.35"/><circle cx="280.8" cy="172.4" r="2.2" fill="#38bdf8" opacity="0.35"/><circle cx="374.2" cy="237.0" r="2.2" fill="#38bdf8" opacity="0.35"/><circle cx="269.2" cy="185.2" r="2.2" fill="#38bdf8" opacity="0.35"/><circle cx="363.6" cy="243.8" r="2.2" fill="#38bdf8" opacity="0.35"/><circle cx="284.9" cy="188.5" r="2.2" fill="#38bdf8" opacity="0.35"/><circle cx="411.8" cy="311.1" r="2.2" fill="#38bdf8" opacity="0.35"/><circle cx="284.8" cy="165.8" r="2.2" fill="#38bdf8" opacity="0.35"/><circle cx="270.9" cy="188.4" r="2.2" fill="#38bdf8" opacity="0.35"/><circle cx="297.1" cy="179.6" r="2.2" fill="#38bdf8" opacity="0.35"/><circle cx="376.1" cy="236.5" r="2.2" fill="#38bdf8" opacity="0.35"/><circle cx="379.0" cy="237.1" r="2.2" fill="#38bdf8" opacity="0.35"/><circle cx="374.2" cy="254.3" r="2.2" fill="#38bdf8" opacity="0.35"/><circle cx="396.2" cy="321.8" r="2.2" fill="#38bdf8" opacity="0.35"/><circle cx="371.1" cy="243.5" r="2.2" fill="#38bdf8" opacity="0.35"/><circle cx="367.7" cy="240.0" r="2.2" fill="#38bdf8" opacity="0.35"/><circle cx="272.5" cy="177.3" r="2.2" fill="#38bdf8" opacity="0.35"/><circle cx="406.5" cy="306.8" r="2.2" fill="#38bdf8" opacity="0.35"/><circle cx="399.8" cy="326.2" r="2.2" fill="#38bdf8" opacity="0.35"/><circle cx="362.4" cy="232.7" r="2.2" fill="#38bdf8" opacity="0.35"/><circle cx="363.9" cy="227.6" r="2.2" fill="#38bdf8" opacity="0.35"/><circle cx="370.8" cy="233.3" r="2.2" fill="#38bdf8" opacity="0.35"/><circle cx="288.9" cy="178.2" r="2.2" fill="#38bdf8" opacity="0.35"/><circle cx="281.5" cy="186.9" r="2.2" fill="#38bdf8" opacity="0.35"/><circle cx="279.2" cy="185.5" r="2.2" fill="#38bdf8" opacity="0.35"/><circle cx="399.0" cy="319.4" r="2.2" fill="#38bdf8" opacity="0.35"/><circle cx="373.1" cy="247.0" r="2.2" fill="#38bdf8" opacity="0.35"/><circle cx="369.4" cy="244.5" r="2.2" fill="#38bdf8" opacity="0.35"/><circle cx="276.3" cy="175.3" r="2.2" fill="#38bdf8" opacity="0.35"/><circle cx="379.3" cy="241.3" r="2.2" fill="#38bdf8" opacity="0.35"/><circle cx="396.0" cy="309.3" r="2.2" fill="#38bdf8" opacity="0.35"/><circle cx="371.7" cy="229.3" r="2.2" fill="#38bdf8" opacity="0.35"/><circle cx="279.3" cy="181.8" r="2.2" fill="#38bdf8" opacity="0.35"/><circle cx="296.2" cy="175.5" r="2.2" fill="#38bdf8" opacity="0.35"/><circle cx="278.5" cy="174.0" r="2.2" fill="#38bdf8" opacity="0.35"/><circle cx="293.5" cy="169.0" r="2.2" fill="#38bdf8" opacity="0.35"/><circle cx="283.4" cy="181.3" r="2.2" fill="#38bdf8" opacity="0.35"/><circle cx="283.4" cy="178.3" r="2.2" fill="#38bdf8" opacity="0.35"/><circle cx="289.2" cy="181.2" r="2.2" fill="#38bdf8" opacity="0.35"/><circle cx="376.3" cy="252.5" r="2.2" fill="#38bdf8" opacity="0.35"/><circle cx="375.5" cy="231.9" r="2.2" fill="#38bdf8" opacity="0.35"/><circle cx="371.8" cy="224.6" r="2.2" fill="#38bdf8" opacity="0.35"/><circle cx="377.0" cy="248.9" r="2.2" fill="#38bdf8" opacity="0.35"/><circle cx="375.5" cy="239.9" r="2.2" fill="#38bdf8" opacity="0.35"/><circle cx="292.3" cy="173.7" r="2.2" fill="#38bdf8" opacity="0.35"/><circle cx="393.0" cy="321.6" r="2.2" fill="#38bdf8" opacity="0.35"/><circle cx="359.9" cy="231.6" r="2.2" fill="#38bdf8" opacity="0.35"/><circle cx="295.3" cy="182.7" r="2.2" fill="#38bdf8" opacity="0.35"/><circle cx="286.2" cy="177.5" r="2.2" fill="#38bdf8" opacity="0.35"/><circle cx="369.6" cy="239.9" r="2.2" fill="#38bdf8" opacity="0.35"/><circle cx="365.2" cy="232.4" r="2.2" fill="#38bdf8" opacity="0.35"/><circle cx="399.4" cy="311.0" r="2.2" fill="#38bdf8" opacity="0.35"/><circle cx="379.3" cy="245.0" r="2.2" fill="#38bdf8" opacity="0.35"/><circle cx="284.2" cy="185.8" r="2.2" fill="#38bdf8" opacity="0.35"/><circle cx="289.1" cy="172.7" r="2.2" fill="#38bdf8" opacity="0.35"/><circle cx="373.4" cy="235.1" r="2.2" fill="#38bdf8" opacity="0.35"/><circle cx="368.8" cy="248.7" r="2.2" fill="#38bdf8" opacity="0.35"/><circle cx="273.0" cy="172.3" r="2.2" fill="#38bdf8" opacity="0.35"/><circle cx="384.0" cy="238.1" r="2.2" fill="#38bdf8" opacity="0.35"/><circle cx="376.2" cy="241.6" r="2.2" fill="#38bdf8" opacity="0.35"/><circle cx="362.5" cy="238.2" r="2.2" fill="#38bdf8" opacity="0.35"/><circle cx="281.2" cy="182.2" r="2.2" fill="#38bdf8" opacity="0.35"/><circle cx="275.8" cy="181.8" r="2.2" fill="#38bdf8" opacity="0.35"/><circle cx="271.2" cy="175.1" r="2.2" fill="#38bdf8" opacity="0.35"/><circle cx="288.0" cy="164.1" r="2.2" fill="#38bdf8" opacity="0.35"/><circle cx="407.2" cy="322.3" r="2.2" fill="#38bdf8" opacity="0.35"/><circle cx="380.9" cy="231.4" r="2.2" fill="#38bdf8" opacity="0.35"/><circle cx="287.3" cy="170.5" r="2.2" fill="#38bdf8" opacity="0.35"/><circle cx="281.8" cy="189.4" r="2.2" fill="#38bdf8" opacity="0.35"/><circle cx="375.9" cy="225.2" r="2.2" fill="#38bdf8" opacity="0.35"/><circle cx="361.1" cy="246.4" r="2.2" fill="#38bdf8" opacity="0.35"/><circle cx="366.0" cy="234.3" r="2.2" fill="#38bdf8" opacity="0.35"/><circle cx="362.7" cy="230.9" r="2.2" fill="#38bdf8" opacity="0.35"/><circle cx="414.4" cy="323.8" r="2.2" fill="#38bdf8" opacity="0.35"/><circle cx="365.2" cy="241.5" r="2.2" fill="#38bdf8" opacity="0.35"/><circle cx="390.6" cy="319.0" r="2.2" fill="#38bdf8" opacity="0.35"/><circle cx="414.4" cy="316.8" r="2.2" fill="#38bdf8" opacity="0.35"/><circle cx="290.6" cy="170.7" r="2.2" fill="#38bdf8" opacity="0.35"/><circle cx="360.5" cy="234.1" r="2.2" fill="#38bdf8" opacity="0.35"/><circle cx="273.0" cy="185.2" r="2.2" fill="#38bdf8" opacity="0.35"/><circle cx="368.5" cy="241.8" r="2.2" fill="#38bdf8" opacity="0.35"/><circle cx="381.3" cy="242.8" r="2.2" fill="#38bdf8" opacity="0.35"/><circle cx="276.4" cy="179.7" r="2.2" fill="#38bdf8" opacity="0.35"/><circle cx="368.8" cy="226.5" r="2.2" fill="#38bdf8" opacity="0.35"/><circle cx="270.3" cy="181.8" r="2.2" fill="#38bdf8" opacity="0.35"/><circle cx="369.9" cy="228.8" r="2.2" fill="#38bdf8" opacity="0.35"/><circle cx="373.4" cy="238.9" r="2.2" fill="#38bdf8" opacity="0.35"/><circle cx="369.8" cy="237.8" r="2.2" fill="#38bdf8" opacity="0.35"/><circle cx="285.1" cy="171.9" r="2.2" fill="#38bdf8" opacity="0.35"/><circle cx="274.6" cy="178.0" r="2.2" fill="#38bdf8" opacity="0.35"/><circle cx="363.6" cy="234.1" r="2.2" fill="#38bdf8" opacity="0.35"/><circle cx="372.6" cy="242.6" r="2.2" fill="#38bdf8" opacity="0.35"/><circle cx="368.0" cy="232.9" r="2.2" fill="#38bdf8" opacity="0.35"/><circle cx="356.9" cy="235.9" r="2.2" fill="#38bdf8" opacity="0.35"/><circle cx="379.5" cy="228.1" r="2.2" fill="#38bdf8" opacity="0.35"/><circle cx="365.3" cy="243.7" r="2.2" fill="#38bdf8" opacity="0.35"/><circle cx="364.7" cy="238.3" r="2.2" fill="#38bdf8" opacity="0.35"/><circle cx="357.1" cy="230.5" r="2.2" fill="#38bdf8" opacity="0.35"/><circle cx="381.0" cy="235.9" r="2.2" fill="#38bdf8" opacity="0.35"/><circle cx="287.0" cy="173.6" r="2.2" fill="#38bdf8" opacity="0.35"/><circle cx="366.3" cy="227.5" r="2.2" fill="#38bdf8" opacity="0.35"/><circle cx="396.0" cy="318.7" r="2.2" fill="#38bdf8" opacity="0.35"/><circle cx="372.0" cy="245.5" r="2.2" fill="#38bdf8" opacity="0.35"/><circle cx="407.2" cy="326.3" r="2.2" fill="#38bdf8" opacity="0.35"/><circle cx="281.5" cy="179.7" r="2.2" fill="#38bdf8" opacity="0.35"/><circle cx="410.3" cy="323.8" r="2.2" fill="#38bdf8" opacity="0.35"/><circle cx="368.0" cy="243.4" r="2.2" fill="#38bdf8" opacity="0.35"/><circle cx="359.6" cy="236.2" r="2.2" fill="#38bdf8" opacity="0.35"/><circle cx="291.1" cy="166.2" r="2.2" fill="#38bdf8" opacity="0.35"/><circle cx="407.4" cy="311.7" r="2.2" fill="#38bdf8" opacity="0.35"/><circle cx="285.7" cy="182.0" r="2.2" fill="#38bdf8" opacity="0.35"/><circle cx="366.2" cy="244.9" r="2.2" fill="#38bdf8" opacity="0.35"/><circle cx="376.1" cy="228.5" r="2.2" fill="#38bdf8" opacity="0.35"/><circle cx="370.5" cy="246.9" r="2.2" fill="#38bdf8" opacity="0.35"/><circle cx="404.7" cy="314.1" r="2.2" fill="#38bdf8" opacity="0.35"/><circle cx="289.5" cy="190.1" r="2.2" fill="#38bdf8" opacity="0.35"/><circle cx="277.1" cy="177.3" r="2.2" fill="#38bdf8" opacity="0.35"/><circle cx="371.7" cy="248.8" r="2.2" fill="#38bdf8" opacity="0.35"/><circle cx="377.1" cy="246.6" r="2.2" fill="#38bdf8" opacity="0.35"/><circle cx="372.0" cy="236.1" r="2.2" fill="#38bdf8" opacity="0.35"/><circle cx="287.2" cy="183.6" r="2.2" fill="#38bdf8" opacity="0.35"/><circle cx="292.3" cy="186.3" r="2.2" fill="#38bdf8" opacity="0.35"/><circle cx="366.9" cy="235.9" r="2.2" fill="#38bdf8" opacity="0.35"/><circle cx="366.3" cy="238.0" r="2.2" fill="#38bdf8" opacity="0.35"/><circle cx="396.0" cy="327.5" r="2.2" fill="#38bdf8" opacity="0.35"/><circle cx="374.0" cy="230.1" r="2.2" fill="#38bdf8" opacity="0.35"/><circle cx="277.7" cy="187.2" r="2.2" fill="#38bdf8" opacity="0.35"/><circle cx="292.1" cy="176.8" r="2.2" fill="#38bdf8" opacity="0.35"/><circle cx="284.0" cy="183.7" r="2.2" fill="#38bdf8" opacity="0.35"/><circle cx="373.7" cy="240.7" r="2.2" fill="#38bdf8" opacity="0.35"/><circle cx="370.5" cy="235.0" r="2.2" fill="#38bdf8" opacity="0.35"/><circle cx="374.2" cy="242.9" r="2.2" fill="#38bdf8" opacity="0.35"/><circle cx="384.0" cy="241.8" r="2.2" fill="#38bdf8" opacity="0.35"/><circle cx="403.6" cy="309.9" r="2.2" fill="#38bdf8" opacity="0.35"/><circle cx="404.0" cy="321.4" r="2.2" fill="#38bdf8" opacity="0.35"/><circle cx="407.6" cy="318.9" r="2.2" fill="#38bdf8" opacity="0.35"/><circle cx="289.9" cy="175.5" r="2.2" fill="#38bdf8" opacity="0.35"/><circle cx="274.2" cy="174.5" r="2.2" fill="#38bdf8" opacity="0.35"/><circle cx="401.5" cy="313.6" r="2.2" fill="#38bdf8" opacity="0.35"/><circle cx="398.3" cy="316.2" r="2.2" fill="#38bdf8" opacity="0.35"/><circle cx="282.8" cy="168.1" r="2.2" fill="#38bdf8" opacity="0.35"/><circle cx="400.2" cy="321.5" r="2.2" fill="#38bdf8" opacity="0.35"/><circle cx="360.5" cy="244.4" r="2.2" fill="#38bdf8" opacity="0.35"/><circle cx="375.2" cy="234.2" r="2.2" fill="#38bdf8" opacity="0.35"/><circle cx="363.4" cy="241.8" r="2.2" fill="#38bdf8" opacity="0.35"/><circle cx="363.1" cy="239.7" r="2.2" fill="#38bdf8" opacity="0.35"/><circle cx="287.1" cy="180.1" r="2.2" fill="#38bdf8" opacity="0.35"/><circle cx="358.0" cy="233.5" r="2.2" fill="#38bdf8" opacity="0.35"/><circle cx="374.2" cy="250.0" r="2.2" fill="#38bdf8" opacity="0.35"/><circle cx="292.1" cy="182.7" r="2.2" fill="#38bdf8" opacity="0.35"/><circle cx="291.2" cy="179.8" r="2.2" fill="#38bdf8" opacity="0.35"/><circle cx="386.1" cy="316.6" r="2.2" fill="#38bdf8" opacity="0.35"/><circle cx="376.4" cy="238.2" r="2.2" fill="#38bdf8" opacity="0.35"/><circle cx="358.2" cy="228.0" r="2.2" fill="#38bdf8" opacity="0.35"/><circle cx="390.2" cy="315.7" r="2.2" fill="#38bdf8" opacity="0.35"/><circle cx="384.8" cy="461.7" r="4.5" fill="#60a5fa" opacity="0.95"/><circle cx="390.2" cy="274.9" r="3.6" fill="#f9923a" opacity="0.95"/><circle cx="204.3" cy="278.1" r="3.6" fill="#f9923a" opacity="0.95"/><circle cx="362.1" cy="251.6" r="4.5" fill="#60a5fa" opacity="0.95"/><circle cx="355.4" cy="257.9" r="3.6" fill="#f9923a" opacity="0.95"/><circle cx="347.8" cy="262.5" r="3.6" fill="#f9923a" opacity="0.95"/><circle cx="358.7" cy="245.6" r="4.5" fill="#60a5fa" opacity="0.95"/><circle cx="353.7" cy="253.5" r="3.6" fill="#f9923a" opacity="0.95"/><circle cx="345.4" cy="257.0" r="3.6" fill="#f9923a" opacity="0.95"/><circle cx="393.5" cy="304.4" r="4.5" fill="#60a5fa" opacity="0.95"/><circle cx="392.7" cy="295.3" r="3.6" fill="#f9923a" opacity="0.95"/><circle cx="394.0" cy="286.8" r="3.6" fill="#f9923a" opacity="0.95"/><circle cx="364.3" cy="246.7" r="4.5" fill="#60a5fa" opacity="0.95"/><circle cx="357.8" cy="253.7" r="3.6" fill="#f9923a" opacity="0.95"/><circle cx="356.0" cy="262.2" r="3.6" fill="#f9923a" opacity="0.95"/><circle cx="400.5" cy="302.3" r="4.5" fill="#60a5fa" opacity="0.95"/><circle cx="399.1" cy="293.2" r="3.6" fill="#f9923a" opacity="0.95"/><circle cx="401.2" cy="284.6" r="3.6" fill="#f9923a" opacity="0.95"/><circle cx="355.8" cy="243.5" r="4.5" fill="#60a5fa" opacity="0.95"/><circle cx="351.0" cy="251.2" r="3.6" fill="#f9923a" opacity="0.95"/><circle cx="347.9" cy="259.3" r="3.6" fill="#f9923a" opacity="0.95"/><circle cx="375.1" cy="275.5" r="4.5" fill="#60a5fa" opacity="0.95"/><circle cx="383.4" cy="278.8" r="3.6" fill="#f9923a" opacity="0.95"/><circle cx="389.9" cy="284.9" r="3.6" fill="#f9923a" opacity="0.95"/><circle cx="358.2" cy="248.0" r="4.5" fill="#60a5fa" opacity="0.95"/><circle cx="351.8" cy="254.7" r="3.6" fill="#f9923a" opacity="0.95"/><circle cx="344.4" cy="259.6" r="3.6" fill="#f9923a" opacity="0.95"/><circle cx="363.7" cy="249.7" r="4.5" fill="#60a5fa" opacity="0.95"/><circle cx="356.0" cy="254.8" r="3.6" fill="#f9923a" opacity="0.95"/><circle cx="350.5" cy="261.5" r="3.6" fill="#f9923a" opacity="0.95"/><circle cx="360.0" cy="249.9" r="4.5" fill="#60a5fa" opacity="0.95"/><circle cx="353.4" cy="256.5" r="3.6" fill="#f9923a" opacity="0.95"/><circle cx="348.7" cy="264.3" r="3.6" fill="#f9923a" opacity="0.95"/><circle cx="399.4" cy="457.7" r="4.5" fill="#60a5fa" opacity="0.95"/><circle cx="398.1" cy="272.1" r="3.6" fill="#f9923a" opacity="0.95"/><circle cx="394.0" cy="280.0" r="3.6" fill="#f9923a" opacity="0.95"/><circle cx="377.6" cy="261.6" r="4.5" fill="#60a5fa" opacity="0.95"/><circle cx="380.9" cy="270.6" r="3.6" fill="#f9923a" opacity="0.95"/><circle cx="387.0" cy="82.4" r="3.6" fill="#f9923a" opacity="0.95"/><circle cx="367.9" cy="253.4" r="4.5" fill="#60a5fa" opacity="0.95"/><circle cx="360.4" cy="258.7" r="3.6" fill="#f9923a" opacity="0.95"/><circle cx="352.7" cy="262.7" r="3.6" fill="#f9923a" opacity="0.95"/><circle cx="368.3" cy="251.0" r="4.5" fill="#60a5fa" opacity="0.95"/><circle cx="361.3" cy="257.2" r="3.6" fill="#f9923a" opacity="0.95"/><circle cx="352.7" cy="259.2" r="3.6" fill="#f9923a" opacity="0.95"/><circle cx="381.1" cy="293.5" r="4.5" fill="#60a5fa" opacity="0.95"/><circle cx="389.0" cy="289.3" r="3.6" fill="#f9923a" opacity="0.95"/><circle cx="203.1" cy="287.5" r="3.6" fill="#f9923a" opacity="0.95"/><circle cx="352.1" cy="236.6" r="4.5" fill="#60a5fa" opacity="0.95"/><circle cx="347.8" cy="245.0" r="3.6" fill="#f9923a" opacity="0.95"/><circle cx="346.4" cy="253.5" r="3.6" fill="#f9923a" opacity="0.95"/><circle cx="355.8" cy="246.3" r="4.5" fill="#60a5fa" opacity="0.95"/><circle cx="349.7" cy="253.4" r="3.6" fill="#f9923a" opacity="0.95"/><circle cx="345.6" cy="261.3" r="3.6" fill="#f9923a" opacity="0.95"/><circle cx="350.0" cy="238.7" r="4.5" fill="#60a5fa" opacity="0.95"/><circle cx="345.7" cy="247.2" r="3.6" fill="#f9923a" opacity="0.95"/><circle cx="347.7" cy="255.9" r="3.6" fill="#f9923a" opacity="0.95"/><circle cx="364.6" cy="252.0" r="4.5" fill="#60a5fa" opacity="0.95"/><circle cx="357.6" cy="258.4" r="3.6" fill="#f9923a" opacity="0.95"/><circle cx="356.6" cy="267.3" r="3.6" fill="#f9923a" opacity="0.95"/><circle cx="385.5" cy="260.8" r="4.5" fill="#60a5fa" opacity="0.95"/><circle cx="389.0" cy="269.7" r="3.6" fill="#f9923a" opacity="0.95"/><circle cx="200.4" cy="81.7" r="3.6" fill="#f9923a" opacity="0.95"/><circle cx="358.5" cy="242.8" r="4.5" fill="#60a5fa" opacity="0.95"/><circle cx="353.7" cy="250.6" r="3.6" fill="#f9923a" opacity="0.95"/><circle cx="350.6" cy="258.6" r="3.6" fill="#f9923a" opacity="0.95"/><circle cx="366.0" cy="250.0" r="4.5" fill="#60a5fa" opacity="0.95"/><circle cx="358.7" cy="255.9" r="3.6" fill="#f9923a" opacity="0.95"/><circle cx="349.9" cy="256.8" r="3.6" fill="#f9923a" opacity="0.95"/><circle cx="392.0" cy="263.0" r="4.5" fill="#60a5fa" opacity="0.95"/><circle cx="393.2" cy="272.0" r="3.6" fill="#f9923a" opacity="0.95"/><circle cx="585.6" cy="86.2" r="3.6" fill="#f9923a" opacity="0.95"/><circle cx="368.4" cy="257.7" r="4.5" fill="#60a5fa" opacity="0.95"/><circle cx="361.4" cy="263.8" r="3.6" fill="#f9923a" opacity="0.95"/><circle cx="353.2" cy="267.1" r="3.6" fill="#f9923a" opacity="0.95"/><circle cx="370.8" cy="254.9" r="4.5" fill="#60a5fa" opacity="0.95"/><circle cx="363.6" cy="260.7" r="3.6" fill="#f9923a" opacity="0.95"/><circle cx="356.0" cy="264.7" r="3.6" fill="#f9923a" opacity="0.95"/><circle cx="353.0" cy="243.2" r="4.5" fill="#60a5fa" opacity="0.95"/><circle cx="347.8" cy="250.8" r="3.6" fill="#f9923a" opacity="0.95"/><circle cx="341.9" cy="257.3" r="3.6" fill="#f9923a" opacity="0.95"/><circle cx="362.9" cy="245.4" r="4.5" fill="#60a5fa" opacity="0.95"/><circle cx="355.9" cy="251.9" r="3.6" fill="#f9923a" opacity="0.95"/><circle cx="354.3" cy="260.6" r="3.6" fill="#f9923a" opacity="0.95"/><circle cx="378.7" cy="285.1" r="4.5" fill="#60a5fa" opacity="0.95"/><circle cx="387.3" cy="283.0" r="3.6" fill="#f9923a" opacity="0.95"/><circle cx="201.7" cy="282.4" r="3.6" fill="#f9923a" opacity="0.95"/><circle cx="354.5" cy="240.7" r="4.5" fill="#60a5fa" opacity="0.95"/><circle cx="349.6" cy="248.5" r="3.6" fill="#f9923a" opacity="0.95"/><circle cx="342.9" cy="254.1" r="3.6" fill="#f9923a" opacity="0.95"/><circle cx="357.4" cy="241.2" r="4.5" fill="#60a5fa" opacity="0.95"/><circle cx="352.0" cy="248.8" r="3.6" fill="#f9923a" opacity="0.95"/><circle cx="343.5" cy="251.6" r="3.6" fill="#f9923a" opacity="0.95"/><circle cx="365.5" cy="254.8" r="4.5" fill="#60a5fa" opacity="0.95"/><circle cx="359.0" cy="261.5" r="3.6" fill="#f9923a" opacity="0.95"/><circle cx="351.0" cy="265.4" r="3.6" fill="#f9923a" opacity="0.95"/><text x="16" y="26" fill="#e2e8f0" font-family="monospace" font-size="15">VIVARIUM, dispersed start, t=20000 -- curvature 0.15, attract 1.5</text><text x="16" y="464" fill="#e2e8f0" font-family="monospace" font-size="13">align 0.580  (bilayer 1.00, micelle 0.09, vesicle 0.03, random 0.08)</text><text x="16" y="484" fill="#94a3b8" font-family="monospace" font-size="12">hollow 207.73   enclosed 0.00 (bulk = 1.0)   edge 0.00   aspect 0.92</text><text x="16" y="504" fill="#64748b" font-family="monospace" font-size="12">bond 1.02   32/63 lipids   DISQUALIFIED: fragmented (32/63 lipids = 51% in the largest cluster)   blue=head orange=tail faint=water</text></svg>