<svg xmlns="http://www.w3.org/2000/svg" width="720" height="520"><rect width="720" height="520" fill="#0b0e13"/><circle cx="403.6" cy="296.0" r="2.2" fill="#38bdf8" opacity="0.35"/><circle cx="426.6" cy="291.5" r="2.2" fill="#38bdf8" opacity="0.35"/><circle cx="574.1" cy="513.2" r="2.2" fill="#38bdf8" opacity="0.35"/><circle cx="365.3" cy="317.8" r="2.2" fill="#38bdf8" opacity="0.35"/><circle cx="607.3" cy="509.7" r="2.2" fill="#38bdf8" opacity="0.35"/><circle cx="409.0" cy="321.3" r="2.2" fill="#38bdf8" opacity="0.35"/><circle cx="397.9" cy="306.9" r="2.2" fill="#38bdf8" opacity="0.35"/><circle cx="596.4" cy="526.6" r="2.2" fill="#38bdf8" opacity="0.35"/><circle cx="387.9" cy="335.4" r="2.2" fill="#38bdf8" opacity="0.35"/><circle cx="370.1" cy="305.6" r="2.2" fill="#38bdf8" opacity="0.35"/><circle cx="388.2" cy="345.7" r="2.2" fill="#38bdf8" opacity="0.35"/><circle cx="410.1" cy="338.2" r="2.2" fill="#38bdf8" opacity="0.35"/><circle cx="382.6" cy="306.7" r="2.2" fill="#38bdf8" opacity="0.35"/><circle cx="94.3" cy="141.4" r="2.2" fill="#38bdf8" opacity="0.35"/><circle cx="558.0" cy="482.6" r="2.2" fill="#38bdf8" opacity="0.35"/><circle cx="571.5" cy="503.9" r="2.2" fill="#38bdf8" opacity="0.35"/><circle cx="201.2" cy="-17.4" r="2.2" fill="#38bdf8" opacity="0.35"/><circle cx="425.1" cy="297.2" r="2.2" fill="#38bdf8" opacity="0.35"/><circle cx="410.6" cy="310.5" r="2.2" fill="#38bdf8" opacity="0.35"/><circle cx="405.7" cy="314.9" r="2.2" fill="#38bdf8" opacity="0.35"/><circle cx="193.5" cy="19.9" r="2.2" fill="#38bdf8" opacity="0.35"/><circle cx="413.3" cy="297.8" r="2.2" fill="#38bdf8" opacity="0.35"/><circle cx="439.2" cy="286.4" r="2.2" fill="#38bdf8" opacity="0.35"/><circle cx="420.2" cy="288.8" r="2.2" fill="#38bdf8" opacity="0.35"/><circle cx="438.9" cy="321.8" r="2.2" fill="#38bdf8" opacity="0.35"/><circle cx="416.5" cy="332.1" r="2.2" fill="#38bdf8" opacity="0.35"/><circle cx="401.7" cy="280.6" r="2.2" fill="#38bdf8" opacity="0.35"/><circle cx="638.4" cy="118.0" r="2.2" fill="#38bdf8" opacity="0.35"/><circle cx="583.2" cy="519.7" r="2.2" fill="#38bdf8" opacity="0.35"/><circle cx="156.9" cy="-4.1" r="2.2" fill="#38bdf8" opacity="0.35"/><circle cx="357.0" cy="318.6" r="2.2" fill="#38bdf8" opacity="0.35"/><circle cx="393.0" cy="312.2" r="2.2" fill="#38bdf8" opacity="0.35"/><circle cx="390.6" cy="300.4" r="2.2" fill="#38bdf8" opacity="0.35"/><circle cx="93.2" cy="174.1" r="2.2" fill="#38bdf8" opacity="0.35"/><circle cx="420.5" cy="281.9" r="2.2" fill="#38bdf8" opacity="0.35"/><circle cx="415.1" cy="290.6" r="2.2" fill="#38bdf8" opacity="0.35"/><circle cx="569.5" cy="489.5" r="2.2" fill="#38bdf8" opacity="0.35"/><circle cx="361.3" cy="315.2" r="2.2" fill="#38bdf8" opacity="0.35"/><circle cx="410.6" cy="292.4" r="2.2" fill="#38bdf8" opacity="0.35"/><circle cx="414.0" cy="321.6" r="2.2" fill="#38bdf8" opacity="0.35"/><circle cx="373.5" cy="310.0" r="2.2" fill="#38bdf8" opacity="0.35"/><circle cx="437.2" cy="304.1" r="2.2" fill="#38bdf8" opacity="0.35"/><circle cx="575.9" cy="496.3" r="2.2" fill="#38bdf8" opacity="0.35"/><circle cx="343.5" cy="195.8" r="2.2" fill="#38bdf8" opacity="0.35"/><circle cx="558.5" cy="523.4" r="2.2" fill="#38bdf8" opacity="0.35"/><circle cx="381.7" cy="347.5" r="2.2" fill="#38bdf8" opacity="0.35"/><circle cx="564.8" cy="470.0" r="2.2" fill="#38bdf8" opacity="0.35"/><circle cx="374.8" cy="343.1" r="2.2" fill="#38bdf8" opacity="0.35"/><circle cx="623.3" cy="146.8" r="2.2" fill="#38bdf8" opacity="0.35"/><circle cx="418.2" cy="302.2" r="2.2" fill="#38bdf8" opacity="0.35"/><circle cx="634.1" cy="152.7" r="2.2" fill="#38bdf8" opacity="0.35"/><circle cx="569.7" cy="479.4" r="2.2" fill="#38bdf8" opacity="0.35"/><circle cx="539.8" cy="493.0" r="2.2" fill="#38bdf8" opacity="0.35"/><circle cx="406.7" cy="286.0" r="2.2" fill="#38bdf8" opacity="0.35"/><circle cx="414.7" cy="316.4" r="2.2" fill="#38bdf8" opacity="0.35"/><circle cx="380.8" cy="281.0" r="2.2" fill="#38bdf8" opacity="0.35"/><circle cx="637.8" cy="195.9" r="2.2" fill="#38bdf8" opacity="0.35"/><circle cx="84.0" cy="152.2" r="2.2" fill="#38bdf8" opacity="0.35"/><circle cx="638.0" cy="176.9" r="2.2" fill="#38bdf8" opacity="0.35"/><circle cx="392.9" cy="341.2" r="2.2" fill="#38bdf8" opacity="0.35"/><circle cx="586.0" cy="495.4" r="2.2" fill="#38bdf8" opacity="0.35"/><circle cx="374.9" cy="305.1" r="2.2" fill="#38bdf8" opacity="0.35"/><circle cx="403.3" cy="299.6" r="2.2" fill="#38bdf8" opacity="0.35"/><circle cx="634.4" cy="140.1" r="2.2" fill="#38bdf8" opacity="0.35"/><circle cx="614.6" cy="178.2" r="2.2" fill="#38bdf8" opacity="0.35"/><circle cx="398.8" cy="313.8" r="2.2" fill="#38bdf8" opacity="0.35"/><circle cx="423.9" cy="268.8" r="2.2" fill="#38bdf8" opacity="0.35"/><circle cx="442.1" cy="308.9" r="2.2" fill="#38bdf8" opacity="0.35"/><circle cx="174.2" cy="29.3" r="2.2" fill="#38bdf8" opacity="0.35"/><circle cx="408.6" cy="297.3" r="2.2" fill="#38bdf8" opacity="0.35"/><circle cx="372.6" cy="317.3" r="2.2" fill="#38bdf8" opacity="0.35"/><circle cx="643.2" cy="133.1" r="2.2" fill="#38bdf8" opacity="0.35"/><circle cx="410.2" cy="277.6" r="2.2" fill="#38bdf8" opacity="0.35"/><circle cx="562.1" cy="512.9" r="2.2" fill="#38bdf8" opacity="0.35"/><circle cx="396.8" cy="279.4" r="2.2" fill="#38bdf8" opacity="0.35"/><circle cx="403.5" cy="303.6" r="2.2" fill="#38bdf8" opacity="0.35"/><circle cx="390.0" cy="317.5" r="2.2" fill="#38bdf8" opacity="0.35"/><circle cx="432.1" cy="322.6" r="2.2" fill="#38bdf8" opacity="0.35"/><circle cx="564.0" cy="536.5" r="2.2" fill="#38bdf8" opacity="0.35"/><circle cx="382.4" cy="285.3" r="2.2" fill="#38bdf8" opacity="0.35"/><circle cx="603.8" cy="161.3" r="2.2" fill="#38bdf8" opacity="0.35"/><circle cx="355.7" cy="324.5" r="2.2" fill="#38bdf8" opacity="0.35"/><circle cx="416.1" cy="283.7" r="2.2" fill="#38bdf8" opacity="0.35"/><circle cx="416.7" cy="312.0" r="2.2" fill="#38bdf8" opacity="0.35"/><circle cx="165.3" cy="5.9" r="2.2" fill="#38bdf8" opacity="0.35"/><circle cx="619.2" cy="196.7" r="2.2" fill="#38bdf8" opacity="0.35"/><circle cx="373.1" cy="327.3" r="2.2" fill="#38bdf8" opacity="0.35"/><circle cx="409.8" cy="316.1" r="2.2" fill="#38bdf8" opacity="0.35"/><circle cx="546.0" cy="482.5" r="2.2" fill="#38bdf8" opacity="0.35"/><circle cx="441.5" cy="296.7" r="2.2" fill="#38bdf8" opacity="0.35"/><circle cx="380.8" cy="313.4" r="2.2" fill="#38bdf8" opacity="0.35"/><circle cx="401.0" cy="324.2" r="2.2" fill="#38bdf8" opacity="0.35"/><circle cx="602.5" cy="475.6" r="2.2" fill="#38bdf8" opacity="0.35"/><circle cx="406.0" cy="279.4" r="2.2" fill="#38bdf8" opacity="0.35"/><circle cx="75.3" cy="167.3" r="2.2" fill="#38bdf8" opacity="0.35"/><circle cx="402.1" cy="337.5" r="2.2" fill="#38bdf8" opacity="0.35"/><circle cx="426.6" cy="262.3" r="2.2" fill="#38bdf8" opacity="0.35"/><circle cx="580.8" cy="485.1" r="2.2" fill="#38bdf8" opacity="0.35"/><circle cx="420.0" cy="276.8" r="2.2" fill="#38bdf8" opacity="0.35"/><circle cx="431.2" cy="283.4" r="2.2" fill="#38bdf8" opacity="0.35"/><circle cx="398.9" cy="289.1" r="2.2" fill="#38bdf8" opacity="0.35"/><circle cx="405.6" cy="308.6" r="2.2" fill="#38bdf8" opacity="0.35"/><circle cx="405.7" cy="293.1" r="2.2" fill="#38bdf8" opacity="0.35"/><circle cx="431.5" cy="270.1" r="2.2" fill="#38bdf8" opacity="0.35"/><circle cx="382.1" cy="338.7" r="2.2" fill="#38bdf8" opacity="0.35"/><circle cx="609.0" cy="491.9" r="2.2" fill="#38bdf8" opacity="0.35"/><circle cx="593.9" cy="487.8" r="2.2" fill="#38bdf8" opacity="0.35"/><circle cx="611.5" cy="142.2" r="2.2" fill="#38bdf8" opacity="0.35"/><circle cx="593.2" cy="170.4" r="2.2" fill="#38bdf8" opacity="0.35"/><circle cx="413.5" cy="302.3" r="2.2" fill="#38bdf8" opacity="0.35"/><circle cx="561.5" cy="493.1" r="2.2" fill="#38bdf8" opacity="0.35"/><circle cx="411.8" cy="287.0" r="2.2" fill="#38bdf8" opacity="0.35"/><circle cx="431.5" cy="331.8" r="2.2" fill="#38bdf8" opacity="0.35"/><circle cx="634.5" cy="163.7" r="2.2" fill="#38bdf8" opacity="0.35"/><circle cx="385.0" cy="324.6" r="2.2" fill="#38bdf8" opacity="0.35"/><circle cx="366.0" cy="309.7" r="2.2" fill="#38bdf8" opacity="0.35"/><circle cx="541.4" cy="505.4" r="2.2" fill="#38bdf8" opacity="0.35"/><circle cx="374.7" cy="322.2" r="2.2" fill="#38bdf8" opacity="0.35"/><circle cx="395.4" cy="335.8" r="2.2" fill="#38bdf8" opacity="0.35"/><circle cx="434.1" cy="291.1" r="2.2" fill="#38bdf8" opacity="0.35"/><circle cx="625.9" cy="172.8" r="2.2" fill="#38bdf8" opacity="0.35"/><circle cx="389.4" cy="292.0" r="2.2" fill="#38bdf8" opacity="0.35"/><circle cx="595.7" cy="500.4" r="2.2" fill="#38bdf8" opacity="0.35"/><circle cx="395.7" cy="283.9" r="2.2" fill="#38bdf8" opacity="0.35"/><circle cx="177.0" cy="-14.4" r="2.2" fill="#38bdf8" opacity="0.35"/><circle cx="95.9" cy="159.4" r="2.2" fill="#38bdf8" opacity="0.35"/><circle cx="380.2" cy="332.7" r="2.2" fill="#38bdf8" opacity="0.35"/><circle cx="410.3" cy="346.5" r="2.2" fill="#38bdf8" opacity="0.35"/><circle cx="410.5" cy="331.0" r="2.2" fill="#38bdf8" opacity="0.35"/><circle cx="421.4" cy="325.2" r="2.2" fill="#38bdf8" opacity="0.35"/><circle cx="399.4" cy="293.6" r="2.2" fill="#38bdf8" opacity="0.35"/><circle cx="397.4" cy="348.8" r="2.2" fill="#38bdf8" opacity="0.35"/><circle cx="383.7" cy="302.3" r="2.2" fill="#38bdf8" opacity="0.35"/><circle cx="387.2" cy="285.0" r="2.2" fill="#38bdf8" opacity="0.35"/><circle cx="84.6" cy="127.7" r="2.2" fill="#38bdf8" opacity="0.35"/><circle cx="588.8" cy="462.6" r="2.2" fill="#38bdf8" opacity="0.35"/><circle cx="379.6" cy="322.6" r="2.2" fill="#38bdf8" opacity="0.35"/><circle cx="178.7" cy="8.8" r="2.2" fill="#38bdf8" opacity="0.35"/><circle cx="593.2" cy="512.3" r="2.2" fill="#38bdf8" opacity="0.35"/><circle cx="369.3" cy="313.3" r="2.2" fill="#38bdf8" opacity="0.35"/><circle cx="604.1" cy="185.7" r="2.2" fill="#38bdf8" opacity="0.35"/><circle cx="388.7" cy="303.3" r="2.2" fill="#38bdf8" opacity="0.35"/><circle cx="367.6" cy="330.9" r="2.2" fill="#38bdf8" opacity="0.35"/><circle cx="398.0" cy="299.2" r="2.2" fill="#38bdf8" opacity="0.35"/><circle cx="414.7" cy="274.9" r="2.2" fill="#38bdf8" opacity="0.35"/><circle cx="424.3" cy="330.8" r="2.2" fill="#38bdf8" opacity="0.35"/><circle cx="74.1" cy="157.0" r="2.2" fill="#38bdf8" opacity="0.35"/><circle cx="168.2" cy="534.8" r="2.2" fill="#38bdf8" opacity="0.35"/><circle cx="378.8" cy="303.4" r="2.2" fill="#38bdf8" opacity="0.35"/><circle cx="381.1" cy="318.1" r="2.2" fill="#38bdf8" opacity="0.35"/><circle cx="527.8" cy="500.9" r="2.2" fill="#38bdf8" opacity="0.35"/><circle cx="415.9" cy="307.7" r="2.2" fill="#38bdf8" opacity="0.35"/><circle cx="386.4" cy="320.3" r="2.2" fill="#38bdf8" opacity="0.35"/><circle cx="186.1" cy="542.8" r="2.2" fill="#38bdf8" opacity="0.35"/><circle cx="164.0" cy="-16.9" r="2.2" fill="#38bdf8" opacity="0.35"/><circle cx="367.8" cy="340.6" r="2.2" fill="#38bdf8" opacity="0.35"/><circle cx="405.1" cy="331.1" r="2.2" fill="#38bdf8" opacity="0.35"/><circle cx="404.3" cy="289.8" r="2.2" fill="#38bdf8" opacity="0.35"/><circle cx="391.4" cy="308.2" r="2.2" fill="#38bdf8" opacity="0.35"/><circle cx="419.8" cy="319.2" r="2.2" fill="#38bdf8" opacity="0.35"/><circle cx="422.2" cy="309.0" r="2.2" fill="#38bdf8" opacity="0.35"/><circle cx="577.1" cy="472.6" r="2.2" fill="#38bdf8" opacity="0.35"/><circle cx="396.2" cy="320.1" r="2.2" fill="#38bdf8" opacity="0.35"/><circle cx="354.4" cy="331.8" r="2.2" fill="#38bdf8" opacity="0.35"/><circle cx="435.7" cy="313.5" r="2.2" fill="#38bdf8" opacity="0.35"/><circle cx="416.9" cy="340.3" r="2.2" fill="#38bdf8" opacity="0.35"/><circle cx="552.3" cy="472.3" r="2.2" fill="#38bdf8" opacity="0.35"/><circle cx="411.0" cy="304.9" r="2.2" fill="#38bdf8" opacity="0.35"/><circle cx="390.1" cy="325.9" r="2.2" fill="#38bdf8" opacity="0.35"/><circle cx="551.1" cy="492.5" r="2.2" fill="#38bdf8" opacity="0.35"/><circle cx="625.3" cy="159.2" r="2.2" fill="#38bdf8" opacity="0.35"/><circle cx="423.1" cy="305.1" r="2.2" fill="#38bdf8" opacity="0.35"/><circle cx="376.8" cy="315.8" r="2.2" fill="#38bdf8" opacity="0.35"/><circle cx="367.7" cy="322.4" r="2.2" fill="#38bdf8" opacity="0.35"/><circle cx="407.8" cy="303.7" r="2.2" fill="#38bdf8" opacity="0.35"/><circle cx="562.2" cy="501.6" r="2.2" fill="#38bdf8" opacity="0.35"/><circle cx="141.5" cy="9.6" r="2.2" fill="#38bdf8" opacity="0.35"/><circle cx="426.3" cy="320.8" r="2.2" fill="#38bdf8" opacity="0.35"/><circle cx="395.4" cy="290.3" r="2.2" fill="#38bdf8" opacity="0.35"/><circle cx="418.6" cy="270.6" r="2.2" fill="#38bdf8" opacity="0.35"/><circle cx="397.8" cy="327.0" r="2.2" fill="#38bdf8" opacity="0.35"/><circle cx="139.3" cy="-11.0" r="2.2" fill="#38bdf8" opacity="0.35"/><circle cx="539.1" cy="467.9" r="2.2" fill="#38bdf8" opacity="0.35"/><circle cx="403.9" cy="320.6" r="2.2" fill="#38bdf8" opacity="0.35"/><circle cx="379.6" cy="327.8" r="2.2" fill="#38bdf8" opacity="0.35"/><circle cx="379.2" cy="309.1" r="2.2" fill="#38bdf8" opacity="0.35"/><circle cx="394.1" cy="298.1" r="2.2" fill="#38bdf8" opacity="0.35"/><circle cx="392.8" cy="293.9" r="2.2" fill="#38bdf8" opacity="0.35"/><circle cx="386.7" cy="307.4" r="2.2" fill="#38bdf8" opacity="0.35"/><circle cx="425.5" cy="285.5" r="2.2" fill="#38bdf8" opacity="0.35"/><circle cx="546.2" cy="530.1" r="2.2" fill="#38bdf8" opacity="0.35"/><circle cx="391.5" cy="287.3" r="2.2" fill="#38bdf8" opacity="0.35"/><circle cx="398.9" cy="303.1" r="2.2" fill="#38bdf8" opacity="0.35"/><circle cx="588.4" cy="476.8" r="2.2" fill="#38bdf8" opacity="0.35"/><circle cx="400.5" cy="317.5" r="2.2" fill="#38bdf8" opacity="0.35"/><circle cx="430.0" cy="307.8" r="2.2" fill="#38bdf8" opacity="0.35"/><circle cx="614.9" cy="166.7" r="2.2" fill="#38bdf8" opacity="0.35"/><circle cx="570.8" cy="523.1" r="2.2" fill="#38bdf8" opacity="0.35"/><circle cx="385.8" cy="314.5" r="2.2" fill="#38bdf8" opacity="0.35"/><circle cx="362.2" cy="325.5" r="2.2" fill="#38bdf8" opacity="0.35"/><circle cx="362.0" cy="307.6" r="2.2" fill="#38bdf8" opacity="0.35"/><circle cx="549.4" cy="514.9" r="2.2" fill="#38bdf8" opacity="0.35"/><circle cx="422.4" cy="313.8" r="2.2" fill="#38bdf8" opacity="0.35"/><circle cx="388.0" cy="277.2" r="2.2" fill="#38bdf8" opacity="0.35"/><circle cx="362.1" cy="335.0" r="2.2" fill="#38bdf8" opacity="0.35"/><circle cx="414.8" cy="326.0" r="2.2" fill="#38bdf8" opacity="0.35"/><circle cx="529.8" cy="482.4" r="2.2" fill="#38bdf8" opacity="0.35"/><circle cx="572.9" cy="456.9" r="2.2" fill="#38bdf8" opacity="0.35"/><circle cx="419.4" cy="294.4" r="2.2" fill="#38bdf8" opacity="0.35"/><circle cx="399.7" cy="331.4" r="2.2" fill="#38bdf8" opacity="0.35"/><circle cx="403.0" cy="311.7" r="2.2" fill="#38bdf8" opacity="0.35"/><circle cx="411.1" cy="281.8" r="2.2" fill="#38bdf8" opacity="0.35"/><circle cx="580.9" cy="534.4" r="2.2" fill="#38bdf8" opacity="0.35"/><circle cx="157.0" cy="20.8" r="2.2" fill="#38bdf8" opacity="0.35"/><circle cx="552.4" cy="504.9" r="2.2" fill="#38bdf8" opacity="0.35"/><circle cx="428.8" cy="302.1" r="2.2" fill="#38bdf8" opacity="0.35"/><circle cx="392.4" cy="278.6" r="2.2" fill="#38bdf8" opacity="0.35"/><circle cx="406.6" cy="326.0" r="2.2" fill="#38bdf8" opacity="0.35"/><circle cx="393.1" cy="330.4" r="2.2" fill="#38bdf8" opacity="0.35"/><circle cx="629.4" cy="184.3" r="2.2" fill="#38bdf8" opacity="0.35"/><circle cx="534.0" cy="518.5" r="2.2" fill="#38bdf8" opacity="0.35"/><circle cx="386.2" cy="329.7" r="2.2" fill="#38bdf8" opacity="0.35"/><circle cx="374.5" cy="334.4" r="2.2" fill="#38bdf8" opacity="0.35"/><circle cx="436.5" cy="277.2" r="2.2" fill="#38bdf8" opacity="0.35"/><circle cx="149.6" cy="543.9" r="2.2" fill="#38bdf8" opacity="0.35"/><circle cx="432.8" cy="297.3" r="2.2" fill="#38bdf8" opacity="0.35"/><circle cx="603.1" cy="131.9" r="2.2" fill="#38bdf8" opacity="0.35"/><circle cx="185.7" cy="-4.0" r="2.2" fill="#38bdf8" opacity="0.35"/><circle cx="393.5" cy="323.2" r="2.2" fill="#38bdf8" opacity="0.35"/><circle cx="81.9" cy="191.1" r="2.2" fill="#38bdf8" opacity="0.35"/><circle cx="386.9" cy="310.9" r="2.2" fill="#38bdf8" opacity="0.35"/><circle cx="428.6" cy="313.9" r="2.2" fill="#38bdf8" opacity="0.35"/><circle cx="424.2" cy="339.2" r="2.2" fill="#38bdf8" opacity="0.35"/><circle cx="74.4" cy="145.1" r="2.2" fill="#38bdf8" opacity="0.35"/><circle cx="612.6" cy="153.7" r="2.2" fill="#38bdf8" opacity="0.35"/><circle cx="401.2" cy="284.7" r="2.2" fill="#38bdf8" opacity="0.35"/><circle cx="78.8" cy="176.6" r="2.2" fill="#38bdf8" opacity="0.35"/><circle cx="556.0" cy="458.4" r="2.2" fill="#38bdf8" opacity="0.35"/><circle cx="583.4" cy="506.4" r="2.2" fill="#38bdf8" opacity="0.35"/><circle cx="426.9" cy="277.2" r="2.2" fill="#38bdf8" opacity="0.35"/><circle cx="397.7" cy="309.8" r="2.2" fill="#38bdf8" opacity="0.35"/><circle cx="419.6" cy="298.4" r="2.2" fill="#38bdf8" opacity="0.35"/><circle cx="402.6" cy="343.6" r="2.2" fill="#38bdf8" opacity="0.35"/><circle cx="620.2" cy="121.7" r="2.2" fill="#38bdf8" opacity="0.35"/><circle cx="385.2" cy="278.2" r="2.2" fill="#38bdf8" opacity="0.35"/><circle cx="394.1" cy="303.8" r="2.2" fill="#38bdf8" opacity="0.35"/><circle cx="592.8" cy="148.9" r="2.2" fill="#38bdf8" opacity="0.35"/><circle cx="203.2" cy="3.2" r="2.2" fill="#38bdf8" opacity="0.35"/><circle cx="394.0" cy="315.8" r="2.2" fill="#38bdf8" opacity="0.35"/><circle cx="624.6" cy="134.1" r="2.2" fill="#38bdf8" opacity="0.35"/><circle cx="400.0" cy="259.1" r="4.5" fill="#60a5fa" opacity="0.95"/><circle cx="375.2" cy="245.6" r="3.6" fill="#f9923a" opacity="0.95"/><circle cx="351.0" cy="242.2" r="3.6" fill="#f9923a" opacity="0.95"/><circle cx="353.7" cy="292.7" r="4.5" fill="#60a5fa" opacity="0.95"/><circle cx="343.6" cy="266.3" r="3.6" fill="#f9923a" opacity="0.95"/><circle cx="330.3" cy="243.7" r="3.6" fill="#f9923a" opacity="0.95"/><circle cx="363.4" cy="194.4" r="4.5" fill="#60a5fa" opacity="0.95"/><circle cx="348.3" cy="216.1" r="3.6" fill="#f9923a" opacity="0.95"/><circle cx="327.5" cy="231.2" r="3.6" fill="#f9923a" opacity="0.95"/><circle cx="399.4" cy="250.8" r="4.5" fill="#60a5fa" opacity="0.95"/><circle cx="374.2" cy="239.4" r="3.6" fill="#f9923a" opacity="0.95"/><circle cx="351.4" cy="230.3" r="3.6" fill="#f9923a" opacity="0.95"/><circle cx="384.0" cy="298.1" r="4.5" fill="#60a5fa" opacity="0.95"/><circle cx="364.7" cy="274.3" r="3.6" fill="#f9923a" opacity="0.95"/><circle cx="357.1" cy="251.6" r="3.6" fill="#f9923a" opacity="0.95"/><circle cx="376.6" cy="200.4" r="4.5" fill="#60a5fa" opacity="0.95"/><circle cx="357.3" cy="217.8" r="3.6" fill="#f9923a" opacity="0.95"/><circle cx="332.1" cy="226.8" r="3.6" fill="#f9923a" opacity="0.95"/><circle cx="369.9" cy="284.6" r="4.5" fill="#60a5fa" opacity="0.95"/><circle cx="355.4" cy="260.5" r="3.6" fill="#f9923a" opacity="0.95"/><circle cx="338.0" cy="242.2" r="3.6" fill="#f9923a" opacity="0.95"/><circle cx="362.9" cy="301.2" r="4.5" fill="#60a5fa" opacity="0.95"/><circle cx="349.6" cy="276.5" r="3.6" fill="#f9923a" opacity="0.95"/><circle cx="343.1" cy="252.9" r="3.6" fill="#f9923a" opacity="0.95"/><circle cx="404.5" cy="228.1" r="4.5" fill="#60a5fa" opacity="0.95"/><circle cx="376.7" cy="227.9" r="3.6" fill="#f9923a" opacity="0.95"/><circle cx="352.3" cy="222.3" r="3.6" fill="#f9923a" opacity="0.95"/><circle cx="388.8" cy="204.8" r="4.5" fill="#60a5fa" opacity="0.95"/><circle cx="366.4" cy="219.7" r="3.6" fill="#f9923a" opacity="0.95"/><circle cx="339.5" cy="221.3" r="3.6" fill="#f9923a" opacity="0.95"/><circle cx="368.0" cy="302.1" r="4.5" fill="#60a5fa" opacity="0.95"/><circle cx="353.6" cy="277.5" r="3.6" fill="#f9923a" opacity="0.95"/><circle cx="351.0" cy="252.8" r="3.6" fill="#f9923a" opacity="0.95"/><circle cx="344.6" cy="299.5" r="4.5" fill="#60a5fa" opacity="0.95"/><circle cx="338.0" cy="272.4" r="3.6" fill="#f9923a" opacity="0.95"/><circle cx="322.4" cy="252.1" r="3.6" fill="#f9923a" opacity="0.95"/><circle cx="383.0" cy="294.6" r="4.5" fill="#60a5fa" opacity="0.95"/><circle cx="367.6" cy="269.7" r="3.6" fill="#f9923a" opacity="0.95"/><circle cx="346.0" cy="257.8" r="3.6" fill="#f9923a" opacity="0.95"/><circle cx="387.6" cy="295.3" r="4.5" fill="#60a5fa" opacity="0.95"/><circle cx="371.8" cy="268.7" r="3.6" fill="#f9923a" opacity="0.95"/><circle cx="350.5" cy="257.2" r="3.6" fill="#f9923a" opacity="0.95"/><circle cx="378.9" cy="298.3" r="4.5" fill="#60a5fa" opacity="0.95"/><circle cx="358.7" cy="276.5" r="3.6" fill="#f9923a" opacity="0.95"/><circle cx="354.0" cy="252.2" r="3.6" fill="#f9923a" opacity="0.95"/><circle cx="350.4" cy="297.3" r="4.5" fill="#60a5fa" opacity="0.95"/><circle cx="342.1" cy="270.5" r="3.6" fill="#f9923a" opacity="0.95"/><circle cx="327.3" cy="249.8" r="3.6" fill="#f9923a" opacity="0.95"/><circle cx="389.8" cy="270.8" r="4.5" fill="#60a5fa" opacity="0.95"/><circle cx="365.8" cy="256.5" r="3.6" fill="#f9923a" opacity="0.95"/><circle cx="352.7" cy="235.2" r="3.6" fill="#f9923a" opacity="0.95"/><circle cx="415.9" cy="258.2" r="4.5" fill="#60a5fa" opacity="0.95"/><circle cx="387.0" cy="246.1" r="3.6" fill="#f9923a" opacity="0.95"/><circle cx="363.1" cy="245.6" r="3.6" fill="#f9923a" opacity="0.95"/><circle cx="402.5" cy="274.2" r="4.5" fill="#60a5fa" opacity="0.95"/><circle cx="374.6" cy="262.9" r="3.6" fill="#f9923a" opacity="0.95"/><circle cx="359.8" cy="242.9" r="3.6" fill="#f9923a" opacity="0.95"/><circle cx="375.7" cy="293.8" r="4.5" fill="#60a5fa" opacity="0.95"/><circle cx="361.9" cy="268.6" r="3.6" fill="#f9923a" opacity="0.95"/><circle cx="338.4" cy="258.3" r="3.6" fill="#f9923a" opacity="0.95"/><circle cx="340.2" cy="305.1" r="4.5" fill="#60a5fa" opacity="0.95"/><circle cx="335.2" cy="277.1" r="3.6" fill="#f9923a" opacity="0.95"/><circle cx="319.5" cy="257.0" r="3.6" fill="#f9923a" opacity="0.95"/><circle cx="408.4" cy="270.8" r="4.5" fill="#60a5fa" opacity="0.95"/><circle cx="378.3" cy="260.1" r="3.6" fill="#f9923a" opacity="0.95"/><circle cx="366.5" cy="238.3" r="3.6" fill="#f9923a" opacity="0.95"/><circle cx="353.4" cy="303.5" r="4.5" fill="#60a5fa" opacity="0.95"/><circle cx="344.8" cy="276.1" r="3.6" fill="#f9923a" opacity="0.95"/><circle cx="328.6" cy="257.4" r="3.6" fill="#f9923a" opacity="0.95"/><circle cx="368.1" cy="294.4" r="4.5" fill="#60a5fa" opacity="0.95"/><circle cx="355.2" cy="269.0" r="3.6" fill="#f9923a" opacity="0.95"/><circle cx="333.7" cy="256.3" r="3.6" fill="#f9923a" opacity="0.95"/><circle cx="386.4" cy="266.1" r="4.5" fill="#60a5fa" opacity="0.95"/><circle cx="363.5" cy="250.1" r="3.6" fill="#f9923a" opacity="0.95"/><circle cx="342.4" cy="234.6" r="3.6" fill="#f9923a" opacity="0.95"/><circle cx="405.9" cy="257.2" r="4.5" fill="#60a5fa" opacity="0.95"/><circle cx="379.9" cy="244.5" r="3.6" fill="#f9923a" opacity="0.95"/><circle cx="355.4" cy="244.0" r="3.6" fill="#f9923a" opacity="0.95"/><circle cx="388.8" cy="216.6" r="4.5" fill="#60a5fa" opacity="0.95"/><circle cx="363.9" cy="224.5" r="3.6" fill="#f9923a" opacity="0.95"/><circle cx="337.6" cy="228.5" r="3.6" fill="#f9923a" opacity="0.95"/><circle cx="347.5" cy="308.3" r="4.5" fill="#60a5fa" opacity="0.95"/><circle cx="341.1" cy="279.7" r="3.6" fill="#f9923a" opacity="0.95"/><circle cx="325.0" cy="261.0" r="3.6" fill="#f9923a" opacity="0.95"/><circle cx="376.0" cy="283.6" r="4.5" fill="#60a5fa" opacity="0.95"/><circle cx="361.8" cy="259.5" r="3.6" fill="#f9923a" opacity="0.95"/><circle cx="342.1" cy="244.4" r="3.6" fill="#f9923a" opacity="0.95"/><circle cx="392.2" cy="265.7" r="4.5" fill="#60a5fa" opacity="0.95"/><circle cx="368.8" cy="251.6" r="3.6" fill="#f9923a" opacity="0.95"/><circle cx="346.8" cy="240.7" r="3.6" fill="#f9923a" opacity="0.95"/><circle cx="360.7" cy="292.3" r="4.5" fill="#60a5fa" opacity="0.95"/><circle cx="349.1" cy="266.6" r="3.6" fill="#f9923a" opacity="0.95"/><circle cx="332.9" cy="247.3" r="3.6" fill="#f9923a" opacity="0.95"/><circle cx="335.8" cy="296.6" r="4.5" fill="#60a5fa" opacity="0.95"/><circle cx="333.9" cy="269.2" r="3.6" fill="#f9923a" opacity="0.95"/><circle cx="324.5" cy="244.4" r="3.6" fill="#f9923a" opacity="0.95"/><circle cx="380.4" cy="289.7" r="4.5" fill="#60a5fa" opacity="0.95"/><circle cx="365.4" cy="266.0" r="3.6" fill="#f9923a" opacity="0.95"/><circle cx="347.5" cy="249.3" r="3.6" fill="#f9923a" opacity="0.95"/><circle cx="408.6" cy="240.5" r="4.5" fill="#60a5fa" opacity="0.95"/><circle cx="380.8" cy="234.2" r="3.6" fill="#f9923a" opacity="0.95"/><circle cx="357.8" cy="226.4" r="3.6" fill="#f9923a" opacity="0.95"/><circle cx="348.5" cy="316.1" r="4.5" fill="#60a5fa" opacity="0.95"/><circle cx="345.8" cy="284.2" r="3.6" fill="#f9923a" opacity="0.95"/><circle cx="329.5" cy="266.1" r="3.6" fill="#f9923a" opacity="0.95"/><circle cx="410.7" cy="266.2" r="4.5" fill="#60a5fa" opacity="0.95"/><circle cx="380.6" cy="255.4" r="3.6" fill="#f9923a" opacity="0.95"/><circle cx="367.8" cy="233.9" r="3.6" fill="#f9923a" opacity="0.95"/><circle cx="327.5" cy="308.4" r="4.5" fill="#60a5fa" opacity="0.95"/><circle cx="326.2" cy="279.0" r="3.6" fill="#f9923a" opacity="0.95"/><circle cx="341.2" cy="258.7" r="3.6" fill="#f9923a" opacity="0.95"/><circle cx="407.9" cy="250.9" r="4.5" fill="#60a5fa" opacity="0.95"/><circle cx="381.4" cy="239.8" r="3.6" fill="#f9923a" opacity="0.95"/><circle cx="359.4" cy="230.7" r="3.6" fill="#f9923a" opacity="0.95"/><circle cx="393.6" cy="256.3" r="4.5" fill="#60a5fa" opacity="0.95"/><circle cx="368.7" cy="244.1" r="3.6" fill="#f9923a" opacity="0.95"/><circle cx="346.2" cy="232.4" r="3.6" fill="#f9923a" opacity="0.95"/><circle cx="313.6" cy="290.4" r="4.5" fill="#60a5fa" opacity="0.95"/><circle cx="318.0" cy="264.4" r="3.6" fill="#f9923a" opacity="0.95"/><circle cx="323.2" cy="238.5" r="3.6" fill="#f9923a" opacity="0.95"/><circle cx="384.2" cy="271.2" r="4.5" fill="#60a5fa" opacity="0.95"/><circle cx="362.2" cy="254.2" r="3.6" fill="#f9923a" opacity="0.95"/><circle cx="342.8" cy="238.3" r="3.6" fill="#f9923a" opacity="0.95"/><circle cx="394.3" cy="261.9" r="4.5" fill="#60a5fa" opacity="0.95"/><circle cx="370.4" cy="248.4" r="3.6" fill="#f9923a" opacity="0.95"/><circle cx="348.7" cy="236.8" r="3.6" fill="#f9923a" opacity="0.95"/><circle cx="357.1" cy="298.4" r="4.5" fill="#60a5fa" opacity="0.95"/><circle cx="348.0" cy="271.5" r="3.6" fill="#f9923a" opacity="0.95"/><circle cx="332.5" cy="252.2" r="3.6" fill="#f9923a" opacity="0.95"/><circle cx="367.1" cy="289.1" r="4.5" fill="#60a5fa" opacity="0.95"/><circle cx="354.1" cy="264.3" r="3.6" fill="#f9923a" opacity="0.95"/><circle cx="336.7" cy="246.8" r="3.6" fill="#f9923a" opacity="0.95"/><circle cx="362.0" cy="287.4" r="4.5" fill="#60a5fa" opacity="0.95"/><circle cx="349.3" cy="261.9" r="3.6" fill="#f9923a" opacity="0.95"/><circle cx="333.9" cy="240.2" r="3.6" fill="#f9923a" opacity="0.95"/><circle cx="326.4" cy="299.2" r="4.5" fill="#60a5fa" opacity="0.95"/><circle cx="327.7" cy="272.2" r="3.6" fill="#f9923a" opacity="0.95"/><circle cx="318.7" cy="247.3" r="3.6" fill="#f9923a" opacity="0.95"/><circle cx="365.6" cy="297.4" r="4.5" fill="#60a5fa" opacity="0.95"/><circle cx="353.4" cy="272.5" r="3.6" fill="#f9923a" opacity="0.95"/><circle cx="338.7" cy="252.7" r="3.6" fill="#f9923a" opacity="0.95"/><circle cx="402.3" cy="269.7" r="4.5" fill="#60a5fa" opacity="0.95"/><circle cx="375.2" cy="257.1" r="3.6" fill="#f9923a" opacity="0.95"/><circle cx="362.5" cy="235.5" r="3.6" fill="#f9923a" opacity="0.95"/><circle cx="410.8" cy="261.8" r="4.5" fill="#60a5fa" opacity="0.95"/><circle cx="383.0" cy="250.0" r="3.6" fill="#f9923a" opacity="0.95"/><circle cx="358.9" cy="247.6" r="3.6" fill="#f9923a" opacity="0.95"/><circle cx="342.9" cy="318.1" r="4.5" fill="#60a5fa" opacity="0.95"/><circle cx="340.2" cy="285.6" r="3.6" fill="#f9923a" opacity="0.95"/><circle cx="323.2" cy="268.3" r="3.6" fill="#f9923a" opacity="0.95"/><circle cx="374.9" cy="287.8" r="4.5" fill="#60a5fa" opacity="0.95"/><circle cx="361.8" cy="263.1" r="3.6" fill="#f9923a" opacity="0.95"/><circle cx="341.5" cy="248.7" r="3.6" fill="#f9923a" opacity="0.95"/><circle cx="374.3" cy="299.3" r="4.5" fill="#60a5fa" opacity="0.95"/><circle cx="360.8" cy="273.2" r="3.6" fill="#f9923a" opacity="0.95"/><circle cx="338.0" cy="262.8" r="3.6" fill="#f9923a" opacity="0.95"/><circle cx="402.7" cy="264.3" r="4.5" fill="#60a5fa" opacity="0.95"/><circle cx="377.1" cy="250.9" r="3.6" fill="#f9923a" opacity="0.95"/><circle cx="353.1" cy="247.2" r="3.6" fill="#f9923a" opacity="0.95"/><circle cx="373.6" cy="280.0" r="4.5" fill="#60a5fa" opacity="0.95"/><circle cx="356.9" cy="256.9" r="3.6" fill="#f9923a" opacity="0.95"/><circle cx="338.3" cy="238.3" r="3.6" fill="#f9923a" opacity="0.95"/><circle cx="395.4" cy="273.0" r="4.5" fill="#60a5fa" opacity="0.95"/><circle cx="369.8" cy="260.1" r="3.6" fill="#f9923a" opacity="0.95"/><circle cx="355.9" cy="239.5" r="3.6" fill="#f9923a" opacity="0.95"/><circle cx="385.2" cy="288.6" r="4.5" fill="#60a5fa" opacity="0.95"/><circle cx="369.4" cy="264.5" r="3.6" fill="#f9923a" opacity="0.95"/><circle cx="346.9" cy="254.0" r="3.6" fill="#f9923a" opacity="0.95"/><circle cx="354.3" cy="310.9" r="4.5" fill="#60a5fa" opacity="0.95"/><circle cx="349.8" cy="281.2" r="3.6" fill="#f9923a" opacity="0.95"/><circle cx="333.2" cy="262.7" r="3.6" fill="#f9923a" opacity="0.95"/><circle cx="416.0" cy="251.0" r="4.5" fill="#60a5fa" opacity="0.95"/><circle cx="387.3" cy="240.2" r="3.6" fill="#f9923a" opacity="0.95"/><circle cx="363.3" cy="240.9" r="3.6" fill="#f9923a" opacity="0.95"/><circle cx="336.7" cy="314.4" r="4.5" fill="#60a5fa" opacity="0.95"/><circle cx="331.8" cy="283.8" r="3.6" fill="#f9923a" opacity="0.95"/><circle cx="343.2" cy="262.0" r="3.6" fill="#f9923a" opacity="0.95"/><circle cx="371.5" cy="291.4" r="4.5" fill="#60a5fa" opacity="0.95"/><circle cx="358.1" cy="267.2" r="3.6" fill="#f9923a" opacity="0.95"/><circle cx="346.6" cy="245.7" r="3.6" fill="#f9923a" opacity="0.95"/><circle cx="399.9" cy="238.9" r="4.5" fill="#60a5fa" opacity="0.95"/><circle cx="373.3" cy="232.9" r="3.6" fill="#f9923a" opacity="0.95"/><circle cx="348.6" cy="226.5" r="3.6" fill="#f9923a" opacity="0.95"/><circle cx="396.1" cy="223.5" r="4.5" fill="#60a5fa" opacity="0.95"/><circle cx="369.7" cy="226.5" r="3.6" fill="#f9923a" opacity="0.95"/><circle cx="343.4" cy="225.7" r="3.6" fill="#f9923a" opacity="0.95"/><circle cx="396.7" cy="268.8" r="4.5" fill="#60a5fa" opacity="0.95"/><circle cx="371.1" cy="256.1" r="3.6" fill="#f9923a" opacity="0.95"/><circle cx="357.5" cy="235.2" r="3.6" fill="#f9923a" opacity="0.95"/><text x="16" y="26" fill="#e2e8f0" font-family="monospace" font-size="15">VIVARIUM t=20000 -- attract 1.5, curvature 0.15</text><text x="16" y="464" fill="#e2e8f0" font-family="monospace" font-size="13">align 0.611  (bilayer 1.00, micelle 0.09, vesicle 0.03, random 0.08)</text><text x="16" y="484" fill="#94a3b8" font-family="monospace" font-size="12">hollow 2.52   enclosed 0.00 (bulk = 1.0)   edge 0.03   aspect 0.85</text><text x="16" y="504" fill="#64748b" font-family="monospace" font-size="12">bond 1.03   63/63 lipids   DISQUALIFIED: collapsed (nearest non-bonded neighbour at 0.18 of contact)   blue=head orange=tail faint=water</text></svg>