<svg xmlns="http://www.w3.org/2000/svg" width="720" height="460"><rect width="720" height="460" fill="#0b0e13"/><circle cx="394.4" cy="136.9" r="5.0" fill="#60a5fa" opacity="0.9"/><circle cx="394.4" cy="199.0" r="4.0" fill="#f9923a" opacity="0.9"/><circle cx="394.4" cy="261.0" r="4.0" fill="#f9923a" opacity="0.9"/><circle cx="394.4" cy="323.1" r="4.0" fill="#f9923a" opacity="0.9"/><circle cx="413.4" cy="136.9" r="5.0" fill="#60a5fa" opacity="0.9"/><circle cx="413.4" cy="199.0" r="4.0" fill="#f9923a" opacity="0.9"/><circle cx="413.4" cy="261.0" r="4.0" fill="#f9923a" opacity="0.9"/><circle cx="413.4" cy="323.1" r="4.0" fill="#f9923a" opacity="0.9"/><circle cx="432.4" cy="136.9" r="5.0" fill="#60a5fa" opacity="0.9"/><circle cx="432.4" cy="199.0" r="4.0" fill="#f9923a" opacity="0.9"/><circle cx="432.4" cy="261.0" r="4.0" fill="#f9923a" opacity="0.9"/><circle cx="432.4" cy="323.1" r="4.0" fill="#f9923a" opacity="0.9"/><circle cx="451.5" cy="136.9" r="5.0" fill="#60a5fa" opacity="0.9"/><circle cx="451.5" cy="199.0" r="4.0" fill="#f9923a" opacity="0.9"/><circle cx="451.5" cy="261.0" r="4.0" fill="#f9923a" opacity="0.9"/><circle cx="451.5" cy="323.1" r="4.0" fill="#f9923a" opacity="0.9"/><circle cx="470.5" cy="136.9" r="5.0" fill="#60a5fa" opacity="0.9"/><circle cx="470.5" cy="199.0" r="4.0" fill="#f9923a" opacity="0.9"/><circle cx="470.5" cy="261.0" r="4.0" fill="#f9923a" opacity="0.9"/><circle cx="470.5" cy="323.1" r="4.0" fill="#f9923a" opacity="0.9"/><circle cx="337.2" cy="136.9" r="5.0" fill="#60a5fa" opacity="0.9"/><circle cx="337.2" cy="199.0" r="4.0" fill="#f9923a" opacity="0.9"/><circle cx="337.2" cy="261.0" r="4.0" fill="#f9923a" opacity="0.9"/><circle cx="337.2" cy="323.1" r="4.0" fill="#f9923a" opacity="0.9"/><circle cx="356.3" cy="136.9" r="5.0" fill="#60a5fa" opacity="0.9"/><circle cx="356.3" cy="199.0" r="4.0" fill="#f9923a" opacity="0.9"/><circle cx="356.3" cy="261.0" r="4.0" fill="#f9923a" opacity="0.9"/><circle cx="356.3" cy="323.1" r="4.0" fill="#f9923a" opacity="0.9"/><circle cx="375.3" cy="136.9" r="5.0" fill="#60a5fa" opacity="0.9"/><circle cx="375.3" cy="199.0" r="4.0" fill="#f9923a" opacity="0.9"/><circle cx="375.3" cy="261.0" r="4.0" fill="#f9923a" opacity="0.9"/><circle cx="375.3" cy="323.1" r="4.0" fill="#f9923a" opacity="0.9"/><circle cx="319.1" cy="136.9" r="5.0" fill="#60a5fa" opacity="0.9"/><circle cx="319.1" cy="199.0" r="4.0" fill="#f9923a" opacity="0.9"/><circle cx="319.1" cy="261.0" r="4.0" fill="#f9923a" opacity="0.9"/><circle cx="319.1" cy="323.1" r="4.0" fill="#f9923a" opacity="0.9"/><circle cx="338.2" cy="136.9" r="5.0" fill="#60a5fa" opacity="0.9"/><circle cx="338.2" cy="199.0" r="4.0" fill="#f9923a" opacity="0.9"/><circle cx="338.2" cy="261.0" r="4.0" fill="#f9923a" opacity="0.9"/><circle cx="338.2" cy="323.1" r="4.0" fill="#f9923a" opacity="0.9"/><circle cx="357.2" cy="136.9" r="5.0" fill="#60a5fa" opacity="0.9"/><circle cx="357.2" cy="199.0" r="4.0" fill="#f9923a" opacity="0.9"/><circle cx="357.2" cy="261.0" r="4.0" fill="#f9923a" opacity="0.9"/><circle cx="357.2" cy="323.1" r="4.0" fill="#f9923a" opacity="0.9"/><circle cx="376.2" cy="136.9" r="5.0" fill="#60a5fa" opacity="0.9"/><circle cx="376.2" cy="199.0" r="4.0" fill="#f9923a" opacity="0.9"/><circle cx="376.2" cy="261.0" r="4.0" fill="#f9923a" opacity="0.9"/><circle cx="376.2" cy="323.1" r="4.0" fill="#f9923a" opacity="0.9"/><circle cx="395.3" cy="136.9" r="5.0" fill="#60a5fa" opacity="0.9"/><circle cx="395.3" cy="199.0" r="4.0" fill="#f9923a" opacity="0.9"/><circle cx="395.3" cy="261.0" r="4.0" fill="#f9923a" opacity="0.9"/><circle cx="395.3" cy="323.1" r="4.0" fill="#f9923a" opacity="0.9"/><circle cx="262.0" cy="136.9" r="5.0" fill="#60a5fa" opacity="0.9"/><circle cx="262.0" cy="199.0" r="4.0" fill="#f9923a" opacity="0.9"/><circle cx="262.0" cy="261.0" r="4.0" fill="#f9923a" opacity="0.9"/><circle cx="262.0" cy="323.1" r="4.0" fill="#f9923a" opacity="0.9"/><circle cx="281.0" cy="136.9" r="5.0" fill="#60a5fa" opacity="0.9"/><circle cx="281.0" cy="199.0" r="4.0" fill="#f9923a" opacity="0.9"/><circle cx="281.0" cy="261.0" r="4.0" fill="#f9923a" opacity="0.9"/><circle cx="281.0" cy="323.1" r="4.0" fill="#f9923a" opacity="0.9"/><circle cx="300.1" cy="136.9" r="5.0" fill="#60a5fa" opacity="0.9"/><circle cx="300.1" cy="199.0" r="4.0" fill="#f9923a" opacity="0.9"/><circle cx="300.1" cy="261.0" r="4.0" fill="#f9923a" opacity="0.9"/><circle cx="300.1" cy="323.1" r="4.0" fill="#f9923a" opacity="0.9"/><circle cx="243.9" cy="136.9" r="5.0" fill="#60a5fa" opacity="0.9"/><circle cx="243.9" cy="199.0" r="4.0" fill="#f9923a" opacity="0.9"/><circle cx="243.9" cy="261.0" r="4.0" fill="#f9923a" opacity="0.9"/><circle cx="243.9" cy="323.1" r="4.0" fill="#f9923a" opacity="0.9"/><circle cx="262.9" cy="136.9" r="5.0" fill="#60a5fa" opacity="0.9"/><circle cx="262.9" cy="199.0" r="4.0" fill="#f9923a" opacity="0.9"/><circle cx="262.9" cy="261.0" r="4.0" fill="#f9923a" opacity="0.9"/><circle cx="262.9" cy="323.1" r="4.0" fill="#f9923a" opacity="0.9"/><circle cx="282.0" cy="136.9" r="5.0" fill="#60a5fa" opacity="0.9"/><circle cx="282.0" cy="199.0" r="4.0" fill="#f9923a" opacity="0.9"/><circle cx="282.0" cy="261.0" r="4.0" fill="#f9923a" opacity="0.9"/><circle cx="282.0" cy="323.1" r="4.0" fill="#f9923a" opacity="0.9"/><circle cx="301.0" cy="136.9" r="5.0" fill="#60a5fa" opacity="0.9"/><circle cx="301.0" cy="199.0" r="4.0" fill="#f9923a" opacity="0.9"/><circle cx="301.0" cy="261.0" r="4.0" fill="#f9923a" opacity="0.9"/><circle cx="301.0" cy="323.1" r="4.0" fill="#f9923a" opacity="0.9"/><circle cx="320.0" cy="136.9" r="5.0" fill="#60a5fa" opacity="0.9"/><circle cx="320.0" cy="199.0" r="4.0" fill="#f9923a" opacity="0.9"/><circle cx="320.0" cy="261.0" r="4.0" fill="#f9923a" opacity="0.9"/><circle cx="320.0" cy="323.1" r="4.0" fill="#f9923a" opacity="0.9"/><circle cx="186.7" cy="136.9" r="5.0" fill="#60a5fa" opacity="0.9"/><circle cx="186.7" cy="199.0" r="4.0" fill="#f9923a" opacity="0.9"/><circle cx="186.7" cy="261.0" r="4.0" fill="#f9923a" opacity="0.9"/><circle cx="186.7" cy="323.1" r="4.0" fill="#f9923a" opacity="0.9"/><circle cx="205.8" cy="136.9" r="5.0" fill="#60a5fa" opacity="0.9"/><circle cx="205.8" cy="199.0" r="4.0" fill="#f9923a" opacity="0.9"/><circle cx="205.8" cy="261.0" r="4.0" fill="#f9923a" opacity="0.9"/><circle cx="205.8" cy="323.1" r="4.0" fill="#f9923a" opacity="0.9"/><circle cx="224.8" cy="136.9" r="5.0" fill="#60a5fa" opacity="0.9"/><circle cx="224.8" cy="199.0" r="4.0" fill="#f9923a" opacity="0.9"/><circle cx="224.8" cy="261.0" r="4.0" fill="#f9923a" opacity="0.9"/><circle cx="224.8" cy="323.1" r="4.0" fill="#f9923a" opacity="0.9"/><circle cx="168.6" cy="136.9" r="5.0" fill="#60a5fa" opacity="0.9"/><circle cx="168.6" cy="199.0" r="4.0" fill="#f9923a" opacity="0.9"/><circle cx="168.6" cy="261.0" r="4.0" fill="#f9923a" opacity="0.9"/><circle cx="168.6" cy="323.1" r="4.0" fill="#f9923a" opacity="0.9"/><circle cx="187.7" cy="136.9" r="5.0" fill="#60a5fa" opacity="0.9"/><circle cx="187.7" cy="199.0" r="4.0" fill="#f9923a" opacity="0.9"/><circle cx="187.7" cy="261.0" r="4.0" fill="#f9923a" opacity="0.9"/><circle cx="187.7" cy="323.1" r="4.0" fill="#f9923a" opacity="0.9"/><circle cx="206.7" cy="136.9" r="5.0" fill="#60a5fa" opacity="0.9"/><circle cx="206.7" cy="199.0" r="4.0" fill="#f9923a" opacity="0.9"/><circle cx="206.7" cy="261.0" r="4.0" fill="#f9923a" opacity="0.9"/><circle cx="206.7" cy="323.1" r="4.0" fill="#f9923a" opacity="0.9"/><circle cx="225.8" cy="136.9" r="5.0" fill="#60a5fa" opacity="0.9"/><circle cx="225.8" cy="199.0" r="4.0" fill="#f9923a" opacity="0.9"/><circle cx="225.8" cy="261.0" r="4.0" fill="#f9923a" opacity="0.9"/><circle cx="225.8" cy="323.1" r="4.0" fill="#f9923a" opacity="0.9"/><circle cx="244.8" cy="136.9" r="5.0" fill="#60a5fa" opacity="0.9"/><circle cx="244.8" cy="199.0" r="4.0" fill="#f9923a" opacity="0.9"/><circle cx="244.8" cy="261.0" r="4.0" fill="#f9923a" opacity="0.9"/><circle cx="244.8" cy="323.1" r="4.0" fill="#f9923a" opacity="0.9"/><circle cx="111.5" cy="136.9" r="5.0" fill="#60a5fa" opacity="0.9"/><circle cx="111.5" cy="199.0" r="4.0" fill="#f9923a" opacity="0.9"/><circle cx="111.5" cy="261.0" r="4.0" fill="#f9923a" opacity="0.9"/><circle cx="111.5" cy="323.1" r="4.0" fill="#f9923a" opacity="0.9"/><circle cx="130.5" cy="136.9" r="5.0" fill="#60a5fa" opacity="0.9"/><circle cx="130.5" cy="199.0" r="4.0" fill="#f9923a" opacity="0.9"/><circle cx="130.5" cy="261.0" r="4.0" fill="#f9923a" opacity="0.9"/><circle cx="130.5" cy="323.1" r="4.0" fill="#f9923a" opacity="0.9"/><circle cx="149.6" cy="136.9" r="5.0" fill="#60a5fa" opacity="0.9"/><circle cx="149.6" cy="199.0" r="4.0" fill="#f9923a" opacity="0.9"/><circle cx="149.6" cy="261.0" r="4.0" fill="#f9923a" opacity="0.9"/><circle cx="149.6" cy="323.1" r="4.0" fill="#f9923a" opacity="0.9"/><circle cx="93.4" cy="136.9" r="5.0" fill="#60a5fa" opacity="0.9"/><circle cx="93.4" cy="199.0" r="4.0" fill="#f9923a" opacity="0.9"/><circle cx="93.4" cy="261.0" r="4.0" fill="#f9923a" opacity="0.9"/><circle cx="93.4" cy="323.1" r="4.0" fill="#f9923a" opacity="0.9"/><circle cx="112.4" cy="136.9" r="5.0" fill="#60a5fa" opacity="0.9"/><circle cx="112.4" cy="199.0" r="4.0" fill="#f9923a" opacity="0.9"/><circle cx="112.4" cy="261.0" r="4.0" fill="#f9923a" opacity="0.9"/><circle cx="112.4" cy="323.1" r="4.0" fill="#f9923a" opacity="0.9"/><circle cx="131.5" cy="136.9" r="5.0" fill="#60a5fa" opacity="0.9"/><circle cx="131.5" cy="199.0" r="4.0" fill="#f9923a" opacity="0.9"/><circle cx="131.5" cy="261.0" r="4.0" fill="#f9923a" opacity="0.9"/><circle cx="131.5" cy="323.1" r="4.0" fill="#f9923a" opacity="0.9"/><circle cx="150.5" cy="136.9" r="5.0" fill="#60a5fa" opacity="0.9"/><circle cx="150.5" cy="199.0" r="4.0" fill="#f9923a" opacity="0.9"/><circle cx="150.5" cy="261.0" r="4.0" fill="#f9923a" opacity="0.9"/><circle cx="150.5" cy="323.1" r="4.0" fill="#f9923a" opacity="0.9"/><circle cx="169.6" cy="136.9" r="5.0" fill="#60a5fa" opacity="0.9"/><circle cx="169.6" cy="199.0" r="4.0" fill="#f9923a" opacity="0.9"/><circle cx="169.6" cy="261.0" r="4.0" fill="#f9923a" opacity="0.9"/><circle cx="169.6" cy="323.1" r="4.0" fill="#f9923a" opacity="0.9"/><circle cx="36.3" cy="136.9" r="5.0" fill="#60a5fa" opacity="0.9"/><circle cx="36.3" cy="199.0" r="4.0" fill="#f9923a" opacity="0.9"/><circle cx="36.3" cy="261.0" r="4.0" fill="#f9923a" opacity="0.9"/><circle cx="36.3" cy="323.1" r="4.0" fill="#f9923a" opacity="0.9"/><circle cx="55.3" cy="136.9" r="5.0" fill="#60a5fa" opacity="0.9"/><circle cx="55.3" cy="199.0" r="4.0" fill="#f9923a" opacity="0.9"/><circle cx="55.3" cy="261.0" r="4.0" fill="#f9923a" opacity="0.9"/><circle cx="55.3" cy="323.1" r="4.0" fill="#f9923a" opacity="0.9"/><circle cx="74.3" cy="136.9" r="5.0" fill="#60a5fa" opacity="0.9"/><circle cx="74.3" cy="199.0" r="4.0" fill="#f9923a" opacity="0.9"/><circle cx="74.3" cy="261.0" r="4.0" fill="#f9923a" opacity="0.9"/><circle cx="74.3" cy="323.1" r="4.0" fill="#f9923a" opacity="0.9"/><circle cx="620.1" cy="136.9" r="5.0" fill="#60a5fa" opacity="0.9"/><circle cx="620.1" cy="199.0" r="4.0" fill="#f9923a" opacity="0.9"/><circle cx="620.1" cy="261.0" r="4.0" fill="#f9923a" opacity="0.9"/><circle cx="620.1" cy="323.1" r="4.0" fill="#f9923a" opacity="0.9"/><circle cx="639.1" cy="136.9" r="5.0" fill="#60a5fa" opacity="0.9"/><circle cx="639.1" cy="199.0" r="4.0" fill="#f9923a" opacity="0.9"/><circle cx="639.1" cy="261.0" r="4.0" fill="#f9923a" opacity="0.9"/><circle cx="639.1" cy="323.1" r="4.0" fill="#f9923a" opacity="0.9"/><circle cx="658.2" cy="136.9" r="5.0" fill="#60a5fa" opacity="0.9"/><circle cx="658.2" cy="199.0" r="4.0" fill="#f9923a" opacity="0.9"/><circle cx="658.2" cy="261.0" r="4.0" fill="#f9923a" opacity="0.9"/><circle cx="658.2" cy="323.1" r="4.0" fill="#f9923a" opacity="0.9"/><circle cx="677.2" cy="136.9" r="5.0" fill="#60a5fa" opacity="0.9"/><circle cx="677.2" cy="199.0" r="4.0" fill="#f9923a" opacity="0.9"/><circle cx="677.2" cy="261.0" r="4.0" fill="#f9923a" opacity="0.9"/><circle cx="677.2" cy="323.1" r="4.0" fill="#f9923a" opacity="0.9"/><circle cx="696.3" cy="136.9" r="5.0" fill="#60a5fa" opacity="0.9"/><circle cx="696.3" cy="199.0" r="4.0" fill="#f9923a" opacity="0.9"/><circle cx="696.3" cy="261.0" r="4.0" fill="#f9923a" opacity="0.9"/><circle cx="696.3" cy="323.1" r="4.0" fill="#f9923a" opacity="0.9"/><circle cx="562.9" cy="136.9" r="5.0" fill="#60a5fa" opacity="0.9"/><circle cx="562.9" cy="199.0" r="4.0" fill="#f9923a" opacity="0.9"/><circle cx="562.9" cy="261.0" r="4.0" fill="#f9923a" opacity="0.9"/><circle cx="562.9" cy="323.1" r="4.0" fill="#f9923a" opacity="0.9"/><circle cx="582.0" cy="136.9" r="5.0" fill="#60a5fa" opacity="0.9"/><circle cx="582.0" cy="199.0" r="4.0" fill="#f9923a" opacity="0.9"/><circle cx="582.0" cy="261.0" r="4.0" fill="#f9923a" opacity="0.9"/><circle cx="582.0" cy="323.1" r="4.0" fill="#f9923a" opacity="0.9"/><circle cx="601.0" cy="136.9" r="5.0" fill="#60a5fa" opacity="0.9"/><circle cx="601.0" cy="199.0" r="4.0" fill="#f9923a" opacity="0.9"/><circle cx="601.0" cy="261.0" r="4.0" fill="#f9923a" opacity="0.9"/><circle cx="601.0" cy="323.1" r="4.0" fill="#f9923a" opacity="0.9"/><circle cx="544.8" cy="136.9" r="5.0" fill="#60a5fa" opacity="0.9"/><circle cx="544.8" cy="199.0" r="4.0" fill="#f9923a" opacity="0.9"/><circle cx="544.8" cy="261.0" r="4.0" fill="#f9923a" opacity="0.9"/><circle cx="544.8" cy="323.1" r="4.0" fill="#f9923a" opacity="0.9"/><circle cx="563.9" cy="136.9" r="5.0" fill="#60a5fa" opacity="0.9"/><circle cx="563.9" cy="199.0" r="4.0" fill="#f9923a" opacity="0.9"/><circle cx="563.9" cy="261.0" r="4.0" fill="#f9923a" opacity="0.9"/><circle cx="563.9" cy="323.1" r="4.0" fill="#f9923a" opacity="0.9"/><circle cx="582.9" cy="136.9" r="5.0" fill="#60a5fa" opacity="0.9"/><circle cx="582.9" cy="199.0" r="4.0" fill="#f9923a" opacity="0.9"/><circle cx="582.9" cy="261.0" r="4.0" fill="#f9923a" opacity="0.9"/><circle cx="582.9" cy="323.1" r="4.0" fill="#f9923a" opacity="0.9"/><circle cx="602.0" cy="136.9" r="5.0" fill="#60a5fa" opacity="0.9"/><circle cx="602.0" cy="199.0" r="4.0" fill="#f9923a" opacity="0.9"/><circle cx="602.0" cy="261.0" r="4.0" fill="#f9923a" opacity="0.9"/><circle cx="602.0" cy="323.1" r="4.0" fill="#f9923a" opacity="0.9"/><circle cx="621.0" cy="136.9" r="5.0" fill="#60a5fa" opacity="0.9"/><circle cx="621.0" cy="199.0" r="4.0" fill="#f9923a" opacity="0.9"/><circle cx="621.0" cy="261.0" r="4.0" fill="#f9923a" opacity="0.9"/><circle cx="621.0" cy="323.1" r="4.0" fill="#f9923a" opacity="0.9"/><circle cx="487.7" cy="136.9" r="5.0" fill="#60a5fa" opacity="0.9"/><circle cx="487.7" cy="199.0" r="4.0" fill="#f9923a" opacity="0.9"/><circle cx="487.7" cy="261.0" r="4.0" fill="#f9923a" opacity="0.9"/><circle cx="487.7" cy="323.1" r="4.0" fill="#f9923a" opacity="0.9"/><circle cx="506.8" cy="136.9" r="5.0" fill="#60a5fa" opacity="0.9"/><circle cx="506.8" cy="199.0" r="4.0" fill="#f9923a" opacity="0.9"/><circle cx="506.8" cy="261.0" r="4.0" fill="#f9923a" opacity="0.9"/><circle cx="506.8" cy="323.1" r="4.0" fill="#f9923a" opacity="0.9"/><circle cx="525.8" cy="136.9" r="5.0" fill="#60a5fa" opacity="0.9"/><circle cx="525.8" cy="199.0" r="4.0" fill="#f9923a" opacity="0.9"/><circle cx="525.8" cy="261.0" r="4.0" fill="#f9923a" opacity="0.9"/><circle cx="525.8" cy="323.1" r="4.0" fill="#f9923a" opacity="0.9"/><circle cx="469.6" cy="136.9" r="5.0" fill="#60a5fa" opacity="0.9"/><circle cx="469.6" cy="199.0" r="4.0" fill="#f9923a" opacity="0.9"/><circle cx="469.6" cy="261.0" r="4.0" fill="#f9923a" opacity="0.9"/><circle cx="469.6" cy="323.1" r="4.0" fill="#f9923a" opacity="0.9"/><circle cx="488.6" cy="136.9" r="5.0" fill="#60a5fa" opacity="0.9"/><circle cx="488.6" cy="199.0" r="4.0" fill="#f9923a" opacity="0.9"/><circle cx="488.6" cy="261.0" r="4.0" fill="#f9923a" opacity="0.9"/><circle cx="488.6" cy="323.1" r="4.0" fill="#f9923a" opacity="0.9"/><circle cx="507.7" cy="136.9" r="5.0" fill="#60a5fa" opacity="0.9"/><circle cx="507.7" cy="199.0" r="4.0" fill="#f9923a" opacity="0.9"/><circle cx="507.7" cy="261.0" r="4.0" fill="#f9923a" opacity="0.9"/><circle cx="507.7" cy="323.1" r="4.0" fill="#f9923a" opacity="0.9"/><circle cx="526.7" cy="136.9" r="5.0" fill="#60a5fa" opacity="0.9"/><circle cx="526.7" cy="199.0" r="4.0" fill="#f9923a" opacity="0.9"/><circle cx="526.7" cy="261.0" r="4.0" fill="#f9923a" opacity="0.9"/><circle cx="526.7" cy="323.1" r="4.0" fill="#f9923a" opacity="0.9"/><text x="16" y="28" fill="#e2e8f0" font-family="monospace" font-size="15">REFERENCE: planted bilayer (search config)</text><text x="16" y="426" fill="#94a3b8" font-family="monospace" font-size="13">lamellar 1.000 (random 0.50, planted 1.00)   aspect 0.15 (random 0.85, planted 0.23)</text><text x="16" y="446" fill="#64748b" font-family="monospace" font-size="12">bond 1.00 (rest 1.00) - molecules intact   |   60 lipids in the cluster   |   blue = head, orange = tail</text></svg>