<svg xmlns="http://www.w3.org/2000/svg" width="560" height="560"><rect width="560" height="560" fill="#0b0e13"/><circle cx="418.5" cy="409.3" r="26.1" fill="#1e3a5f" opacity="0.26"/><circle cx="394.7" cy="234.1" r="26.1" fill="#1e3a5f" opacity="0.26"/><circle cx="92.1" cy="154.6" r="26.1" fill="#1e3a5f" opacity="0.26"/><circle cx="300.4" cy="174.2" r="26.1" fill="#1e3a5f" opacity="0.26"/><circle cx="180.5" cy="340.4" r="26.1" fill="#1e3a5f" opacity="0.26"/><circle cx="186.4" cy="269.0" r="26.1" fill="#1e3a5f" opacity="0.26"/><circle cx="22.3" cy="419.4" r="26.1" fill="#1e3a5f" opacity="0.26"/><circle cx="254.4" cy="405.2" r="26.1" fill="#1e3a5f" opacity="0.26"/><circle cx="107.1" cy="447.2" r="26.1" fill="#1e3a5f" opacity="0.26"/><circle cx="479.9" cy="284.2" r="26.1" fill="#1e3a5f" opacity="0.26"/><circle cx="285.7" cy="158.3" r="26.1" fill="#1e3a5f" opacity="0.26"/><circle cx="186.2" cy="414.5" r="26.1" fill="#1e3a5f" opacity="0.26"/><circle cx="347.6" cy="420.1" r="26.1" fill="#1e3a5f" opacity="0.26"/><circle cx="149.7" cy="384.0" r="26.1" fill="#1e3a5f" opacity="0.26"/><circle cx="206.8" cy="318.1" r="26.1" fill="#1e3a5f" opacity="0.26"/><circle cx="62.9" cy="81.0" r="26.1" fill="#1e3a5f" opacity="0.26"/><circle cx="144.6" cy="273.6" r="26.1" fill="#1e3a5f" opacity="0.26"/><circle cx="358.3" cy="218.6" r="26.1" fill="#1e3a5f" opacity="0.26"/><circle cx="444.3" cy="446.1" r="26.1" fill="#1e3a5f" opacity="0.26"/><circle cx="259.0" cy="378.6" r="26.1" fill="#1e3a5f" opacity="0.26"/><circle cx="181.4" cy="127.1" r="26.1" fill="#1e3a5f" opacity="0.26"/><circle cx="175.8" cy="150.0" r="26.1" fill="#1e3a5f" opacity="0.26"/><circle cx="318.9" cy="194.5" r="26.1" fill="#1e3a5f" opacity="0.26"/><circle cx="356.5" cy="469.4" r="26.1" fill="#1e3a5f" opacity="0.26"/><circle cx="185.3" cy="239.8" r="26.1" fill="#1e3a5f" opacity="0.26"/><circle cx="169.4" cy="51.1" r="26.1" fill="#1e3a5f" opacity="0.26"/><circle cx="138.5" cy="102.6" r="26.1" fill="#1e3a5f" opacity="0.26"/><circle cx="275.2" cy="138.0" r="26.1" fill="#1e3a5f" opacity="0.26"/><circle cx="307.7" cy="83.5" r="26.1" fill="#1e3a5f" opacity="0.26"/><circle cx="395.8" cy="136.3" r="26.1" fill="#1e3a5f" opacity="0.26"/><circle cx="423.7" cy="178.8" r="26.1" fill="#1e3a5f" opacity="0.26"/><circle cx="176.8" cy="388.2" r="26.1" fill="#1e3a5f" opacity="0.26"/><circle cx="171.0" cy="232.4" r="26.1" fill="#1e3a5f" opacity="0.26"/><circle cx="384.7" cy="299.1" r="26.1" fill="#1e3a5f" opacity="0.26"/><circle cx="186.9" cy="470.1" r="26.1" fill="#1e3a5f" opacity="0.26"/><circle cx="468.4" cy="482.5" r="26.1" fill="#1e3a5f" opacity="0.26"/><circle cx="314.1" cy="389.8" r="26.1" fill="#1e3a5f" opacity="0.26"/><circle cx="20.8" cy="245.1" r="26.1" fill="#1e3a5f" opacity="0.26"/><circle cx="156.2" cy="459.0" r="26.1" fill="#1e3a5f" opacity="0.26"/><circle cx="367.4" cy="264.6" r="26.1" fill="#1e3a5f" opacity="0.26"/><circle cx="127.5" cy="136.8" r="26.1" fill="#1e3a5f" opacity="0.26"/><circle cx="133.8" cy="203.1" r="26.1" fill="#1e3a5f" opacity="0.26"/><circle cx="113.3" cy="286.5" r="26.1" fill="#1e3a5f" opacity="0.26"/><circle cx="413.3" cy="142.1" r="26.1" fill="#1e3a5f" opacity="0.26"/><circle cx="381.7" cy="255.3" r="26.1" fill="#1e3a5f" opacity="0.26"/><circle cx="462.1" cy="103.7" r="26.1" fill="#1e3a5f" opacity="0.26"/><circle cx="347.1" cy="362.4" r="26.1" fill="#1e3a5f" opacity="0.26"/><circle cx="140.4" cy="436.9" r="26.1" fill="#1e3a5f" opacity="0.26"/><circle cx="419.2" cy="361.8" r="26.1" fill="#1e3a5f" opacity="0.26"/><circle cx="60.7" cy="425.9" r="26.1" fill="#1e3a5f" opacity="0.26"/><circle cx="194.2" cy="300.5" r="26.1" fill="#1e3a5f" opacity="0.26"/><circle cx="141.8" cy="153.2" r="26.1" fill="#1e3a5f" opacity="0.26"/><circle cx="284.2" cy="372.2" r="26.1" fill="#1e3a5f" opacity="0.26"/><circle cx="394.2" cy="447.1" r="26.1" fill="#1e3a5f" opacity="0.26"/><circle cx="407.3" cy="334.0" r="26.1" fill="#1e3a5f" opacity="0.26"/><circle cx="403.3" cy="463.0" r="26.1" fill="#1e3a5f" opacity="0.26"/><circle cx="352.4" cy="335.5" r="26.1" fill="#1e3a5f" opacity="0.26"/><circle cx="328.7" cy="357.6" r="26.1" fill="#1e3a5f" opacity="0.26"/><circle cx="371.6" cy="330.6" r="26.1" fill="#1e3a5f" opacity="0.26"/><circle cx="294.4" cy="487.3" r="26.1" fill="#1e3a5f" opacity="0.26"/><circle cx="117.0" cy="463.5" r="26.1" fill="#1e3a5f" opacity="0.26"/><circle cx="161.8" cy="270.5" r="26.1" fill="#1e3a5f" opacity="0.26"/><circle cx="137.3" cy="479.4" r="26.1" fill="#1e3a5f" opacity="0.26"/><circle cx="310.0" cy="452.8" r="26.1" fill="#1e3a5f" opacity="0.26"/><circle cx="335.7" cy="89.0" r="26.1" fill="#1e3a5f" opacity="0.26"/><circle cx="101.4" cy="402.2" r="26.1" fill="#1e3a5f" opacity="0.26"/><circle cx="120.9" cy="230.9" r="26.1" fill="#1e3a5f" opacity="0.26"/><circle cx="394.3" cy="327.1" r="26.1" fill="#1e3a5f" opacity="0.26"/><circle cx="307.6" cy="403.7" r="26.1" fill="#1e3a5f" opacity="0.26"/><circle cx="96.3" cy="292.4" r="26.1" fill="#1e3a5f" opacity="0.26"/><circle cx="333.3" cy="496.3" r="26.1" fill="#1e3a5f" opacity="0.26"/><circle cx="289.1" cy="508.4" r="26.1" fill="#1e3a5f" opacity="0.26"/><circle cx="241.8" cy="118.2" r="26.1" fill="#1e3a5f" opacity="0.26"/><circle cx="253.4" cy="176.1" r="26.1" fill="#1e3a5f" opacity="0.26"/><circle cx="438.3" cy="398.6" r="26.1" fill="#1e3a5f" opacity="0.26"/><circle cx="387.6" cy="380.7" r="26.1" fill="#1e3a5f" opacity="0.26"/><circle cx="459.2" cy="162.7" r="26.1" fill="#1e3a5f" opacity="0.26"/><circle cx="156.8" cy="180.9" r="26.1" fill="#1e3a5f" opacity="0.26"/><circle cx="207.2" cy="93.2" r="26.1" fill="#1e3a5f" opacity="0.26"/><circle cx="370.4" cy="55.2" r="26.1" fill="#1e3a5f" opacity="0.26"/><circle cx="244.5" cy="511.9" r="26.1" fill="#1e3a5f" opacity="0.26"/><circle cx="18.0" cy="180.9" r="26.1" fill="#1e3a5f" opacity="0.26"/><circle cx="438.1" cy="234.6" r="26.1" fill="#1e3a5f" opacity="0.26"/><circle cx="73.4" cy="247.4" r="26.1" fill="#1e3a5f" opacity="0.26"/><circle cx="253.4" cy="113.4" r="26.1" fill="#1e3a5f" opacity="0.26"/><circle cx="113.6" cy="143.6" r="26.1" fill="#1e3a5f" opacity="0.26"/><circle cx="382.2" cy="376.7" r="26.1" fill="#1e3a5f" opacity="0.26"/><circle cx="317.9" cy="126.6" r="26.1" fill="#1e3a5f" opacity="0.26"/><circle cx="194.6" cy="90.7" r="26.1" fill="#1e3a5f" opacity="0.26"/><circle cx="231.6" cy="375.0" r="26.1" fill="#1e3a5f" opacity="0.26"/><circle cx="121.6" cy="347.4" r="26.1" fill="#1e3a5f" opacity="0.26"/><circle cx="308.4" cy="473.8" r="26.1" fill="#1e3a5f" opacity="0.26"/><circle cx="373.2" cy="141.9" r="26.1" fill="#1e3a5f" opacity="0.26"/><circle cx="217.9" cy="440.9" r="26.1" fill="#1e3a5f" opacity="0.26"/><circle cx="344.5" cy="166.3" r="26.1" fill="#1e3a5f" opacity="0.26"/><circle cx="205.2" cy="209.4" r="26.1" fill="#1e3a5f" opacity="0.26"/><circle cx="483.8" cy="418.9" r="26.1" fill="#1e3a5f" opacity="0.26"/><circle cx="261.8" cy="425.0" r="26.1" fill="#1e3a5f" opacity="0.26"/><circle cx="59.9" cy="434.6" r="26.1" fill="#1e3a5f" opacity="0.26"/><circle cx="241.1" cy="167.0" r="26.1" fill="#1e3a5f" opacity="0.26"/><circle cx="153.2" cy="331.0" r="26.1" fill="#1e3a5f" opacity="0.26"/><circle cx="412.0" cy="189.7" r="26.1" fill="#1e3a5f" opacity="0.26"/><circle cx="217.1" cy="373.5" r="26.1" fill="#1e3a5f" opacity="0.26"/><circle cx="210.1" cy="475.6" r="26.1" fill="#1e3a5f" opacity="0.26"/><circle cx="212.0" cy="82.3" r="26.1" fill="#1e3a5f" opacity="0.26"/><line x1="316.6" y1="316.6" x2="334.2" y2="282.7" stroke="#e2e8f0" stroke-width="0.9" opacity="0.5"/><line x1="298.4" y1="337.8" x2="311.4" y2="288.5" stroke="#e2e8f0" stroke-width="0.9" opacity="0.5"/><line x1="223.6" y1="245.9" x2="252.9" y2="285.1" stroke="#e2e8f0" stroke-width="0.9" opacity="0.5"/><line x1="307.7" y1="315.1" x2="296.2" y2="286.2" stroke="#e2e8f0" stroke-width="0.9" opacity="0.5"/><line x1="327.5" y1="314.4" x2="285.5" y2="309.1" stroke="#e2e8f0" stroke-width="0.9" opacity="0.5"/><line x1="317.7" y1="316.0" x2="292.3" y2="295.5" stroke="#e2e8f0" stroke-width="0.9" opacity="0.5"/><line x1="246.0" y1="244.1" x2="270.1" y2="290.3" stroke="#e2e8f0" stroke-width="0.9" opacity="0.5"/><line x1="292.4" y1="225.2" x2="287.2" y2="268.4" stroke="#e2e8f0" stroke-width="0.9" opacity="0.5"/><line x1="308.2" y1="320.4" x2="308.5" y2="272.1" stroke="#e2e8f0" stroke-width="0.9" opacity="0.5"/><line x1="318.6" y1="319.9" x2="297.5" y2="283.7" stroke="#e2e8f0" stroke-width="0.9" opacity="0.5"/><line x1="320.1" y1="337.6" x2="288.4" y2="328.6" stroke="#e2e8f0" stroke-width="0.9" opacity="0.5"/><line x1="237.8" y1="237.8" x2="242.4" y2="286.4" stroke="#e2e8f0" stroke-width="0.9" opacity="0.5"/><line x1="305.4" y1="286.0" x2="334.4" y2="293.2" stroke="#e2e8f0" stroke-width="0.9" opacity="0.5"/><line x1="236.3" y1="219.5" x2="275.1" y2="219.8" stroke="#e2e8f0" stroke-width="0.9" opacity="0.5"/><line x1="279.7" y1="324.4" x2="264.2" y2="275.3" stroke="#e2e8f0" stroke-width="0.9" opacity="0.5"/><line x1="331.3" y1="293.4" x2="337.2" y2="260.1" stroke="#e2e8f0" stroke-width="0.9" opacity="0.5"/><line x1="220.8" y1="316.4" x2="250.4" y2="270.7" stroke="#e2e8f0" stroke-width="0.9" opacity="0.5"/><line x1="292.6" y1="214.9" x2="280.1" y2="264.3" stroke="#e2e8f0" stroke-width="0.9" opacity="0.5"/><line x1="245.3" y1="229.2" x2="284.1" y2="249.0" stroke="#e2e8f0" stroke-width="0.9" opacity="0.5"/><line x1="231.4" y1="250.4" x2="249.9" y2="296.1" stroke="#e2e8f0" stroke-width="0.9" opacity="0.5"/><line x1="220.7" y1="234.3" x2="269.6" y2="252.2" stroke="#e2e8f0" stroke-width="0.9" opacity="0.5"/><line x1="220.3" y1="331.6" x2="232.3" y2="297.1" stroke="#e2e8f0" stroke-width="0.9" opacity="0.5"/><line x1="273.2" y1="330.9" x2="280.8" y2="277.3" stroke="#e2e8f0" stroke-width="0.9" opacity="0.5"/><line x1="269.8" y1="291.0" x2="223.0" y2="281.9" stroke="#e2e8f0" stroke-width="0.9" opacity="0.5"/><line x1="311.4" y1="288.5" x2="301.7" y2="256.4" stroke="#e2e8f0" stroke-width="0.9" opacity="0.5"/><line x1="264.4" y1="271.0" x2="310.5" y2="246.5" stroke="#e2e8f0" stroke-width="0.9" opacity="0.5"/><line x1="296.2" y1="286.2" x2="264.5" y2="243.9" stroke="#e2e8f0" stroke-width="0.9" opacity="0.5"/><line x1="277.7" y1="248.7" x2="245.0" y2="238.7" stroke="#e2e8f0" stroke-width="0.9" opacity="0.5"/><line x1="285.5" y1="309.1" x2="241.4" y2="319.1" stroke="#e2e8f0" stroke-width="0.9" opacity="0.5"/><line x1="270.1" y1="290.3" x2="288.8" y2="302.8" stroke="#e2e8f0" stroke-width="0.9" opacity="0.5"/><line x1="287.2" y1="268.4" x2="260.8" y2="316.3" stroke="#e2e8f0" stroke-width="0.9" opacity="0.5"/><line x1="308.5" y1="272.1" x2="299.5" y2="228.3" stroke="#e2e8f0" stroke-width="0.9" opacity="0.5"/><line x1="297.5" y1="283.7" x2="272.2" y2="237.7" stroke="#e2e8f0" stroke-width="0.9" opacity="0.5"/><line x1="264.5" y1="306.5" x2="222.9" y2="275.3" stroke="#e2e8f0" stroke-width="0.9" opacity="0.5"/><line x1="242.4" y1="286.4" x2="250.2" y2="323.9" stroke="#e2e8f0" stroke-width="0.9" opacity="0.5"/><line x1="334.4" y1="293.2" x2="337.5" y2="298.9" stroke="#e2e8f0" stroke-width="0.9" opacity="0.5"/><line x1="275.1" y1="219.8" x2="323.6" y2="233.9" stroke="#e2e8f0" stroke-width="0.9" opacity="0.5"/><line x1="264.2" y1="275.3" x2="223.2" y2="247.6" stroke="#e2e8f0" stroke-width="0.9" opacity="0.5"/><line x1="337.2" y1="260.1" x2="323.8" y2="244.0" stroke="#e2e8f0" stroke-width="0.9" opacity="0.5"/><line x1="250.4" y1="270.7" x2="301.8" y2="255.3" stroke="#e2e8f0" stroke-width="0.9" opacity="0.5"/><line x1="280.1" y1="264.3" x2="264.3" y2="314.6" stroke="#e2e8f0" stroke-width="0.9" opacity="0.5"/><line x1="284.1" y1="249.0" x2="314.8" y2="275.0" stroke="#e2e8f0" stroke-width="0.9" opacity="0.5"/><line x1="249.9" y1="296.1" x2="287.2" y2="333.7" stroke="#e2e8f0" stroke-width="0.9" opacity="0.5"/><line x1="269.6" y1="252.2" x2="322.4" y2="253.0" stroke="#e2e8f0" stroke-width="0.9" opacity="0.5"/><line x1="272.4" y1="267.2" x2="246.1" y2="277.7" stroke="#e2e8f0" stroke-width="0.9" opacity="0.5"/><line x1="280.8" y1="277.3" x2="258.9" y2="229.6" stroke="#e2e8f0" stroke-width="0.9" opacity="0.5"/><circle cx="316.6" cy="316.6" r="14.4" fill="#38bdf8" opacity="0.78" stroke="#0b0e13" stroke-width="0.5"/><circle cx="334.2" cy="282.7" r="26.1" fill="#fb923c" opacity="0.78" stroke="#0b0e13" stroke-width="0.5"/><circle cx="269.8" cy="291.0" r="26.1" fill="#fb923c" opacity="0.78" stroke="#0b0e13" stroke-width="0.5"/><circle cx="223.0" cy="281.9" r="26.1" fill="#fb923c" opacity="0.78" stroke="#0b0e13" stroke-width="0.5"/><circle cx="298.4" cy="337.8" r="14.4" fill="#38bdf8" opacity="0.78" stroke="#0b0e13" stroke-width="0.5"/><circle cx="311.4" cy="288.5" r="26.1" fill="#fb923c" opacity="0.78" stroke="#0b0e13" stroke-width="0.5"/><circle cx="301.7" cy="256.4" r="26.1" fill="#fb923c" opacity="0.78" stroke="#0b0e13" stroke-width="0.5"/><circle cx="223.6" cy="245.9" r="14.4" fill="#38bdf8" opacity="0.78" stroke="#0b0e13" stroke-width="0.5"/><circle cx="252.9" cy="285.1" r="26.1" fill="#fb923c" opacity="0.78" stroke="#0b0e13" stroke-width="0.5"/><circle cx="264.4" cy="271.0" r="26.1" fill="#fb923c" opacity="0.78" stroke="#0b0e13" stroke-width="0.5"/><circle cx="310.5" cy="246.5" r="26.1" fill="#fb923c" opacity="0.78" stroke="#0b0e13" stroke-width="0.5"/><circle cx="307.7" cy="315.1" r="14.4" fill="#38bdf8" opacity="0.78" stroke="#0b0e13" stroke-width="0.5"/><circle cx="296.2" cy="286.2" r="26.1" fill="#fb923c" opacity="0.78" stroke="#0b0e13" stroke-width="0.5"/><circle cx="264.5" cy="243.9" r="26.1" fill="#fb923c" opacity="0.78" stroke="#0b0e13" stroke-width="0.5"/><circle cx="277.7" cy="248.7" r="26.1" fill="#fb923c" opacity="0.78" stroke="#0b0e13" stroke-width="0.5"/><circle cx="245.0" cy="238.7" r="26.1" fill="#fb923c" opacity="0.78" stroke="#0b0e13" stroke-width="0.5"/><circle cx="327.5" cy="314.4" r="14.4" fill="#38bdf8" opacity="0.78" stroke="#0b0e13" stroke-width="0.5"/><circle cx="285.5" cy="309.1" r="26.1" fill="#fb923c" opacity="0.78" stroke="#0b0e13" stroke-width="0.5"/><circle cx="241.4" cy="319.1" r="26.1" fill="#fb923c" opacity="0.78" stroke="#0b0e13" stroke-width="0.5"/><circle cx="317.7" cy="316.0" r="14.4" fill="#38bdf8" opacity="0.78" stroke="#0b0e13" stroke-width="0.5"/><circle cx="292.3" cy="295.5" r="26.1" fill="#fb923c" opacity="0.78" stroke="#0b0e13" stroke-width="0.5"/><circle cx="246.0" cy="244.1" r="14.4" fill="#38bdf8" opacity="0.78" stroke="#0b0e13" stroke-width="0.5"/><circle cx="270.1" cy="290.3" r="26.1" fill="#fb923c" opacity="0.78" stroke="#0b0e13" stroke-width="0.5"/><circle cx="288.8" cy="302.8" r="26.1" fill="#fb923c" opacity="0.78" stroke="#0b0e13" stroke-width="0.5"/><circle cx="292.4" cy="225.2" r="14.4" fill="#38bdf8" opacity="0.78" stroke="#0b0e13" stroke-width="0.5"/><circle cx="287.2" cy="268.4" r="26.1" fill="#fb923c" opacity="0.78" stroke="#0b0e13" stroke-width="0.5"/><circle cx="260.8" cy="316.3" r="26.1" fill="#fb923c" opacity="0.78" stroke="#0b0e13" stroke-width="0.5"/><circle cx="308.2" cy="320.4" r="14.4" fill="#38bdf8" opacity="0.78" stroke="#0b0e13" stroke-width="0.5"/><circle cx="308.5" cy="272.1" r="26.1" fill="#fb923c" opacity="0.78" stroke="#0b0e13" stroke-width="0.5"/><circle cx="299.5" cy="228.3" r="26.1" fill="#fb923c" opacity="0.78" stroke="#0b0e13" stroke-width="0.5"/><circle cx="318.6" cy="319.9" r="14.4" fill="#38bdf8" opacity="0.78" stroke="#0b0e13" stroke-width="0.5"/><circle cx="297.5" cy="283.7" r="26.1" fill="#fb923c" opacity="0.78" stroke="#0b0e13" stroke-width="0.5"/><circle cx="272.2" cy="237.7" r="26.1" fill="#fb923c" opacity="0.78" stroke="#0b0e13" stroke-width="0.5"/><circle cx="264.5" cy="306.5" r="26.1" fill="#fb923c" opacity="0.78" stroke="#0b0e13" stroke-width="0.5"/><circle cx="222.9" cy="275.3" r="26.1" fill="#fb923c" opacity="0.78" stroke="#0b0e13" stroke-width="0.5"/><circle cx="320.1" cy="337.6" r="14.4" fill="#38bdf8" opacity="0.78" stroke="#0b0e13" stroke-width="0.5"/><circle cx="288.4" cy="328.6" r="26.1" fill="#fb923c" opacity="0.78" stroke="#0b0e13" stroke-width="0.5"/><circle cx="237.8" cy="237.8" r="14.4" fill="#38bdf8" opacity="0.78" stroke="#0b0e13" stroke-width="0.5"/><circle cx="242.4" cy="286.4" r="26.1" fill="#fb923c" opacity="0.78" stroke="#0b0e13" stroke-width="0.5"/><circle cx="250.2" cy="323.9" r="26.1" fill="#fb923c" opacity="0.78" stroke="#0b0e13" stroke-width="0.5"/><circle cx="305.4" cy="286.0" r="14.4" fill="#38bdf8" opacity="0.78" stroke="#0b0e13" stroke-width="0.5"/><circle cx="334.4" cy="293.2" r="26.1" fill="#fb923c" opacity="0.78" stroke="#0b0e13" stroke-width="0.5"/><circle cx="337.5" cy="298.9" r="26.1" fill="#fb923c" opacity="0.78" stroke="#0b0e13" stroke-width="0.5"/><circle cx="236.3" cy="219.5" r="14.4" fill="#38bdf8" opacity="0.78" stroke="#0b0e13" stroke-width="0.5"/><circle cx="275.1" cy="219.8" r="26.1" fill="#fb923c" opacity="0.78" stroke="#0b0e13" stroke-width="0.5"/><circle cx="323.6" cy="233.9" r="26.1" fill="#fb923c" opacity="0.78" stroke="#0b0e13" stroke-width="0.5"/><circle cx="279.7" cy="324.4" r="14.4" fill="#38bdf8" opacity="0.78" stroke="#0b0e13" stroke-width="0.5"/><circle cx="264.2" cy="275.3" r="26.1" fill="#fb923c" opacity="0.78" stroke="#0b0e13" stroke-width="0.5"/><circle cx="223.2" cy="247.6" r="26.1" fill="#fb923c" opacity="0.78" stroke="#0b0e13" stroke-width="0.5"/><circle cx="331.3" cy="293.4" r="14.4" fill="#38bdf8" opacity="0.78" stroke="#0b0e13" stroke-width="0.5"/><circle cx="337.2" cy="260.1" r="26.1" fill="#fb923c" opacity="0.78" stroke="#0b0e13" stroke-width="0.5"/><circle cx="323.8" cy="244.0" r="26.1" fill="#fb923c" opacity="0.78" stroke="#0b0e13" stroke-width="0.5"/><circle cx="220.8" cy="316.4" r="14.4" fill="#38bdf8" opacity="0.78" stroke="#0b0e13" stroke-width="0.5"/><circle cx="250.4" cy="270.7" r="26.1" fill="#fb923c" opacity="0.78" stroke="#0b0e13" stroke-width="0.5"/><circle cx="301.8" cy="255.3" r="26.1" fill="#fb923c" opacity="0.78" stroke="#0b0e13" stroke-width="0.5"/><circle cx="292.6" cy="214.9" r="14.4" fill="#38bdf8" opacity="0.78" stroke="#0b0e13" stroke-width="0.5"/><circle cx="280.1" cy="264.3" r="26.1" fill="#fb923c" opacity="0.78" stroke="#0b0e13" stroke-width="0.5"/><circle cx="264.3" cy="314.6" r="26.1" fill="#fb923c" opacity="0.78" stroke="#0b0e13" stroke-width="0.5"/><circle cx="245.3" cy="229.2" r="14.4" fill="#38bdf8" opacity="0.78" stroke="#0b0e13" stroke-width="0.5"/><circle cx="284.1" cy="249.0" r="26.1" fill="#fb923c" opacity="0.78" stroke="#0b0e13" stroke-width="0.5"/><circle cx="314.8" cy="275.0" r="26.1" fill="#fb923c" opacity="0.78" stroke="#0b0e13" stroke-width="0.5"/><circle cx="231.4" cy="250.4" r="14.4" fill="#38bdf8" opacity="0.78" stroke="#0b0e13" stroke-width="0.5"/><circle cx="249.9" cy="296.1" r="26.1" fill="#fb923c" opacity="0.78" stroke="#0b0e13" stroke-width="0.5"/><circle cx="287.2" cy="333.7" r="26.1" fill="#fb923c" opacity="0.78" stroke="#0b0e13" stroke-width="0.5"/><circle cx="220.7" cy="234.3" r="14.4" fill="#38bdf8" opacity="0.78" stroke="#0b0e13" stroke-width="0.5"/><circle cx="269.6" cy="252.2" r="26.1" fill="#fb923c" opacity="0.78" stroke="#0b0e13" stroke-width="0.5"/><circle cx="322.4" cy="253.0" r="26.1" fill="#fb923c" opacity="0.78" stroke="#0b0e13" stroke-width="0.5"/><circle cx="220.3" cy="331.6" r="14.4" fill="#38bdf8" opacity="0.78" stroke="#0b0e13" stroke-width="0.5"/><circle cx="232.3" cy="297.1" r="26.1" fill="#fb923c" opacity="0.78" stroke="#0b0e13" stroke-width="0.5"/><circle cx="272.4" cy="267.2" r="26.1" fill="#fb923c" opacity="0.78" stroke="#0b0e13" stroke-width="0.5"/><circle cx="246.1" cy="277.7" r="26.1" fill="#fb923c" opacity="0.78" stroke="#0b0e13" stroke-width="0.5"/><circle cx="273.2" cy="330.9" r="14.4" fill="#38bdf8" opacity="0.78" stroke="#0b0e13" stroke-width="0.5"/><circle cx="280.8" cy="277.3" r="26.1" fill="#fb923c" opacity="0.78" stroke="#0b0e13" stroke-width="0.5"/><circle cx="258.9" cy="229.6" r="26.1" fill="#fb923c" opacity="0.78" stroke="#0b0e13" stroke-width="0.5"/><rect x="0" y="518" width="560" height="42" fill="#0b0e13" opacity="0.92"/><text x="9" y="535" fill="#e2e8f0" font-family="monospace" font-size="12">3-D, head_sigma 0.55, t=16000</text><text x="9" y="552" fill="#94a3b8" font-family="monospace" font-size="11">splay 1.022 (bilayer 0.00)  enrich 2.14 (micelle 3.0)  packing 0.427   slab 2.0 thick, 74 lipid beads shown</text></svg>