<svg xmlns="http://www.w3.org/2000/svg" width="780" height="832" viewBox="0 0 780 832"><rect width="780" height="832" fill="#080b12"/><circle cx="177.5" cy="760.3" r="4.4" fill="#ff9840" fill-opacity="0.96"/><circle cx="36.7" cy="685.0" r="4.4" fill="#ff9840" fill-opacity="0.96"/><circle cx="25.7" cy="714.7" r="4.4" fill="#ff9840" fill-opacity="0.96"/><circle cx="11.3" cy="686.0" r="4.4" fill="#ff9840" fill-opacity="0.96"/><circle cx="714.3" cy="682.6" r="4.4" fill="#ff9840" fill-opacity="0.96"/><circle cx="765.8" cy="699.1" r="4.4" fill="#ff9840" fill-opacity="0.96"/><circle cx="738.9" cy="702.6" r="4.4" fill="#ff9840" fill-opacity="0.96"/><circle cx="584.5" cy="708.5" r="4.4" fill="#ff9840" fill-opacity="0.96"/><circle cx="614.5" cy="703.1" r="4.4" fill="#ff9840" fill-opacity="0.96"/><circle cx="644.0" cy="686.7" r="4.4" fill="#ff9840" fill-opacity="0.96"/><circle cx="636.1" cy="726.9" r="4.4" fill="#ff9840" fill-opacity="0.96"/><circle cx="667.8" cy="705.3" r="4.4" fill="#ff9840" fill-opacity="0.96"/><circle cx="726.6" cy="723.5" r="4.4" fill="#ff9840" fill-opacity="0.96"/><circle cx="708.4" cy="705.0" r="4.4" fill="#ff9840" fill-opacity="0.96"/><circle cx="690.9" cy="725.6" r="4.4" fill="#ff9840" fill-opacity="0.96"/><circle cx="683.9" cy="684.5" r="4.4" fill="#ff9840" fill-opacity="0.96"/><circle cx="765.8" cy="725.6" r="4.4" fill="#ff9840" fill-opacity="0.96"/><circle cx="401.3" cy="703.2" r="4.4" fill="#ff9840" fill-opacity="0.96"/><circle cx="32.2" cy="665.6" r="4.4" fill="#ff9840" fill-opacity="0.96"/><circle cx="29.6" cy="645.0" r="4.4" fill="#ff9840" fill-opacity="0.96"/><circle cx="10.6" cy="650.8" r="4.4" fill="#ff9840" fill-opacity="0.96"/><circle cx="60.4" cy="678.5" r="4.4" fill="#ff9840" fill-opacity="0.96"/><circle cx="62.5" cy="651.8" r="4.4" fill="#ff9840" fill-opacity="0.96"/><circle cx="520.5" cy="646.1" r="4.4" fill="#ff9840" fill-opacity="0.96"/><circle cx="552.0" cy="647.6" r="4.4" fill="#ff9840" fill-opacity="0.96"/><circle cx="589.7" cy="653.4" r="4.4" fill="#ff9840" fill-opacity="0.96"/><circle cx="630.7" cy="670.0" r="4.4" fill="#ff9840" fill-opacity="0.96"/><circle cx="618.3" cy="641.0" r="4.4" fill="#ff9840" fill-opacity="0.96"/><circle cx="644.6" cy="645.1" r="4.4" fill="#ff9840" fill-opacity="0.96"/><circle cx="662.1" cy="662.9" r="4.4" fill="#ff9840" fill-opacity="0.96"/><circle cx="728.4" cy="657.6" r="4.4" fill="#ff9840" fill-opacity="0.96"/><circle cx="691.9" cy="665.5" r="4.4" fill="#ff9840" fill-opacity="0.96"/><circle cx="690.1" cy="642.0" r="4.4" fill="#ff9840" fill-opacity="0.96"/><circle cx="712.3" cy="633.9" r="4.4" fill="#ff9840" fill-opacity="0.96"/><circle cx="741.1" cy="681.0" r="4.4" fill="#ff9840" fill-opacity="0.96"/><circle cx="767.5" cy="674.3" r="4.4" fill="#ff9840" fill-opacity="0.96"/><circle cx="766.6" cy="653.3" r="4.4" fill="#ff9840" fill-opacity="0.96"/><circle cx="744.1" cy="634.2" r="4.4" fill="#ff9840" fill-opacity="0.96"/><circle cx="570.5" cy="676.1" r="4.4" fill="#ff9840" fill-opacity="0.96"/><circle cx="536.9" cy="672.3" r="4.4" fill="#ff9840" fill-opacity="0.96"/><circle cx="604.4" cy="671.8" r="4.4" fill="#ff9840" fill-opacity="0.96"/><circle cx="569.2" cy="668.7" r="4.4" fill="#ff9840" fill-opacity="0.96"/><circle cx="138.3" cy="610.8" r="4.4" fill="#ff9840" fill-opacity="0.96"/><circle cx="26.7" cy="586.0" r="4.4" fill="#ff9840" fill-opacity="0.96"/><circle cx="89.2" cy="603.1" r="4.4" fill="#ff9840" fill-opacity="0.96"/><circle cx="59.0" cy="600.6" r="4.4" fill="#ff9840" fill-opacity="0.96"/><circle cx="105.8" cy="590.2" r="4.4" fill="#ff9840" fill-opacity="0.96"/><circle cx="133.6" cy="600.4" r="4.4" fill="#ff9840" fill-opacity="0.96"/><circle cx="26.9" cy="611.0" r="4.4" fill="#ff9840" fill-opacity="0.96"/><circle cx="8.6" cy="624.9" r="4.4" fill="#ff9840" fill-opacity="0.96"/><circle cx="5.7" cy="594.8" r="4.4" fill="#ff9840" fill-opacity="0.96"/><circle cx="50.6" cy="628.9" r="4.4" fill="#ff9840" fill-opacity="0.96"/><circle cx="81.0" cy="628.2" r="4.4" fill="#ff9840" fill-opacity="0.96"/><circle cx="627.7" cy="590.4" r="4.4" fill="#ff9840" fill-opacity="0.96"/><circle cx="654.8" cy="587.5" r="4.4" fill="#ff9840" fill-opacity="0.96"/><circle cx="683.4" cy="589.5" r="4.4" fill="#ff9840" fill-opacity="0.96"/><circle cx="712.1" cy="610.6" r="4.4" fill="#ff9840" fill-opacity="0.96"/><circle cx="740.7" cy="598.0" r="4.4" fill="#ff9840" fill-opacity="0.96"/><circle cx="763.1" cy="604.5" r="4.4" fill="#ff9840" fill-opacity="0.96"/><circle cx="766.0" cy="627.1" r="4.4" fill="#ff9840" fill-opacity="0.96"/><circle cx="434.7" cy="591.2" r="4.4" fill="#ff9840" fill-opacity="0.96"/><circle cx="392.4" cy="590.0" r="4.4" fill="#ff9840" fill-opacity="0.96"/><circle cx="472.0" cy="601.5" r="4.4" fill="#ff9840" fill-opacity="0.96"/><circle cx="528.5" cy="589.9" r="4.4" fill="#ff9840" fill-opacity="0.96"/><circle cx="512.7" cy="615.5" r="4.4" fill="#ff9840" fill-opacity="0.96"/><circle cx="501.6" cy="592.0" r="4.4" fill="#ff9840" fill-opacity="0.96"/><circle cx="576.7" cy="627.5" r="4.4" fill="#ff9840" fill-opacity="0.96"/><circle cx="557.9" cy="605.8" r="4.4" fill="#ff9840" fill-opacity="0.96"/><circle cx="536.8" cy="617.2" r="4.4" fill="#ff9840" fill-opacity="0.96"/><circle cx="583.7" cy="600.7" r="4.4" fill="#ff9840" fill-opacity="0.96"/><circle cx="618.7" cy="611.5" r="4.4" fill="#ff9840" fill-opacity="0.96"/><circle cx="600.0" cy="618.2" r="4.4" fill="#ff9840" fill-opacity="0.96"/><circle cx="666.8" cy="630.6" r="4.4" fill="#ff9840" fill-opacity="0.96"/><circle cx="635.9" cy="624.1" r="4.4" fill="#ff9840" fill-opacity="0.96"/><circle cx="658.4" cy="608.0" r="4.4" fill="#ff9840" fill-opacity="0.96"/><circle cx="685.0" cy="610.1" r="4.4" fill="#ff9840" fill-opacity="0.96"/><circle cx="413.9" cy="616.5" r="4.4" fill="#ff9840" fill-opacity="0.96"/><circle cx="446.7" cy="615.6" r="4.4" fill="#ff9840" fill-opacity="0.96"/><circle cx="491.3" cy="625.9" r="4.4" fill="#ff9840" fill-opacity="0.96"/><circle cx="282.8" cy="607.6" r="4.4" fill="#ff9840" fill-opacity="0.96"/><circle cx="60.6" cy="538.1" r="4.4" fill="#ff9840" fill-opacity="0.96"/><circle cx="93.8" cy="550.2" r="4.4" fill="#ff9840" fill-opacity="0.96"/><circle cx="115.4" cy="568.5" r="4.4" fill="#ff9840" fill-opacity="0.96"/><circle cx="4.9" cy="570.4" r="4.4" fill="#ff9840" fill-opacity="0.96"/><circle cx="17.2" cy="555.2" r="4.4" fill="#ff9840" fill-opacity="0.96"/><circle cx="43.2" cy="572.0" r="4.4" fill="#ff9840" fill-opacity="0.96"/><circle cx="34.8" cy="543.7" r="4.4" fill="#ff9840" fill-opacity="0.96"/><circle cx="64.3" cy="560.1" r="4.4" fill="#ff9840" fill-opacity="0.96"/><circle cx="89.4" cy="571.3" r="4.4" fill="#ff9840" fill-opacity="0.96"/><circle cx="66.0" cy="582.8" r="4.4" fill="#ff9840" fill-opacity="0.96"/><circle cx="705.5" cy="536.5" r="4.4" fill="#ff9840" fill-opacity="0.96"/><circle cx="736.6" cy="555.3" r="4.4" fill="#ff9840" fill-opacity="0.96"/><circle cx="763.6" cy="554.8" r="4.4" fill="#ff9840" fill-opacity="0.96"/><circle cx="492.7" cy="539.1" r="4.4" fill="#ff9840" fill-opacity="0.96"/><circle cx="576.7" cy="569.5" r="4.4" fill="#ff9840" fill-opacity="0.96"/><circle cx="544.9" cy="558.0" r="4.4" fill="#ff9840" fill-opacity="0.96"/><circle cx="585.6" cy="536.7" r="4.4" fill="#ff9840" fill-opacity="0.96"/><circle cx="602.2" cy="578.7" r="4.4" fill="#ff9840" fill-opacity="0.96"/><circle cx="609.9" cy="551.6" r="4.4" fill="#ff9840" fill-opacity="0.96"/><circle cx="635.3" cy="540.1" r="4.4" fill="#ff9840" fill-opacity="0.96"/><circle cx="666.3" cy="541.6" r="4.4" fill="#ff9840" fill-opacity="0.96"/><circle cx="659.7" cy="564.7" r="4.4" fill="#ff9840" fill-opacity="0.96"/><circle cx="634.7" cy="567.2" r="4.4" fill="#ff9840" fill-opacity="0.96"/><circle cx="731.2" cy="570.5" r="4.4" fill="#ff9840" fill-opacity="0.96"/><circle cx="683.6" cy="566.5" r="4.4" fill="#ff9840" fill-opacity="0.96"/><circle cx="708.1" cy="560.4" r="4.4" fill="#ff9840" fill-opacity="0.96"/><circle cx="711.0" cy="581.3" r="4.4" fill="#ff9840" fill-opacity="0.96"/><circle cx="758.0" cy="577.5" r="4.4" fill="#ff9840" fill-opacity="0.96"/><circle cx="363.1" cy="550.1" r="4.4" fill="#ff9840" fill-opacity="0.96"/><circle cx="390.0" cy="549.3" r="4.4" fill="#ff9840" fill-opacity="0.96"/><circle cx="414.4" cy="567.0" r="4.4" fill="#ff9840" fill-opacity="0.96"/><circle cx="435.9" cy="563.5" r="4.4" fill="#ff9840" fill-opacity="0.96"/><circle cx="462.8" cy="575.4" r="4.4" fill="#ff9840" fill-opacity="0.96"/><circle cx="439.3" cy="537.1" r="4.4" fill="#ff9840" fill-opacity="0.96"/><circle cx="469.0" cy="550.9" r="4.4" fill="#ff9840" fill-opacity="0.96"/><circle cx="522.1" cy="563.2" r="4.4" fill="#ff9840" fill-opacity="0.96"/><circle cx="491.8" cy="568.2" r="4.4" fill="#ff9840" fill-opacity="0.96"/><circle cx="558.3" cy="582.8" r="4.4" fill="#ff9840" fill-opacity="0.96"/><circle cx="363.1" cy="572.9" r="4.4" fill="#ff9840" fill-opacity="0.96"/><circle cx="98.0" cy="501.2" r="4.4" fill="#ff9840" fill-opacity="0.96"/><circle cx="309.3" cy="511.7" r="4.4" fill="#ff9840" fill-opacity="0.96"/><circle cx="14.3" cy="500.6" r="4.4" fill="#ff9840" fill-opacity="0.96"/><circle cx="33.3" cy="518.2" r="4.4" fill="#ff9840" fill-opacity="0.96"/><circle cx="40.2" cy="489.0" r="4.4" fill="#ff9840" fill-opacity="0.96"/><circle cx="80.4" cy="520.5" r="4.4" fill="#ff9840" fill-opacity="0.96"/><circle cx="50.0" cy="510.9" r="4.4" fill="#ff9840" fill-opacity="0.96"/><circle cx="771.8" cy="512.9" r="4.4" fill="#ff9840" fill-opacity="0.96"/><circle cx="747.8" cy="497.4" r="4.4" fill="#ff9840" fill-opacity="0.96"/><circle cx="9.1" cy="532.2" r="4.4" fill="#ff9840" fill-opacity="0.96"/><circle cx="561.9" cy="487.8" r="4.4" fill="#ff9840" fill-opacity="0.96"/><circle cx="620.7" cy="500.2" r="4.4" fill="#ff9840" fill-opacity="0.96"/><circle cx="588.6" cy="495.4" r="4.4" fill="#ff9840" fill-opacity="0.96"/><circle cx="648.8" cy="511.3" r="4.4" fill="#ff9840" fill-opacity="0.96"/><circle cx="654.2" cy="491.1" r="4.4" fill="#ff9840" fill-opacity="0.96"/><circle cx="683.7" cy="518.8" r="4.4" fill="#ff9840" fill-opacity="0.96"/><circle cx="707.9" cy="513.9" r="4.4" fill="#ff9840" fill-opacity="0.96"/><circle cx="683.0" cy="499.7" r="4.4" fill="#ff9840" fill-opacity="0.96"/><circle cx="713.6" cy="495.6" r="4.4" fill="#ff9840" fill-opacity="0.96"/><circle cx="733.1" cy="532.0" r="4.4" fill="#ff9840" fill-opacity="0.96"/><circle cx="764.5" cy="531.4" r="4.4" fill="#ff9840" fill-opacity="0.96"/><circle cx="737.0" cy="508.3" r="4.4" fill="#ff9840" fill-opacity="0.96"/><circle cx="449.4" cy="490.0" r="4.4" fill="#ff9840" fill-opacity="0.96"/><circle cx="468.9" cy="521.2" r="4.4" fill="#ff9840" fill-opacity="0.96"/><circle cx="480.0" cy="492.3" r="4.4" fill="#ff9840" fill-opacity="0.96"/><circle cx="519.0" cy="532.9" r="4.4" fill="#ff9840" fill-opacity="0.96"/><circle cx="533.0" cy="509.4" r="4.4" fill="#ff9840" fill-opacity="0.96"/><circle cx="494.5" cy="514.2" r="4.4" fill="#ff9840" fill-opacity="0.96"/><circle cx="555.8" cy="535.6" r="4.4" fill="#ff9840" fill-opacity="0.96"/><circle cx="559.2" cy="506.7" r="4.4" fill="#ff9840" fill-opacity="0.96"/><circle cx="584.7" cy="516.2" r="4.4" fill="#ff9840" fill-opacity="0.96"/><circle cx="613.2" cy="520.8" r="4.4" fill="#ff9840" fill-opacity="0.96"/><circle cx="315.7" cy="489.4" r="4.4" fill="#ff9840" fill-opacity="0.96"/><circle cx="380.4" cy="527.2" r="4.4" fill="#ff9840" fill-opacity="0.96"/><circle cx="346.4" cy="517.3" r="4.4" fill="#ff9840" fill-opacity="0.96"/><circle cx="364.2" cy="499.9" r="4.4" fill="#ff9840" fill-opacity="0.96"/><circle cx="411.2" cy="531.6" r="4.4" fill="#ff9840" fill-opacity="0.96"/><circle cx="429.4" cy="513.1" r="4.4" fill="#ff9840" fill-opacity="0.96"/><circle cx="403.9" cy="503.6" r="4.4" fill="#ff9840" fill-opacity="0.96"/><circle cx="390.8" cy="487.5" r="4.4" fill="#ff9840" fill-opacity="0.96"/><circle cx="558.1" cy="491.6" r="4.4" fill="#ff9840" fill-opacity="0.96"/><circle cx="530.8" cy="451.4" r="4.4" fill="#ff9840" fill-opacity="0.96"/><circle cx="48.4" cy="439.2" r="4.4" fill="#ff9840" fill-opacity="0.96"/><circle cx="26.2" cy="444.3" r="4.4" fill="#ff9840" fill-opacity="0.96"/><circle cx="30.4" cy="472.3" r="4.4" fill="#ff9840" fill-opacity="0.96"/><circle cx="63.4" cy="487.2" r="4.4" fill="#ff9840" fill-opacity="0.96"/><circle cx="52.2" cy="462.1" r="4.4" fill="#ff9840" fill-opacity="0.96"/><circle cx="88.0" cy="467.5" r="4.4" fill="#ff9840" fill-opacity="0.96"/><circle cx="777.4" cy="458.0" r="4.4" fill="#ff9840" fill-opacity="0.96"/><circle cx="9.7" cy="482.0" r="4.4" fill="#ff9840" fill-opacity="0.96"/><circle cx="664.5" cy="453.0" r="4.4" fill="#ff9840" fill-opacity="0.96"/><circle cx="728.0" cy="479.1" r="4.4" fill="#ff9840" fill-opacity="0.96"/><circle cx="720.5" cy="454.3" r="4.4" fill="#ff9840" fill-opacity="0.96"/><circle cx="683.4" cy="446.9" r="4.4" fill="#ff9840" fill-opacity="0.96"/><circle cx="698.9" cy="472.4" r="4.4" fill="#ff9840" fill-opacity="0.96"/><circle cx="746.7" cy="462.1" r="4.4" fill="#ff9840" fill-opacity="0.96"/><circle cx="768.6" cy="485.9" r="4.4" fill="#ff9840" fill-opacity="0.96"/><circle cx="517.0" cy="463.6" r="4.4" fill="#ff9840" fill-opacity="0.96"/><circle cx="489.8" cy="440.5" r="4.4" fill="#ff9840" fill-opacity="0.96"/><circle cx="520.3" cy="439.2" r="4.4" fill="#ff9840" fill-opacity="0.96"/><circle cx="547.9" cy="462.4" r="4.4" fill="#ff9840" fill-opacity="0.96"/><circle cx="576.2" cy="470.3" r="4.4" fill="#ff9840" fill-opacity="0.96"/><circle cx="561.2" cy="440.8" r="4.4" fill="#ff9840" fill-opacity="0.96"/><circle cx="596.1" cy="460.8" r="4.4" fill="#ff9840" fill-opacity="0.96"/><circle cx="617.1" cy="477.4" r="4.4" fill="#ff9840" fill-opacity="0.96"/><circle cx="589.4" cy="441.5" r="4.4" fill="#ff9840" fill-opacity="0.96"/><circle cx="630.4" cy="452.2" r="4.4" fill="#ff9840" fill-opacity="0.96"/><circle cx="678.5" cy="475.4" r="4.4" fill="#ff9840" fill-opacity="0.96"/><circle cx="646.0" cy="476.0" r="4.4" fill="#ff9840" fill-opacity="0.96"/><circle cx="338.8" cy="463.4" r="4.4" fill="#ff9840" fill-opacity="0.96"/><circle cx="388.8" cy="445.7" r="4.4" fill="#ff9840" fill-opacity="0.96"/><circle cx="367.4" cy="471.7" r="4.4" fill="#ff9840" fill-opacity="0.96"/><circle cx="351.8" cy="447.0" r="4.4" fill="#ff9840" fill-opacity="0.96"/><circle cx="378.6" cy="456.4" r="4.4" fill="#ff9840" fill-opacity="0.96"/><circle cx="417.2" cy="446.6" r="4.4" fill="#ff9840" fill-opacity="0.96"/><circle cx="431.9" cy="467.8" r="4.4" fill="#ff9840" fill-opacity="0.96"/><circle cx="401.0" cy="468.6" r="4.4" fill="#ff9840" fill-opacity="0.96"/><circle cx="468.6" cy="468.0" r="4.4" fill="#ff9840" fill-opacity="0.96"/><circle cx="445.7" cy="448.4" r="4.4" fill="#ff9840" fill-opacity="0.96"/><circle cx="469.3" cy="446.8" r="4.4" fill="#ff9840" fill-opacity="0.96"/><circle cx="531.5" cy="485.4" r="4.4" fill="#ff9840" fill-opacity="0.96"/><circle cx="505.4" cy="486.9" r="4.4" fill="#ff9840" fill-opacity="0.96"/><circle cx="493.7" cy="459.4" r="4.4" fill="#ff9840" fill-opacity="0.96"/><circle cx="340.0" cy="484.3" r="4.4" fill="#ff9840" fill-opacity="0.96"/><circle cx="421.1" cy="483.1" r="4.4" fill="#ff9840" fill-opacity="0.96"/><circle cx="444.6" cy="441.4" r="4.4" fill="#ff9840" fill-opacity="0.96"/><circle cx="4.9" cy="395.1" r="4.4" fill="#ff9840" fill-opacity="0.96"/><circle cx="33.8" cy="415.2" r="4.4" fill="#ff9840" fill-opacity="0.96"/><circle cx="8.2" cy="417.9" r="4.4" fill="#ff9840" fill-opacity="0.96"/><circle cx="5.1" cy="434.7" r="4.4" fill="#ff9840" fill-opacity="0.96"/><circle cx="663.7" cy="395.9" r="4.4" fill="#ff9840" fill-opacity="0.96"/><circle cx="702.3" cy="396.1" r="4.4" fill="#ff9840" fill-opacity="0.96"/><circle cx="727.7" cy="421.7" r="4.4" fill="#ff9840" fill-opacity="0.96"/><circle cx="763.5" cy="398.9" r="4.4" fill="#ff9840" fill-opacity="0.96"/><circle cx="733.8" cy="398.1" r="4.4" fill="#ff9840" fill-opacity="0.96"/><circle cx="763.9" cy="420.1" r="4.4" fill="#ff9840" fill-opacity="0.96"/><circle cx="515.0" cy="406.1" r="4.4" fill="#ff9840" fill-opacity="0.96"/><circle cx="562.3" cy="411.2" r="4.4" fill="#ff9840" fill-opacity="0.96"/><circle cx="543.1" cy="394.4" r="4.4" fill="#ff9840" fill-opacity="0.96"/><circle cx="581.3" cy="393.3" r="4.4" fill="#ff9840" fill-opacity="0.96"/><circle cx="617.6" cy="418.1" r="4.4" fill="#ff9840" fill-opacity="0.96"/><circle cx="611.0" cy="390.2" r="4.4" fill="#ff9840" fill-opacity="0.96"/><circle cx="592.2" cy="413.6" r="4.4" fill="#ff9840" fill-opacity="0.96"/><circle cx="643.3" cy="432.4" r="4.4" fill="#ff9840" fill-opacity="0.96"/><circle cx="676.5" cy="418.7" r="4.4" fill="#ff9840" fill-opacity="0.96"/><circle cx="643.7" cy="404.4" r="4.4" fill="#ff9840" fill-opacity="0.96"/><circle cx="704.2" cy="428.4" r="4.4" fill="#ff9840" fill-opacity="0.96"/><circle cx="750.0" cy="437.7" r="4.4" fill="#ff9840" fill-opacity="0.96"/><circle cx="371.2" cy="426.0" r="4.4" fill="#ff9840" fill-opacity="0.96"/><circle cx="430.0" cy="409.4" r="4.4" fill="#ff9840" fill-opacity="0.96"/><circle cx="409.2" cy="429.7" r="4.4" fill="#ff9840" fill-opacity="0.96"/><circle cx="398.1" cy="407.5" r="4.4" fill="#ff9840" fill-opacity="0.96"/><circle cx="438.9" cy="432.4" r="4.4" fill="#ff9840" fill-opacity="0.96"/><circle cx="463.3" cy="423.1" r="4.4" fill="#ff9840" fill-opacity="0.96"/><circle cx="464.4" cy="398.6" r="4.4" fill="#ff9840" fill-opacity="0.96"/><circle cx="493.4" cy="413.0" r="4.4" fill="#ff9840" fill-opacity="0.96"/><circle cx="537.4" cy="421.8" r="4.4" fill="#ff9840" fill-opacity="0.96"/><circle cx="614.3" cy="435.5" r="4.4" fill="#ff9840" fill-opacity="0.96"/><circle cx="195.3" cy="427.1" r="4.4" fill="#ff9840" fill-opacity="0.96"/><circle cx="0.6" cy="379.1" r="4.4" fill="#ff9840" fill-opacity="0.96"/><circle cx="711.4" cy="358.7" r="4.4" fill="#ff9840" fill-opacity="0.96"/><circle cx="688.4" cy="348.7" r="4.4" fill="#ff9840" fill-opacity="0.96"/><circle cx="759.8" cy="383.6" r="4.4" fill="#ff9840" fill-opacity="0.96"/><circle cx="733.2" cy="352.8" r="4.4" fill="#ff9840" fill-opacity="0.96"/><circle cx="545.6" cy="343.1" r="4.4" fill="#ff9840" fill-opacity="0.96"/><circle cx="570.8" cy="355.2" r="4.4" fill="#ff9840" fill-opacity="0.96"/><circle cx="594.2" cy="371.2" r="4.4" fill="#ff9840" fill-opacity="0.96"/><circle cx="633.0" cy="384.4" r="4.4" fill="#ff9840" fill-opacity="0.96"/><circle cx="618.6" cy="358.2" r="4.4" fill="#ff9840" fill-opacity="0.96"/><circle cx="656.1" cy="366.0" r="4.4" fill="#ff9840" fill-opacity="0.96"/><circle cx="651.4" cy="347.3" r="4.4" fill="#ff9840" fill-opacity="0.96"/><circle cx="678.2" cy="359.8" r="4.4" fill="#ff9840" fill-opacity="0.96"/><circle cx="682.4" cy="380.1" r="4.4" fill="#ff9840" fill-opacity="0.96"/><circle cx="711.2" cy="375.3" r="4.4" fill="#ff9840" fill-opacity="0.96"/><circle cx="735.3" cy="378.3" r="4.4" fill="#ff9840" fill-opacity="0.96"/><circle cx="413.3" cy="361.5" r="4.4" fill="#ff9840" fill-opacity="0.96"/><circle cx="465.7" cy="373.0" r="4.4" fill="#ff9840" fill-opacity="0.96"/><circle cx="468.3" cy="347.7" r="4.4" fill="#ff9840" fill-opacity="0.96"/><circle cx="440.7" cy="360.0" r="4.4" fill="#ff9840" fill-opacity="0.96"/><circle cx="442.9" cy="341.5" r="4.4" fill="#ff9840" fill-opacity="0.96"/><circle cx="495.1" cy="362.7" r="4.4" fill="#ff9840" fill-opacity="0.96"/><circle cx="520.2" cy="385.3" r="4.4" fill="#ff9840" fill-opacity="0.96"/><circle cx="516.2" cy="347.1" r="4.4" fill="#ff9840" fill-opacity="0.96"/><circle cx="490.7" cy="382.2" r="4.4" fill="#ff9840" fill-opacity="0.96"/><circle cx="538.6" cy="363.0" r="4.4" fill="#ff9840" fill-opacity="0.96"/><circle cx="562.5" cy="380.4" r="4.4" fill="#ff9840" fill-opacity="0.96"/><circle cx="376.0" cy="388.8" r="4.4" fill="#ff9840" fill-opacity="0.96"/><circle cx="384.9" cy="355.2" r="4.4" fill="#ff9840" fill-opacity="0.96"/><circle cx="411.9" cy="384.1" r="4.4" fill="#ff9840" fill-opacity="0.96"/><circle cx="440.9" cy="387.2" r="4.4" fill="#ff9840" fill-opacity="0.96"/><circle cx="215.3" cy="385.2" r="4.4" fill="#ff9840" fill-opacity="0.96"/><circle cx="738.6" cy="328.1" r="4.4" fill="#ff9840" fill-opacity="0.96"/><circle cx="569.2" cy="301.8" r="4.4" fill="#ff9840" fill-opacity="0.96"/><circle cx="605.8" cy="297.4" r="4.4" fill="#ff9840" fill-opacity="0.96"/><circle cx="632.1" cy="301.0" r="4.4" fill="#ff9840" fill-opacity="0.96"/><circle cx="677.2" cy="320.0" r="4.4" fill="#ff9840" fill-opacity="0.96"/><circle cx="664.2" cy="336.1" r="4.4" fill="#ff9840" fill-opacity="0.96"/><circle cx="642.7" cy="316.7" r="4.4" fill="#ff9840" fill-opacity="0.96"/><circle cx="700.8" cy="337.3" r="4.4" fill="#ff9840" fill-opacity="0.96"/><circle cx="428.9" cy="310.6" r="4.4" fill="#ff9840" fill-opacity="0.96"/><circle cx="483.9" cy="310.6" r="4.4" fill="#ff9840" fill-opacity="0.96"/><circle cx="456.8" cy="321.3" r="4.4" fill="#ff9840" fill-opacity="0.96"/><circle cx="516.7" cy="328.6" r="4.4" fill="#ff9840" fill-opacity="0.96"/><circle cx="514.8" cy="305.2" r="4.4" fill="#ff9840" fill-opacity="0.96"/><circle cx="567.2" cy="328.0" r="4.4" fill="#ff9840" fill-opacity="0.96"/><circle cx="540.7" cy="323.1" r="4.4" fill="#ff9840" fill-opacity="0.96"/><circle cx="595.6" cy="340.3" r="4.4" fill="#ff9840" fill-opacity="0.96"/><circle cx="592.5" cy="315.2" r="4.4" fill="#ff9840" fill-opacity="0.96"/><circle cx="620.4" cy="328.4" r="4.4" fill="#ff9840" fill-opacity="0.96"/><circle cx="409.4" cy="336.3" r="4.4" fill="#ff9840" fill-opacity="0.96"/><circle cx="484.1" cy="330.2" r="4.4" fill="#ff9840" fill-opacity="0.96"/><circle cx="579.8" cy="288.5" r="4.4" fill="#ff9840" fill-opacity="0.96"/><circle cx="544.7" cy="289.6" r="4.4" fill="#ff9840" fill-opacity="0.96"/><circle cx="147.7" cy="274.1" r="4.4" fill="#ff9840" fill-opacity="0.96"/><circle cx="98.5" cy="253.0" r="4.4" fill="#ff9840" fill-opacity="0.96"/><circle cx="42.4" cy="232.5" r="4.4" fill="#ff9840" fill-opacity="0.96"/><circle cx="277.1" cy="187.1" r="4.4" fill="#ff9840" fill-opacity="0.96"/><circle cx="2.4" cy="185.0" r="4.4" fill="#ff9840" fill-opacity="0.96"/><circle cx="236.8" cy="159.5" r="4.4" fill="#ff9840" fill-opacity="0.96"/><circle cx="559.7" cy="110.1" r="4.4" fill="#ff9840" fill-opacity="0.96"/><circle cx="714.5" cy="26.3" r="4.4" fill="#ff9840" fill-opacity="0.96"/><text x="12" y="800" fill="#e8eef7" font-family="monospace" font-size="15">YLZ N=300 L=25, 2M steps (sheet needs 417, tube needs 367 -- both forbidden)</text><text x="12" y="820" fill="#8fa3bf" font-family="monospace" font-size="12.5">E_pair -2.24 per particle  |  L=25.0  |  xz plane, slab 25.0 rc along y</text></svg>